<svg xmlns="http://www.w3.org/2000/svg" viewBox="0 0 306.76 94.04"><defs><style>.cls-1{isolation:isolate;}.cls-2{mix-blend-mode:multiply;}.cls-3{fill:#fff;}</style></defs><title>Asset 10</title><g class="cls-1"><g id="Layer_2" data-name="Layer 2"><g id="Layer_1-2" data-name="Layer 1"><g class="cls-2"><path d="M44.09,73.76l.61-1.34a7.92,7.92,0,0,1,2.09-2.72q1.78-1,5.68,1a7.67,7.67,0,0,1,3.09,2.49,3.2,3.2,0,0,1,.38,2.45,10.22,10.22,0,0,1-1,2.46c-.44.82-.87,1.59-1.28,2.34a24.3,24.3,0,0,1-3,3.7,21.82,21.82,0,0,1-5.12,4.15,25.4,25.4,0,0,1-5.91,2.43,26.92,26.92,0,0,1-7.1.87,27.12,27.12,0,0,1-7.66-1.09,21.67,21.67,0,0,1-7.44-4,25.39,25.39,0,0,1-6.26-7.41,24.23,24.23,0,0,1-3.15-9,21.26,21.26,0,0,1,.36-8.19,25.32,25.32,0,0,1,3-7,26.71,26.71,0,0,1,9.52-9.55A21.86,21.86,0,0,1,26.85,43,22.87,22.87,0,0,1,32,42.32l1.84,0c.92,0,1.66.06,2.19.11a4,4,0,0,1,3,1.87,6.36,6.36,0,0,1,.62,3.87q-.46,4.37-2.24,5.39a7,7,0,0,1-3.65.41,11.4,11.4,0,0,0-7.53,1.73,14.49,14.49,0,0,0-5.86,6.77,11.19,11.19,0,0,0-.83,5.19,14.24,14.24,0,0,0,5.94,10.37,11.41,11.41,0,0,0,5,1.94,14.07,14.07,0,0,0,8.72-1.65A13.62,13.62,0,0,0,42.36,76,10.29,10.29,0,0,0,44.09,73.76Z"/><path d="M32.54,92.1h0A27.68,27.68,0,0,1,24.72,91a22.52,22.52,0,0,1-7.62-4.12,26.22,26.22,0,0,1-6.38-7.55,25,25,0,0,1-3.21-9.14,22.09,22.09,0,0,1,.38-8.39A25.42,25.42,0,0,1,11,54.64a27.28,27.28,0,0,1,9.69-9.73,22.54,22.54,0,0,1,6.08-2.35,22.92,22.92,0,0,1,5.3-.74l1.83,0c.94,0,1.69.06,2.24.11a4.51,4.51,0,0,1,3.43,2.12,6.81,6.81,0,0,1,.68,4.17c-.33,3.11-1.14,5-2.48,5.77a7.29,7.29,0,0,1-3.93.48,11,11,0,0,0-7.25,1.66,14,14,0,0,0-5.65,6.55,10.7,10.7,0,0,0-.79,5,12.87,12.87,0,0,0,1.76,5.62,12.7,12.7,0,0,0,4,4.36,11,11,0,0,0,4.77,1.85A13.69,13.69,0,0,0,39,77.91a13,13,0,0,0,3-2.29,9.41,9.41,0,0,0,1.65-2.08l.6-1.33a8.18,8.18,0,0,1,2.3-2.94c1.36-.78,3.37-.45,6.16,1A8.05,8.05,0,0,1,56,73a3.67,3.67,0,0,1,.42,2.82,10.94,10.94,0,0,1-1,2.58q-.66,1.23-1.29,2.34A23.42,23.42,0,0,1,51,84.49a22.3,22.3,0,0,1-5.24,4.24,26.1,26.1,0,0,1-6,2.48A27.51,27.51,0,0,1,32.54,92.1Zm0-1h0a26.73,26.73,0,0,0,7-.85,25.08,25.08,0,0,0,5.8-2.39,21.2,21.2,0,0,0,5-4,23.29,23.29,0,0,0,2.95-3.61l1.29-2.33a9.66,9.66,0,0,0,.93-2.35,2.65,2.65,0,0,0-.32-2.07,7.24,7.24,0,0,0-2.9-2.3c-2.42-1.26-4.17-1.6-5.19-1a7.38,7.38,0,0,0-1.91,2.54L44.54,74a10,10,0,0,1-1.83,2.33,14,14,0,0,1-3.2,2.47,14.65,14.65,0,0,1-9,1.71,12,12,0,0,1-5.21-2,14.71,14.71,0,0,1-6.16-10.76A11.63,11.63,0,0,1,20,62.29a15,15,0,0,1,6.06-7,11.92,11.92,0,0,1,7.86-1.78,6.22,6.22,0,0,0,3.32-.36c1-.59,1.7-2.27,2-5a5.83,5.83,0,0,0-.56-3.56A3.49,3.49,0,0,0,36,42.94c-.49,0-1.21-.08-2.13-.1l-1.82,0a23,23,0,0,0-5.06.71,21.74,21.74,0,0,0-5.82,2.25,26.36,26.36,0,0,0-9.33,9.38,24.74,24.74,0,0,0-3,6.88,21.11,21.11,0,0,0-.36,8,24.26,24.26,0,0,0,3.09,8.77,25,25,0,0,0,6.14,7.27A21.29,21.29,0,0,0,25,90a26.78,26.78,0,0,0,7.51,1.07Z"/><path d="M67.84,39.68a14,14,0,0,1,12,.93,18,18,0,0,1,8.35,10l4,10.91a21.7,21.7,0,0,1,.7,2.17,5.45,5.45,0,0,1,0,1.86c-.14,1.27-1.54,2.39-4.18,3.36s-4.29,1-5.3.12a5.08,5.08,0,0,1-1.2-1.46,20.17,20.17,0,0,1-.92-2.19l-4-10.85a5.7,5.7,0,0,0-2.88-3.44,5.21,5.21,0,0,0-4.14-.1A6.44,6.44,0,0,0,67,53.76a5.07,5.07,0,0,0-.82,3.71l4.41,12a21.7,21.7,0,0,1,.7,2.17,5.45,5.45,0,0,1,0,1.86c-.14,1.27-1.54,2.39-4.18,3.36s-4.4,1-5.39.08a6.37,6.37,0,0,1-1.12-1.42,20.26,20.26,0,0,1-.88-2.13L46.08,36.35a18.25,18.25,0,0,1-.69-2.18,5.6,5.6,0,0,1-.06-1.77q.26-2,4.22-3.45c2.61-.95,4.38-1,5.33-.05a5.36,5.36,0,0,1,1.19,1.42A19.49,19.49,0,0,1,57,32.43l5,13.7A9.79,9.79,0,0,1,67.84,39.68Z"/><path d="M63.69,78.12a3.3,3.3,0,0,1-2.34-.79,6.67,6.67,0,0,1-1.23-1.55,19.49,19.49,0,0,1-.91-2.2L45.61,36.52a20.64,20.64,0,0,1-.71-2.24,5.83,5.83,0,0,1-.06-1.94c.19-1.54,1.68-2.81,4.54-3.86s4.74-1,5.85.06a5.76,5.76,0,0,1,1.28,1.55,20.46,20.46,0,0,1,.91,2.17L62,44.73a9.89,9.89,0,0,1,5.67-5.51,14.56,14.56,0,0,1,12.46,1A18.54,18.54,0,0,1,88.7,50.45l4,10.91a18,18,0,0,1,.71,2.23,5.69,5.69,0,0,1,0,2c-.17,1.48-1.65,2.71-4.51,3.76s-4.62,1-5.79,0a5.7,5.7,0,0,1-1.33-1.61,22.87,22.87,0,0,1-.94-2.25l-4-10.85a5.26,5.26,0,0,0-2.62-3.16,4.71,4.71,0,0,0-3.76-.08A5.91,5.91,0,0,0,67.38,54a4.56,4.56,0,0,0-.76,3.34l4.39,12a18.72,18.72,0,0,1,.71,2.23,5.5,5.5,0,0,1,0,2c-.16,1.48-1.63,2.71-4.5,3.76A10.75,10.75,0,0,1,63.69,78.12ZM52.88,28.72a9.74,9.74,0,0,0-3.15.7c-2.45.9-3.76,1.92-3.9,3a5.19,5.19,0,0,0,0,1.6,20.45,20.45,0,0,0,.68,2.11l13.6,37.06A17.37,17.37,0,0,0,61,75.31a5.78,5.78,0,0,0,1,1.3c.81.74,2.45.68,4.86-.2s3.74-1.9,3.85-2.94a4.79,4.79,0,0,0,0-1.7,19,19,0,0,0-.68-2.11l-4.41-12a5.57,5.57,0,0,1,.86-4.14,7,7,0,0,1,3.64-3,5.77,5.77,0,0,1,4.53.11,6.19,6.19,0,0,1,3.14,3.73l4,10.84a21.84,21.84,0,0,0,.89,2.14,4.92,4.92,0,0,0,1.09,1.32c.85.71,2.47.64,4.8-.21s3.73-1.91,3.85-2.95a4.79,4.79,0,0,0,0-1.7,19.83,19.83,0,0,0-.67-2.11l-4-10.9a17.51,17.51,0,0,0-8.12-9.75A13.59,13.59,0,0,0,68,40.15h0a9.34,9.34,0,0,0-5.56,6.14L62,47.61l-5.51-15a20.37,20.37,0,0,0-.85-2,4.78,4.78,0,0,0-1.09-1.29A2.31,2.31,0,0,0,52.88,28.72Z"/><path d="M113.79,31.12c-.22-2.47,1.25-4,4.4-4.64a14,14,0,0,1,3.83-.35,2.78,2.78,0,0,1,2,1,5.49,5.49,0,0,1,.92,1.6,20.42,20.42,0,0,1,.54,2.21l4.46,22.67a20.67,20.67,0,0,1,.35,2.25,6.12,6.12,0,0,1-.22,1.83q-.57,1.86-4.1,2.56t-4.9.06a3.56,3.56,0,0,1-1.9-2.29q-1.72,3.9-7.32,5T100.44,60A17.18,17.18,0,0,1,93.3,49.05a17,17,0,0,1,2.49-12.8q3.83-6,9.59-7.17a10.28,10.28,0,0,1,4.17,0,9,9,0,0,1,2.81,1A9.72,9.72,0,0,1,113.79,31.12Zm-9.14,15.8a5.5,5.5,0,0,0,2.45,3.52,5.64,5.64,0,0,0,4.42.91,5.3,5.3,0,0,0,3.64-2.53,5.76,5.76,0,0,0,.82-4.17A6.09,6.09,0,0,0,113.69,41a5.18,5.18,0,0,0-4.44-1,5.37,5.37,0,0,0-3.79,2.63A6,6,0,0,0,104.65,46.92Z"/><path d="M109.5,63.79a16.1,16.1,0,0,1-9.36-3.39,17.76,17.76,0,0,1-7.33-11.25A17.56,17.56,0,0,1,95.37,36c2.61-4.12,5.95-6.61,9.91-7.39a10.91,10.91,0,0,1,4.37,0,9.48,9.48,0,0,1,3,1c.24.15.46.31.67.46.21-1.64,1.32-3.38,4.79-4.07a13.91,13.91,0,0,1,4-.35,3.25,3.25,0,0,1,2.32,1.21,5.9,5.9,0,0,1,1,1.75,20.7,20.7,0,0,1,.56,2.27l4.46,22.67a21.21,21.21,0,0,1,.36,2.32,7.08,7.08,0,0,1-.23,2c-.45,1.45-2,2.43-4.49,2.93s-4.19.5-5.21,0a3.8,3.8,0,0,1-1.73-1.59c-1.35,2.22-3.76,3.68-7.18,4.35A12.54,12.54,0,0,1,109.5,63.79Zm-1.94-34.43a10.71,10.71,0,0,0-2.08.21c-3.69.72-6.81,3.06-9.27,6.94a16.88,16.88,0,0,0,4.52,23.07c3.73,2.69,7.43,3.69,11,3s5.89-2.29,7-4.72l.54-1.21.4,1.26a3.05,3.05,0,0,0,1.63,2c.56.26,1.8.46,4.59-.09,2.15-.43,3.4-1.17,3.73-2.22a5.69,5.69,0,0,0,.19-1.64,20.94,20.94,0,0,0-.34-2.19L125,31.07a18.53,18.53,0,0,0-.53-2.15,5,5,0,0,0-.84-1.46,2.26,2.26,0,0,0-1.64-.83,13,13,0,0,0-3.68.35c-2.89.56-4.2,1.91-4,4.1l.11,1.32-1-.92a8.66,8.66,0,0,0-1.35-1,10.52,10.52,0,0,0-4.53-1.08ZM110.32,52a6.11,6.11,0,0,1-3.5-1.12A6,6,0,0,1,104.16,47,6.52,6.52,0,0,1,105,42.4a5.84,5.84,0,0,1,4.12-2.87A5.68,5.68,0,0,1,114,40.64a6.58,6.58,0,0,1,2.47,3.91,6.22,6.22,0,0,1-.89,4.52,5.72,5.72,0,0,1-4,2.77A6.27,6.27,0,0,1,110.32,52Zm.17-11.58a5.82,5.82,0,0,0-1.14.12,4.82,4.82,0,0,0-3.45,2.39,5.43,5.43,0,0,0-.75,3.92h0a4.9,4.9,0,0,0,2.23,3.2,5.06,5.06,0,0,0,4,.84,4.73,4.73,0,0,0,3.31-2.3,5.21,5.21,0,0,0,.76-3.81,5.61,5.61,0,0,0-2.12-3.33A4.42,4.42,0,0,0,110.49,40.39Z"/><path d="M156.38,23.52a4.41,4.41,0,0,1,2.16,1.23,4.61,4.61,0,0,1,1,3,10.41,10.41,0,0,1-1,4.69,4,4,0,0,1-3.48,2.72,5.13,5.13,0,0,1-2.31-.39,6.57,6.57,0,0,0-2.89-.36,5.21,5.21,0,0,0-3.26,1.45A3.78,3.78,0,0,0,145.26,39l.82,13.84a20.78,20.78,0,0,1,0,2.28,5.41,5.41,0,0,1-.52,1.78q-.9,1.77-5,2a7.35,7.35,0,0,1-4.62-.85,4,4,0,0,1-1.35-2.77c0-.44-.06-1.07-.11-1.91l-1.37-23.13a20.78,20.78,0,0,1,0-2.28,5.48,5.48,0,0,1,.46-1.71c.55-1.22,2.23-1.92,5-2.08q3.94-.24,5,1.22a3.8,3.8,0,0,1,.85,2.13,11.71,11.71,0,0,1,.89-1.18,12.5,12.5,0,0,1,2.57-1.93,7.77,7.77,0,0,1,3.52-1.34,17.18,17.18,0,0,1,2.62,0A15.42,15.42,0,0,1,156.38,23.52Z"/><path d="M139.62,59.44a6.69,6.69,0,0,1-4-1,4.42,4.42,0,0,1-1.56-3.1l-1.48-25.08a21.83,21.83,0,0,1,0-2.34,5.93,5.93,0,0,1,.5-1.88c.64-1.43,2.43-2.2,5.47-2.38,2.84-.17,4.63.3,5.46,1.42a4.67,4.67,0,0,1,.7,1.24L145,26a12.81,12.81,0,0,1,2.68-2,8.16,8.16,0,0,1,3.76-1.4,17,17,0,0,1,2.69,0,18,18,0,0,1,2.42.43h0a5,5,0,0,1,2.39,1.37A5.05,5.05,0,0,1,160,27.73a11,11,0,0,1-1,4.92,4.43,4.43,0,0,1-3.91,3,5.78,5.78,0,0,1-2.53-.43,6.05,6.05,0,0,0-2.67-.32A4.62,4.62,0,0,0,147,36.24,3.28,3.28,0,0,0,145.76,39l.82,13.84a21.92,21.92,0,0,1,0,2.34,5.83,5.83,0,0,1-.57,2c-.69,1.38-2.48,2.13-5.47,2.31Zm0-34.8c-.31,0-.65,0-1,0-2.6.15-4.15.75-4.61,1.78a4.75,4.75,0,0,0-.42,1.55,19.53,19.53,0,0,0,0,2.21l1.48,25a3.44,3.44,0,0,0,1.16,2.4,6.85,6.85,0,0,0,4.28.75c2.56-.15,4.12-.74,4.62-1.74a4.75,4.75,0,0,0,.47-1.6,19.59,19.59,0,0,0,0-2.21L144.76,39a4.3,4.3,0,0,1,1.54-3.52,5.72,5.72,0,0,1,3.56-1.58,7.35,7.35,0,0,1,3.12.39,4.62,4.62,0,0,0,2.08.36,3.44,3.44,0,0,0,3.05-2.42,10.14,10.14,0,0,0,.94-4.46,4.23,4.23,0,0,0-.87-2.69,3.94,3.94,0,0,0-1.92-1.1,17.06,17.06,0,0,0-2.26-.41,17.62,17.62,0,0,0-2.54,0,7.33,7.33,0,0,0-3.29,1.26,11.43,11.43,0,0,0-2.45,1.84,9.48,9.48,0,0,0-.84,1.12l-.83,1.32-.1-1.56a3.31,3.31,0,0,0-.74-1.85C142.69,25,141.45,24.64,139.59,24.64Z"/><path d="M164.9,29.06a19.11,19.11,0,0,1,.17-2.27,6.08,6.08,0,0,1,.62-1.73c.65-1.12,2.39-1.64,5.2-1.55,2.11.07,3.6.5,4.45,1.27a3.66,3.66,0,0,1,1.1,2.88c0,.44,0,1.08,0,1.91l-.76,23.1a19.11,19.11,0,0,1-.17,2.27,5.64,5.64,0,0,1-.69,1.73q-.91,1.68-5.14,1.55t-5-1.95a6.35,6.35,0,0,1-.5-1.74,18.08,18.08,0,0,1,0-2.31Zm11.25-11.88a2.78,2.78,0,0,1-1.79,1.3,11.46,11.46,0,0,1-3.34.28,11.22,11.22,0,0,1-3.32-.5A2.79,2.79,0,0,1,166,16.81a5.9,5.9,0,0,1-.53-1.76,19.5,19.5,0,0,1,0-2.28,21.21,21.21,0,0,1,.18-2.28,5.57,5.57,0,0,1,.61-1.66c.66-1.17,2.39-1.71,5.21-1.61s4.42.74,4.95,1.94a5.36,5.36,0,0,1,.57,1.77,19.5,19.5,0,0,1,0,2.28,18.66,18.66,0,0,1-.18,2.27A5.28,5.28,0,0,1,176.15,17.18Z"/><path d="M170.31,58.73h-.64c-3-.1-4.79-.83-5.46-2.24a6.69,6.69,0,0,1-.55-1.9,19.26,19.26,0,0,1,0-2.38l.76-23.15a17.63,17.63,0,0,1,.18-2.34,6.54,6.54,0,0,1,.66-1.88c.78-1.33,2.61-1.91,5.67-1.82,2.25.08,3.81.54,4.77,1.4a4.16,4.16,0,0,1,1.26,3.25c0,.43,0,1.07,0,1.93l-.76,23.09A17.94,17.94,0,0,1,176,55a5.82,5.82,0,0,1-.74,1.9C174.6,58.13,173,58.73,170.31,58.73ZM165.4,29.08l-.76,23.16a17,17,0,0,0,0,2.24,5.72,5.72,0,0,0,.46,1.59c.48,1,2,1.56,4.58,1.65s4.18-.36,4.68-1.29a4.83,4.83,0,0,0,.63-1.57,17.89,17.89,0,0,0,.17-2.21l.76-23.09c0-.82,0-1.45,0-1.87a3.18,3.18,0,0,0-.93-2.53c-.77-.7-2.16-1.08-4.13-1.15-2.57-.07-4.22.37-4.76,1.3a5.82,5.82,0,0,0-.56,1.56,20.29,20.29,0,0,0-.16,2.21Zm6.26-9.81H171a11.94,11.94,0,0,1-3.47-.53,3.26,3.26,0,0,1-2-1.71,6,6,0,0,1-.58-1.93,20.55,20.55,0,0,1,0-2.34,22.41,22.41,0,0,1,.18-2.34,6.27,6.27,0,0,1,.67-1.82c.77-1.36,2.62-2,5.67-1.87s4.77.83,5.39,2.24a5.63,5.63,0,0,1,.61,1.92,20.9,20.9,0,0,1,0,2.35,23.15,23.15,0,0,1-.18,2.34,5.88,5.88,0,0,1-.71,1.86h0A3.34,3.34,0,0,1,174.5,19,10.84,10.84,0,0,1,171.66,19.27Zm-.85-11.56c-2.25,0-3.64.46-4.15,1.36a5.09,5.09,0,0,0-.56,1.5,20.36,20.36,0,0,0-.17,2.21A18.42,18.42,0,0,0,166,15a4.84,4.84,0,0,0,.49,1.6,2.23,2.23,0,0,0,1.41,1.18,10.63,10.63,0,0,0,3.17.48,10.87,10.87,0,0,0,3.2-.27,2.32,2.32,0,0,0,1.49-1h0a4.84,4.84,0,0,0,.59-1.54,17.86,17.86,0,0,0,.17-2.2,21.49,21.49,0,0,0,0-2.22,5.15,5.15,0,0,0-.52-1.6c-.46-1-2-1.58-4.53-1.66Z"/><path d="M180.35,55.33a2.76,2.76,0,0,1-.92-2.65q.23-1.7,3.17-4.85a2.58,2.58,0,0,1,2.47-.81,9.68,9.68,0,0,1,4.14,2.18A10.1,10.1,0,0,0,194,51.45q4,.52,4.2-1.05.17-1.24-4.14-2.4a21.68,21.68,0,0,1-7.78-4.15,8.77,8.77,0,0,1-2.66-4.11,13.4,13.4,0,0,1-.46-6.15q1.35-10.35,15.55-8.49A23.39,23.39,0,0,1,208,28.58c1.43.9,2.08,1.87,2,2.92a7.85,7.85,0,0,1-2,3.67c-1.16,1.4-2.24,2-3.24,1.91a9,9,0,0,1-2.79-1.37,10.82,10.82,0,0,0-4.48-1.58q-3.87-.51-4.05.93-.25,2,4.11,3.14a24.7,24.7,0,0,1,8.06,3.58,7.55,7.55,0,0,1,2.76,3.59,11.5,11.5,0,0,1,.53,5.83,12.13,12.13,0,0,1-2,5.62,8.34,8.34,0,0,1-4,3.11,24.37,24.37,0,0,1-10.77.65A22.68,22.68,0,0,1,180.35,55.33Z"/><path d="M196.28,61.38a33.21,33.21,0,0,1-4.33-.3A23.25,23.25,0,0,1,180,55.71h0a3.23,3.23,0,0,1-1.09-3.09c.16-1.26,1.24-2.93,3.29-5.13a3.07,3.07,0,0,1,2.9-1,10,10,0,0,1,4.38,2.27A9.85,9.85,0,0,0,194,51c2.22.29,3.55.06,3.64-.62,0-.08,0-.84-3.78-1.86a22.31,22.31,0,0,1-8-4.24,9.42,9.42,0,0,1-2.82-4.34,14.11,14.11,0,0,1-.48-6.38c.47-3.59,2.09-6.17,4.82-7.66s6.48-1.88,11.3-1.25a23.8,23.8,0,0,1,9.46,3.54c1.61,1,2.35,2.16,2.18,3.41a8.19,8.19,0,0,1-2,3.93c-1.27,1.53-2.51,2.24-3.7,2.08a8.88,8.88,0,0,1-3-1.43,10.59,10.59,0,0,0-4.29-1.52c-2.1-.27-3.41-.08-3.49.51-.16,1.26,2,2.1,3.75,2.59a24.88,24.88,0,0,1,8.21,3.65,8,8,0,0,1,2.94,3.81,12,12,0,0,1,.57,6.08,12.86,12.86,0,0,1-2.12,5.86A9,9,0,0,1,203,60.4,21.23,21.23,0,0,1,196.28,61.38Zm-15.61-6.44a22.28,22.28,0,0,0,11.41,5.15,23.82,23.82,0,0,0,10.55-.64,7.8,7.8,0,0,0,3.78-2.92,11.79,11.79,0,0,0,2-5.4,11,11,0,0,0-.51-5.57,7,7,0,0,0-2.57-3.36,24.31,24.31,0,0,0-7.89-3.52c-3.24-.86-4.71-2.07-4.5-3.68.25-1.94,3.53-1.51,4.61-1.37a11.55,11.55,0,0,1,4.69,1.66,8,8,0,0,0,2.58,1.29c.82.11,1.76-.47,2.8-1.73a7.33,7.33,0,0,0,1.83-3.42c.11-.83-.47-1.65-1.72-2.43a22.85,22.85,0,0,0-9.06-3.4c-4.61-.6-8.2-.22-10.69,1.14s-3.87,3.6-4.31,6.91a13.14,13.14,0,0,0,.44,5.93,8.39,8.39,0,0,0,2.5,3.88,21.15,21.15,0,0,0,7.6,4c3.27.89,4.66,1.8,4.51,3-.27,2.06-3.65,1.62-4.76,1.48a10.75,10.75,0,0,1-5-2.36,9.19,9.19,0,0,0-3.9-2.07,2.07,2.07,0,0,0-2,.64c-2.36,2.52-3,3.88-3,4.59a2.24,2.24,0,0,0,.74,2.19Z"/><path d="M229.88,36.22q4.37-3.54,8.52-2.22a10.81,10.81,0,0,1,7.84,8.49,22,22,0,0,1,2.3-1.45,14.3,14.3,0,0,1,3.83-1.29,9.11,9.11,0,0,1,4.79.17,11.26,11.26,0,0,1,7.22,6.53q2.17,4.95-.65,13.88l-3.47,11a20.83,20.83,0,0,1-.78,2.14A5.16,5.16,0,0,1,258.35,75q-1.35,1.44-5.38.17c-2.64-.83-4.08-1.93-4.29-3.29a6,6,0,0,1,0-1.84,20.75,20.75,0,0,1,.59-2.2l3.48-11q1.72-5.48-2.18-6.7a3.23,3.23,0,0,0-3.45.5A9,9,0,0,0,245,54.43l-3.48,11a18.75,18.75,0,0,1-.79,2.17,5.24,5.24,0,0,1-1.11,1.45q-1.42,1.43-5.45.15t-4.29-3.29a6,6,0,0,1,0-1.84,20.75,20.75,0,0,1,.59-2.2l3.48-11q1.72-5.48-2.18-6.7t-5.5,4.28l-3.52,11.14a18.67,18.67,0,0,1-.78,2.14,5.29,5.29,0,0,1-1.12,1.48q-1.47,1.35-5.43.09c-2.65-.83-4.08-1.91-4.31-3.23a6.06,6.06,0,0,1,0-1.8,18.3,18.3,0,0,1,.6-2.24l7-22.16c.31-1,.57-1.67.78-2.14a4.65,4.65,0,0,1,1.11-1.41q1.47-1.41,5-.29t4.24,2.58A4.79,4.79,0,0,1,229.88,36.22Z"/><path d="M256.17,76.24a11.65,11.65,0,0,1-3.35-.62c-2.87-.91-4.38-2.11-4.64-3.69a6.73,6.73,0,0,1,0-2,18.79,18.79,0,0,1,.6-2.26l3.48-11a7,7,0,0,0,.32-4.11,3,3,0,0,0-2.17-2,2.76,2.76,0,0,0-2.95.39,8.78,8.78,0,0,0-2,3.63L242,65.6a19.83,19.83,0,0,1-.82,2.24A5.62,5.62,0,0,1,240,69.43c-1.1,1.1-3,1.19-5.95.27s-4.38-2.11-4.64-3.69a6.65,6.65,0,0,1,0-2,19.34,19.34,0,0,1,.6-2.27l3.48-11a7,7,0,0,0,.32-4.11,3,3,0,0,0-2.17-2,2.86,2.86,0,0,0-2.81.4,7.2,7.2,0,0,0-2.07,3.56l-3.51,11.14a18.35,18.35,0,0,1-.81,2.21,5.55,5.55,0,0,1-1.23,1.62c-1.13,1.05-3.07,1.11-5.92.21s-4.39-2.09-4.65-3.62a6.28,6.28,0,0,1,0-2,19,19,0,0,1,.61-2.3l7-22.16a18.18,18.18,0,0,1,.8-2.2A5.08,5.08,0,0,1,220.26,30c1.12-1.06,3-1.2,5.49-.4s4,1.72,4.54,2.84a4.63,4.63,0,0,1,.37,2.63,8.87,8.87,0,0,1,7.89-1.5,11.27,11.27,0,0,1,8,8.14c.53-.35,1.11-.71,1.74-1.06a14.87,14.87,0,0,1,4-1.34,9.77,9.77,0,0,1,5.05.18,11.8,11.8,0,0,1,7.52,6.81c1.5,3.39,1.29,8.18-.62,14.23l-3.48,11a18.18,18.18,0,0,1-.8,2.2,5.58,5.58,0,0,1-1.23,1.63A3.29,3.29,0,0,1,256.17,76.24Zm-7.1-26.91a5.38,5.38,0,0,1,1.64.28,4,4,0,0,1,2.82,2.61,7.84,7.84,0,0,1-.32,4.72l-3.47,11a19.35,19.35,0,0,0-.58,2.14,5.9,5.9,0,0,0,0,1.68c.19,1.14,1.51,2.12,4,2.88s4.11.77,4.87,0a5,5,0,0,0,1-1.35,20.31,20.31,0,0,0,.75-2.08l3.48-11c1.83-5.81,2.05-10.36.66-13.53A10.9,10.9,0,0,0,257,40.39a8.65,8.65,0,0,0-4.53-.15,14.24,14.24,0,0,0-3.7,1.23,22.47,22.47,0,0,0-2.24,1.43l-.62.45-.16-.75a10.29,10.29,0,0,0-7.51-8.13c-2.63-.83-5.26-.13-8.06,2.14l-1.29,1,.5-1.59a4.33,4.33,0,0,0,0-3.24c-.28-.58-1.19-1.46-3.94-2.33-2.15-.68-3.67-.62-4.51.18a4.05,4.05,0,0,0-1,1.26,17.78,17.78,0,0,0-.76,2.08l-7,22.16a20.23,20.23,0,0,0-.59,2.17,6.2,6.2,0,0,0,0,1.66c.19,1.09,1.53,2.05,4,2.81s4.11.78,4.94,0a4.89,4.89,0,0,0,1-1.32,20.42,20.42,0,0,0,.75-2.09l3.52-11.14a8,8,0,0,1,2.41-4,3.84,3.84,0,0,1,3.72-.56,4,4,0,0,1,2.82,2.61,7.84,7.84,0,0,1-.32,4.72L231,62a20.61,20.61,0,0,0-.58,2.14,5.62,5.62,0,0,0,0,1.69c.18,1.13,1.51,2.11,4,2.88s4.14.77,4.94,0a4.63,4.63,0,0,0,1-1.31,18.76,18.76,0,0,0,.76-2.11l3.48-11a9.52,9.52,0,0,1,2.21-4.05A3.18,3.18,0,0,1,249.07,49.33Z"/><path d="M295.85,62.26q2.1-3.06,6.34-.78a13.78,13.78,0,0,1,3.18,2.17,2.79,2.79,0,0,1,.89,2.05,5.86,5.86,0,0,1-.31,1.82,20.89,20.89,0,0,1-1,2L294,89.91a18.12,18.12,0,0,1-1.17,2,6,6,0,0,1-1.32,1.28c-1.09.71-2.68.5-4.8-.64s-3.38-2.16-3.81-3.07a3.54,3.54,0,0,1,0-3Q279,88.38,274,85.67t-6.85-9.62a17.21,17.21,0,0,1,1.45-13,17,17,0,0,1,10.07-8.3q6.78-2.22,12,.56A10.31,10.31,0,0,1,293.88,58a8.71,8.71,0,0,1,1.56,2.52A9.76,9.76,0,0,1,295.85,62.26Zm-17.1,6.38a5.49,5.49,0,0,0-.35,4.27,5.64,5.64,0,0,0,2.83,3.52,5.24,5.24,0,0,0,4.42.35,5.7,5.7,0,0,0,3.29-2.68,6.14,6.14,0,0,0,.53-4.26,5.21,5.21,0,0,0-2.78-3.6,5.38,5.38,0,0,0-4.6-.38A6,6,0,0,0,278.75,68.64Z"/><path d="M290,94a7.77,7.77,0,0,1-3.54-1.1c-2.23-1.2-3.55-2.28-4-3.3a3.83,3.83,0,0,1-.33-2.32c-2.45.85-5.24.44-8.31-1.21-3.46-1.87-5.85-5.21-7.09-9.94a17.71,17.71,0,0,1,1.49-13.34,17.52,17.52,0,0,1,10.35-8.53c4.64-1.52,8.8-1.32,12.36.59a11.05,11.05,0,0,1,3.38,2.77,9.74,9.74,0,0,1,1.64,2.69c.09.27.16.53.23.79,1.2-1.14,3.16-1.78,6.28-.1a14.06,14.06,0,0,1,3.3,2.26,3.29,3.29,0,0,1,1,2.42,6.06,6.06,0,0,1-.35,2,18.62,18.62,0,0,1-1,2.11l-11,20.33a19.45,19.45,0,0,1-1.2,2,7,7,0,0,1-1.43,1.38A3.15,3.15,0,0,1,290,94Zm-6.18-8.62-.49,1.22a3,3,0,0,0,0,2.57c.26.56,1.1,1.5,3.6,2.85,1.93,1,3.37,1.26,4.28.66a5.79,5.79,0,0,0,1.2-1.15,19.27,19.27,0,0,0,1.13-1.9l11-20.33a19.54,19.54,0,0,0,1-2,5.48,5.48,0,0,0,.28-1.66A2.28,2.28,0,0,0,305,64,13.76,13.76,0,0,0,302,61.92c-2.59-1.39-4.45-1.19-5.7.62l-.75,1.1-.16-1.32a9.06,9.06,0,0,0-.38-1.66,8.69,8.69,0,0,0-1.48-2.37,9.85,9.85,0,0,0-3.07-2.52c-3.3-1.78-7.19-2-11.56-.52a16.58,16.58,0,0,0-9.79,8,16.81,16.81,0,0,0-1.41,12.62c1.18,4.44,3.4,7.58,6.61,9.31s6,2,8.37.78Zm0-7.81a6,6,0,0,1-2.82-.74,6.12,6.12,0,0,1-3.07-3.82,6,6,0,0,1,.39-4.65h0a6.56,6.56,0,0,1,3.61-3,5.85,5.85,0,0,1,5,.41,5.68,5.68,0,0,1,3,3.94,6.61,6.61,0,0,1-.58,4.59,6.26,6.26,0,0,1-3.57,2.93A6.11,6.11,0,0,1,283.81,77.61Zm-4.62-8.73a4.94,4.94,0,0,0-.31,3.89A5.1,5.1,0,0,0,281.47,76a4.75,4.75,0,0,0,4,.32,5.2,5.2,0,0,0,3-2.45A5.67,5.67,0,0,0,289,70a4.67,4.67,0,0,0-2.53-3.27,4.84,4.84,0,0,0-4.18-.35,5.49,5.49,0,0,0-3.08,2.55Z"/></g><path class="cls-3" d="M36.81,67.05l.61-1.34A8,8,0,0,1,39.51,63c1.18-.67,3.08-.34,5.68,1a7.74,7.74,0,0,1,3.09,2.49,3.2,3.2,0,0,1,.38,2.45,10.22,10.22,0,0,1-1,2.46c-.44.82-.87,1.6-1.28,2.34a24.44,24.44,0,0,1-3,3.7,21.57,21.57,0,0,1-5.12,4.15A25,25,0,0,1,32.34,84a26.49,26.49,0,0,1-7.1.88,27.43,27.43,0,0,1-7.66-1.09,21.83,21.83,0,0,1-7.45-4,25.51,25.51,0,0,1-6.25-7.41,24.39,24.39,0,0,1-3.16-9,21.49,21.49,0,0,1,.37-8.2,25.32,25.32,0,0,1,3-7,26.63,26.63,0,0,1,9.52-9.55,21.53,21.53,0,0,1,5.94-2.3,21.78,21.78,0,0,1,5.18-.72h1.83c.93,0,1.66.07,2.2.11a4,4,0,0,1,3,1.87,6.31,6.31,0,0,1,.61,3.87c-.31,2.92-1,4.71-2.24,5.39a7,7,0,0,1-3.64.41A11.4,11.4,0,0,0,19,49a14.43,14.43,0,0,0-5.86,6.77,11.21,11.21,0,0,0-.83,5.2,14.15,14.15,0,0,0,5.94,10.37,11.39,11.39,0,0,0,5,1.93A14.11,14.11,0,0,0,32,71.64a13.5,13.5,0,0,0,3.09-2.38A9.86,9.86,0,0,0,36.81,67.05Z"/><path d="M25.25,85.4s0,0,0,0a27.74,27.74,0,0,1-7.79-1.12,22.48,22.48,0,0,1-7.62-4.11,26.13,26.13,0,0,1-6.38-7.56A24.94,24.94,0,0,1,.23,63.47a21.9,21.9,0,0,1,.38-8.39,25.54,25.54,0,0,1,3.08-7.15,27.28,27.28,0,0,1,9.69-9.73,22.75,22.75,0,0,1,6.08-2.35,22.67,22.67,0,0,1,5.3-.73h1.83c.94,0,1.69.07,2.23.12a4.5,4.5,0,0,1,3.44,2.11,6.83,6.83,0,0,1,.68,4.17c-.33,3.12-1.14,5-2.49,5.77a7.23,7.23,0,0,1-3.92.48,11.06,11.06,0,0,0-7.25,1.66A14,14,0,0,0,13.63,56a10.7,10.7,0,0,0-.79,5,13.68,13.68,0,0,0,5.72,10,11,11,0,0,0,4.76,1.86,13.72,13.72,0,0,0,8.42-1.59,13,13,0,0,0,3-2.29,9.41,9.41,0,0,0,1.65-2.08l.6-1.32a8.14,8.14,0,0,1,2.3-3c1.36-.78,3.37-.45,6.16,1a8.05,8.05,0,0,1,3.3,2.68,3.72,3.72,0,0,1,.42,2.82,10.62,10.62,0,0,1-1,2.58L46.82,74a23.42,23.42,0,0,1-3.08,3.8A22,22,0,0,1,38.5,82a25.49,25.49,0,0,1-6,2.48A27.1,27.1,0,0,1,25.25,85.4Zm0-1h0a26.32,26.32,0,0,0,7-.86A24.4,24.4,0,0,0,38,81.15a21,21,0,0,0,5-4.05,23.37,23.37,0,0,0,3-3.6c.41-.74.84-1.52,1.28-2.34a9.8,9.8,0,0,0,.94-2.34,2.67,2.67,0,0,0-.32-2.08A7.24,7.24,0,0,0,45,64.45c-2.42-1.26-4.17-1.61-5.19-1A7.15,7.15,0,0,0,37.85,66l-.59,1.31a10.62,10.62,0,0,1-1.83,2.34,14.23,14.23,0,0,1-3.2,2.46,14.65,14.65,0,0,1-9,1.71,12,12,0,0,1-5.21-2A14.66,14.66,0,0,1,11.84,61a11.65,11.65,0,0,1,.88-5.42,15,15,0,0,1,6.06-7,12,12,0,0,1,7.86-1.78A6.4,6.4,0,0,0,30,46.44c1-.59,1.7-2.28,2-5a5.85,5.85,0,0,0-.56-3.57,3.48,3.48,0,0,0-2.69-1.62c-.49-.05-1.21-.08-2.13-.11H24.75a21,21,0,0,0-5.06.7,21.74,21.74,0,0,0-5.82,2.25,26.28,26.28,0,0,0-9.33,9.38,25.07,25.07,0,0,0-3,6.88,21.13,21.13,0,0,0-.35,8,24.3,24.3,0,0,0,3.09,8.78,25.1,25.1,0,0,0,6.14,7.26,21.29,21.29,0,0,0,7.27,3.94,26.79,26.79,0,0,0,7.51,1.08Z"/><path class="cls-3" d="M60.56,33a14,14,0,0,1,12,.92,18,18,0,0,1,8.35,10l4,10.9A18.84,18.84,0,0,1,85.64,57a5.17,5.17,0,0,1,0,1.86c-.14,1.27-1.54,2.39-4.18,3.36s-4.29,1-5.3.11A5.28,5.28,0,0,1,75,60.88c-.24-.48-.54-1.21-.91-2.2l-4-10.85a5.7,5.7,0,0,0-2.88-3.44,5.23,5.23,0,0,0-4.15-.09,6.4,6.4,0,0,0-3.38,2.75,5.07,5.07,0,0,0-.82,3.71l4.41,12A18.82,18.82,0,0,1,64,65a5.18,5.18,0,0,1,0,1.86c-.14,1.27-1.54,2.4-4.18,3.37s-4.4,1-5.39.07a5.89,5.89,0,0,1-1.12-1.42,19.8,19.8,0,0,1-.89-2.13L38.8,29.64a18.82,18.82,0,0,1-.69-2.17,5.39,5.39,0,0,1-.06-1.78q.26-2,4.22-3.44c2.61-1,4.38-1,5.33-.06a5.58,5.58,0,0,1,1.19,1.43,20.36,20.36,0,0,1,.88,2.1l5,13.7Q56.4,34.5,60.56,33Z"/><path d="M56.4,71.42a3.34,3.34,0,0,1-2.34-.8,6.87,6.87,0,0,1-1.22-1.55,19.49,19.49,0,0,1-.91-2.2L38.33,29.81a20,20,0,0,1-.71-2.23,5.6,5.6,0,0,1-.06-1.94c.19-1.55,1.68-2.81,4.54-3.86s4.74-1,5.84,0a5.66,5.66,0,0,1,1.29,1.56,20.11,20.11,0,0,1,.91,2.16L54.71,38a9.89,9.89,0,0,1,5.67-5.51h0a14.56,14.56,0,0,1,12.46,1,18.59,18.59,0,0,1,8.58,10.29l4,10.9a19.34,19.34,0,0,1,.71,2.24,5.44,5.44,0,0,1,0,2c-.16,1.48-1.64,2.72-4.5,3.77s-4.62,1-5.79,0a5.8,5.8,0,0,1-1.33-1.61,21.9,21.9,0,0,1-.94-2.26L69.61,48A5.16,5.16,0,0,0,67,44.84a4.75,4.75,0,0,0-3.76-.08,5.91,5.91,0,0,0-3.13,2.55,4.58,4.58,0,0,0-.76,3.35l4.39,12a20.8,20.8,0,0,1,.71,2.23,5.5,5.5,0,0,1,0,2c-.16,1.48-1.64,2.71-4.5,3.76A10.55,10.55,0,0,1,56.4,71.42ZM45.6,22a9.58,9.58,0,0,0-3.16.7c-2.44.89-3.75,1.92-3.89,3a4.92,4.92,0,0,0,0,1.6,20.45,20.45,0,0,0,.68,2.11L52.86,66.53a22.29,22.29,0,0,0,.86,2.07,6.16,6.16,0,0,0,1,1.3c.82.75,2.46.69,4.86-.19s3.74-1.91,3.86-2.95a4.8,4.8,0,0,0,0-1.7,18.33,18.33,0,0,0-.68-2.1l-4.41-12a5.58,5.58,0,0,1,.86-4.14,7,7,0,0,1,3.64-3,5.69,5.69,0,0,1,4.53.11,6.17,6.17,0,0,1,3.14,3.72l4,10.85a23,23,0,0,0,.89,2.14A4.58,4.58,0,0,0,76.51,62c.85.71,2.47.64,4.8-.21s3.73-1.9,3.85-3a4.74,4.74,0,0,0,0-1.69A19,19,0,0,0,84.48,55l-4-10.91a17.55,17.55,0,0,0-8.12-9.75,13.56,13.56,0,0,0-11.63-.89h0a9.33,9.33,0,0,0-5.57,6.13L54.7,40.9l-5.5-15a17.86,17.86,0,0,0-.86-2,4.72,4.72,0,0,0-1.08-1.29A2.32,2.32,0,0,0,45.6,22Z"/><path class="cls-3" d="M106.51,24.41q-.33-3.7,4.4-4.63a13.6,13.6,0,0,1,3.83-.35,2.75,2.75,0,0,1,2,1,5.87,5.87,0,0,1,.92,1.6,18.44,18.44,0,0,1,.53,2.22l4.47,22.66a17.79,17.79,0,0,1,.34,2.26,5.68,5.68,0,0,1-.21,1.82q-.57,1.88-4.1,2.56t-4.9.06a3.56,3.56,0,0,1-1.9-2.29q-1.72,3.91-7.32,5T93.15,53.28A17.17,17.17,0,0,1,86,42.34a17,17,0,0,1,2.49-12.8q3.83-6,9.59-7.17a10.28,10.28,0,0,1,4.17,0,9.12,9.12,0,0,1,2.81,1A9.7,9.7,0,0,1,106.51,24.41Zm-9.14,15.8a5.48,5.48,0,0,0,2.45,3.52,5.6,5.6,0,0,0,4.42.91,5.23,5.23,0,0,0,3.63-2.53,5.71,5.71,0,0,0,.83-4.17,6.09,6.09,0,0,0-2.29-3.62,5.18,5.18,0,0,0-4.44-1,5.37,5.37,0,0,0-3.79,2.63A6,6,0,0,0,97.37,40.21Z"/><path d="M102.22,57.08a16,16,0,0,1-9.36-3.39,17.88,17.88,0,0,1-4.77-24.42c2.61-4.12,6-6.61,9.91-7.39a10.72,10.72,0,0,1,4.37,0,9.51,9.51,0,0,1,3,1c.24.16.46.31.67.47.21-1.65,1.32-3.39,4.79-4.07a14,14,0,0,1,4-.36,3.25,3.25,0,0,1,2.32,1.21,6.16,6.16,0,0,1,1,1.75,21,21,0,0,1,.56,2.28l4.46,22.67a18.19,18.19,0,0,1,.35,2.31,6.65,6.65,0,0,1-.22,2c-.45,1.46-2,2.43-4.5,2.93s-4.18.5-5.2,0a3.83,3.83,0,0,1-1.73-1.58c-1.35,2.21-3.77,3.67-7.19,4.34A12.36,12.36,0,0,1,102.22,57.08Zm-2-34.43a10.79,10.79,0,0,0-2.08.21c-3.68.73-6.8,3.06-9.26,7a16.88,16.88,0,0,0,4.52,23.07c3.73,2.68,7.43,3.69,11,3s5.89-2.28,7-4.72l.53-1.2.41,1.25a3.07,3.07,0,0,0,1.63,2c.56.25,1.8.45,4.59-.1,2.15-.42,3.4-1.17,3.72-2.22a5.37,5.37,0,0,0,.2-1.64,20.94,20.94,0,0,0-.34-2.19L117.7,24.36a19.08,19.08,0,0,0-.53-2.15,5,5,0,0,0-.84-1.46,2.33,2.33,0,0,0-1.64-.83,13.38,13.38,0,0,0-3.68.35c-2.89.57-4.2,1.91-4,4.1l.12,1.32-1-.92a7,7,0,0,0-4-1.93A9.77,9.77,0,0,0,100.27,22.65ZM103,45.26a6.09,6.09,0,0,1-3.51-1.12,6,6,0,0,1-2.65-3.84h0a6.52,6.52,0,0,1,.87-4.61,5.87,5.87,0,0,1,4.12-2.87,5.67,5.67,0,0,1,4.85,1.11,6.65,6.65,0,0,1,2.47,3.92,6.23,6.23,0,0,1-.89,4.52,5.74,5.74,0,0,1-4,2.76A6.34,6.34,0,0,1,103,45.26Zm-5.18-5.15a5,5,0,0,0,2.24,3.21,5.09,5.09,0,0,0,4,.83,4.75,4.75,0,0,0,3.31-2.3,5.25,5.25,0,0,0,.76-3.81,5.61,5.61,0,0,0-2.12-3.33,4.62,4.62,0,0,0-4-.9,4.81,4.81,0,0,0-3.46,2.38,5.55,5.55,0,0,0-.75,3.92Z"/><path class="cls-3" d="M149.1,16.81A4.57,4.57,0,0,1,151.26,18a4.69,4.69,0,0,1,1,3,10.29,10.29,0,0,1-1,4.68,3.91,3.91,0,0,1-3.47,2.72,5.13,5.13,0,0,1-2.31-.39,6.59,6.59,0,0,0-2.9-.36,5.24,5.24,0,0,0-3.25,1.45A3.8,3.8,0,0,0,138,32.28l.82,13.84a20.78,20.78,0,0,1,0,2.28,5.22,5.22,0,0,1-.53,1.78q-.88,1.78-5,2a7.27,7.27,0,0,1-4.61-.85,3.92,3.92,0,0,1-1.35-2.76c0-.44-.07-1.08-.12-1.91l-1.36-23.13a20.78,20.78,0,0,1,0-2.28,5.6,5.6,0,0,1,.46-1.72q.82-1.83,5-2.08,3.94-.24,5,1.22a3.83,3.83,0,0,1,.85,2.13,10.71,10.71,0,0,1,.89-1.17,12.09,12.09,0,0,1,2.57-1.94,7.63,7.63,0,0,1,3.52-1.33,17.18,17.18,0,0,1,2.61,0A16.64,16.64,0,0,1,149.1,16.81Z"/><path d="M132.34,52.73a6.74,6.74,0,0,1-4-1,4.47,4.47,0,0,1-1.56-3.11l-1.48-25.08a21.83,21.83,0,0,1,0-2.34,6.07,6.07,0,0,1,.5-1.88c.64-1.42,2.42-2.2,5.47-2.38,2.84-.17,4.63.3,5.46,1.42a4.67,4.67,0,0,1,.7,1.24l.26-.31a12.86,12.86,0,0,1,2.68-2,8.15,8.15,0,0,1,3.76-1.41,18.27,18.27,0,0,1,2.69,0,16.32,16.32,0,0,1,2.41.44h0a4.92,4.92,0,0,1,2.4,1.36A5.06,5.06,0,0,1,152.76,21a10.83,10.83,0,0,1-1,4.91,4.39,4.39,0,0,1-3.9,3,5.64,5.64,0,0,1-2.53-.43,6.08,6.08,0,0,0-2.68-.32,4.68,4.68,0,0,0-2.94,1.32,3.3,3.3,0,0,0-1.21,2.72l.82,13.84a19.2,19.2,0,0,1,0,2.35,5.68,5.68,0,0,1-.56,2c-.69,1.38-2.48,2.13-5.47,2.31Zm0-34.79-1,0c-2.6.15-4.15.75-4.61,1.79a4.7,4.7,0,0,0-.42,1.54,19.73,19.73,0,0,0,0,2.22l1.48,25A3.48,3.48,0,0,0,129,51a6.93,6.93,0,0,0,4.27.74c2.57-.15,4.12-.74,4.63-1.74a4.77,4.77,0,0,0,.47-1.59,19.75,19.75,0,0,0,0-2.22l-.82-13.84A4.27,4.27,0,0,1,139,28.79a5.72,5.72,0,0,1,3.55-1.58,7.14,7.14,0,0,1,3.12.4,4.68,4.68,0,0,0,2.09.35,3.43,3.43,0,0,0,3-2.41,9.87,9.87,0,0,0,.94-4.46,4.18,4.18,0,0,0-.86-2.7A4,4,0,0,0,149,17.3h0a14.53,14.53,0,0,0-2.26-.41,16.28,16.28,0,0,0-2.54,0,7.19,7.19,0,0,0-3.29,1.25A11.8,11.8,0,0,0,138.44,20a11.07,11.07,0,0,0-.85,1.12l-.83,1.32-.09-1.56a3.33,3.33,0,0,0-.75-1.85C135.4,18.3,134.16,17.94,132.31,17.94Z"/><path class="cls-3" d="M157.62,22.36a19.32,19.32,0,0,1,.17-2.28,6.08,6.08,0,0,1,.62-1.73c.65-1.12,2.39-1.64,5.2-1.54,2.11.07,3.6.49,4.45,1.27a3.66,3.66,0,0,1,1.1,2.87c0,.44,0,1.08,0,1.92L168.4,46a18.66,18.66,0,0,1-.18,2.27,5.26,5.26,0,0,1-.68,1.73c-.61,1.13-2.32,1.64-5.14,1.55s-4.44-.74-5-1.95a6.39,6.39,0,0,1-.5-1.73,19.86,19.86,0,0,1,0-2.32Zm11.25-11.89a2.81,2.81,0,0,1-1.79,1.3,11.42,11.42,0,0,1-3.34.29,11.52,11.52,0,0,1-3.32-.51,2.77,2.77,0,0,1-1.71-1.44,5.59,5.59,0,0,1-.53-1.77,19.5,19.5,0,0,1,0-2.28,18.66,18.66,0,0,1,.18-2.27,5.26,5.26,0,0,1,.61-1.67C159.6,1,161.33.42,164.15.51s4.42.74,4.95,2a5.29,5.29,0,0,1,.57,1.77,19.39,19.39,0,0,1,0,2.28,18.85,18.85,0,0,1-.18,2.27A5.23,5.23,0,0,1,168.87,10.47Z"/><path d="M163,52h-.64c-3-.1-4.79-.83-5.46-2.23a6.54,6.54,0,0,1-.55-1.9,19.34,19.34,0,0,1,0-2.38l.76-23.16A17.78,17.78,0,0,1,157.3,20a6.59,6.59,0,0,1,.66-1.87c.78-1.34,2.62-1.92,5.67-1.82,2.25.07,3.81.53,4.77,1.4A4.1,4.1,0,0,1,169.65,21c0,.43,0,1.07,0,1.93L168.9,46a19.91,19.91,0,0,1-.18,2.33,5.87,5.87,0,0,1-.75,1.9C167.32,51.42,165.69,52,163,52Zm-4.91-29.65-.76,23.16a19.54,19.54,0,0,0,0,2.24,5.69,5.69,0,0,0,.47,1.59c.48,1,2,1.57,4.58,1.65s4.18-.36,4.68-1.29a4.74,4.74,0,0,0,.63-1.57,17.89,17.89,0,0,0,.17-2.21l.76-23.09c0-.81,0-1.44,0-1.86a3.22,3.22,0,0,0-.93-2.54c-.77-.69-2.16-1.08-4.14-1.14-2.55-.08-4.21.36-4.75,1.29a5.94,5.94,0,0,0-.56,1.56,20.5,20.5,0,0,0-.16,2.21Zm6.26-9.8-.66,0a11.61,11.61,0,0,1-3.47-.53,3.25,3.25,0,0,1-2-1.7,6.09,6.09,0,0,1-.58-1.93,20.74,20.74,0,0,1,0-2.35,22.65,22.65,0,0,1,.18-2.34,6.38,6.38,0,0,1,.67-1.82c.77-1.36,2.63-2,5.66-1.87s4.78.83,5.4,2.24a5.61,5.61,0,0,1,.61,1.93,20.55,20.55,0,0,1,0,2.34A22.41,22.41,0,0,1,170,8.86a6,6,0,0,1-.71,1.86h0a3.3,3.3,0,0,1-2.1,1.53A10.71,10.71,0,0,1,164.38,12.57ZM163.53,1c-2.25,0-3.64.46-4.15,1.37a4.65,4.65,0,0,0-.56,1.5,19.92,19.92,0,0,0-.17,2.21,21.24,21.24,0,0,0,0,2.21,5.28,5.28,0,0,0,.5,1.61,2.26,2.26,0,0,0,1.41,1.18,11.32,11.32,0,0,0,3.17.48,11.6,11.6,0,0,0,3.2-.27,2.33,2.33,0,0,0,1.49-1.06h0A4.8,4.8,0,0,0,169,8.7a20.14,20.14,0,0,0,.17-2.21,18.42,18.42,0,0,0,0-2.22,4.56,4.56,0,0,0-.52-1.59c-.45-1-2-1.59-4.52-1.67Z"/><path class="cls-3" d="M173.07,48.62a2.74,2.74,0,0,1-.92-2.65c.15-1.13,1.2-2.75,3.17-4.84a2.57,2.57,0,0,1,2.46-.81,9.66,9.66,0,0,1,4.15,2.17,10.1,10.1,0,0,0,4.76,2.25q4,.52,4.2-1c.11-.83-1.27-1.64-4.14-2.41A21.38,21.38,0,0,1,179,37.14,8.77,8.77,0,0,1,176.31,33a13.38,13.38,0,0,1-.46-6.15q1.35-10.33,15.55-8.48a23.21,23.21,0,0,1,9.27,3.47c1.43.9,2.08,1.87,2,2.92a7.8,7.8,0,0,1-2,3.67c-1.16,1.41-2.24,2-3.24,1.91A8.86,8.86,0,0,1,194.64,29a11,11,0,0,0-4.48-1.59c-2.58-.34-3.93,0-4,.94-.18,1.31,1.2,2.35,4.11,3.13a24.7,24.7,0,0,1,8.06,3.58A7.59,7.59,0,0,1,201,38.66a11.5,11.5,0,0,1,.53,5.83,12.18,12.18,0,0,1-2,5.63,8.43,8.43,0,0,1-4,3.1,24.26,24.26,0,0,1-10.78.66A22.75,22.75,0,0,1,173.07,48.62Z"/><path d="M189,54.67a33.21,33.21,0,0,1-4.33-.3A23.23,23.23,0,0,1,172.75,49h0a3.23,3.23,0,0,1-1.09-3.1c.16-1.26,1.24-2.93,3.29-5.12a3,3,0,0,1,2.9-1,10,10,0,0,1,4.38,2.27,9.75,9.75,0,0,0,4.53,2.16c2.22.29,3.55.06,3.64-.62,0-.08,0-.84-3.78-1.86a22.15,22.15,0,0,1-8-4.24,9.39,9.39,0,0,1-2.82-4.33,14.12,14.12,0,0,1-.48-6.38c.47-3.6,2.09-6.18,4.82-7.67s6.48-1.88,11.3-1.25a23.88,23.88,0,0,1,9.46,3.55c1.61,1,2.35,2.15,2.18,3.4a8.15,8.15,0,0,1-2.05,3.93c-1.27,1.54-2.52,2.24-3.7,2.08a8.88,8.88,0,0,1-3-1.43,10.43,10.43,0,0,0-4.29-1.51c-2.11-.28-3.41-.09-3.49.5-.16,1.27,2,2.11,3.75,2.59a25.29,25.29,0,0,1,8.21,3.65,8,8,0,0,1,2.94,3.82,12.12,12.12,0,0,1,.57,6.08A12.86,12.86,0,0,1,200,50.41a8.93,8.93,0,0,1-4.28,3.28A21.12,21.12,0,0,1,189,54.67Zm-15.61-6.43a22.34,22.34,0,0,0,11.41,5.14,23.84,23.84,0,0,0,10.55-.64,7.84,7.84,0,0,0,3.78-2.91,11.84,11.84,0,0,0,2-5.4,11.08,11.08,0,0,0-.51-5.58A7,7,0,0,0,198,35.49,24.08,24.08,0,0,0,190.11,32c-3.25-.87-4.71-2.07-4.5-3.69.25-1.93,3.53-1.51,4.61-1.36a11.53,11.53,0,0,1,4.69,1.65,8,8,0,0,0,2.58,1.29c.81.12,1.76-.47,2.8-1.73a7.33,7.33,0,0,0,1.83-3.42c.11-.83-.47-1.64-1.72-2.43a23,23,0,0,0-9.06-3.4c-4.61-.6-8.2-.22-10.69,1.14s-3.88,3.61-4.31,6.92a13.09,13.09,0,0,0,.44,5.92,8.48,8.48,0,0,0,2.5,3.89,21.31,21.31,0,0,0,7.6,4.05c3.27.88,4.66,1.79,4.51,2.95-.27,2.07-3.65,1.62-4.76,1.48a10.83,10.83,0,0,1-5-2.35,9.23,9.23,0,0,0-3.9-2.08,2.1,2.1,0,0,0-2,.64c-2.36,2.52-3,3.88-3,4.59a2.26,2.26,0,0,0,.74,2.2Z"/><path class="cls-3" d="M222.6,29.51c2.91-2.35,5.75-3.1,8.52-2.22a10.81,10.81,0,0,1,7.84,8.5,22,22,0,0,1,2.3-1.46,13.87,13.87,0,0,1,3.83-1.28,9.11,9.11,0,0,1,4.79.16,11.34,11.34,0,0,1,7.22,6.53q2.17,4.95-.65,13.89l-3.47,11a22.18,22.18,0,0,1-.78,2.15,5.27,5.27,0,0,1-1.13,1.47c-.9,1-2.7,1-5.38.17s-4.08-1.93-4.29-3.29a5.9,5.9,0,0,1,0-1.83A18.09,18.09,0,0,1,242,61.1l3.47-11q1.74-5.48-2.17-6.71a3.23,3.23,0,0,0-3.45.5,9.13,9.13,0,0,0-2.08,3.85l-3.47,11a19.08,19.08,0,0,1-.79,2.18,5.4,5.4,0,0,1-1.12,1.45c-.94.94-2.76,1-5.44.15s-4.08-1.94-4.29-3.3a5.9,5.9,0,0,1,0-1.83,18.09,18.09,0,0,1,.59-2.21l3.48-11q1.73-5.47-2.18-6.71T219,41.74L215.5,52.89a21.78,21.78,0,0,1-.78,2.14,5.44,5.44,0,0,1-1.13,1.48q-1.46,1.34-5.42.08c-2.65-.83-4.08-1.91-4.31-3.22a5.81,5.81,0,0,1,0-1.81,17.79,17.79,0,0,1,.6-2.23l7-22.16a18.67,18.67,0,0,1,.78-2.14,4.56,4.56,0,0,1,1.11-1.42c1-.94,2.65-1,5-.29s3.76,1.6,4.24,2.58A4.84,4.84,0,0,1,222.6,29.51Z"/><path d="M248.89,69.53a11.26,11.26,0,0,1-3.35-.62c-2.87-.9-4.39-2.11-4.64-3.69a6.66,6.66,0,0,1,0-2,18.36,18.36,0,0,1,.6-2.27l3.48-11a7,7,0,0,0,.32-4.11,3,3,0,0,0-2.17-2,2.78,2.78,0,0,0-2.95.39,8.77,8.77,0,0,0-2,3.64l-3.47,11a19.83,19.83,0,0,1-.82,2.24,5.82,5.82,0,0,1-1.21,1.59c-1.1,1.1-3,1.19-5.95.27s-4.39-2.11-4.64-3.69a6.66,6.66,0,0,1,0-2,19.34,19.34,0,0,1,.6-2.27l3.48-11a7,7,0,0,0,.32-4.11,3,3,0,0,0-2.17-2,2.88,2.88,0,0,0-2.81.39,7.23,7.23,0,0,0-2.07,3.56L216,53a20.77,20.77,0,0,1-.81,2.2,5.71,5.71,0,0,1-1.23,1.63c-1.13,1-3.07,1.1-5.92.2s-4.39-2.09-4.66-3.62a6.87,6.87,0,0,1,0-2,19.53,19.53,0,0,1,.62-2.3L211,27a19.29,19.29,0,0,1,.81-2.21A5.32,5.32,0,0,1,213,23.24c1.11-1.06,3-1.19,5.49-.4s4,1.72,4.54,2.84a4.66,4.66,0,0,1,.37,2.63,8.87,8.87,0,0,1,7.89-1.5,11.28,11.28,0,0,1,8,8.15c.53-.36,1.11-.71,1.74-1.07a14.91,14.91,0,0,1,4-1.33,9.67,9.67,0,0,1,5.05.17,11.8,11.8,0,0,1,7.52,6.81c1.5,3.4,1.29,8.19-.62,14.24l-3.48,11a18.25,18.25,0,0,1-.8,2.21,5.55,5.55,0,0,1-1.23,1.62A3.29,3.29,0,0,1,248.89,69.53Zm-7.1-26.91a5.7,5.7,0,0,1,1.64.28,4,4,0,0,1,2.82,2.62,7.84,7.84,0,0,1-.32,4.72l-3.47,11a19.35,19.35,0,0,0-.58,2.14,5.62,5.62,0,0,0,0,1.69c.18,1.14,1.51,2.11,4,2.88s4.11.77,4.87,0a4.65,4.65,0,0,0,1-1.35,18.25,18.25,0,0,0,.76-2.08l3.48-11c1.83-5.82,2-10.37.66-13.54a10.88,10.88,0,0,0-6.91-6.25,8.79,8.79,0,0,0-4.54-.16,14.28,14.28,0,0,0-3.69,1.23,22.47,22.47,0,0,0-2.24,1.43l-.62.45-.17-.75a10.25,10.25,0,0,0-7.5-8.12c-2.62-.83-5.26-.13-8.06,2.13L221.62,31l.5-1.59a4.33,4.33,0,0,0,0-3.24c-.28-.58-1.2-1.46-3.94-2.32-2.16-.68-3.67-.62-4.51.17a4.29,4.29,0,0,0-1,1.27,18.65,18.65,0,0,0-.75,2.08l-7,22.16a20.75,20.75,0,0,0-.58,2.17,5.74,5.74,0,0,0,0,1.65c.19,1.09,1.53,2.05,4,2.82s4.11.78,4.94,0a4.82,4.82,0,0,0,1-1.32,16.88,16.88,0,0,0,.76-2.08l3.52-11.15A8,8,0,0,1,221,37.54a3.84,3.84,0,0,1,3.72-.56,4,4,0,0,1,2.82,2.62,7.92,7.92,0,0,1-.32,4.72l-3.47,11a18.32,18.32,0,0,0-.58,2.14,5.62,5.62,0,0,0,0,1.69c.18,1.14,1.51,2.11,4,2.88s4.14.77,4.94,0a5,5,0,0,0,1-1.31,21,21,0,0,0,.76-2.11l3.48-11a9.46,9.46,0,0,1,2.21-4.06A3.18,3.18,0,0,1,241.79,42.62Z"/><path class="cls-3" d="M288.57,55.55q2.1-3.06,6.34-.77a13.5,13.5,0,0,1,3.18,2.16A2.75,2.75,0,0,1,299,59a5.72,5.72,0,0,1-.3,1.83,22.06,22.06,0,0,1-1,2l-11,20.33a19.6,19.6,0,0,1-1.17,2,6.21,6.21,0,0,1-1.32,1.27c-1.09.72-2.69.5-4.8-.64s-3.38-2.16-3.81-3.07a3.57,3.57,0,0,1,0-3q-3.81,1.92-8.83-.79t-6.85-9.62a17.38,17.38,0,0,1,11.52-21.28q6.78-2.22,12,.57a10.29,10.29,0,0,1,3.22,2.64,8.73,8.73,0,0,1,1.56,2.53A9.48,9.48,0,0,1,288.57,55.55Zm-17.1,6.38a5.44,5.44,0,0,0-.35,4.27A5.61,5.61,0,0,0,274,69.72a5.28,5.28,0,0,0,4.42.36,5.76,5.76,0,0,0,3.29-2.69,6.18,6.18,0,0,0,.53-4.25,5.15,5.15,0,0,0-2.79-3.6,5.29,5.29,0,0,0-4.59-.38A6,6,0,0,0,271.47,61.93Z"/><path d="M282.72,87.34a7.65,7.65,0,0,1-3.54-1.11c-2.23-1.2-3.55-2.28-4-3.29a3.93,3.93,0,0,1-.32-2.32c-2.45.84-5.24.44-8.31-1.22-3.46-1.87-5.85-5.21-7.09-9.93a17.86,17.86,0,0,1,11.84-21.88c4.64-1.52,8.8-1.32,12.35.6A10.68,10.68,0,0,1,287,51a9.42,9.42,0,0,1,1.65,2.68c.09.27.16.54.22.79,1.21-1.14,3.17-1.78,6.29-.09a13.79,13.79,0,0,1,3.3,2.25,3.24,3.24,0,0,1,1,2.42,6,6,0,0,1-.34,2,18.62,18.62,0,0,1-1,2.11l-11,20.34a20.19,20.19,0,0,1-1.2,2,6.77,6.77,0,0,1-1.43,1.38A3.18,3.18,0,0,1,282.72,87.34Zm-6.18-8.63-.49,1.23a3,3,0,0,0,0,2.57c.26.55,1.1,1.5,3.6,2.84,1.93,1,3.37,1.27,4.28.66a5.53,5.53,0,0,0,1.2-1.14A21.05,21.05,0,0,0,286.26,83l11-20.33a18.62,18.62,0,0,0,1-2,5.22,5.22,0,0,0,.27-1.66,2.26,2.26,0,0,0-.74-1.69,13,13,0,0,0-3.06-2.07c-2.58-1.4-4.45-1.2-5.69.62l-.75,1.09-.16-1.32a9.25,9.25,0,0,0-.38-1.66,9,9,0,0,0-1.48-2.37,9.82,9.82,0,0,0-3.07-2.51c-3.31-1.79-7.2-2-11.57-.53a16.54,16.54,0,0,0-9.78,8.06,16.79,16.79,0,0,0-1.41,12.61c1.18,4.45,3.4,7.58,6.61,9.31s6,2,8.37.79Zm0-7.81a5.83,5.83,0,0,1-2.82-.74,6.12,6.12,0,0,1-3.07-3.82A6,6,0,0,1,271,61.7h0a6.52,6.52,0,0,1,3.6-3,5.84,5.84,0,0,1,5,.41,5.66,5.66,0,0,1,3,3.94,6.62,6.62,0,0,1-.59,4.59,6.23,6.23,0,0,1-3.56,2.92A5.9,5.9,0,0,1,276.53,70.9Zm-4.62-8.73a5,5,0,0,0-.31,3.9,5.12,5.12,0,0,0,2.58,3.21,4.77,4.77,0,0,0,4,.33,5.17,5.17,0,0,0,3-2.46,5.61,5.61,0,0,0,.49-3.91A4.63,4.63,0,0,0,279.17,60a4.83,4.83,0,0,0-4.19-.36,5.5,5.5,0,0,0-3.07,2.55Z"/></g></g></g></svg>