<svg xmlns="http://www.w3.org/2000/svg" viewBox="0 0 826.73 66.06"><defs><style>.cls-1{fill:#020202;stroke:#020202;}.cls-1,.cls-2{stroke-miterlimit:10;}.cls-2{fill:#fff;stroke:#000;}</style></defs><title>Asset 9</title><g id="Layer_2" data-name="Layer 2"><g id="Layer_1-2" data-name="Layer 1"><path class="cls-1" d="M13.12,41.26H31.6a17.43,17.43,0,0,1,2.07.09,4.81,4.81,0,0,1,1.59.57q1.62.84,1.62,4.68,0,4.2-2.22,4.92a10,10,0,0,1-3.12.36H7.78q-4.2,0-4.92-2.28a9.44,9.44,0,0,1-.36-3.06V13.18Q2.5,10.12,3.64,9T8,7.9H31.6A17.43,17.43,0,0,1,33.67,8a4.81,4.81,0,0,1,1.59.57q1.62.84,1.62,4.68,0,4.2-2.22,4.92a10,10,0,0,1-3.12.36H13.12v6.06H25a17.43,17.43,0,0,1,2.07.09,4.81,4.81,0,0,1,1.59.57q1.62.84,1.62,4.68,0,4.2-2.28,4.92a10,10,0,0,1-3.12.36H13.12Z"/><path class="cls-1" d="M40.78,60.46v-35a16.63,16.63,0,0,1,.09-2,4.93,4.93,0,0,1,.51-1.5q.84-1.62,4-1.62t4.29.81A3.24,3.24,0,0,1,51,23.44q2.28-3.12,7.17-3.12t9.27,4.62a15.4,15.4,0,0,1,0,21.48Q63.1,51,58.18,51T51,48.28V60.4a16.63,16.63,0,0,1-.09,2A4.87,4.87,0,0,1,50.41,64a2.53,2.53,0,0,1-1.53,1.23,9.61,9.61,0,0,1-2.94.36,9.92,9.92,0,0,1-3-.36A2.56,2.56,0,0,1,41.41,64a4.57,4.57,0,0,1-.54-1.5A16.63,16.63,0,0,1,40.78,60.46ZM52.66,32.2a5.35,5.35,0,0,0-1.38,3.54,5.17,5.17,0,0,0,1.41,3.51,4.6,4.6,0,0,0,3.6,1.59A5,5,0,0,0,60,39.28a4.93,4.93,0,0,0,1.53-3.54,5.18,5.18,0,0,0-1.44-3.57,4.82,4.82,0,0,0-3.75-1.59A4.6,4.6,0,0,0,52.66,32.2Z"/><path class="cls-1" d="M85.57,14.41A2.54,2.54,0,0,1,84,15.64a12.93,12.93,0,0,1-6.06,0,2.52,2.52,0,0,1-1.59-1.26,5.15,5.15,0,0,1-.54-1.59,17.43,17.43,0,0,1-.09-2.07,17.43,17.43,0,0,1,.09-2.07,4.9,4.9,0,0,1,.51-1.53Q77.14,5.5,81,5.5t4.56,1.62a4.81,4.81,0,0,1,.57,1.59,17.43,17.43,0,0,1,.09,2.07,17.43,17.43,0,0,1-.09,2.07A4.84,4.84,0,0,1,85.57,14.41ZM75.7,25.54a17.43,17.43,0,0,1,.09-2.07,5.56,5.56,0,0,1,.51-1.59q.84-1.56,4.68-1.56a6.34,6.34,0,0,1,4.08,1,3.31,3.31,0,0,1,1.08,2.58q.06.6.06,1.74v21a17.43,17.43,0,0,1-.09,2.07,4.81,4.81,0,0,1-.57,1.59q-.78,1.56-4.62,1.56T76.3,50.26a5.61,5.61,0,0,1-.51-1.56,17.32,17.32,0,0,1-.09-2.1Z"/><path class="cls-1" d="M91.24,49.06a2.5,2.5,0,0,1-1.14-2.28q0-1.56,2.28-4.74a2.35,2.35,0,0,1,2.13-1,8.76,8.76,0,0,1,4,1.47A9.25,9.25,0,0,0,103.06,44q3.66,0,3.66-1.44,0-1.14-4-1.68A19.64,19.64,0,0,1,95.2,38a8,8,0,0,1-2.88-3.39,12.28,12.28,0,0,1-1.14-5.49q0-9.48,13-9.48a21.14,21.14,0,0,1,8.76,2q2.1,1,2.1,2.4a7.08,7.08,0,0,1-1.32,3.54q-1.32,2.1-2.7,2.1a8.12,8.12,0,0,1-2.67-.9,10,10,0,0,0-4.23-.9q-3.54,0-3.54,1.32,0,1.8,4.08,2.34a22.33,22.33,0,0,1,7.68,2.28,6.79,6.79,0,0,1,2.91,2.91A10.43,10.43,0,0,1,116.44,42a11.14,11.14,0,0,1-1.17,5.31A7.59,7.59,0,0,1,112,50.56a22,22,0,0,1-9.63,1.86A20.6,20.6,0,0,1,91.24,49.06Z"/><path class="cls-1" d="M124.48,24.22a16.48,16.48,0,0,1,23,0,15.5,15.5,0,0,1,5,11.85,15.59,15.59,0,0,1-2.58,8.85,16.18,16.18,0,0,1-6.27,5.7,17,17,0,0,1-7.65,1.83,16.35,16.35,0,0,1-7.68-2A17,17,0,0,1,122,44.71a15.13,15.13,0,0,1-2.55-8.61A15.51,15.51,0,0,1,124.48,24.22ZM132,40.39a6.38,6.38,0,0,0,3.9,1.47,6.54,6.54,0,0,0,4-1.5,5.22,5.22,0,0,0,2-4.44A5.19,5.19,0,0,0,140,31.54a6.44,6.44,0,0,0-4-1.44,6.28,6.28,0,0,0-4,1.5A5.33,5.33,0,0,0,130.06,36,5.17,5.17,0,0,0,132,40.39Z"/><path class="cls-1" d="M177.55,7.09a2.54,2.54,0,0,1,1.59-1.23,12.93,12.93,0,0,1,6.06,0,2.52,2.52,0,0,1,1.59,1.26,5.15,5.15,0,0,1,.54,1.59,17.43,17.43,0,0,1,.09,2.07V46.6a17.43,17.43,0,0,1-.09,2.07,4.27,4.27,0,0,1-.57,1.53q-.9,1.62-5.07,1.62T177,48.88a8.84,8.84,0,0,1-7,2.88q-5.4,0-9.84-4.71a15.8,15.8,0,0,1,0-22q4.47-4.74,9.81-4.74a8.42,8.42,0,0,1,6.9,3V10.72A17.43,17.43,0,0,1,177,8.65,4.84,4.84,0,0,1,177.55,7.09ZM167.8,39.7a5.05,5.05,0,0,0,3.78,1.62,4.77,4.77,0,0,0,3.69-1.62,5.2,5.2,0,0,0,1.47-3.57,5.54,5.54,0,0,0-1.41-3.63,4.72,4.72,0,0,0-3.81-1.68,4.84,4.84,0,0,0-3.84,1.65,5.4,5.4,0,0,0-1.44,3.63A5.08,5.08,0,0,0,167.8,39.7Z"/><path class="cls-1" d="M222.7,32.29q0,3.69-1.83,5.46a5.71,5.71,0,0,1-4.05,1.77H202.6a3.29,3.29,0,0,0,2,2.82,7.88,7.88,0,0,0,4,1.14,16.52,16.52,0,0,0,5.46-.72l.66-.24a6.05,6.05,0,0,1,2.4-.66q1.92,0,3.3,2.7a6.62,6.62,0,0,1,.78,2.76q0,5.34-12.78,5.34a19.28,19.28,0,0,1-7.89-1.53,13.4,13.4,0,0,1-5.37-4.05,17.25,17.25,0,0,1-3.78-10.86q0-7.56,4.89-12.09a17.28,17.28,0,0,1,12.21-4.53q8.34,0,12.24,5.88A12.2,12.2,0,0,1,222.7,32.29ZM210,34.06q2.28,0,2.28-1.92a2.7,2.7,0,0,0-1-2.22,4.7,4.7,0,0,0-3-.84,6.06,6.06,0,0,0-3.87,1.59,4.46,4.46,0,0,0-1.92,3.39Z"/><path class="cls-1" d="M252.46,9.4a4.71,4.71,0,0,1,3.39-1.56,10.57,10.57,0,0,1,2.85.3,5.22,5.22,0,0,1,1.56.69,2.51,2.51,0,0,1,.84,1.29,12.25,12.25,0,0,1,.3,3.18V46.72a17.43,17.43,0,0,1-.09,2.07,4.81,4.81,0,0,1-.57,1.59Q259.9,52,256.06,52t-4.62-1.56a4.78,4.78,0,0,1-.57-1.65,19.83,19.83,0,0,1-.09-2.19V25.18l-.78.72a7.49,7.49,0,0,1-4.2,1.86q-1.74,0-3.63-2.1a6,6,0,0,1-1.89-3.72q0-1.62,2.16-3.54l9.84-8.88Z"/><path class="cls-1" d="M271.15,21.58q3.09,0,4.26,1.2t1.17,4.5q-.06,1.44-.15,2.13a4.79,4.79,0,0,1-.63,1.65q-.9,1.74-4.53,1.74t-4.8-1.17q-1.17-1.17-1.17-4.53t1.26-4.44A7.87,7.87,0,0,1,271.15,21.58Zm0,19.14q3.09,0,4.26,1.17t1.17,4.53q-.06,1.44-.15,2.13a4.79,4.79,0,0,1-.63,1.65q-.9,1.74-4.53,1.74t-4.8-1.17q-1.17-1.17-1.17-4.53t1.26-4.44A7.87,7.87,0,0,1,271.15,40.72Z"/><path class="cls-1" d="M342.39,9.58A4.58,4.58,0,0,1,343,11.2a18.25,18.25,0,0,1,.09,2.1V46.6q0,4.14-2.28,4.86a9.73,9.73,0,0,1-2.88.36,10.14,10.14,0,0,1-2.76-.3,4.58,4.58,0,0,1-1.55-.72,2.56,2.56,0,0,1-.84-1.2,11.43,11.43,0,0,1-.31-3.12V26.38q-1.5,1.86-4.38,5.91t-3.66,5.07c-.51.68-.88,1.15-1.08,1.41a5.77,5.77,0,0,1-1.47,1.08,5,5,0,0,1-5,.06,5.47,5.47,0,0,1-1.6-1.23l-.48-.66c-.8-1-2.37-3.13-4.74-6.39s-3.63-5-3.84-5.25V46.6a17.43,17.43,0,0,1-.09,2.07,4.09,4.09,0,0,1-.57,1.53c-.59,1.08-2.16,1.62-4.67,1.62s-4-.54-4.57-1.62a4.05,4.05,0,0,1-.56-1.56,16.87,16.87,0,0,1-.09-2.16V13.18a15.5,15.5,0,0,1,.09-2.07,4.55,4.55,0,0,1,.56-1.59c.61-1,2.16-1.56,4.69-1.56a8.9,8.9,0,0,1,2.79.39,3.55,3.55,0,0,1,1.52.81l.36.36L319.29,27.4q10.2-13.5,13.63-17.82,1-1.62,4.83-1.62T342.39,9.58Z"/><path class="cls-1" d="M357.72,14.41a2.54,2.54,0,0,1-1.59,1.23,12.89,12.89,0,0,1-6.05,0,2.49,2.49,0,0,1-1.59-1.26,4.9,4.9,0,0,1-.54-1.59,15.5,15.5,0,0,1-.09-2.07A15.5,15.5,0,0,1,348,8.65a4.43,4.43,0,0,1,.51-1.53C349,6,350.58,5.5,353.13,5.5s4,.54,4.57,1.62a4.76,4.76,0,0,1,.56,1.59,15.14,15.14,0,0,1,.1,2.07,15.14,15.14,0,0,1-.1,2.07A4.4,4.4,0,0,1,357.72,14.41Zm-9.86,11.13a15.5,15.5,0,0,1,.09-2.07,5,5,0,0,1,.51-1.59c.55-1,2.12-1.56,4.67-1.56a6.34,6.34,0,0,1,4.08,1,3.31,3.31,0,0,1,1.08,2.58c0,.4.07,1,.07,1.74v21a15.14,15.14,0,0,1-.1,2.07,4.76,4.76,0,0,1-.56,1.59q-.79,1.56-4.62,1.56t-4.62-1.62A5,5,0,0,1,348,48.7a15.45,15.45,0,0,1-.09-2.1Z"/><path class="cls-1" d="M363.39,49.06a2.5,2.5,0,0,1-1.14-2.28q0-1.56,2.29-4.74a2.33,2.33,0,0,1,2.13-1,8.83,8.83,0,0,1,4,1.47A9.18,9.18,0,0,0,375.21,44c2.44,0,3.67-.48,3.67-1.44,0-.76-1.35-1.32-4-1.68a19.64,19.64,0,0,1-7.5-2.82,8,8,0,0,1-2.88-3.39,12.28,12.28,0,0,1-1.14-5.49q0-9.48,13-9.48a21.19,21.19,0,0,1,8.77,2c1.39.64,2.09,1.44,2.09,2.4a7.08,7.08,0,0,1-1.32,3.54c-.88,1.4-1.78,2.1-2.69,2.1a8.08,8.08,0,0,1-2.68-.9,10,10,0,0,0-4.23-.9q-3.54,0-3.54,1.32,0,1.8,4.08,2.34a22.33,22.33,0,0,1,7.68,2.28,6.79,6.79,0,0,1,2.91,2.91A10.33,10.33,0,0,1,388.59,42a11,11,0,0,1-1.17,5.31,7.62,7.62,0,0,1-3.26,3.27,22.12,22.12,0,0,1-9.64,1.86A20.6,20.6,0,0,1,363.39,49.06Z"/><path class="cls-1" d="M402.39,36.07a4.86,4.86,0,0,0,1.69,4,5.43,5.43,0,0,0,3.56,1.41,6.23,6.23,0,0,0,3.54-1.11,5.28,5.28,0,0,1,2.67-1.11q1.8,0,4.38,3.18a5.27,5.27,0,0,1,1.38,3.12q0,2.28-3.3,4.26a14.23,14.23,0,0,1-8.39,2.4,17.27,17.27,0,0,1-10.75-4,14.29,14.29,0,0,1-4-5.13A16,16,0,0,1,391.59,36a15.6,15.6,0,0,1,1.56-7,14.42,14.42,0,0,1,4-5.07,16.77,16.77,0,0,1,10.62-4,15.78,15.78,0,0,1,4.44.63,15.19,15.19,0,0,1,3.19,1.23l1,.6,1.67,1.14a3.43,3.43,0,0,1,1.56,2.73,6.48,6.48,0,0,1-1.26,3.45q-2.14,3.3-4.14,3.3A7,7,0,0,1,411,31.66a4.33,4.33,0,0,0-3.09-1,5.77,5.77,0,0,0-3.75,1.44A4.9,4.9,0,0,0,402.39,36.07Z"/><path class="cls-1" d="M427.65,24.22a16.48,16.48,0,0,1,23,0,15.5,15.5,0,0,1,5,11.85A15.59,15.59,0,0,1,453,44.89a16.18,16.18,0,0,1-6.27,5.7,17,17,0,0,1-7.65,1.83,16.35,16.35,0,0,1-7.68-2,17,17,0,0,1-6.27-5.76,15.13,15.13,0,0,1-2.55-8.61A15.51,15.51,0,0,1,427.65,24.22Zm7.5,16.17a6.38,6.38,0,0,0,3.9,1.47,6.54,6.54,0,0,0,4-1.5,5.22,5.22,0,0,0,2-4.44,5.19,5.19,0,0,0-1.86-4.38,6.44,6.44,0,0,0-4-1.44,6.28,6.28,0,0,0-4,1.5A5.33,5.33,0,0,0,433.23,36,5.17,5.17,0,0,0,435.15,40.39Z"/><path class="cls-1" d="M469.83,24.46q2.82-4.26,6.78-4.26a9.84,9.84,0,0,1,9.12,5.22,20.48,20.48,0,0,1,1.59-1.89,13.11,13.11,0,0,1,3-2.16,8.34,8.34,0,0,1,4.2-1.17,10.27,10.27,0,0,1,8,3.69q3.24,3.69,3.24,12.21V46.6a17.43,17.43,0,0,1-.09,2.07,4.81,4.81,0,0,1-.57,1.59q-.78,1.62-4.62,1.62t-4.62-1.68a5.56,5.56,0,0,1-.51-1.59,17.43,17.43,0,0,1-.09-2.07V36q0-5.22-3.72-5.22a3,3,0,0,0-2.85,1.38,8.28,8.28,0,0,0-.75,3.9V46.6a17.32,17.32,0,0,1-.09,2.1,4.84,4.84,0,0,1-.57,1.56q-.84,1.62-4.68,1.62T478,50.2a5.56,5.56,0,0,1-.51-1.59,17.43,17.43,0,0,1-.09-2.07V36q0-5.22-3.72-5.22T470.07,36V46.66a17.43,17.43,0,0,1-.09,2.07,4.81,4.81,0,0,1-.57,1.59q-.9,1.56-4.68,1.56t-4.62-1.62a5.61,5.61,0,0,1-.51-1.56,17.32,17.32,0,0,1-.09-2.1V25.48a17.43,17.43,0,0,1,.09-2.07,4.27,4.27,0,0,1,.57-1.53q.9-1.62,4.26-1.62t4.38,1.08A4.38,4.38,0,0,1,469.83,24.46Z"/><path class="cls-1" d="M520.89,24.46q2.82-4.26,6.78-4.26a9.84,9.84,0,0,1,9.12,5.22,20.48,20.48,0,0,1,1.59-1.89,13.11,13.11,0,0,1,3-2.16,8.34,8.34,0,0,1,4.2-1.17,10.27,10.27,0,0,1,8,3.69q3.24,3.69,3.24,12.21V46.6a17.43,17.43,0,0,1-.09,2.07,4.81,4.81,0,0,1-.57,1.59q-.78,1.62-4.62,1.62t-4.62-1.68a5.56,5.56,0,0,1-.51-1.59,17.43,17.43,0,0,1-.09-2.07V36q0-5.22-3.72-5.22a3,3,0,0,0-2.85,1.38,8.28,8.28,0,0,0-.75,3.9V46.6a17.32,17.32,0,0,1-.09,2.1,4.84,4.84,0,0,1-.57,1.56q-.84,1.62-4.68,1.62t-4.62-1.68a5.56,5.56,0,0,1-.51-1.59,17.43,17.43,0,0,1-.09-2.07V36q0-5.22-3.72-5.22T521.13,36V46.66a17.43,17.43,0,0,1-.09,2.07,4.81,4.81,0,0,1-.57,1.59q-.9,1.56-4.68,1.56t-4.62-1.62a5.61,5.61,0,0,1-.51-1.56,17.32,17.32,0,0,1-.09-2.1V25.48a17.43,17.43,0,0,1,.09-2.07,4.27,4.27,0,0,1,.57-1.53q.9-1.62,4.26-1.62t4.38,1.08A4.38,4.38,0,0,1,520.89,24.46Z"/><path class="cls-1" d="M575.67,51.76a12.75,12.75,0,0,1-10-4.59,16.46,16.46,0,0,1-4-11.19V25.48a17.32,17.32,0,0,1,.09-2.1,5.61,5.61,0,0,1,.51-1.56q.84-1.62,4.68-1.62,4.2,0,4.92,2.28a9.44,9.44,0,0,1,.36,3.06V36a4.82,4.82,0,0,0,5.19,5.22,5.25,5.25,0,0,0,3.84-1.44A5.05,5.05,0,0,0,582.69,36V25.42a17.43,17.43,0,0,1,.09-2.07,4.81,4.81,0,0,1,.57-1.59q.78-1.56,4.62-1.56t4.62,1.62a5.56,5.56,0,0,1,.51,1.59,17.43,17.43,0,0,1,.09,2.07V46.72a16.74,16.74,0,0,1-.09,2,4.27,4.27,0,0,1-.57,1.53q-.9,1.56-4.62,1.56t-4.5-1.44a4.77,4.77,0,0,1-.6-2.46,6.11,6.11,0,0,1-1.08,1.2,14.72,14.72,0,0,1-1.62,1.32A8,8,0,0,1,575.67,51.76Z"/><path class="cls-1" d="M615.57,20.26a12.69,12.69,0,0,1,10,4.59,16.46,16.46,0,0,1,4,11.19V46.6a17.43,17.43,0,0,1-.09,2.07A4.9,4.9,0,0,1,629,50.2q-.84,1.62-4.68,1.62-4.26,0-4.92-2.22a9.77,9.77,0,0,1-.36-3.06V36a4.82,4.82,0,0,0-5.19-5.22A5.25,5.25,0,0,0,610,32.2,5.05,5.05,0,0,0,608.49,36V46.6a17.43,17.43,0,0,1-.09,2.07,4.27,4.27,0,0,1-.57,1.53q-.78,1.62-4.62,1.62t-4.62-1.62a5.56,5.56,0,0,1-.51-1.59,17.43,17.43,0,0,1-.09-2.07V25.3a16.74,16.74,0,0,1,.09-2,4.27,4.27,0,0,1,.57-1.53q.84-1.5,4.62-1.5t4.5,1.38a4.77,4.77,0,0,1,.6,2.46,6.11,6.11,0,0,1,1.08-1.2,10.52,10.52,0,0,1,1.62-1.26A7.86,7.86,0,0,1,615.57,20.26Z"/><path class="cls-1" d="M644.22,14.41a2.54,2.54,0,0,1-1.59,1.23,12.93,12.93,0,0,1-6.06,0A2.52,2.52,0,0,1,635,14.38a5.15,5.15,0,0,1-.54-1.59,17.43,17.43,0,0,1-.09-2.07,17.43,17.43,0,0,1,.09-2.07A4.9,4.9,0,0,1,635,7.12q.84-1.62,4.68-1.62t4.56,1.62a4.81,4.81,0,0,1,.57,1.59,17.43,17.43,0,0,1,.09,2.07,17.43,17.43,0,0,1-.09,2.07A4.84,4.84,0,0,1,644.22,14.41Zm-9.87,11.13a17.43,17.43,0,0,1,.09-2.07,5.56,5.56,0,0,1,.51-1.59q.84-1.56,4.68-1.56a6.34,6.34,0,0,1,4.08,1,3.31,3.31,0,0,1,1.08,2.58q.06.6.06,1.74v21a17.43,17.43,0,0,1-.09,2.07,4.81,4.81,0,0,1-.57,1.59q-.78,1.56-4.62,1.56T635,50.26a5.61,5.61,0,0,1-.51-1.56,17.32,17.32,0,0,1-.09-2.1Z"/><path class="cls-1" d="M659.55,36.07a4.89,4.89,0,0,0,1.68,4,5.47,5.47,0,0,0,3.57,1.41,6.23,6.23,0,0,0,3.54-1.11A5.28,5.28,0,0,1,671,39.22q1.8,0,4.38,3.18a5.27,5.27,0,0,1,1.38,3.12q0,2.28-3.3,4.26a14.26,14.26,0,0,1-8.4,2.4,17.27,17.27,0,0,1-10.74-4,14.29,14.29,0,0,1-4-5.13A16,16,0,0,1,648.75,36a15.6,15.6,0,0,1,1.56-7,14.42,14.42,0,0,1,4-5.07,16.77,16.77,0,0,1,10.62-4,15.78,15.78,0,0,1,4.44.63,14.84,14.84,0,0,1,3.18,1.23l1,.6,1.68,1.14a3.43,3.43,0,0,1,1.56,2.73,6.48,6.48,0,0,1-1.26,3.45q-2.16,3.3-4.14,3.3a7,7,0,0,1-3.24-1.32,4.33,4.33,0,0,0-3.09-1,5.77,5.77,0,0,0-3.75,1.44A4.9,4.9,0,0,0,659.55,36.07Z"/><path class="cls-1" d="M701.19,23.62q.36-3.36,4.74-3.36a12.42,12.42,0,0,1,3.48.36A2.52,2.52,0,0,1,711,21.88a5.15,5.15,0,0,1,.54,1.59,17.43,17.43,0,0,1,.09,2.07v21a17.43,17.43,0,0,1-.09,2.07A5.56,5.56,0,0,1,711,50.2q-.84,1.56-4.11,1.56T702.54,51a3.24,3.24,0,0,1-1.29-2.37q-2.22,3.18-7.41,3.18T684.21,47a15.61,15.61,0,0,1-4.44-11,15.45,15.45,0,0,1,4.47-11q4.47-4.71,9.81-4.71a9.35,9.35,0,0,1,3.72.72,8.26,8.26,0,0,1,2.34,1.35A8.34,8.34,0,0,1,701.19,23.62ZM690.27,36.1a5,5,0,0,0,1.56,3.57,5.1,5.1,0,0,0,3.78,1.59,4.77,4.77,0,0,0,3.69-1.62,5.2,5.2,0,0,0,1.47-3.57,5.54,5.54,0,0,0-1.41-3.63,4.68,4.68,0,0,0-3.78-1.68,4.86,4.86,0,0,0-3.84,1.68A5.45,5.45,0,0,0,690.27,36.1Z"/><path class="cls-1" d="M734.79,30.88l-3.9-.24v8.28a4.14,4.14,0,0,0,.51,2.34,2.21,2.21,0,0,0,1.92.72,19.46,19.46,0,0,1,2.16.09,4.26,4.26,0,0,1,1.59.57q1.38.78,1.38,4,0,3.78-1.68,4.62a5.56,5.56,0,0,1-1.59.51,16.74,16.74,0,0,1-2,.09q-6.24,0-9.48-2.82t-3.24-9.54V30.64a15.8,15.8,0,0,1-2.46.18,2.76,2.76,0,0,1-2.19-1,5.4,5.4,0,0,1-.87-3.48,15.1,15.1,0,0,1,.3-3.57,3.21,3.21,0,0,1,.84-1.59,3.68,3.68,0,0,1,2.4-.78l2,.24V14.44a16.63,16.63,0,0,1,.09-2,3.78,3.78,0,0,1,.57-1.44q.78-1.5,4.62-1.5,4.08,0,4.86,2.22a11.22,11.22,0,0,1,.3,3.06v5.88q2.64-.24,4-.24a17.08,17.08,0,0,1,2,.09,4.81,4.81,0,0,1,1.59.57q1.56.78,1.56,4.62t-1.62,4.62a5.56,5.56,0,0,1-1.59.51A17.43,17.43,0,0,1,734.79,30.88Z"/><path class="cls-1" d="M753.24,14.41a2.54,2.54,0,0,1-1.59,1.23,12.93,12.93,0,0,1-6.06,0A2.52,2.52,0,0,1,744,14.38a5.15,5.15,0,0,1-.54-1.59,17.43,17.43,0,0,1-.09-2.07,17.43,17.43,0,0,1,.09-2.07A4.9,4.9,0,0,1,744,7.12q.84-1.62,4.68-1.62t4.56,1.62a4.81,4.81,0,0,1,.57,1.59,17.43,17.43,0,0,1,.09,2.07,17.43,17.43,0,0,1-.09,2.07A4.84,4.84,0,0,1,753.24,14.41Zm-9.87,11.13a17.43,17.43,0,0,1,.09-2.07,5.56,5.56,0,0,1,.51-1.59q.84-1.56,4.68-1.56a6.34,6.34,0,0,1,4.08,1,3.31,3.31,0,0,1,1.08,2.58q.06.6.06,1.74v21a17.43,17.43,0,0,1-.09,2.07,4.81,4.81,0,0,1-.57,1.59q-.78,1.56-4.62,1.56T744,50.26a5.61,5.61,0,0,1-.51-1.56,17.32,17.32,0,0,1-.09-2.1Z"/><path class="cls-1" d="M762.81,24.22a16.48,16.48,0,0,1,23,0,15.5,15.5,0,0,1,5,11.85,15.59,15.59,0,0,1-2.58,8.85,16.18,16.18,0,0,1-6.27,5.7,17,17,0,0,1-7.65,1.83,16.35,16.35,0,0,1-7.68-2,17,17,0,0,1-6.27-5.76,15.13,15.13,0,0,1-2.55-8.61A15.51,15.51,0,0,1,762.81,24.22Zm7.5,16.17a6.38,6.38,0,0,0,3.9,1.47,6.54,6.54,0,0,0,4-1.5,5.22,5.22,0,0,0,2-4.44,5.19,5.19,0,0,0-1.86-4.38,6.44,6.44,0,0,0-4-1.44,6.28,6.28,0,0,0-4,1.5A5.33,5.33,0,0,0,768.39,36,5.17,5.17,0,0,0,770.31,40.39Z"/><path class="cls-1" d="M812.25,20.26a12.69,12.69,0,0,1,10,4.59,16.46,16.46,0,0,1,4,11.19V46.6a17.43,17.43,0,0,1-.09,2.07,4.9,4.9,0,0,1-.51,1.53q-.84,1.62-4.68,1.62-4.26,0-4.92-2.22a9.77,9.77,0,0,1-.36-3.06V36a4.82,4.82,0,0,0-5.19-5.22,5.25,5.25,0,0,0-3.84,1.44A5.05,5.05,0,0,0,805.17,36V46.6a17.43,17.43,0,0,1-.09,2.07,4.27,4.27,0,0,1-.57,1.53q-.78,1.62-4.62,1.62t-4.62-1.62a5.56,5.56,0,0,1-.51-1.59,17.43,17.43,0,0,1-.09-2.07V25.3a16.74,16.74,0,0,1,.09-2,4.27,4.27,0,0,1,.57-1.53q.84-1.5,4.62-1.5t4.5,1.38a4.77,4.77,0,0,1,.6,2.46,6.11,6.11,0,0,1,1.08-1.2,10.52,10.52,0,0,1,1.62-1.26A7.86,7.86,0,0,1,812.25,20.26Z"/><path class="cls-2" d="M11.12,36.26H29.6a17.43,17.43,0,0,1,2.07.09,4.81,4.81,0,0,1,1.59.57q1.62.84,1.62,4.68,0,4.2-2.22,4.92a10,10,0,0,1-3.12.36H5.78q-4.2,0-4.92-2.28A9.44,9.44,0,0,1,.5,41.54V8.18Q.5,5.12,1.64,4T6,2.9H29.6A17.43,17.43,0,0,1,31.67,3a4.81,4.81,0,0,1,1.59.57q1.62.84,1.62,4.68,0,4.2-2.22,4.92a10,10,0,0,1-3.12.36H11.12v6.06H23a17.43,17.43,0,0,1,2.07.09,4.81,4.81,0,0,1,1.59.57q1.62.84,1.62,4.68,0,4.2-2.28,4.92a10,10,0,0,1-3.12.36H11.12Z"/><path class="cls-2" d="M38.78,55.46v-35a16.63,16.63,0,0,1,.09-2,4.93,4.93,0,0,1,.51-1.5q.84-1.62,4-1.62t4.29.81A3.24,3.24,0,0,1,49,18.44q2.28-3.12,7.17-3.12t9.27,4.62a15.4,15.4,0,0,1,0,21.48Q61.1,46,56.18,46T49,43.28V55.4a16.63,16.63,0,0,1-.09,2A4.87,4.87,0,0,1,48.41,59a2.53,2.53,0,0,1-1.53,1.23,9.61,9.61,0,0,1-2.94.36,9.92,9.92,0,0,1-3-.36A2.56,2.56,0,0,1,39.41,59a4.57,4.57,0,0,1-.54-1.5A16.63,16.63,0,0,1,38.78,55.46ZM50.66,27.2a5.35,5.35,0,0,0-1.38,3.54,5.17,5.17,0,0,0,1.41,3.51,4.6,4.6,0,0,0,3.6,1.59A5,5,0,0,0,58,34.28a4.93,4.93,0,0,0,1.53-3.54,5.18,5.18,0,0,0-1.44-3.57,4.82,4.82,0,0,0-3.75-1.59A4.6,4.6,0,0,0,50.66,27.2Z"/><path class="cls-2" d="M83.57,9.41A2.54,2.54,0,0,1,82,10.64a12.93,12.93,0,0,1-6.06,0,2.52,2.52,0,0,1-1.59-1.26,5.15,5.15,0,0,1-.54-1.59,17.43,17.43,0,0,1-.09-2.07,17.43,17.43,0,0,1,.09-2.07,4.9,4.9,0,0,1,.51-1.53Q75.14.5,79,.5t4.56,1.62a4.81,4.81,0,0,1,.57,1.59,17.43,17.43,0,0,1,.09,2.07,17.43,17.43,0,0,1-.09,2.07A4.84,4.84,0,0,1,83.57,9.41ZM73.7,20.54a17.43,17.43,0,0,1,.09-2.07,5.56,5.56,0,0,1,.51-1.59q.84-1.56,4.68-1.56a6.34,6.34,0,0,1,4.08,1,3.31,3.31,0,0,1,1.08,2.58q.06.6.06,1.74v21a17.43,17.43,0,0,1-.09,2.07,4.81,4.81,0,0,1-.57,1.59q-.78,1.56-4.62,1.56T74.3,45.26a5.61,5.61,0,0,1-.51-1.56,17.32,17.32,0,0,1-.09-2.1Z"/><path class="cls-2" d="M89.24,44.06a2.5,2.5,0,0,1-1.14-2.28q0-1.56,2.28-4.74a2.35,2.35,0,0,1,2.13-1,8.76,8.76,0,0,1,4,1.47A9.25,9.25,0,0,0,101.06,39q3.66,0,3.66-1.44,0-1.14-4-1.68A19.64,19.64,0,0,1,93.2,33a8,8,0,0,1-2.88-3.39,12.28,12.28,0,0,1-1.14-5.49q0-9.48,13-9.48a21.14,21.14,0,0,1,8.76,2q2.1,1,2.1,2.4a7.08,7.08,0,0,1-1.32,3.54q-1.32,2.1-2.7,2.1a8.12,8.12,0,0,1-2.67-.9,10,10,0,0,0-4.23-.9q-3.54,0-3.54,1.32,0,1.8,4.08,2.34a22.33,22.33,0,0,1,7.68,2.28,6.79,6.79,0,0,1,2.91,2.91A10.43,10.43,0,0,1,114.44,37a11.14,11.14,0,0,1-1.17,5.31A7.59,7.59,0,0,1,110,45.56a22,22,0,0,1-9.63,1.86A20.6,20.6,0,0,1,89.24,44.06Z"/><path class="cls-2" d="M122.48,19.22a16.48,16.48,0,0,1,23,0,15.5,15.5,0,0,1,5,11.85,15.59,15.59,0,0,1-2.58,8.85,16.18,16.18,0,0,1-6.27,5.7,17,17,0,0,1-7.65,1.83,16.35,16.35,0,0,1-7.68-2A17,17,0,0,1,120,39.71a15.13,15.13,0,0,1-2.55-8.61A15.51,15.51,0,0,1,122.48,19.22ZM130,35.39a6.38,6.38,0,0,0,3.9,1.47,6.54,6.54,0,0,0,4-1.5,5.22,5.22,0,0,0,2-4.44A5.19,5.19,0,0,0,138,26.54a6.44,6.44,0,0,0-4-1.44,6.28,6.28,0,0,0-4,1.5A5.33,5.33,0,0,0,128.06,31,5.17,5.17,0,0,0,130,35.39Z"/><path class="cls-2" d="M175.55,2.09A2.54,2.54,0,0,1,177.14.86a12.93,12.93,0,0,1,6.06,0,2.52,2.52,0,0,1,1.59,1.26,5.15,5.15,0,0,1,.54,1.59,17.43,17.43,0,0,1,.09,2.07V41.6a17.43,17.43,0,0,1-.09,2.07,4.27,4.27,0,0,1-.57,1.53q-.9,1.62-5.07,1.62T175,43.88a8.84,8.84,0,0,1-7,2.88q-5.4,0-9.84-4.71a15.8,15.8,0,0,1,0-22q4.47-4.74,9.81-4.74a8.42,8.42,0,0,1,6.9,3V5.72A17.43,17.43,0,0,1,175,3.65,4.84,4.84,0,0,1,175.55,2.09ZM165.8,34.7a5.05,5.05,0,0,0,3.78,1.62,4.77,4.77,0,0,0,3.69-1.62,5.2,5.2,0,0,0,1.47-3.57,5.54,5.54,0,0,0-1.41-3.63,4.72,4.72,0,0,0-3.81-1.68,4.84,4.84,0,0,0-3.84,1.65,5.4,5.4,0,0,0-1.44,3.63A5.08,5.08,0,0,0,165.8,34.7Z"/><path class="cls-2" d="M220.7,27.29q0,3.69-1.83,5.46a5.71,5.71,0,0,1-4.05,1.77H200.6a3.29,3.29,0,0,0,2,2.82,7.88,7.88,0,0,0,4,1.14,16.52,16.52,0,0,0,5.46-.72l.66-.24a6.05,6.05,0,0,1,2.4-.66q1.92,0,3.3,2.7a6.62,6.62,0,0,1,.78,2.76q0,5.34-12.78,5.34a19.28,19.28,0,0,1-7.89-1.53,13.4,13.4,0,0,1-5.37-4.05,17.25,17.25,0,0,1-3.78-10.86q0-7.56,4.89-12.09a17.28,17.28,0,0,1,12.21-4.53q8.34,0,12.24,5.88A12.2,12.2,0,0,1,220.7,27.29ZM208,29.06q2.28,0,2.28-1.92a2.7,2.7,0,0,0-1-2.22,4.7,4.7,0,0,0-3-.84,6.06,6.06,0,0,0-3.87,1.59,4.46,4.46,0,0,0-1.92,3.39Z"/><path class="cls-2" d="M250.46,4.4a4.71,4.71,0,0,1,3.39-1.56,10.57,10.57,0,0,1,2.85.3,5.22,5.22,0,0,1,1.56.69,2.51,2.51,0,0,1,.84,1.29,12.25,12.25,0,0,1,.3,3.18V41.72a17.43,17.43,0,0,1-.09,2.07,4.81,4.81,0,0,1-.57,1.59Q257.9,47,254.06,47t-4.62-1.56a4.78,4.78,0,0,1-.57-1.65,19.83,19.83,0,0,1-.09-2.19V20.18l-.78.72a7.49,7.49,0,0,1-4.2,1.86q-1.74,0-3.63-2.1a6,6,0,0,1-1.89-3.72q0-1.62,2.16-3.54l9.84-8.88Z"/><path class="cls-2" d="M269.15,16.58q3.09,0,4.26,1.2t1.17,4.5q-.06,1.44-.15,2.13a4.79,4.79,0,0,1-.63,1.65q-.9,1.74-4.53,1.74t-4.8-1.17q-1.17-1.17-1.17-4.53t1.26-4.44A7.87,7.87,0,0,1,269.15,16.58Zm0,19.14q3.09,0,4.26,1.17t1.17,4.53q-.06,1.44-.15,2.13a4.79,4.79,0,0,1-.63,1.65q-.9,1.74-4.53,1.74t-4.8-1.17q-1.17-1.17-1.17-4.53t1.26-4.44A7.87,7.87,0,0,1,269.15,35.72Z"/><path class="cls-2" d="M340.39,4.58A4.58,4.58,0,0,1,341,6.2a18.25,18.25,0,0,1,.09,2.1V41.6q0,4.14-2.28,4.86a9.73,9.73,0,0,1-2.88.36,10.14,10.14,0,0,1-2.76-.3,4.58,4.58,0,0,1-1.55-.72,2.56,2.56,0,0,1-.84-1.2,11.43,11.43,0,0,1-.31-3.12V21.38q-1.5,1.86-4.38,5.91t-3.66,5.07c-.51.68-.88,1.15-1.08,1.41a5.77,5.77,0,0,1-1.47,1.08,5,5,0,0,1-5,.06,5.47,5.47,0,0,1-1.6-1.23l-.48-.66c-.8-1-2.37-3.13-4.74-6.39s-3.63-5-3.84-5.25V41.6a17.43,17.43,0,0,1-.09,2.07,4.09,4.09,0,0,1-.57,1.53c-.59,1.08-2.16,1.62-4.67,1.62s-4-.54-4.57-1.62a4.05,4.05,0,0,1-.56-1.56,16.87,16.87,0,0,1-.09-2.16V8.18a15.5,15.5,0,0,1,.09-2.07,4.55,4.55,0,0,1,.56-1.59c.61-1,2.16-1.56,4.69-1.56a8.9,8.9,0,0,1,2.79.39,3.55,3.55,0,0,1,1.52.81l.36.36L317.29,22.4q10.2-13.5,13.63-17.82,1-1.62,4.83-1.62T340.39,4.58Z"/><path class="cls-2" d="M355.72,9.41a2.54,2.54,0,0,1-1.59,1.23,10.24,10.24,0,0,1-3,.36,10.27,10.27,0,0,1-3-.36,2.49,2.49,0,0,1-1.59-1.26A4.9,4.9,0,0,1,346,7.79a15.5,15.5,0,0,1-.09-2.07A15.5,15.5,0,0,1,346,3.65a4.43,4.43,0,0,1,.51-1.53C347,1,348.58.5,351.13.5s4,.54,4.57,1.62a4.76,4.76,0,0,1,.56,1.59,15.14,15.14,0,0,1,.1,2.07,15.14,15.14,0,0,1-.1,2.07A4.4,4.4,0,0,1,355.72,9.41Zm-9.86,11.13a15.5,15.5,0,0,1,.09-2.07,5,5,0,0,1,.51-1.59c.55-1,2.12-1.56,4.67-1.56a6.34,6.34,0,0,1,4.08,1,3.31,3.31,0,0,1,1.08,2.58c0,.4.07,1,.07,1.74v21a15.14,15.14,0,0,1-.1,2.07,4.76,4.76,0,0,1-.56,1.59q-.79,1.56-4.62,1.56t-4.62-1.62A5,5,0,0,1,346,43.7a15.45,15.45,0,0,1-.09-2.1Z"/><path class="cls-2" d="M361.39,44.06a2.5,2.5,0,0,1-1.14-2.28q0-1.56,2.29-4.74a2.33,2.33,0,0,1,2.13-1,8.83,8.83,0,0,1,4,1.47A9.18,9.18,0,0,0,373.21,39c2.44,0,3.67-.48,3.67-1.44,0-.76-1.35-1.32-4-1.68a19.64,19.64,0,0,1-7.5-2.82,8,8,0,0,1-2.88-3.39,12.28,12.28,0,0,1-1.14-5.49q0-9.48,13-9.48a21.19,21.19,0,0,1,8.77,2c1.39.64,2.09,1.44,2.09,2.4a7.08,7.08,0,0,1-1.32,3.54c-.88,1.4-1.78,2.1-2.69,2.1a8.08,8.08,0,0,1-2.68-.9,10,10,0,0,0-4.23-.9q-3.54,0-3.54,1.32,0,1.8,4.08,2.34a22.33,22.33,0,0,1,7.68,2.28,6.79,6.79,0,0,1,2.91,2.91A10.33,10.33,0,0,1,386.59,37a11,11,0,0,1-1.17,5.31,7.62,7.62,0,0,1-3.26,3.27,22.12,22.12,0,0,1-9.64,1.86A20.6,20.6,0,0,1,361.39,44.06Z"/><path class="cls-2" d="M400.39,31.07a4.86,4.86,0,0,0,1.69,4,5.43,5.43,0,0,0,3.56,1.41,6.23,6.23,0,0,0,3.54-1.11,5.28,5.28,0,0,1,2.67-1.11q1.8,0,4.38,3.18a5.27,5.27,0,0,1,1.38,3.12q0,2.28-3.3,4.26a14.23,14.23,0,0,1-8.39,2.4,17.27,17.27,0,0,1-10.75-4,14.29,14.29,0,0,1-4-5.13A16,16,0,0,1,389.59,31a15.6,15.6,0,0,1,1.56-7,14.42,14.42,0,0,1,4-5.07,16.77,16.77,0,0,1,10.62-4,15.78,15.78,0,0,1,4.44.63,15.19,15.19,0,0,1,3.19,1.23l1,.6,1.67,1.14a3.43,3.43,0,0,1,1.56,2.73,6.48,6.48,0,0,1-1.26,3.45q-2.14,3.3-4.14,3.3A7,7,0,0,1,409,26.66a4.33,4.33,0,0,0-3.09-1,5.77,5.77,0,0,0-3.75,1.44A4.9,4.9,0,0,0,400.39,31.07Z"/><path class="cls-2" d="M425.65,19.22a16.48,16.48,0,0,1,23,0,15.5,15.5,0,0,1,5,11.85A15.59,15.59,0,0,1,451,39.89a16.18,16.18,0,0,1-6.27,5.7,17,17,0,0,1-7.65,1.83,16.35,16.35,0,0,1-7.68-2,17,17,0,0,1-6.27-5.76,15.13,15.13,0,0,1-2.55-8.61A15.51,15.51,0,0,1,425.65,19.22Zm7.5,16.17a6.38,6.38,0,0,0,3.9,1.47,6.54,6.54,0,0,0,4-1.5,5.22,5.22,0,0,0,2-4.44,5.19,5.19,0,0,0-1.86-4.38,6.44,6.44,0,0,0-4-1.44,6.28,6.28,0,0,0-4,1.5A5.33,5.33,0,0,0,431.23,31,5.17,5.17,0,0,0,433.15,35.39Z"/><path class="cls-2" d="M467.83,19.46q2.82-4.26,6.78-4.26a9.84,9.84,0,0,1,9.12,5.22,20.48,20.48,0,0,1,1.59-1.89,13.11,13.11,0,0,1,3-2.16,8.34,8.34,0,0,1,4.2-1.17,10.27,10.27,0,0,1,8,3.69q3.24,3.69,3.24,12.21V41.6a17.43,17.43,0,0,1-.09,2.07,4.81,4.81,0,0,1-.57,1.59q-.78,1.62-4.62,1.62t-4.62-1.68a5.56,5.56,0,0,1-.51-1.59,17.43,17.43,0,0,1-.09-2.07V31q0-5.22-3.72-5.22a3,3,0,0,0-2.85,1.38,8.28,8.28,0,0,0-.75,3.9V41.6a17.32,17.32,0,0,1-.09,2.1,4.84,4.84,0,0,1-.57,1.56q-.84,1.62-4.68,1.62T476,45.2a5.56,5.56,0,0,1-.51-1.59,17.43,17.43,0,0,1-.09-2.07V31q0-5.22-3.72-5.22T468.07,31V41.66a17.43,17.43,0,0,1-.09,2.07,4.81,4.81,0,0,1-.57,1.59q-.9,1.56-4.68,1.56t-4.62-1.62a5.61,5.61,0,0,1-.51-1.56,17.32,17.32,0,0,1-.09-2.1V20.48a17.43,17.43,0,0,1,.09-2.07,4.27,4.27,0,0,1,.57-1.53q.9-1.62,4.26-1.62t4.38,1.08A4.38,4.38,0,0,1,467.83,19.46Z"/><path class="cls-2" d="M518.89,19.46q2.82-4.26,6.78-4.26a9.84,9.84,0,0,1,9.12,5.22,20.48,20.48,0,0,1,1.59-1.89,13.11,13.11,0,0,1,3-2.16,8.34,8.34,0,0,1,4.2-1.17,10.27,10.27,0,0,1,8,3.69q3.24,3.69,3.24,12.21V41.6a17.43,17.43,0,0,1-.09,2.07,4.81,4.81,0,0,1-.57,1.59q-.78,1.62-4.62,1.62t-4.62-1.68a5.56,5.56,0,0,1-.51-1.59,17.43,17.43,0,0,1-.09-2.07V31q0-5.22-3.72-5.22a3,3,0,0,0-2.85,1.38,8.28,8.28,0,0,0-.75,3.9V41.6a17.32,17.32,0,0,1-.09,2.1,4.84,4.84,0,0,1-.57,1.56q-.84,1.62-4.68,1.62t-4.62-1.68a5.56,5.56,0,0,1-.51-1.59,17.43,17.43,0,0,1-.09-2.07V31q0-5.22-3.72-5.22T519.13,31V41.66a17.43,17.43,0,0,1-.09,2.07,4.81,4.81,0,0,1-.57,1.59q-.9,1.56-4.68,1.56t-4.62-1.62a5.61,5.61,0,0,1-.51-1.56,17.32,17.32,0,0,1-.09-2.1V20.48a17.43,17.43,0,0,1,.09-2.07,4.27,4.27,0,0,1,.57-1.53q.9-1.62,4.26-1.62t4.38,1.08A4.38,4.38,0,0,1,518.89,19.46Z"/><path class="cls-2" d="M573.67,46.76a12.75,12.75,0,0,1-10-4.59,16.46,16.46,0,0,1-4-11.19V20.48a17.32,17.32,0,0,1,.09-2.1,5.61,5.61,0,0,1,.51-1.56q.84-1.62,4.68-1.62,4.2,0,4.92,2.28a9.44,9.44,0,0,1,.36,3.06V31a4.82,4.82,0,0,0,5.19,5.22,5.25,5.25,0,0,0,3.84-1.44A5.05,5.05,0,0,0,580.69,31V20.42a17.43,17.43,0,0,1,.09-2.07,4.81,4.81,0,0,1,.57-1.59q.78-1.56,4.62-1.56t4.62,1.62a5.56,5.56,0,0,1,.51,1.59,17.43,17.43,0,0,1,.09,2.07V41.72a16.74,16.74,0,0,1-.09,2,4.27,4.27,0,0,1-.57,1.53q-.9,1.56-4.62,1.56t-4.5-1.44a4.77,4.77,0,0,1-.6-2.46,6.11,6.11,0,0,1-1.08,1.2,14.72,14.72,0,0,1-1.62,1.32A8,8,0,0,1,573.67,46.76Z"/><path class="cls-2" d="M613.57,15.26a12.69,12.69,0,0,1,10,4.59,16.46,16.46,0,0,1,4,11.19V41.6a17.43,17.43,0,0,1-.09,2.07A4.9,4.9,0,0,1,627,45.2q-.84,1.62-4.68,1.62-4.26,0-4.92-2.22a9.77,9.77,0,0,1-.36-3.06V31a4.82,4.82,0,0,0-5.19-5.22A5.25,5.25,0,0,0,608,27.2,5.05,5.05,0,0,0,606.49,31V41.6a17.43,17.43,0,0,1-.09,2.07,4.27,4.27,0,0,1-.57,1.53q-.78,1.62-4.62,1.62t-4.62-1.62a5.56,5.56,0,0,1-.51-1.59,17.43,17.43,0,0,1-.09-2.07V20.3a16.74,16.74,0,0,1,.09-2,4.27,4.27,0,0,1,.57-1.53q.84-1.5,4.62-1.5t4.5,1.38a4.77,4.77,0,0,1,.6,2.46,6.11,6.11,0,0,1,1.08-1.2,10.52,10.52,0,0,1,1.62-1.26A7.86,7.86,0,0,1,613.57,15.26Z"/><path class="cls-2" d="M642.22,9.41a2.54,2.54,0,0,1-1.59,1.23,12.93,12.93,0,0,1-6.06,0A2.52,2.52,0,0,1,633,9.38a5.15,5.15,0,0,1-.54-1.59,17.43,17.43,0,0,1-.09-2.07,17.43,17.43,0,0,1,.09-2.07A4.9,4.9,0,0,1,633,2.12Q633.79.5,637.63.5t4.56,1.62a4.81,4.81,0,0,1,.57,1.59,17.43,17.43,0,0,1,.09,2.07,17.43,17.43,0,0,1-.09,2.07A4.84,4.84,0,0,1,642.22,9.41Zm-9.87,11.13a17.43,17.43,0,0,1,.09-2.07,5.56,5.56,0,0,1,.51-1.59q.84-1.56,4.68-1.56a6.34,6.34,0,0,1,4.08,1,3.31,3.31,0,0,1,1.08,2.58q.06.6.06,1.74v21a17.43,17.43,0,0,1-.09,2.07,4.81,4.81,0,0,1-.57,1.59q-.78,1.56-4.62,1.56T633,45.26a5.61,5.61,0,0,1-.51-1.56,17.32,17.32,0,0,1-.09-2.1Z"/><path class="cls-2" d="M657.55,31.07a4.89,4.89,0,0,0,1.68,4,5.47,5.47,0,0,0,3.57,1.41,6.23,6.23,0,0,0,3.54-1.11A5.28,5.28,0,0,1,669,34.22q1.8,0,4.38,3.18a5.27,5.27,0,0,1,1.38,3.12q0,2.28-3.3,4.26a14.26,14.26,0,0,1-8.4,2.4,17.27,17.27,0,0,1-10.74-4,14.29,14.29,0,0,1-4-5.13A16,16,0,0,1,646.75,31a15.6,15.6,0,0,1,1.56-7,14.42,14.42,0,0,1,4-5.07,16.77,16.77,0,0,1,10.62-4,15.78,15.78,0,0,1,4.44.63,14.84,14.84,0,0,1,3.18,1.23l1,.6,1.68,1.14a3.43,3.43,0,0,1,1.56,2.73,6.48,6.48,0,0,1-1.26,3.45q-2.16,3.3-4.14,3.3a7,7,0,0,1-3.24-1.32,4.33,4.33,0,0,0-3.09-1,5.77,5.77,0,0,0-3.75,1.44A4.9,4.9,0,0,0,657.55,31.07Z"/><path class="cls-2" d="M699.19,18.62q.36-3.36,4.74-3.36a12.42,12.42,0,0,1,3.48.36A2.52,2.52,0,0,1,709,16.88a5.15,5.15,0,0,1,.54,1.59,17.43,17.43,0,0,1,.09,2.07v21a17.43,17.43,0,0,1-.09,2.07A5.56,5.56,0,0,1,709,45.2q-.84,1.56-4.11,1.56T700.54,46a3.24,3.24,0,0,1-1.29-2.37q-2.22,3.18-7.41,3.18T682.21,42a15.61,15.61,0,0,1-4.44-11,15.45,15.45,0,0,1,4.47-11q4.47-4.71,9.81-4.71a9.35,9.35,0,0,1,3.72.72,8.26,8.26,0,0,1,2.34,1.35A8.34,8.34,0,0,1,699.19,18.62ZM688.27,31.1a5,5,0,0,0,1.56,3.57,5.1,5.1,0,0,0,3.78,1.59,4.77,4.77,0,0,0,3.69-1.62,5.2,5.2,0,0,0,1.47-3.57,5.54,5.54,0,0,0-1.41-3.63,4.68,4.68,0,0,0-3.78-1.68,4.86,4.86,0,0,0-3.84,1.68A5.45,5.45,0,0,0,688.27,31.1Z"/><path class="cls-2" d="M732.79,25.88l-3.9-.24v8.28a4.14,4.14,0,0,0,.51,2.34,2.21,2.21,0,0,0,1.92.72,19.46,19.46,0,0,1,2.16.09,4.26,4.26,0,0,1,1.59.57q1.38.78,1.38,4,0,3.78-1.68,4.62a5.56,5.56,0,0,1-1.59.51,16.74,16.74,0,0,1-2,.09q-6.24,0-9.48-2.82t-3.24-9.54V25.64a15.8,15.8,0,0,1-2.46.18,2.76,2.76,0,0,1-2.19-1,5.4,5.4,0,0,1-.87-3.48,15.1,15.1,0,0,1,.3-3.57,3.21,3.21,0,0,1,.84-1.59,3.68,3.68,0,0,1,2.4-.78l2,.24V9.44a16.63,16.63,0,0,1,.09-2A3.78,3.78,0,0,1,719.11,6q.78-1.5,4.62-1.5,4.08,0,4.86,2.22a11.22,11.22,0,0,1,.3,3.06v5.88q2.64-.24,4-.24a17.08,17.08,0,0,1,2,.09,4.81,4.81,0,0,1,1.59.57q1.56.78,1.56,4.62t-1.62,4.62a5.56,5.56,0,0,1-1.59.51A17.43,17.43,0,0,1,732.79,25.88Z"/><path class="cls-2" d="M751.24,9.41a2.54,2.54,0,0,1-1.59,1.23,12.93,12.93,0,0,1-6.06,0A2.52,2.52,0,0,1,742,9.38a5.15,5.15,0,0,1-.54-1.59,17.43,17.43,0,0,1-.09-2.07,17.43,17.43,0,0,1,.09-2.07A4.9,4.9,0,0,1,742,2.12Q742.81.5,746.65.5t4.56,1.62a4.81,4.81,0,0,1,.57,1.59,17.43,17.43,0,0,1,.09,2.07,17.43,17.43,0,0,1-.09,2.07A4.84,4.84,0,0,1,751.24,9.41Zm-9.87,11.13a17.43,17.43,0,0,1,.09-2.07,5.56,5.56,0,0,1,.51-1.59q.84-1.56,4.68-1.56a6.34,6.34,0,0,1,4.08,1,3.31,3.31,0,0,1,1.08,2.58q.06.6.06,1.74v21a17.43,17.43,0,0,1-.09,2.07,4.81,4.81,0,0,1-.57,1.59q-.78,1.56-4.62,1.56T742,45.26a5.61,5.61,0,0,1-.51-1.56,17.32,17.32,0,0,1-.09-2.1Z"/><path class="cls-2" d="M760.81,19.22a16.48,16.48,0,0,1,23,0,15.5,15.5,0,0,1,5,11.85,15.59,15.59,0,0,1-2.58,8.85,16.18,16.18,0,0,1-6.27,5.7,17,17,0,0,1-7.65,1.83,16.35,16.35,0,0,1-7.68-2,17,17,0,0,1-6.27-5.76,15.13,15.13,0,0,1-2.55-8.61A15.51,15.51,0,0,1,760.81,19.22Zm7.5,16.17a6.38,6.38,0,0,0,3.9,1.47,6.54,6.54,0,0,0,4-1.5,5.22,5.22,0,0,0,2-4.44,5.19,5.19,0,0,0-1.86-4.38,6.44,6.44,0,0,0-4-1.44,6.28,6.28,0,0,0-4,1.5A5.33,5.33,0,0,0,766.39,31,5.17,5.17,0,0,0,768.31,35.39Z"/><path class="cls-2" d="M810.25,15.26a12.69,12.69,0,0,1,10,4.59,16.46,16.46,0,0,1,4,11.19V41.6a17.43,17.43,0,0,1-.09,2.07,4.9,4.9,0,0,1-.51,1.53q-.84,1.62-4.68,1.62-4.26,0-4.92-2.22a9.77,9.77,0,0,1-.36-3.06V31a4.82,4.82,0,0,0-5.19-5.22,5.25,5.25,0,0,0-3.84,1.44A5.05,5.05,0,0,0,803.17,31V41.6a17.43,17.43,0,0,1-.09,2.07,4.27,4.27,0,0,1-.57,1.53q-.78,1.62-4.62,1.62t-4.62-1.62a5.56,5.56,0,0,1-.51-1.59,17.43,17.43,0,0,1-.09-2.07V20.3a16.74,16.74,0,0,1,.09-2,4.27,4.27,0,0,1,.57-1.53q.84-1.5,4.62-1.5t4.5,1.38a4.77,4.77,0,0,1,.6,2.46,6.11,6.11,0,0,1,1.08-1.2,10.52,10.52,0,0,1,1.62-1.26A7.86,7.86,0,0,1,810.25,15.26Z"/></g></g></svg>