<svg xmlns="http://www.w3.org/2000/svg" viewBox="0 0 552.02 47.47"><defs><style>.cls-1{isolation:isolate;}.cls-2{mix-blend-mode:multiply;}.cls-3,.cls-4{stroke:#000;stroke-miterlimit:10;}.cls-4{fill:#fff;}</style></defs><title>Asset 1</title><g class="cls-1"><g id="Layer_2" data-name="Layer 2"><g id="Layer_1-2" data-name="Layer 1"><g class="cls-2"><path class="cls-3" d="M10.11,29.21H23.35a13,13,0,0,1,1.49.07,3.37,3.37,0,0,1,1.14.41c.77.4,1.16,1.52,1.16,3.35,0,2-.53,3.18-1.59,3.53a7.29,7.29,0,0,1-2.24.26h-17c-2,0-3.18-.55-3.52-1.64A6.81,6.81,0,0,1,2.5,33V9.09a4.15,4.15,0,0,1,.82-3,4.47,4.47,0,0,1,3.09-.79H23.35a13.55,13.55,0,0,1,1.49.06A3.37,3.37,0,0,1,26,5.78c.77.4,1.16,1.52,1.16,3.35,0,2-.53,3.19-1.59,3.53a7.29,7.29,0,0,1-2.24.26H10.11v4.34h8.51a13.55,13.55,0,0,1,1.49.06,3.6,3.6,0,0,1,1.14.41c.77.4,1.16,1.52,1.16,3.36,0,2-.55,3.18-1.64,3.52a6.88,6.88,0,0,1-2.23.26H10.11Z"/><path class="cls-3" d="M29.93,43V17.86A12.29,12.29,0,0,1,30,16.4a3.37,3.37,0,0,1,.36-1.07q.6-1.17,2.88-1.17a5.72,5.72,0,0,1,3.08.58,2.32,2.32,0,0,1,.92,1.7,5.93,5.93,0,0,1,5.14-2.23c2.34,0,4.55,1.1,6.65,3.31a11,11,0,0,1,0,15.39q-3.12,3.31-6.65,3.31t-5.11-2v8.68a12.17,12.17,0,0,1-.07,1.46,3.33,3.33,0,0,1-.39,1.1,1.81,1.81,0,0,1-1.09.88,7,7,0,0,1-2.11.26,7.17,7.17,0,0,1-2.13-.26,1.85,1.85,0,0,1-1.12-.86A3.3,3.3,0,0,1,30,44.44,12.49,12.49,0,0,1,29.93,43Zm8.52-20.25a3.84,3.84,0,0,0-1,2.54,3.66,3.66,0,0,0,1,2.51,3.28,3.28,0,0,0,2.58,1.14,3.59,3.59,0,0,0,2.66-1.11,3.52,3.52,0,0,0,1.1-2.54,3.7,3.7,0,0,0-1-2.56,3.45,3.45,0,0,0-2.69-1.14A3.31,3.31,0,0,0,38.45,22.72Z"/><path class="cls-3" d="M62,10a1.77,1.77,0,0,1-1.14.88,9.19,9.19,0,0,1-4.34,0,1.79,1.79,0,0,1-1.14-.9A4.05,4.05,0,0,1,55,8.81,13.34,13.34,0,0,1,55,7.33,13.55,13.55,0,0,1,55,5.84a3.7,3.7,0,0,1,.37-1.09c.4-.78,1.52-1.16,3.35-1.16S61.64,4,62,4.75a3.37,3.37,0,0,1,.41,1.14,13.34,13.34,0,0,1,.06,1.48,13.34,13.34,0,0,1-.06,1.48A3.27,3.27,0,0,1,62,10ZM55,18A13.55,13.55,0,0,1,55,16.46a4.33,4.33,0,0,1,.37-1.13c.4-.75,1.52-1.12,3.35-1.12a4.55,4.55,0,0,1,2.93.73,2.4,2.4,0,0,1,.77,1.85c0,.28,0,.7,0,1.24v15a13.55,13.55,0,0,1-.06,1.49A3.37,3.37,0,0,1,62,35.71c-.37.74-1.48,1.12-3.31,1.12s-2.91-.39-3.31-1.17A4.35,4.35,0,0,1,55,34.55,13.47,13.47,0,0,1,55,33Z"/><path class="cls-3" d="M66.1,34.8a1.77,1.77,0,0,1-.82-1.63,7.07,7.07,0,0,1,1.63-3.4A1.71,1.71,0,0,1,68.44,29,6.24,6.24,0,0,1,71.3,30.1a6.62,6.62,0,0,0,3.27,1c1.74,0,2.62-.34,2.62-1s-1-.95-2.88-1.21a14,14,0,0,1-5.38-2,5.65,5.65,0,0,1-2.06-2.43,8.7,8.7,0,0,1-.82-3.93q0-6.8,9.33-6.8a15.08,15.08,0,0,1,6.28,1.47c1,.46,1.51,1,1.51,1.72a5.09,5.09,0,0,1-1,2.53c-.63,1-1.28,1.51-1.93,1.51a5.84,5.84,0,0,1-1.92-.65,7.13,7.13,0,0,0-3-.64c-1.69,0-2.54.31-2.54.94,0,.86,1,1.42,2.93,1.68a16,16,0,0,1,5.5,1.64A4.86,4.86,0,0,1,83.32,26a7.47,7.47,0,0,1,.84,3.72,8,8,0,0,1-.84,3.81A5.47,5.47,0,0,1,81,35.88a15.75,15.75,0,0,1-6.9,1.33A14.69,14.69,0,0,1,66.1,34.8Z"/><path class="cls-3" d="M89.92,17a11.82,11.82,0,0,1,16.47,0A11.1,11.1,0,0,1,110,25.47a11.22,11.22,0,0,1-1.85,6.35,11.64,11.64,0,0,1-4.5,4.08,12.11,12.11,0,0,1-5.48,1.31,11.59,11.59,0,0,1-5.5-1.4,12.18,12.18,0,0,1-4.5-4.12,10.83,10.83,0,0,1-1.82-6.17A11.12,11.12,0,0,1,89.92,17Zm5.37,11.59a4.59,4.59,0,0,0,2.8,1.05,4.64,4.64,0,0,0,2.83-1.07,3.74,3.74,0,0,0,1.42-3.18A3.71,3.71,0,0,0,101,22.25a4.6,4.6,0,0,0-2.88-1,4.54,4.54,0,0,0-2.88,1.07,3.82,3.82,0,0,0-1.33,3.16A3.7,3.7,0,0,0,95.29,28.59Z"/><path class="cls-3" d="M128,4.73a1.85,1.85,0,0,1,1.14-.89,9.54,9.54,0,0,1,4.34,0,1.81,1.81,0,0,1,1.14.91A3.5,3.5,0,0,1,135,5.89,13.34,13.34,0,0,1,135,7.37V33a13.22,13.22,0,0,1-.06,1.48,3,3,0,0,1-.41,1.1c-.43.78-1.64,1.16-3.63,1.16s-3.11-.7-3.34-2.1a6.34,6.34,0,0,1-5,2.06,9.54,9.54,0,0,1-7-3.38,11.33,11.33,0,0,1,0-15.76,9.56,9.56,0,0,1,7-3.39,6,6,0,0,1,5,2.15v-9a13.55,13.55,0,0,1,.06-1.49A3.71,3.71,0,0,1,128,4.73ZM121,28.1a3.65,3.65,0,0,0,2.71,1.16,3.46,3.46,0,0,0,2.65-1.16,3.75,3.75,0,0,0,1.05-2.56,4,4,0,0,0-1-2.6,3.37,3.37,0,0,0-2.73-1.21,3.48,3.48,0,0,0-2.75,1.18,3.89,3.89,0,0,0-1,2.61A3.69,3.69,0,0,0,121,28.1Z"/><path class="cls-3" d="M160.31,22.79A5.24,5.24,0,0,1,159,26.7,4.14,4.14,0,0,1,156.09,28H145.9a2.38,2.38,0,0,0,1.42,2,5.7,5.7,0,0,0,2.84.82,11.9,11.9,0,0,0,3.91-.52l.48-.17a4.25,4.25,0,0,1,1.72-.48c.91,0,1.7.65,2.36,1.94a4.76,4.76,0,0,1,.56,2q0,3.82-9.16,3.82a13.79,13.79,0,0,1-5.65-1.09,9.57,9.57,0,0,1-3.85-2.9,12.37,12.37,0,0,1-2.71-7.79,11.25,11.25,0,0,1,3.5-8.66,12.38,12.38,0,0,1,8.75-3.25q6,0,8.78,4.22A8.76,8.76,0,0,1,160.31,22.79Zm-9.08,1.26c1.09,0,1.64-.45,1.64-1.37a1.93,1.93,0,0,0-.75-1.59,3.4,3.4,0,0,0-2.15-.6,4.39,4.39,0,0,0-2.78,1.13,3.18,3.18,0,0,0-1.37,2.43Z"/><path class="cls-3" d="M194,29.26a5.5,5.5,0,0,1,2.51.41,2,2,0,0,1,1,1.24,7.39,7.39,0,0,1,.26,2.2,6.8,6.8,0,0,1-.28,2.17,1.81,1.81,0,0,1-.92,1.12,5.7,5.7,0,0,1-2.67.51H177.12a3.61,3.61,0,0,1-2.67-1.16A3.8,3.8,0,0,1,173.34,33,6.56,6.56,0,0,1,175,28.76a15.41,15.41,0,0,1,3.89-3.35q2.28-1.39,4.56-2.75a17.86,17.86,0,0,0,3.89-3.08,5.28,5.28,0,0,0,1.61-3.65,3.09,3.09,0,0,0-.3-1.1,4.66,4.66,0,0,0-.67-1.16,3.37,3.37,0,0,0-1.14-.84,4.83,4.83,0,0,0-2.15-.39,3.27,3.27,0,0,0-2.38,1,3.52,3.52,0,0,0-1.14,2l-.17,1v.26a10,10,0,0,1-.07,1.42,3.05,3.05,0,0,1-.41,1.08c-.43.68-1.54,1-3.35,1-2,0-3.2-.55-3.57-1.64a8.22,8.22,0,0,1-.21-2.19,11.64,11.64,0,0,1,3.2-8,11.66,11.66,0,0,1,16.79,0,12,12,0,0,1,3.23,8.2,10.36,10.36,0,0,1-1.08,4.64,11.41,11.41,0,0,1-2.58,3.53,20.17,20.17,0,0,1-5.68,3.82l-1.07.43v.22Z"/><path class="cls-3" d="M203.71,15.11a4.25,4.25,0,0,1,3.06.86,4.66,4.66,0,0,1,.84,3.23c0,.68-.07,1.19-.11,1.52a3.26,3.26,0,0,1-.45,1.18c-.43.84-1.52,1.25-3.25,1.25s-2.88-.28-3.44-.84-.84-1.64-.84-3.24.3-2.73.91-3.19A5.67,5.67,0,0,1,203.71,15.11Zm0,13.72a4.31,4.31,0,0,1,3.06.84c.56.55.84,1.64.84,3.24,0,.69-.07,1.2-.11,1.53a3.32,3.32,0,0,1-.45,1.18c-.43.83-1.52,1.25-3.25,1.25s-2.88-.28-3.44-.84-.84-1.64-.84-3.25.3-2.72.91-3.18A5.59,5.59,0,0,1,203.71,28.83Z"/><path class="cls-3" d="M244.54,11.67a11.3,11.3,0,0,1,1.12,5.07,11.2,11.2,0,0,1-1.12,5.06,9.87,9.87,0,0,1-2.88,3.59,12,12,0,0,1-7.39,2.75h-5.38V33a13.34,13.34,0,0,1-.06,1.48,3.6,3.6,0,0,1-.41,1.14c-.4.78-1.52,1.16-3.36,1.16-2,0-3.18-.53-3.52-1.59a7.22,7.22,0,0,1-.26-2.23V9.09a13.34,13.34,0,0,1,.06-1.48,3.6,3.6,0,0,1,.41-1.14c.4-.78,1.52-1.16,3.36-1.16h9.2a11.89,11.89,0,0,1,7.35,2.75A9.77,9.77,0,0,1,244.54,11.67Zm-7.69,7.91a3.33,3.33,0,0,0,1.24-2.84,3.41,3.41,0,0,0-1.24-2.86,4.22,4.22,0,0,0-2.58-1h-5.38v7.61h5.42A4.21,4.21,0,0,0,236.85,19.58Z"/><path class="cls-3" d="M247.77,34.8a1.77,1.77,0,0,1-.82-1.63,7.07,7.07,0,0,1,1.63-3.4,1.71,1.71,0,0,1,1.53-.73A6.21,6.21,0,0,1,253,30.1a6.62,6.62,0,0,0,3.27,1c1.75,0,2.62-.34,2.62-1s-1-.95-2.88-1.21a14,14,0,0,1-5.38-2,5.71,5.71,0,0,1-2.06-2.43,8.83,8.83,0,0,1-.82-3.93q0-6.8,9.34-6.8a15.07,15.07,0,0,1,6.27,1.47c1,.46,1.51,1,1.51,1.72a5.09,5.09,0,0,1-.95,2.53c-.63,1-1.27,1.51-1.93,1.51a5.84,5.84,0,0,1-1.92-.65,7.13,7.13,0,0,0-3-.64c-1.69,0-2.53.31-2.53.94,0,.86,1,1.42,2.92,1.68a16,16,0,0,1,5.5,1.64A4.86,4.86,0,0,1,265,26a7.47,7.47,0,0,1,.84,3.72,8,8,0,0,1-.84,3.81,5.5,5.5,0,0,1-2.34,2.34,15.82,15.82,0,0,1-6.91,1.33A14.72,14.72,0,0,1,247.77,34.8Z"/><path class="cls-3" d="M288,14.42c1.69.75,2.54,1.65,2.54,2.71a3.33,3.33,0,0,1-.34,1.46c-.23.46-.35.71-.35.73l-11.26,25.2a13.09,13.09,0,0,1-.59,1.25,2.47,2.47,0,0,1-.75.82,2.12,2.12,0,0,1-1.29.38,6.52,6.52,0,0,1-2.28-.64c-1.69-.75-2.53-1.64-2.53-2.67q0-1,4.12-9.84l-8.55-14.41a4.75,4.75,0,0,1-.86-2.11c0-.91.77-1.83,2.32-2.75a5,5,0,0,1,2.28-.86,2.35,2.35,0,0,1,1.33.35,2.56,2.56,0,0,1,.75.7q.24.38,2.37,4c1.42,2.43,2.77,4.68,4.06,6.78q.22-.69,2.32-5.31t2.26-4.93a4.57,4.57,0,0,1,.5-.73,1.84,1.84,0,0,1,1.57-.73A6.14,6.14,0,0,1,288,14.42Z"/><path class="cls-3" d="M298.68,25.49a3.5,3.5,0,0,0,1.2,2.84,3.91,3.91,0,0,0,2.56,1,4.48,4.48,0,0,0,2.54-.79,3.79,3.79,0,0,1,1.91-.8c.86,0,1.91.76,3.14,2.28a3.78,3.78,0,0,1,1,2.24c0,1.09-.79,2.1-2.37,3a10.18,10.18,0,0,1-6,1.72,12.36,12.36,0,0,1-7.69-2.88,10.11,10.11,0,0,1-2.88-3.68,11.36,11.36,0,0,1-1.12-5.07,11.1,11.1,0,0,1,1.12-5,10.22,10.22,0,0,1,2.88-3.64,12,12,0,0,1,7.61-2.83,11.31,11.31,0,0,1,3.18.45,10.53,10.53,0,0,1,2.28.88l.69.43,1.2.82a2.43,2.43,0,0,1,1.12,2,4.69,4.69,0,0,1-.9,2.48c-1,1.57-2,2.36-3,2.36a5,5,0,0,1-2.32-1,3.16,3.16,0,0,0-2.22-.73,4.12,4.12,0,0,0-2.68,1A3.47,3.47,0,0,0,298.68,25.49Z"/><path class="cls-3" d="M326.11,14.25a9.1,9.1,0,0,1,7.16,3.27,11.7,11.7,0,0,1,2.86,8v7.56a13.55,13.55,0,0,1-.06,1.49,3.6,3.6,0,0,1-.41,1.14c-.37.74-1.48,1.12-3.31,1.12s-2.84-.38-3.27-1.12a3.38,3.38,0,0,1-.41-1.16,14.7,14.7,0,0,1-.06-1.55V25.47a3.72,3.72,0,0,0-1-2.75,3.41,3.41,0,0,0-2.52-1,4.14,4.14,0,0,0-2.68.93,3.29,3.29,0,0,0-1.34,2.08v8.34a13.55,13.55,0,0,1-.06,1.49,3.6,3.6,0,0,1-.41,1.14c-.37.74-1.48,1.12-3.31,1.12s-2.91-.39-3.31-1.17a4,4,0,0,1-.37-1.11,13.47,13.47,0,0,1-.06-1.51V7.33a13.55,13.55,0,0,1,.06-1.49A3.43,3.43,0,0,1,314,4.75c.4-.78,1.52-1.16,3.35-1.16s2.9.38,3.27,1.16A3.6,3.6,0,0,1,321,5.89a13.34,13.34,0,0,1,.06,1.48v9.5A6.36,6.36,0,0,1,326.11,14.25Z"/><path class="cls-3" d="M342.54,17A11.82,11.82,0,0,1,359,17a11.1,11.1,0,0,1,3.57,8.49,11.22,11.22,0,0,1-1.85,6.35,11.64,11.64,0,0,1-4.5,4.08,12.11,12.11,0,0,1-5.48,1.31,11.59,11.59,0,0,1-5.5-1.4,12.18,12.18,0,0,1-4.5-4.12,10.9,10.9,0,0,1-1.82-6.17A11.12,11.12,0,0,1,342.54,17Zm5.37,11.59a4.59,4.59,0,0,0,2.8,1.05,4.69,4.69,0,0,0,2.84-1.07A3.76,3.76,0,0,0,355,25.39a3.72,3.72,0,0,0-1.34-3.14,4.6,4.6,0,0,0-2.88-1,4.54,4.54,0,0,0-2.88,1.07,3.82,3.82,0,0,0-1.33,3.16A3.72,3.72,0,0,0,347.91,28.59Z"/><path class="cls-3" d="M365.37,7.28a10.87,10.87,0,0,1,.07-1.48,3.88,3.88,0,0,1,.36-1.14c.4-.77,1.52-1.16,3.36-1.16s2.83.39,3.26,1.16a3.38,3.38,0,0,1,.41,1.16,11.58,11.58,0,0,1,.07,1.51V27.24a4.54,4.54,0,0,0,.25,2c.18.28.56.41,1.14.41a6.14,6.14,0,0,1,1.19.07,2.11,2.11,0,0,1,.73.36c.57.37.86,1.39.86,3,0,1.81-.29,2.91-.86,3.32-.75.51-2.53.6-5.33.25-2.21-.28-3.65-1-4.3-2.19q-1.21-2.1-1.21-6.71Z"/><path class="cls-3" d="M382.4,17a11.82,11.82,0,0,1,8.26-3.35A11.69,11.69,0,0,1,398.87,17a11.1,11.1,0,0,1,3.57,8.49,11.22,11.22,0,0,1-1.85,6.35,11.57,11.57,0,0,1-4.5,4.08,12.11,12.11,0,0,1-5.48,1.31,11.62,11.62,0,0,1-5.5-1.4,12.18,12.18,0,0,1-4.5-4.12,10.9,10.9,0,0,1-1.82-6.17A11.12,11.12,0,0,1,382.4,17Zm5.37,11.59a4.59,4.59,0,0,0,2.8,1.05,4.67,4.67,0,0,0,2.84-1.07,3.76,3.76,0,0,0,1.42-3.18,3.72,3.72,0,0,0-1.34-3.14,4.6,4.6,0,0,0-2.88-1,4.54,4.54,0,0,0-2.88,1.07,3.82,3.82,0,0,0-1.33,3.16A3.72,3.72,0,0,0,387.77,28.59Z"/><path class="cls-3" d="M419.59,34q-1.63,2.15-5.2,2.15a9.19,9.19,0,0,1-6.69-3.29,11,11,0,0,1,0-15.37,9.35,9.35,0,0,1,6.88-3.32,6.42,6.42,0,0,1,2.66.54,5.93,5.93,0,0,1,1.66,1,5.47,5.47,0,0,1,.71.84,2.62,2.62,0,0,1,.88-1.83,3.83,3.83,0,0,1,2.43-.62,8.14,8.14,0,0,1,2.45.26,1.8,1.8,0,0,1,1.1.88,3.47,3.47,0,0,1,.38,1.09,10.61,10.61,0,0,1,.07,1.47v17.8a10.12,10.12,0,0,1-3.44,8,11.4,11.4,0,0,1-7.74,3A13,13,0,0,1,409.53,45c-2-1.07-3-2-3-2.89a4.1,4.1,0,0,1,1.28-3,11.59,11.59,0,0,1,1.27-1.25,1.7,1.7,0,0,1,1.06-.34,2,2,0,0,1,1.24.51,7.2,7.2,0,0,0,4.48,1.59,3.25,3.25,0,0,0,2.66-1.29,4.78,4.78,0,0,0,1-3.09Zm-7.65-8.8a3.52,3.52,0,0,0,1.1,2.52,3.57,3.57,0,0,0,2.66,1.12,3.34,3.34,0,0,0,2.6-1.14,3.64,3.64,0,0,0,1-2.5,3.88,3.88,0,0,0-1-2.53,3.3,3.3,0,0,0-2.67-1.19A3.44,3.44,0,0,0,413,22.64,3.73,3.73,0,0,0,411.94,25.19Z"/><path class="cls-3" d="M437.46,10a1.77,1.77,0,0,1-1.14.88,9.19,9.19,0,0,1-4.34,0,1.77,1.77,0,0,1-1.14-.9,3.5,3.5,0,0,1-.39-1.14,13.34,13.34,0,0,1-.06-1.48,13.55,13.55,0,0,1,.06-1.49,3.43,3.43,0,0,1,.37-1.09c.4-.78,1.52-1.16,3.35-1.16s2.9.38,3.27,1.16a3.6,3.6,0,0,1,.41,1.14,13.34,13.34,0,0,1,.06,1.48,13.34,13.34,0,0,1-.06,1.48A3.49,3.49,0,0,1,437.46,10Zm-7.07,8a13.55,13.55,0,0,1,.06-1.49,4,4,0,0,1,.37-1.13c.4-.75,1.52-1.12,3.35-1.12a4.55,4.55,0,0,1,2.93.73,2.4,2.4,0,0,1,.77,1.85c0,.28,0,.7,0,1.24v15a13.55,13.55,0,0,1-.06,1.49,3.6,3.6,0,0,1-.41,1.14c-.37.74-1.48,1.12-3.31,1.12s-2.91-.39-3.31-1.17a4,4,0,0,1-.37-1.11,13.47,13.47,0,0,1-.06-1.51Z"/><path class="cls-3" d="M441.52,34.8a1.78,1.78,0,0,1-.81-1.63,7.07,7.07,0,0,1,1.63-3.4,1.7,1.7,0,0,1,1.53-.73,6.24,6.24,0,0,1,2.86,1.06,6.62,6.62,0,0,0,3.26,1c1.75,0,2.63-.34,2.63-1s-1-.95-2.88-1.21a14,14,0,0,1-5.38-2,5.65,5.65,0,0,1-2.06-2.43,8.7,8.7,0,0,1-.82-3.93q0-6.8,9.33-6.8a15.08,15.08,0,0,1,6.28,1.47c1,.46,1.5,1,1.5,1.72a5.06,5.06,0,0,1-.94,2.53c-.63,1-1.28,1.51-1.94,1.51a5.88,5.88,0,0,1-1.91-.65,7.13,7.13,0,0,0-3-.64c-1.69,0-2.54.31-2.54.94,0,.86,1,1.42,2.93,1.68a16,16,0,0,1,5.5,1.64A4.79,4.79,0,0,1,458.74,26a7.47,7.47,0,0,1,.84,3.72,8,8,0,0,1-.84,3.81,5.45,5.45,0,0,1-2.34,2.34,15.75,15.75,0,0,1-6.9,1.33A14.73,14.73,0,0,1,441.52,34.8Z"/><path class="cls-3" d="M474.85,21.78l-2.8-.18v5.94a3,3,0,0,0,.37,1.67,1.56,1.56,0,0,0,1.38.52,14.88,14.88,0,0,1,1.54.06,3.16,3.16,0,0,1,1.14.41q1,.57,1,2.88c0,1.81-.4,2.91-1.2,3.32a3.88,3.88,0,0,1-1.14.36,12.41,12.41,0,0,1-1.44.07q-4.47,0-6.8-2c-1.54-1.34-2.32-3.62-2.32-6.83V21.6a10.78,10.78,0,0,1-1.76.13,2,2,0,0,1-1.57-.73,3.85,3.85,0,0,1-.62-2.49,11.06,11.06,0,0,1,.21-2.56,2.26,2.26,0,0,1,.6-1.14,2.65,2.65,0,0,1,1.72-.56l1.42.17V10a10.44,10.44,0,0,1,.07-1.46,2.63,2.63,0,0,1,.4-1c.38-.72,1.48-1.08,3.32-1.08s3.11.54,3.48,1.6a8.17,8.17,0,0,1,.21,2.19v4.21c1.26-.11,2.22-.17,2.86-.17a13.26,13.26,0,0,1,1.47.06,3.64,3.64,0,0,1,1.13.41c.75.38,1.12,1.48,1.12,3.31s-.38,2.91-1.16,3.32a3.88,3.88,0,0,1-1.14.36A12.82,12.82,0,0,1,474.85,21.78Z"/><path class="cls-3" d="M488.07,10a1.77,1.77,0,0,1-1.14.88,9.19,9.19,0,0,1-4.34,0,1.77,1.77,0,0,1-1.14-.9,3.5,3.5,0,0,1-.39-1.14A13.34,13.34,0,0,1,481,7.33a13.55,13.55,0,0,1,.06-1.49,3.43,3.43,0,0,1,.37-1.09c.4-.78,1.52-1.16,3.35-1.16s2.9.38,3.27,1.16a3.37,3.37,0,0,1,.41,1.14,13.34,13.34,0,0,1,.06,1.48,13.34,13.34,0,0,1-.06,1.48A3.27,3.27,0,0,1,488.07,10ZM481,18a13.55,13.55,0,0,1,.06-1.49,4,4,0,0,1,.37-1.13c.4-.75,1.52-1.12,3.35-1.12a4.55,4.55,0,0,1,2.93.73,2.4,2.4,0,0,1,.77,1.85c0,.28,0,.7,0,1.24v15a13.55,13.55,0,0,1-.06,1.49,3.37,3.37,0,0,1-.41,1.14c-.37.74-1.48,1.12-3.31,1.12s-2.91-.39-3.31-1.17a4,4,0,0,1-.37-1.11A13.47,13.47,0,0,1,481,33Z"/><path class="cls-3" d="M499.06,25.49a3.5,3.5,0,0,0,1.2,2.84,3.89,3.89,0,0,0,2.56,1,4.48,4.48,0,0,0,2.54-.79,3.76,3.76,0,0,1,1.91-.8c.86,0,1.91.76,3.14,2.28a3.78,3.78,0,0,1,1,2.24c0,1.09-.79,2.1-2.37,3A10.18,10.18,0,0,1,503,37a12.36,12.36,0,0,1-7.69-2.88,10.24,10.24,0,0,1-2.89-3.68,11.49,11.49,0,0,1-1.11-5.07,11.22,11.22,0,0,1,1.11-5,10.36,10.36,0,0,1,2.89-3.64,12,12,0,0,1,7.61-2.83,11.31,11.31,0,0,1,3.18.45,10.53,10.53,0,0,1,2.28.88l.69.43,1.2.82a2.46,2.46,0,0,1,1.12,2,4.63,4.63,0,0,1-.91,2.48c-1,1.57-2,2.36-3,2.36a5,5,0,0,1-2.32-1A3.16,3.16,0,0,0,503,21.6a4.14,4.14,0,0,0-2.69,1A3.49,3.49,0,0,0,499.06,25.49Z"/><path class="cls-3" d="M528.9,16.57c.17-1.6,1.3-2.41,3.4-2.41a9,9,0,0,1,2.49.26,1.83,1.83,0,0,1,1.14.91,4.11,4.11,0,0,1,.39,1.13,13.55,13.55,0,0,1,.06,1.49V33a13.34,13.34,0,0,1-.06,1.48,4.27,4.27,0,0,1-.37,1.14c-.4.75-1.38,1.12-2.94,1.12a5.76,5.76,0,0,1-3.14-.58,2.34,2.34,0,0,1-.93-1.7q-1.59,2.28-5.31,2.28a9.36,9.36,0,0,1-6.9-3.4,11.33,11.33,0,0,1,0-15.76,9.57,9.57,0,0,1,7-3.37,6.8,6.8,0,0,1,2.67.51,6,6,0,0,1,1.67,1A6,6,0,0,1,528.9,16.57Zm-7.83,9a3.53,3.53,0,0,0,1.12,2.55,3.66,3.66,0,0,0,2.71,1.14,3.39,3.39,0,0,0,2.64-1.16,3.68,3.68,0,0,0,1.06-2.56,4,4,0,0,0-1-2.6,3.37,3.37,0,0,0-2.71-1.2,3.48,3.48,0,0,0-2.75,1.2A3.9,3.9,0,0,0,521.07,25.52Z"/><path class="cls-3" d="M539.82,7.28a10.87,10.87,0,0,1,.07-1.48,3.88,3.88,0,0,1,.36-1.14c.4-.77,1.52-1.16,3.35-1.16s2.84.39,3.27,1.16a3.38,3.38,0,0,1,.41,1.16,13.71,13.71,0,0,1,.07,1.51V27.24a4.54,4.54,0,0,0,.25,2c.18.28.56.41,1.14.41a6.21,6.21,0,0,1,1.19.07,2.11,2.11,0,0,1,.73.36c.57.37.86,1.39.86,3,0,1.81-.29,2.91-.86,3.32-.75.51-2.53.6-5.34.25-2.2-.28-3.64-1-4.3-2.19q-1.2-2.1-1.2-6.71Z"/></g><path class="cls-4" d="M8.11,26.21H21.35a13,13,0,0,1,1.49.07,3.37,3.37,0,0,1,1.14.41c.77.4,1.16,1.52,1.16,3.35,0,2-.53,3.18-1.59,3.53a7.29,7.29,0,0,1-2.24.26h-17c-2,0-3.18-.55-3.52-1.64A6.81,6.81,0,0,1,.5,30V6.09a4.15,4.15,0,0,1,.82-3,4.47,4.47,0,0,1,3.09-.79H21.35a13.55,13.55,0,0,1,1.49.06A3.37,3.37,0,0,1,24,2.78c.77.4,1.16,1.52,1.16,3.35,0,2-.53,3.19-1.59,3.53a7.29,7.29,0,0,1-2.24.26H8.11v4.34h8.51a13.55,13.55,0,0,1,1.49.06,3.6,3.6,0,0,1,1.14.41c.77.4,1.16,1.52,1.16,3.36,0,2-.55,3.18-1.64,3.52a6.88,6.88,0,0,1-2.23.26H8.11Z"/><path class="cls-4" d="M27.93,40V14.86A12.29,12.29,0,0,1,28,13.4a3.37,3.37,0,0,1,.36-1.07q.6-1.17,2.88-1.17a5.72,5.72,0,0,1,3.08.58,2.32,2.32,0,0,1,.92,1.7,5.93,5.93,0,0,1,5.14-2.23c2.34,0,4.55,1.1,6.65,3.31a11,11,0,0,1,0,15.39q-3.12,3.31-6.65,3.31t-5.11-2v8.68a12.17,12.17,0,0,1-.07,1.46,3.33,3.33,0,0,1-.39,1.1,1.81,1.81,0,0,1-1.09.88,7,7,0,0,1-2.11.26,7.17,7.17,0,0,1-2.13-.26,1.85,1.85,0,0,1-1.12-.86A3.3,3.3,0,0,1,28,41.44,12.49,12.49,0,0,1,27.93,40Zm8.52-20.25a3.84,3.84,0,0,0-1,2.54,3.66,3.66,0,0,0,1,2.51,3.28,3.28,0,0,0,2.58,1.14,3.59,3.59,0,0,0,2.66-1.11,3.52,3.52,0,0,0,1.1-2.54,3.7,3.7,0,0,0-1-2.56,3.45,3.45,0,0,0-2.69-1.14A3.31,3.31,0,0,0,36.45,19.72Z"/><path class="cls-4" d="M60,7a1.77,1.77,0,0,1-1.14.88,9.19,9.19,0,0,1-4.34,0A1.79,1.79,0,0,1,53.41,7,4.05,4.05,0,0,1,53,5.81,13.34,13.34,0,0,1,53,4.33,13.55,13.55,0,0,1,53,2.84a3.7,3.7,0,0,1,.37-1.09C53.79,1,54.91.59,56.74.59S59.64,1,60,1.75a3.37,3.37,0,0,1,.41,1.14,13.34,13.34,0,0,1,.06,1.48,13.34,13.34,0,0,1-.06,1.48A3.27,3.27,0,0,1,60,7ZM53,15A13.55,13.55,0,0,1,53,13.46a4.33,4.33,0,0,1,.37-1.13c.4-.75,1.52-1.12,3.35-1.12a4.55,4.55,0,0,1,2.93.73,2.4,2.4,0,0,1,.77,1.85c0,.28,0,.7,0,1.24V30.08a13.55,13.55,0,0,1-.06,1.49A3.37,3.37,0,0,1,60,32.71c-.37.74-1.48,1.12-3.31,1.12s-2.91-.39-3.31-1.17A4.35,4.35,0,0,1,53,31.55,13.47,13.47,0,0,1,53,30Z"/><path class="cls-4" d="M64.1,31.8a1.77,1.77,0,0,1-.82-1.63,7.07,7.07,0,0,1,1.63-3.4A1.71,1.71,0,0,1,66.44,26,6.24,6.24,0,0,1,69.3,27.1a6.62,6.62,0,0,0,3.27,1c1.74,0,2.62-.34,2.62-1s-1-.95-2.88-1.21a14,14,0,0,1-5.38-2,5.65,5.65,0,0,1-2.06-2.43,8.7,8.7,0,0,1-.82-3.93q0-6.8,9.33-6.8a15.08,15.08,0,0,1,6.28,1.47c1,.46,1.51,1,1.51,1.72a5.09,5.09,0,0,1-1,2.53c-.63,1-1.28,1.51-1.93,1.51a5.84,5.84,0,0,1-1.92-.65,7.13,7.13,0,0,0-3-.64c-1.69,0-2.54.31-2.54.94,0,.86,1,1.42,2.93,1.68a16,16,0,0,1,5.5,1.64A4.86,4.86,0,0,1,81.32,23a7.47,7.47,0,0,1,.84,3.72,8,8,0,0,1-.84,3.81A5.47,5.47,0,0,1,79,32.88a15.75,15.75,0,0,1-6.9,1.33A14.69,14.69,0,0,1,64.1,31.8Z"/><path class="cls-4" d="M87.92,14a11.82,11.82,0,0,1,16.47,0A11.1,11.1,0,0,1,108,22.47a11.22,11.22,0,0,1-1.85,6.35,11.64,11.64,0,0,1-4.5,4.08,12.11,12.11,0,0,1-5.48,1.31,11.59,11.59,0,0,1-5.5-1.4,12.18,12.18,0,0,1-4.5-4.12,10.83,10.83,0,0,1-1.82-6.17A11.12,11.12,0,0,1,87.92,14Zm5.37,11.59a4.59,4.59,0,0,0,2.8,1.05,4.64,4.64,0,0,0,2.83-1.07,3.74,3.74,0,0,0,1.42-3.18A3.71,3.71,0,0,0,99,19.25a4.6,4.6,0,0,0-2.88-1,4.54,4.54,0,0,0-2.88,1.07,3.82,3.82,0,0,0-1.33,3.16A3.7,3.7,0,0,0,93.29,25.59Z"/><path class="cls-4" d="M126,1.73a1.85,1.85,0,0,1,1.14-.89,9.54,9.54,0,0,1,4.34,0,1.81,1.81,0,0,1,1.14.91A3.5,3.5,0,0,1,133,2.89,13.34,13.34,0,0,1,133,4.37V30a13.22,13.22,0,0,1-.06,1.48,3,3,0,0,1-.41,1.1c-.43.78-1.64,1.16-3.63,1.16s-3.11-.7-3.34-2.1a6.34,6.34,0,0,1-5,2.06,9.54,9.54,0,0,1-7-3.38,11.33,11.33,0,0,1,0-15.76,9.56,9.56,0,0,1,7-3.39,6,6,0,0,1,5,2.15v-9a13.55,13.55,0,0,1,.06-1.49A3.71,3.71,0,0,1,126,1.73ZM119,25.1a3.65,3.65,0,0,0,2.71,1.16,3.46,3.46,0,0,0,2.65-1.16,3.75,3.75,0,0,0,1.05-2.56,4,4,0,0,0-1-2.6,3.37,3.37,0,0,0-2.73-1.21,3.48,3.48,0,0,0-2.75,1.18,3.89,3.89,0,0,0-1,2.61A3.69,3.69,0,0,0,119,25.1Z"/><path class="cls-4" d="M158.31,19.79A5.24,5.24,0,0,1,157,23.7,4.14,4.14,0,0,1,154.09,25H143.9a2.38,2.38,0,0,0,1.42,2,5.7,5.7,0,0,0,2.84.82,11.9,11.9,0,0,0,3.91-.52l.48-.17a4.25,4.25,0,0,1,1.72-.48c.91,0,1.7.65,2.36,1.94a4.76,4.76,0,0,1,.56,2q0,3.82-9.16,3.82a13.79,13.79,0,0,1-5.65-1.09,9.57,9.57,0,0,1-3.85-2.9,12.37,12.37,0,0,1-2.71-7.79,11.25,11.25,0,0,1,3.5-8.66,12.38,12.38,0,0,1,8.75-3.25q6,0,8.78,4.22A8.76,8.76,0,0,1,158.31,19.79Zm-9.08,1.26c1.09,0,1.64-.45,1.64-1.37a1.93,1.93,0,0,0-.75-1.59,3.4,3.4,0,0,0-2.15-.6,4.39,4.39,0,0,0-2.78,1.13,3.18,3.18,0,0,0-1.37,2.43Z"/><path class="cls-4" d="M192,26.26a5.5,5.5,0,0,1,2.51.41,2,2,0,0,1,1,1.24,7.39,7.39,0,0,1,.26,2.2,6.8,6.8,0,0,1-.28,2.17,1.81,1.81,0,0,1-.92,1.12,5.7,5.7,0,0,1-2.67.51H175.12a3.61,3.61,0,0,1-2.67-1.16A3.8,3.8,0,0,1,171.34,30,6.56,6.56,0,0,1,173,25.76a15.41,15.41,0,0,1,3.89-3.35q2.28-1.39,4.56-2.75a17.86,17.86,0,0,0,3.89-3.08,5.28,5.28,0,0,0,1.61-3.65,3.09,3.09,0,0,0-.3-1.1,4.66,4.66,0,0,0-.67-1.16,3.37,3.37,0,0,0-1.14-.84,4.83,4.83,0,0,0-2.15-.39,3.27,3.27,0,0,0-2.38,1,3.52,3.52,0,0,0-1.14,2l-.17,1v.26a10,10,0,0,1-.07,1.42,3.05,3.05,0,0,1-.41,1.08c-.43.68-1.54,1-3.35,1-2,0-3.2-.55-3.57-1.64a8.22,8.22,0,0,1-.21-2.19,11.64,11.64,0,0,1,3.2-8,11.66,11.66,0,0,1,16.79,0,12,12,0,0,1,3.23,8.2,10.36,10.36,0,0,1-1.08,4.64,11.41,11.41,0,0,1-2.58,3.53,20.17,20.17,0,0,1-5.68,3.82l-1.07.43v.22Z"/><path class="cls-4" d="M201.71,12.11a4.25,4.25,0,0,1,3.06.86,4.66,4.66,0,0,1,.84,3.23c0,.68-.07,1.19-.11,1.52a3.26,3.26,0,0,1-.45,1.18c-.43.84-1.52,1.25-3.25,1.25s-2.88-.28-3.44-.84-.84-1.64-.84-3.24.3-2.73.91-3.19A5.67,5.67,0,0,1,201.71,12.11Zm0,13.72a4.31,4.31,0,0,1,3.06.84c.56.55.84,1.64.84,3.24,0,.69-.07,1.2-.11,1.53a3.32,3.32,0,0,1-.45,1.18c-.43.83-1.52,1.25-3.25,1.25s-2.88-.28-3.44-.84-.84-1.64-.84-3.25.3-2.72.91-3.18A5.59,5.59,0,0,1,201.71,25.83Z"/><path class="cls-4" d="M242.54,8.67a11.3,11.3,0,0,1,1.12,5.07,11.2,11.2,0,0,1-1.12,5.06,9.87,9.87,0,0,1-2.88,3.59,12,12,0,0,1-7.39,2.75h-5.38V30a13.34,13.34,0,0,1-.06,1.48,3.6,3.6,0,0,1-.41,1.14c-.4.78-1.52,1.16-3.36,1.16-2,0-3.18-.53-3.52-1.59a7.22,7.22,0,0,1-.26-2.23V6.09a13.34,13.34,0,0,1,.06-1.48,3.6,3.6,0,0,1,.41-1.14c.4-.78,1.52-1.16,3.36-1.16h9.2a11.89,11.89,0,0,1,7.35,2.75A9.77,9.77,0,0,1,242.54,8.67Zm-7.69,7.91a3.33,3.33,0,0,0,1.24-2.84,3.41,3.41,0,0,0-1.24-2.86,4.22,4.22,0,0,0-2.58-1h-5.38v7.61h5.42A4.21,4.21,0,0,0,234.85,16.58Z"/><path class="cls-4" d="M245.77,31.8a1.77,1.77,0,0,1-.82-1.63,7.07,7.07,0,0,1,1.63-3.4,1.71,1.71,0,0,1,1.53-.73A6.21,6.21,0,0,1,251,27.1a6.62,6.62,0,0,0,3.27,1c1.75,0,2.62-.34,2.62-1s-1-.95-2.88-1.21a14,14,0,0,1-5.38-2,5.71,5.71,0,0,1-2.06-2.43,8.83,8.83,0,0,1-.82-3.93q0-6.8,9.34-6.8a15.07,15.07,0,0,1,6.27,1.47c1,.46,1.51,1,1.51,1.72a5.09,5.09,0,0,1-.95,2.53c-.63,1-1.27,1.51-1.93,1.51a5.84,5.84,0,0,1-1.92-.65,7.13,7.13,0,0,0-3-.64c-1.69,0-2.53.31-2.53.94,0,.86,1,1.42,2.92,1.68a16,16,0,0,1,5.5,1.64A4.86,4.86,0,0,1,263,23a7.47,7.47,0,0,1,.84,3.72,8,8,0,0,1-.84,3.81,5.5,5.5,0,0,1-2.34,2.34,15.82,15.82,0,0,1-6.91,1.33A14.72,14.72,0,0,1,245.77,31.8Z"/><path class="cls-4" d="M286,11.42c1.69.75,2.54,1.65,2.54,2.71a3.33,3.33,0,0,1-.34,1.46c-.23.46-.35.71-.35.73l-11.26,25.2a13.09,13.09,0,0,1-.59,1.25,2.47,2.47,0,0,1-.75.82,2.12,2.12,0,0,1-1.29.38,6.52,6.52,0,0,1-2.28-.64c-1.69-.75-2.53-1.64-2.53-2.67q0-1,4.12-9.84l-8.55-14.41a4.75,4.75,0,0,1-.86-2.11c0-.91.77-1.83,2.32-2.75a5,5,0,0,1,2.28-.86,2.35,2.35,0,0,1,1.33.35,2.56,2.56,0,0,1,.75.7q.24.38,2.37,4c1.42,2.43,2.77,4.68,4.06,6.78q.22-.69,2.32-5.31t2.26-4.93a4.57,4.57,0,0,1,.5-.73,1.84,1.84,0,0,1,1.57-.73A6.14,6.14,0,0,1,286,11.42Z"/><path class="cls-4" d="M296.68,22.49a3.5,3.5,0,0,0,1.2,2.84,3.91,3.91,0,0,0,2.56,1,4.48,4.48,0,0,0,2.54-.79,3.79,3.79,0,0,1,1.91-.8c.86,0,1.91.76,3.14,2.28a3.78,3.78,0,0,1,1,2.24c0,1.09-.79,2.1-2.37,3.05a10.18,10.18,0,0,1-6,1.72,12.36,12.36,0,0,1-7.69-2.88,10.11,10.11,0,0,1-2.88-3.68,11.36,11.36,0,0,1-1.12-5.07,11.1,11.1,0,0,1,1.12-5,10.22,10.22,0,0,1,2.88-3.64,12,12,0,0,1,7.61-2.83,11.31,11.31,0,0,1,3.18.45,10.53,10.53,0,0,1,2.28.88l.69.43,1.2.82A2.43,2.43,0,0,1,309,15.44a4.69,4.69,0,0,1-.9,2.48c-1,1.57-2,2.36-3,2.36a5,5,0,0,1-2.32-1,3.16,3.16,0,0,0-2.22-.73,4.12,4.12,0,0,0-2.68,1A3.47,3.47,0,0,0,296.68,22.49Z"/><path class="cls-4" d="M324.11,11.25a9.1,9.1,0,0,1,7.16,3.27,11.7,11.7,0,0,1,2.86,8v7.56a13.55,13.55,0,0,1-.06,1.49,3.6,3.6,0,0,1-.41,1.14c-.37.74-1.48,1.12-3.31,1.12s-2.84-.38-3.27-1.12a3.38,3.38,0,0,1-.41-1.16,14.7,14.7,0,0,1-.06-1.55V22.47a3.72,3.72,0,0,0-1-2.75,3.41,3.41,0,0,0-2.52-1,4.14,4.14,0,0,0-2.68.93,3.29,3.29,0,0,0-1.34,2.08v8.34a13.55,13.55,0,0,1-.06,1.49,3.6,3.6,0,0,1-.41,1.14c-.37.74-1.48,1.12-3.31,1.12s-2.91-.39-3.31-1.17a4,4,0,0,1-.37-1.11,13.47,13.47,0,0,1-.06-1.51V4.33a13.55,13.55,0,0,1,.06-1.49A3.43,3.43,0,0,1,312,1.75c.4-.78,1.52-1.16,3.35-1.16s2.9.38,3.27,1.16A3.6,3.6,0,0,1,319,2.89a13.34,13.34,0,0,1,.06,1.48v9.5A6.36,6.36,0,0,1,324.11,11.25Z"/><path class="cls-4" d="M340.54,14A11.82,11.82,0,0,1,357,14a11.1,11.1,0,0,1,3.57,8.49,11.22,11.22,0,0,1-1.85,6.35,11.64,11.64,0,0,1-4.5,4.08,12.11,12.11,0,0,1-5.48,1.31,11.59,11.59,0,0,1-5.5-1.4,12.18,12.18,0,0,1-4.5-4.12,10.9,10.9,0,0,1-1.82-6.17A11.12,11.12,0,0,1,340.54,14Zm5.37,11.59a4.59,4.59,0,0,0,2.8,1.05,4.69,4.69,0,0,0,2.84-1.07A3.76,3.76,0,0,0,353,22.39a3.72,3.72,0,0,0-1.34-3.14,4.6,4.6,0,0,0-2.88-1,4.54,4.54,0,0,0-2.88,1.07,3.82,3.82,0,0,0-1.33,3.16A3.72,3.72,0,0,0,345.91,25.59Z"/><path class="cls-4" d="M363.37,4.28a10.87,10.87,0,0,1,.07-1.48,3.88,3.88,0,0,1,.36-1.14C364.2.89,365.32.5,367.16.5s2.83.39,3.26,1.16a3.38,3.38,0,0,1,.41,1.16,11.58,11.58,0,0,1,.07,1.51V24.24a4.54,4.54,0,0,0,.25,2c.18.28.56.41,1.14.41a6.14,6.14,0,0,1,1.19.07,2.11,2.11,0,0,1,.73.36c.57.37.86,1.39.86,3,0,1.81-.29,2.91-.86,3.32-.75.51-2.53.6-5.33.25-2.21-.28-3.65-1-4.3-2.19q-1.21-2.1-1.21-6.71Z"/><path class="cls-4" d="M380.4,14a11.82,11.82,0,0,1,8.26-3.35A11.69,11.69,0,0,1,396.87,14a11.1,11.1,0,0,1,3.57,8.49,11.22,11.22,0,0,1-1.85,6.35,11.57,11.57,0,0,1-4.5,4.08,12.11,12.11,0,0,1-5.48,1.31,11.62,11.62,0,0,1-5.5-1.4,12.18,12.18,0,0,1-4.5-4.12,10.9,10.9,0,0,1-1.82-6.17A11.12,11.12,0,0,1,380.4,14Zm5.37,11.59a4.59,4.59,0,0,0,2.8,1.05,4.67,4.67,0,0,0,2.84-1.07,3.76,3.76,0,0,0,1.42-3.18,3.72,3.72,0,0,0-1.34-3.14,4.6,4.6,0,0,0-2.88-1,4.54,4.54,0,0,0-2.88,1.07,3.82,3.82,0,0,0-1.33,3.16A3.72,3.72,0,0,0,385.77,25.59Z"/><path class="cls-4" d="M417.59,31q-1.63,2.15-5.2,2.15a9.19,9.19,0,0,1-6.69-3.29,11,11,0,0,1,0-15.37,9.35,9.35,0,0,1,6.88-3.32,6.42,6.42,0,0,1,2.66.54,5.93,5.93,0,0,1,1.66,1,5.47,5.47,0,0,1,.71.84,2.62,2.62,0,0,1,.88-1.83,3.83,3.83,0,0,1,2.43-.62,8.14,8.14,0,0,1,2.45.26,1.8,1.8,0,0,1,1.1.88,3.47,3.47,0,0,1,.38,1.09,10.61,10.61,0,0,1,.07,1.47v17.8a10.12,10.12,0,0,1-3.44,8,11.4,11.4,0,0,1-7.74,3A13,13,0,0,1,407.53,42c-2-1.07-3-2-3-2.89a4.1,4.1,0,0,1,1.28-3,11.59,11.59,0,0,1,1.27-1.25,1.7,1.7,0,0,1,1.06-.34,2,2,0,0,1,1.24.51,7.2,7.2,0,0,0,4.48,1.59,3.25,3.25,0,0,0,2.66-1.29,4.78,4.78,0,0,0,1-3.09Zm-7.65-8.8a3.52,3.52,0,0,0,1.1,2.52,3.57,3.57,0,0,0,2.66,1.12,3.34,3.34,0,0,0,2.6-1.14,3.64,3.64,0,0,0,1-2.5,3.88,3.88,0,0,0-1-2.53,3.3,3.3,0,0,0-2.67-1.19A3.44,3.44,0,0,0,411,19.64,3.73,3.73,0,0,0,409.94,22.19Z"/><path class="cls-4" d="M435.46,7a1.77,1.77,0,0,1-1.14.88,9.19,9.19,0,0,1-4.34,0,1.77,1.77,0,0,1-1.14-.9,3.5,3.5,0,0,1-.39-1.14,13.34,13.34,0,0,1-.06-1.48,13.55,13.55,0,0,1,.06-1.49,3.43,3.43,0,0,1,.37-1.09c.4-.78,1.52-1.16,3.35-1.16s2.9.38,3.27,1.16a3.6,3.6,0,0,1,.41,1.14,13.34,13.34,0,0,1,.06,1.48,13.34,13.34,0,0,1-.06,1.48A3.49,3.49,0,0,1,435.46,7Zm-7.07,8a13.55,13.55,0,0,1,.06-1.49,4,4,0,0,1,.37-1.13c.4-.75,1.52-1.12,3.35-1.12a4.55,4.55,0,0,1,2.93.73,2.4,2.4,0,0,1,.77,1.85c0,.28,0,.7,0,1.24V30.08a13.55,13.55,0,0,1-.06,1.49,3.6,3.6,0,0,1-.41,1.14c-.37.74-1.48,1.12-3.31,1.12s-2.91-.39-3.31-1.17a4,4,0,0,1-.37-1.11,13.47,13.47,0,0,1-.06-1.51Z"/><path class="cls-4" d="M439.52,31.8a1.78,1.78,0,0,1-.81-1.63,7.07,7.07,0,0,1,1.63-3.4,1.7,1.7,0,0,1,1.53-.73,6.24,6.24,0,0,1,2.86,1.06,6.62,6.62,0,0,0,3.26,1c1.75,0,2.63-.34,2.63-1s-1-.95-2.88-1.21a14,14,0,0,1-5.38-2,5.65,5.65,0,0,1-2.06-2.43,8.7,8.7,0,0,1-.82-3.93q0-6.8,9.33-6.8a15.08,15.08,0,0,1,6.28,1.47c1,.46,1.5,1,1.5,1.72a5.06,5.06,0,0,1-.94,2.53c-.63,1-1.28,1.51-1.94,1.51a5.88,5.88,0,0,1-1.91-.65,7.13,7.13,0,0,0-3-.64c-1.69,0-2.54.31-2.54.94,0,.86,1,1.42,2.93,1.68a16,16,0,0,1,5.5,1.64A4.79,4.79,0,0,1,456.74,23a7.47,7.47,0,0,1,.84,3.72,8,8,0,0,1-.84,3.81,5.45,5.45,0,0,1-2.34,2.34,15.75,15.75,0,0,1-6.9,1.33A14.73,14.73,0,0,1,439.52,31.8Z"/><path class="cls-4" d="M472.85,18.78l-2.8-.18v5.94a3,3,0,0,0,.37,1.67,1.56,1.56,0,0,0,1.38.52,14.88,14.88,0,0,1,1.54.06,3.16,3.16,0,0,1,1.14.41q1,.57,1,2.88c0,1.81-.4,2.91-1.2,3.32a3.88,3.88,0,0,1-1.14.36,12.41,12.41,0,0,1-1.44.07q-4.47,0-6.8-2c-1.54-1.34-2.32-3.62-2.32-6.83V18.6a10.78,10.78,0,0,1-1.76.13,2,2,0,0,1-1.57-.73,3.85,3.85,0,0,1-.62-2.49,11.06,11.06,0,0,1,.21-2.56,2.26,2.26,0,0,1,.6-1.14,2.65,2.65,0,0,1,1.72-.56l1.42.17V7a10.44,10.44,0,0,1,.07-1.46,2.63,2.63,0,0,1,.4-1c.38-.72,1.48-1.08,3.32-1.08s3.11.54,3.48,1.6a8.17,8.17,0,0,1,.21,2.19v4.21c1.26-.11,2.22-.17,2.86-.17a13.26,13.26,0,0,1,1.47.06,3.64,3.64,0,0,1,1.13.41c.75.38,1.12,1.48,1.12,3.31s-.38,2.91-1.16,3.32a3.88,3.88,0,0,1-1.14.36A12.82,12.82,0,0,1,472.85,18.78Z"/><path class="cls-4" d="M486.07,7a1.77,1.77,0,0,1-1.14.88,9.19,9.19,0,0,1-4.34,0,1.77,1.77,0,0,1-1.14-.9,3.5,3.5,0,0,1-.39-1.14A13.34,13.34,0,0,1,479,4.33a13.55,13.55,0,0,1,.06-1.49,3.43,3.43,0,0,1,.37-1.09C479.83,1,481,.59,482.78.59s2.9.38,3.27,1.16a3.37,3.37,0,0,1,.41,1.14,13.34,13.34,0,0,1,.06,1.48,13.34,13.34,0,0,1-.06,1.48A3.27,3.27,0,0,1,486.07,7ZM479,15a13.55,13.55,0,0,1,.06-1.49,4,4,0,0,1,.37-1.13c.4-.75,1.52-1.12,3.35-1.12a4.55,4.55,0,0,1,2.93.73,2.4,2.4,0,0,1,.77,1.85c0,.28,0,.7,0,1.24V30.08a13.55,13.55,0,0,1-.06,1.49,3.37,3.37,0,0,1-.41,1.14c-.37.74-1.48,1.12-3.31,1.12s-2.91-.39-3.31-1.17a4,4,0,0,1-.37-1.11A13.47,13.47,0,0,1,479,30Z"/><path class="cls-4" d="M497.06,22.49a3.5,3.5,0,0,0,1.2,2.84,3.89,3.89,0,0,0,2.56,1,4.48,4.48,0,0,0,2.54-.79,3.76,3.76,0,0,1,1.91-.8c.86,0,1.91.76,3.14,2.28a3.78,3.78,0,0,1,1,2.24c0,1.09-.79,2.1-2.37,3.05A10.18,10.18,0,0,1,501,34a12.36,12.36,0,0,1-7.69-2.88,10.24,10.24,0,0,1-2.89-3.68,11.49,11.49,0,0,1-1.11-5.07,11.22,11.22,0,0,1,1.11-5,10.36,10.36,0,0,1,2.89-3.64,12,12,0,0,1,7.61-2.83,11.31,11.31,0,0,1,3.18.45,10.53,10.53,0,0,1,2.28.88l.69.43,1.2.82a2.46,2.46,0,0,1,1.12,1.95,4.63,4.63,0,0,1-.91,2.48c-1,1.57-2,2.36-3,2.36a5,5,0,0,1-2.32-1A3.16,3.16,0,0,0,501,18.6a4.14,4.14,0,0,0-2.69,1A3.49,3.49,0,0,0,497.06,22.49Z"/><path class="cls-4" d="M526.9,13.57c.17-1.6,1.3-2.41,3.4-2.41a9,9,0,0,1,2.49.26,1.83,1.83,0,0,1,1.14.91,4.11,4.11,0,0,1,.39,1.13,13.55,13.55,0,0,1,.06,1.49V30a13.34,13.34,0,0,1-.06,1.48,4.27,4.27,0,0,1-.37,1.14c-.4.75-1.38,1.12-2.94,1.12a5.76,5.76,0,0,1-3.14-.58,2.34,2.34,0,0,1-.93-1.7q-1.59,2.28-5.31,2.28a9.36,9.36,0,0,1-6.9-3.4,11.33,11.33,0,0,1,0-15.76,9.57,9.57,0,0,1,7-3.37,6.8,6.8,0,0,1,2.67.51,6,6,0,0,1,1.67,1A6,6,0,0,1,526.9,13.57Zm-7.83,9a3.53,3.53,0,0,0,1.12,2.55,3.66,3.66,0,0,0,2.71,1.14,3.39,3.39,0,0,0,2.64-1.16,3.68,3.68,0,0,0,1.06-2.56,4,4,0,0,0-1-2.6,3.37,3.37,0,0,0-2.71-1.2,3.48,3.48,0,0,0-2.75,1.2A3.9,3.9,0,0,0,519.07,22.52Z"/><path class="cls-4" d="M537.82,4.28a10.87,10.87,0,0,1,.07-1.48,3.88,3.88,0,0,1,.36-1.14C538.65.89,539.77.5,541.6.5s2.84.39,3.27,1.16a3.38,3.38,0,0,1,.41,1.16,13.71,13.71,0,0,1,.07,1.51V24.24a4.54,4.54,0,0,0,.25,2c.18.28.56.41,1.14.41a6.21,6.21,0,0,1,1.19.07,2.11,2.11,0,0,1,.73.36c.57.37.86,1.39.86,3,0,1.81-.29,2.91-.86,3.32-.75.51-2.53.6-5.34.25-2.2-.28-3.64-1-4.3-2.19q-1.2-2.1-1.2-6.71Z"/></g></g></g></svg>