<svg xmlns="http://www.w3.org/2000/svg" viewBox="0 0 545.61 47.04"><defs><style>.cls-1{isolation:isolate;}.cls-2{mix-blend-mode:multiply;}.cls-3,.cls-4{stroke:#000;stroke-miterlimit:10;}.cls-4{fill:#fff;}</style></defs><title>Asset 3</title><g class="cls-1"><g id="Layer_2" data-name="Layer 2"><g id="Layer_1-2" data-name="Layer 1"><g class="cls-2"><path class="cls-3" d="M10.11,29.13H23.35a13.55,13.55,0,0,1,1.49.06A3.6,3.6,0,0,1,26,29.6c.77.4,1.16,1.52,1.16,3.35,0,2-.53,3.19-1.59,3.53a7.29,7.29,0,0,1-2.24.26h-17c-2,0-3.18-.55-3.52-1.64a6.72,6.72,0,0,1-.26-2.19V9a4.12,4.12,0,0,1,.82-3,4.46,4.46,0,0,1,3.09-.8H23.35a13.55,13.55,0,0,1,1.49.06A3.6,3.6,0,0,1,26,5.69c.77.4,1.16,1.52,1.16,3.36,0,2-.53,3.18-1.59,3.52a7.29,7.29,0,0,1-2.24.26H10.11v4.34h8.51a13,13,0,0,1,1.49.07,3.37,3.37,0,0,1,1.14.41c.77.4,1.16,1.52,1.16,3.35,0,2-.55,3.18-1.64,3.53a7.24,7.24,0,0,1-2.23.25H10.11Z"/><path class="cls-3" d="M29.93,42.89V17.78A12.49,12.49,0,0,1,30,16.31a3.45,3.45,0,0,1,.36-1.07c.4-.78,1.36-1.16,2.88-1.16a5.63,5.63,0,0,1,3.08.58,2.3,2.3,0,0,1,.92,1.7,5.94,5.94,0,0,1,5.14-2.24c2.34,0,4.55,1.1,6.65,3.31a11.06,11.06,0,0,1,0,15.4C47,35,44.75,36.14,42.4,36.14s-4-.66-5.11-2v8.68a12.49,12.49,0,0,1-.07,1.47,3.28,3.28,0,0,1-.39,1.09,1.78,1.78,0,0,1-1.09.88,6.67,6.67,0,0,1-2.11.26,6.85,6.85,0,0,1-2.13-.26,1.82,1.82,0,0,1-1.12-.86A3.22,3.22,0,0,1,30,44.35,12.29,12.29,0,0,1,29.93,42.89Zm8.52-20.26a3.84,3.84,0,0,0-1,2.54,3.68,3.68,0,0,0,1,2.52,3.28,3.28,0,0,0,2.58,1.14,3.6,3.6,0,0,0,2.66-1.12,3.51,3.51,0,0,0,1.1-2.54,3.72,3.72,0,0,0-1-2.56,3.45,3.45,0,0,0-2.69-1.14A3.31,3.31,0,0,0,38.45,22.63Z"/><path class="cls-3" d="M62,9.89a1.84,1.84,0,0,1-1.14.88,9.54,9.54,0,0,1-4.34,0,1.84,1.84,0,0,1-1.14-.91A4.05,4.05,0,0,1,55,8.72,13.22,13.22,0,0,1,55,7.24,13.34,13.34,0,0,1,55,5.76a3.75,3.75,0,0,1,.37-1.1c.4-.77,1.52-1.16,3.35-1.16s2.9.39,3.27,1.16a3.37,3.37,0,0,1,.41,1.14,13.34,13.34,0,0,1,.06,1.48,13.55,13.55,0,0,1-.06,1.49A3.34,3.34,0,0,1,62,9.89Zm-7.07,8A13.34,13.34,0,0,1,55,16.38a4.27,4.27,0,0,1,.37-1.14c.4-.75,1.52-1.12,3.35-1.12a4.55,4.55,0,0,1,2.93.73,2.4,2.4,0,0,1,.77,1.85c0,.29,0,.7,0,1.25V33a13.34,13.34,0,0,1-.06,1.48A3.37,3.37,0,0,1,62,35.62c-.37.75-1.48,1.12-3.31,1.12s-2.91-.39-3.31-1.16A4.28,4.28,0,0,1,55,34.46,13.47,13.47,0,0,1,55,33Z"/><path class="cls-3" d="M66.1,34.72a1.79,1.79,0,0,1-.82-1.64,7.05,7.05,0,0,1,1.63-3.39A1.69,1.69,0,0,1,68.44,29,6.32,6.32,0,0,1,71.3,30a6.62,6.62,0,0,0,3.27,1c1.74,0,2.62-.34,2.62-1s-1-1-2.88-1.2a14.11,14.11,0,0,1-5.38-2,5.77,5.77,0,0,1-2.06-2.43,8.77,8.77,0,0,1-.82-3.94q0-6.8,9.33-6.79a15.21,15.21,0,0,1,6.28,1.46c1,.46,1.51,1,1.51,1.72a5.12,5.12,0,0,1-1,2.54c-.63,1-1.28,1.5-1.93,1.5a5.74,5.74,0,0,1-1.92-.64,7.13,7.13,0,0,0-3-.65c-1.69,0-2.54.32-2.54,1,0,.86,1,1.42,2.93,1.67a16.2,16.2,0,0,1,5.5,1.64,4.92,4.92,0,0,1,2.09,2.08,7.47,7.47,0,0,1,.84,3.72,8,8,0,0,1-.84,3.81A5.37,5.37,0,0,1,81,35.79a15.74,15.74,0,0,1-6.9,1.34A14.78,14.78,0,0,1,66.1,34.72Z"/><path class="cls-3" d="M89.92,16.92a11.81,11.81,0,0,1,16.47,0,11.14,11.14,0,0,1,3.57,8.5,11.18,11.18,0,0,1-1.85,6.34,11.56,11.56,0,0,1-4.5,4.08,12.12,12.12,0,0,1-5.48,1.32,11.71,11.71,0,0,1-5.5-1.4,12.21,12.21,0,0,1-4.5-4.13,10.83,10.83,0,0,1-1.82-6.17A11.09,11.09,0,0,1,89.92,16.92ZM95.29,28.5a4.54,4.54,0,0,0,2.8,1.06,4.66,4.66,0,0,0,2.83-1.08,3.71,3.71,0,0,0,1.42-3.18A3.73,3.73,0,0,0,101,22.16a4.6,4.6,0,0,0-2.88-1,4.54,4.54,0,0,0-2.88,1.07,3.84,3.84,0,0,0-1.33,3.17A3.68,3.68,0,0,0,95.29,28.5Z"/><path class="cls-3" d="M128,4.64a1.8,1.8,0,0,1,1.14-.88,9.19,9.19,0,0,1,4.34,0,1.77,1.77,0,0,1,1.14.9A3.5,3.5,0,0,1,135,5.8,13.34,13.34,0,0,1,135,7.28V33a13.55,13.55,0,0,1-.06,1.49,3,3,0,0,1-.41,1.09q-.65,1.17-3.63,1.17c-2,0-3.11-.71-3.34-2.11a6.34,6.34,0,0,1-5,2.06,9.53,9.53,0,0,1-7-3.37,11.33,11.33,0,0,1,0-15.76,9.53,9.53,0,0,1,7-3.4,6.07,6.07,0,0,1,5,2.15v-9a13.34,13.34,0,0,1,.06-1.48A3.85,3.85,0,0,1,128,4.64ZM121,28a3.65,3.65,0,0,0,2.71,1.16A3.46,3.46,0,0,0,126.32,28a3.73,3.73,0,0,0,1.05-2.56,4,4,0,0,0-1-2.6,3.39,3.39,0,0,0-2.73-1.2,3.44,3.44,0,0,0-2.75,1.18,3.86,3.86,0,0,0-1,2.6A3.65,3.65,0,0,0,121,28Z"/><path class="cls-3" d="M160.31,22.7A5.23,5.23,0,0,1,159,26.61a4.1,4.1,0,0,1-2.91,1.27H145.9a2.37,2.37,0,0,0,1.42,2,5.6,5.6,0,0,0,2.84.82,11.63,11.63,0,0,0,3.91-.52l.48-.17a4.38,4.38,0,0,1,1.72-.47c.91,0,1.7.64,2.36,1.93a4.84,4.84,0,0,1,.56,2q0,3.83-9.16,3.83a13.79,13.79,0,0,1-5.65-1.1,9.57,9.57,0,0,1-3.85-2.9,12.34,12.34,0,0,1-2.71-7.78,11.27,11.27,0,0,1,3.5-8.67,12.42,12.42,0,0,1,8.75-3.25q6,0,8.78,4.22A8.78,8.78,0,0,1,160.31,22.7ZM151.23,24c1.09,0,1.64-.46,1.64-1.38a1.93,1.93,0,0,0-.75-1.59,3.4,3.4,0,0,0-2.15-.6,4.35,4.35,0,0,0-2.78,1.14A3.18,3.18,0,0,0,145.82,24Z"/><path class="cls-3" d="M193.59,7.76a9.3,9.3,0,0,1,3,6.77A5.67,5.67,0,0,1,193.29,20v.3a7.66,7.66,0,0,1,1.27.92,8.72,8.72,0,0,1,1.35,1.4,6.49,6.49,0,0,1,1.42,4.13,9.62,9.62,0,0,1-3.44,7.59,13.88,13.88,0,0,1-17.24,0,10.77,10.77,0,0,1-2.28-3.06,7.86,7.86,0,0,1-.48-1.11l-.08-.43a7.57,7.57,0,0,1-.47-2.33q0-2.49,4.21-2.49a4,4,0,0,1,2.28.43,4.62,4.62,0,0,1,1.29,2.24,3.41,3.41,0,0,0,2.36,2.06,6.09,6.09,0,0,0,1.81.26,5,5,0,0,0,3.35-.93,2.69,2.69,0,0,0,1.08-2.08,2.59,2.59,0,0,0-1.05-2,3.79,3.79,0,0,0-2.5-.89,14.32,14.32,0,0,1-2-.08,3.46,3.46,0,0,1-1.11-.43c-.78-.37-1.16-1.48-1.16-3.31q0-3,1.59-3.57a8.58,8.58,0,0,1,2.23-.22c2.18,0,3.27-.56,3.27-1.67a2.37,2.37,0,0,0-.86-1.72,3.3,3.3,0,0,0-2.39-.82,4.87,4.87,0,0,0-2.43.52,2.39,2.39,0,0,0-1.11,1l-.26.51a3.1,3.1,0,0,1-2.84,2.15,4.61,4.61,0,0,1-2.36-.77c-1.44-.83-2.15-1.79-2.15-2.88a10.24,10.24,0,0,1,1-2.93,8.79,8.79,0,0,1,.95-1.35,9.32,9.32,0,0,1,1.79-1.7,10.27,10.27,0,0,1,2.83-1.33,13,13,0,0,1,4.07-.6A11.36,11.36,0,0,1,193.59,7.76Z"/><path class="cls-3" d="M203.67,15a4.21,4.21,0,0,1,3.05.86,4.68,4.68,0,0,1,.84,3.23c0,.69-.06,1.2-.1,1.53a3.58,3.58,0,0,1-.46,1.18c-.43.83-1.51,1.24-3.24,1.24s-2.88-.27-3.44-.83-.84-1.64-.84-3.25.3-2.72.9-3.18A5.62,5.62,0,0,1,203.67,15Zm0,13.72a4.26,4.26,0,0,1,3.05.84c.56.56.84,1.64.84,3.25,0,.68-.06,1.19-.1,1.52a3.5,3.5,0,0,1-.46,1.18c-.43.84-1.51,1.25-3.24,1.25s-2.88-.28-3.44-.84-.84-1.64-.84-3.24.3-2.73.9-3.19A5.7,5.7,0,0,1,203.67,28.74Z"/><path class="cls-3" d="M241.83,6.38a2.27,2.27,0,0,1,1.25-1,7,7,0,0,1,2-.25,7.36,7.36,0,0,1,2,.21,3.56,3.56,0,0,1,1.12.52,1.7,1.7,0,0,1,.56.9A7.31,7.31,0,0,1,249,9.05V22a16.63,16.63,0,0,1-3.52,10.32,12.8,12.8,0,0,1-4.43,3.55,13.29,13.29,0,0,1-6,1.35,12.93,12.93,0,0,1-6-1.37,12.49,12.49,0,0,1-4.36-3.61A16.57,16.57,0,0,1,221.24,22V9a13.93,13.93,0,0,1,.06-1.52,3.37,3.37,0,0,1,.41-1.14,1.94,1.94,0,0,1,1.16-.91,9.76,9.76,0,0,1,4.39,0,1.75,1.75,0,0,1,1.11.91,5.83,5.83,0,0,1,.52,2.71V22a10.22,10.22,0,0,0,1.29,5,4.77,4.77,0,0,0,1.94,1.94,6,6,0,0,0,3,.73,5.23,5.23,0,0,0,4.68-2.32,9.41,9.41,0,0,0,1.55-5.38V8.75A4.82,4.82,0,0,1,241.83,6.38Z"/><path class="cls-3" d="M265.05,14.08a9.06,9.06,0,0,1,7.16,3.29,11.77,11.77,0,0,1,2.86,8V33a13.55,13.55,0,0,1-.06,1.49,3.7,3.7,0,0,1-.37,1.09c-.4.78-1.52,1.17-3.35,1.17-2,0-3.21-.53-3.53-1.6a7,7,0,0,1-.26-2.19V25.34a3.45,3.45,0,0,0-3.72-3.74,3.79,3.79,0,0,0-2.75,1,3.65,3.65,0,0,0-1,2.71V33a11,11,0,0,1-.07,1.49,3.11,3.11,0,0,1-.4,1.09c-.38.78-1.48,1.17-3.32,1.17s-2.9-.39-3.31-1.17a3.83,3.83,0,0,1-.36-1.13,13,13,0,0,1-.07-1.49V17.69a12.41,12.41,0,0,1,.07-1.44,3,3,0,0,1,.41-1.1c.4-.71,1.5-1.07,3.31-1.07s2.82.33,3.22,1a3.35,3.35,0,0,1,.43,1.76,4.64,4.64,0,0,1,.78-.86,7.78,7.78,0,0,1,1.16-.9A5.61,5.61,0,0,1,265.05,14.08Z"/><path class="cls-3" d="M293.71,4.64a1.83,1.83,0,0,1,1.14-.88A7.51,7.51,0,0,1,297,3.5a7.42,7.42,0,0,1,2.17.26,1.77,1.77,0,0,1,1.14.9,3.5,3.5,0,0,1,.39,1.14,12.82,12.82,0,0,1,.07,1.48V33a13,13,0,0,1-.07,1.49,3,3,0,0,1-.41,1.09q-.65,1.17-3.63,1.17c-2,0-3.1-.71-3.33-2.11a6.36,6.36,0,0,1-5,2.06,9.55,9.55,0,0,1-7.06-3.37,11.32,11.32,0,0,1,0-15.76,9.5,9.5,0,0,1,7-3.4,6,6,0,0,1,4.94,2.15v-9a10.87,10.87,0,0,1,.07-1.48A3.53,3.53,0,0,1,293.71,4.64Zm-7,23.37a3.65,3.65,0,0,0,2.71,1.16A3.44,3.44,0,0,0,292.08,28a3.73,3.73,0,0,0,1.05-2.56,4,4,0,0,0-1-2.6,3.37,3.37,0,0,0-2.73-1.2,3.46,3.46,0,0,0-2.75,1.18,3.85,3.85,0,0,0-1,2.6A3.64,3.64,0,0,0,286.72,28Z"/><path class="cls-3" d="M326.07,22.7a5.23,5.23,0,0,1-1.31,3.91,4.08,4.08,0,0,1-2.9,1.27h-10.2a2.37,2.37,0,0,0,1.42,2,5.63,5.63,0,0,0,2.84.82,11.63,11.63,0,0,0,3.91-.52l.48-.17a4.42,4.42,0,0,1,1.72-.47c.91,0,1.7.64,2.36,1.93a4.84,4.84,0,0,1,.56,2q0,3.83-9.16,3.83a13.82,13.82,0,0,1-5.65-1.1,9.64,9.64,0,0,1-3.85-2.9,12.34,12.34,0,0,1-2.71-7.78,11.27,11.27,0,0,1,3.5-8.67,12.43,12.43,0,0,1,8.76-3.25q6,0,8.77,4.22A8.78,8.78,0,0,1,326.07,22.7ZM317,24c1.09,0,1.63-.46,1.63-1.38a1.93,1.93,0,0,0-.75-1.59,3.38,3.38,0,0,0-2.15-.6A4.37,4.37,0,0,0,313,21.54,3.21,3.21,0,0,0,311.58,24Z"/><path class="cls-3" d="M344.26,14.34a2.87,2.87,0,0,1,1.35.88,3,3,0,0,1,.54,2,6.76,6.76,0,0,1-.82,3A2.55,2.55,0,0,1,343,21.86a3.38,3.38,0,0,1-1.49-.34,4.27,4.27,0,0,0-1.87-.35,3.44,3.44,0,0,0-2.17.82,2.46,2.46,0,0,0-1,2v9a13.34,13.34,0,0,1-.06,1.48,3.6,3.6,0,0,1-.41,1.14c-.43.75-1.55,1.12-3.36,1.12a4.71,4.71,0,0,1-3-.73,2.59,2.59,0,0,1-.78-1.85V17.82a12.82,12.82,0,0,1,.07-1.48,3.43,3.43,0,0,1,.36-1.1c.41-.78,1.52-1.16,3.36-1.16s2.79.33,3.22,1a2.45,2.45,0,0,1,.48,1.42,7.33,7.33,0,0,1,.62-.74,8.21,8.21,0,0,1,1.74-1.16,5.12,5.12,0,0,1,2.34-.73,11.42,11.42,0,0,1,1.7.11A9.42,9.42,0,0,1,344.26,14.34Z"/><path class="cls-3" d="M347.83,34.72a1.79,1.79,0,0,1-.82-1.64,7.05,7.05,0,0,1,1.63-3.39,1.69,1.69,0,0,1,1.53-.73A6.28,6.28,0,0,1,353,30a6.62,6.62,0,0,0,3.27,1c1.75,0,2.62-.34,2.62-1s-1-1-2.88-1.2a14,14,0,0,1-5.37-2,5.78,5.78,0,0,1-2.07-2.43,8.91,8.91,0,0,1-.82-3.94q0-6.8,9.34-6.79a15.21,15.21,0,0,1,6.27,1.46c1,.46,1.51,1,1.51,1.72a5.12,5.12,0,0,1-.95,2.54c-.63,1-1.27,1.5-1.93,1.5a5.74,5.74,0,0,1-1.92-.64,7.13,7.13,0,0,0-3-.65c-1.69,0-2.53.32-2.53,1,0,.86,1,1.42,2.92,1.67a16.13,16.13,0,0,1,5.5,1.64,4.92,4.92,0,0,1,2.09,2.08,7.47,7.47,0,0,1,.84,3.72,8,8,0,0,1-.84,3.81,5.4,5.4,0,0,1-2.34,2.34,15.82,15.82,0,0,1-6.91,1.34A14.8,14.8,0,0,1,347.83,34.72Z"/><path class="cls-3" d="M381.15,21.69l-2.79-.17v5.93a3,3,0,0,0,.36,1.68,1.6,1.6,0,0,0,1.38.51,14.56,14.56,0,0,1,1.55.07,3.1,3.1,0,0,1,1.14.41c.65.37,1,1.33,1,2.88,0,1.8-.4,2.91-1.2,3.31a3.88,3.88,0,0,1-1.14.36,10.5,10.5,0,0,1-1.44.07q-4.47,0-6.79-2t-2.32-6.84V21.52a12.26,12.26,0,0,1-1.77.13,2,2,0,0,1-1.57-.74,3.87,3.87,0,0,1-.62-2.49,11.12,11.12,0,0,1,.21-2.56,2.35,2.35,0,0,1,.61-1.14,2.63,2.63,0,0,1,1.72-.56l1.42.18V9.91a13,13,0,0,1,.06-1.47,2.73,2.73,0,0,1,.41-1c.37-.71,1.47-1.07,3.31-1.07s3.11.53,3.48,1.59a7.73,7.73,0,0,1,.22,2.19v4.22c1.26-.12,2.21-.18,2.86-.18a12.68,12.68,0,0,1,1.46.07,3.37,3.37,0,0,1,1.14.41c.74.37,1.12,1.47,1.12,3.31s-.39,2.91-1.17,3.31a3.92,3.92,0,0,1-1.13.36A11,11,0,0,1,381.15,21.69Z"/><path class="cls-3" d="M402,16.49c.17-1.61,1.3-2.41,3.39-2.41a8.66,8.66,0,0,1,2.5.26,1.82,1.82,0,0,1,1.14.9,3.71,3.71,0,0,1,.38,1.14,10.87,10.87,0,0,1,.07,1.48v15a11,11,0,0,1-.07,1.49,3.83,3.83,0,0,1-.36,1.13c-.4.75-1.38,1.12-2.95,1.12a5.78,5.78,0,0,1-3.14-.58,2.31,2.31,0,0,1-.92-1.7q-1.59,2.28-5.31,2.28a9.38,9.38,0,0,1-6.9-3.39,11.21,11.21,0,0,1-3.18-7.89,11,11,0,0,1,3.2-7.87,9.56,9.56,0,0,1,7-3.38,6.66,6.66,0,0,1,2.67.52,5.77,5.77,0,0,1,1.67,1A6.05,6.05,0,0,1,402,16.49Zm-7.83,8.94A3.55,3.55,0,0,0,395.3,28,3.65,3.65,0,0,0,398,29.13,3.42,3.42,0,0,0,400.65,28a3.76,3.76,0,0,0,1.06-2.56,3.94,3.94,0,0,0-1-2.6A3.32,3.32,0,0,0,398,21.6a3.48,3.48,0,0,0-2.76,1.21A3.89,3.89,0,0,0,394.18,25.43Z"/><path class="cls-3" d="M425.53,14.08a9.09,9.09,0,0,1,7.16,3.29,11.81,11.81,0,0,1,2.86,8V33a13,13,0,0,1-.07,1.49,3.38,3.38,0,0,1-.36,1.09c-.41.78-1.52,1.17-3.36,1.17-2,0-3.21-.53-3.52-1.6a6.69,6.69,0,0,1-.26-2.19V25.34a3.45,3.45,0,0,0-3.72-3.74,3.79,3.79,0,0,0-2.75,1,3.62,3.62,0,0,0-1.06,2.71V33a13.55,13.55,0,0,1-.06,1.49,3,3,0,0,1-.41,1.09c-.37.78-1.48,1.17-3.31,1.17s-2.91-.39-3.31-1.17A4.22,4.22,0,0,1,413,34.4a13.55,13.55,0,0,1-.06-1.49V17.69a12.89,12.89,0,0,1,.06-1.44,3.19,3.19,0,0,1,.41-1.1c.4-.71,1.51-1.07,3.31-1.07s2.83.33,3.23,1a3.45,3.45,0,0,1,.43,1.76,4.16,4.16,0,0,1,.77-.86,7.78,7.78,0,0,1,1.16-.9A5.65,5.65,0,0,1,425.53,14.08Z"/><path class="cls-3" d="M454.19,4.64a1.77,1.77,0,0,1,1.14-.88,7.42,7.42,0,0,1,2.17-.26,7.51,7.51,0,0,1,2.17.26,1.82,1.82,0,0,1,1.14.9,4.05,4.05,0,0,1,.39,1.14,13.34,13.34,0,0,1,.06,1.48V33a13.55,13.55,0,0,1-.06,1.49,3.15,3.15,0,0,1-.41,1.09c-.43.78-1.64,1.17-3.64,1.17s-3.1-.71-3.33-2.11a6.34,6.34,0,0,1-5,2.06,9.53,9.53,0,0,1-7.05-3.37,11.33,11.33,0,0,1,0-15.76,9.53,9.53,0,0,1,7-3.4,6.07,6.07,0,0,1,4.95,2.15v-9a13.34,13.34,0,0,1,.06-1.48A3.34,3.34,0,0,1,454.19,4.64ZM447.2,28a3.63,3.63,0,0,0,2.71,1.16A3.42,3.42,0,0,0,452.55,28a3.74,3.74,0,0,0,1.06-2.56,4,4,0,0,0-1-2.6,3.4,3.4,0,0,0-2.73-1.2,3.48,3.48,0,0,0-2.76,1.18,3.9,3.9,0,0,0-1,2.6A3.61,3.61,0,0,0,447.2,28Z"/><path class="cls-3" d="M471.77,9.89a1.84,1.84,0,0,1-1.14.88,7.46,7.46,0,0,1-2.17.25,7.51,7.51,0,0,1-2.17-.25,1.87,1.87,0,0,1-1.14-.91,4.05,4.05,0,0,1-.39-1.14,13.22,13.22,0,0,1-.06-1.48,13.34,13.34,0,0,1,.06-1.48,3.75,3.75,0,0,1,.37-1.1c.4-.77,1.52-1.16,3.35-1.16s2.9.39,3.27,1.16a3.37,3.37,0,0,1,.41,1.14,12.82,12.82,0,0,1,.07,1.48,13,13,0,0,1-.07,1.49A3.34,3.34,0,0,1,471.77,9.89Zm-7.07,8a13.34,13.34,0,0,1,.06-1.48,4.27,4.27,0,0,1,.37-1.14c.4-.75,1.52-1.12,3.35-1.12a4.55,4.55,0,0,1,2.93.73,2.37,2.37,0,0,1,.77,1.85c0,.29.05.7.05,1.25V33a12.82,12.82,0,0,1-.07,1.48,3.37,3.37,0,0,1-.41,1.14c-.37.75-1.47,1.12-3.31,1.12s-2.91-.39-3.31-1.16a4.28,4.28,0,0,1-.37-1.12A13.47,13.47,0,0,1,464.7,33Z"/><path class="cls-3" d="M488.26,14.08a9.06,9.06,0,0,1,7.16,3.29,11.77,11.77,0,0,1,2.86,8V33a13.55,13.55,0,0,1-.06,1.49,3.7,3.7,0,0,1-.37,1.09c-.4.78-1.52,1.17-3.35,1.17-2,0-3.21-.53-3.53-1.6a7,7,0,0,1-.26-2.19V25.34A3.45,3.45,0,0,0,487,21.6a3.79,3.79,0,0,0-2.75,1,3.65,3.65,0,0,0-1.05,2.71V33a11,11,0,0,1-.07,1.49,2.92,2.92,0,0,1-.4,1.09c-.38.78-1.48,1.17-3.31,1.17s-2.91-.39-3.32-1.17a3.83,3.83,0,0,1-.36-1.13,13,13,0,0,1-.07-1.49V17.69a12.41,12.41,0,0,1,.07-1.44,3,3,0,0,1,.41-1.1c.4-.71,1.5-1.07,3.31-1.07s2.82.33,3.22,1a3.35,3.35,0,0,1,.43,1.76,4.64,4.64,0,0,1,.78-.86,7.78,7.78,0,0,1,1.16-.9A5.61,5.61,0,0,1,488.26,14.08Z"/><path class="cls-3" d="M516.08,33.9q-1.64,2.15-5.2,2.15a9.19,9.19,0,0,1-6.69-3.29,11,11,0,0,1,0-15.37,9.34,9.34,0,0,1,6.88-3.31,6.42,6.42,0,0,1,2.66.54,5.72,5.72,0,0,1,1.66,1,6,6,0,0,1,.71.84,2.58,2.58,0,0,1,.88-1.82,3.77,3.77,0,0,1,2.43-.63,8.48,8.48,0,0,1,2.45.26,1.81,1.81,0,0,1,1.09.88,3.33,3.33,0,0,1,.39,1.1,10.35,10.35,0,0,1,.07,1.46v17.8a10.13,10.13,0,0,1-3.44,8,11.43,11.43,0,0,1-7.74,3A13,13,0,0,1,506,44.91c-2-1.06-3-2-3-2.88a4.07,4.07,0,0,1,1.28-3,11.59,11.59,0,0,1,1.27-1.25,1.7,1.7,0,0,1,1.06-.34,2,2,0,0,1,1.24.52,7.2,7.2,0,0,0,4.48,1.59,3.25,3.25,0,0,0,2.66-1.29,4.81,4.81,0,0,0,1-3.1Zm-7.65-8.79a3.5,3.5,0,0,0,1.1,2.51,3.57,3.57,0,0,0,2.66,1.12,3.34,3.34,0,0,0,2.6-1.14,3.64,3.64,0,0,0,1-2.49,3.88,3.88,0,0,0-1-2.54,3.29,3.29,0,0,0-2.67-1.18,3.43,3.43,0,0,0-2.71,1.16A3.75,3.75,0,0,0,508.43,25.11Z"/><path class="cls-3" d="M527.05,34.72a1.79,1.79,0,0,1-.82-1.64,7.1,7.1,0,0,1,1.64-3.39,1.66,1.66,0,0,1,1.52-.73A6.28,6.28,0,0,1,532.25,30a6.68,6.68,0,0,0,3.27,1c1.75,0,2.62-.34,2.62-1s-1-1-2.88-1.2a14.07,14.07,0,0,1-5.37-2,5.85,5.85,0,0,1-2.07-2.43,8.91,8.91,0,0,1-.81-3.94q0-6.8,9.33-6.79a15.17,15.17,0,0,1,6.27,1.46c1,.46,1.51,1,1.51,1.72a5.12,5.12,0,0,1-1,2.54c-.63,1-1.27,1.5-1.93,1.5a5.88,5.88,0,0,1-1.92-.64,7.13,7.13,0,0,0-3-.65c-1.69,0-2.53.32-2.53,1,0,.86,1,1.42,2.92,1.67a16.13,16.13,0,0,1,5.5,1.64,4.86,4.86,0,0,1,2.09,2.08,7.47,7.47,0,0,1,.84,3.72,8,8,0,0,1-.84,3.81,5.4,5.4,0,0,1-2.34,2.34,15.8,15.8,0,0,1-6.9,1.34A14.81,14.81,0,0,1,527.05,34.72Z"/></g><path class="cls-4" d="M8.11,26.13H21.35a13.55,13.55,0,0,1,1.49.06A3.6,3.6,0,0,1,24,26.6c.77.4,1.16,1.52,1.16,3.35,0,2-.53,3.19-1.59,3.53a7.29,7.29,0,0,1-2.24.26h-17c-2,0-3.18-.55-3.52-1.64A6.72,6.72,0,0,1,.5,29.91V6a4.12,4.12,0,0,1,.82-3,4.46,4.46,0,0,1,3.09-.8H21.35a13.55,13.55,0,0,1,1.49.06A3.6,3.6,0,0,1,24,2.69c.77.4,1.16,1.52,1.16,3.36,0,2-.53,3.18-1.59,3.52a7.29,7.29,0,0,1-2.24.26H8.11v4.34h8.51a13,13,0,0,1,1.49.07,3.37,3.37,0,0,1,1.14.41c.77.4,1.16,1.52,1.16,3.35,0,2-.55,3.18-1.64,3.53a7.24,7.24,0,0,1-2.23.25H8.11Z"/><path class="cls-4" d="M27.93,39.89V14.78A12.49,12.49,0,0,1,28,13.31a3.45,3.45,0,0,1,.36-1.07c.4-.78,1.36-1.16,2.88-1.16a5.63,5.63,0,0,1,3.08.58,2.3,2.3,0,0,1,.92,1.7,5.94,5.94,0,0,1,5.14-2.24c2.34,0,4.55,1.1,6.65,3.31a11.06,11.06,0,0,1,0,15.4C45,32,42.75,33.14,40.4,33.14s-4-.66-5.11-2v8.68a12.49,12.49,0,0,1-.07,1.47,3.28,3.28,0,0,1-.39,1.09,1.78,1.78,0,0,1-1.09.88,6.67,6.67,0,0,1-2.11.26,6.85,6.85,0,0,1-2.13-.26,1.82,1.82,0,0,1-1.12-.86A3.22,3.22,0,0,1,28,41.35,12.29,12.29,0,0,1,27.93,39.89Zm8.52-20.26a3.84,3.84,0,0,0-1,2.54,3.68,3.68,0,0,0,1,2.52,3.28,3.28,0,0,0,2.58,1.14,3.6,3.6,0,0,0,2.66-1.12,3.51,3.51,0,0,0,1.1-2.54,3.72,3.72,0,0,0-1-2.56,3.45,3.45,0,0,0-2.69-1.14A3.31,3.31,0,0,0,36.45,19.63Z"/><path class="cls-4" d="M60,6.89a1.84,1.84,0,0,1-1.14.88,9.54,9.54,0,0,1-4.34,0,1.84,1.84,0,0,1-1.14-.91A4.05,4.05,0,0,1,53,5.72,13.22,13.22,0,0,1,53,4.24,13.34,13.34,0,0,1,53,2.76a3.75,3.75,0,0,1,.37-1.1C53.79.89,54.91.5,56.74.5S59.64.89,60,1.66a3.37,3.37,0,0,1,.41,1.14,13.34,13.34,0,0,1,.06,1.48,13.55,13.55,0,0,1-.06,1.49A3.34,3.34,0,0,1,60,6.89Zm-7.07,8A13.34,13.34,0,0,1,53,13.38a4.27,4.27,0,0,1,.37-1.14c.4-.75,1.52-1.12,3.35-1.12a4.55,4.55,0,0,1,2.93.73,2.4,2.4,0,0,1,.77,1.85c0,.29,0,.7,0,1.25V30a13.34,13.34,0,0,1-.06,1.48A3.37,3.37,0,0,1,60,32.62c-.37.75-1.48,1.12-3.31,1.12s-2.91-.39-3.31-1.16A4.28,4.28,0,0,1,53,31.46,13.47,13.47,0,0,1,53,30Z"/><path class="cls-4" d="M64.1,31.72a1.79,1.79,0,0,1-.82-1.64,7.05,7.05,0,0,1,1.63-3.39A1.69,1.69,0,0,1,66.44,26,6.32,6.32,0,0,1,69.3,27a6.62,6.62,0,0,0,3.27,1c1.74,0,2.62-.34,2.62-1s-1-1-2.88-1.2a14.11,14.11,0,0,1-5.38-2,5.77,5.77,0,0,1-2.06-2.43,8.77,8.77,0,0,1-.82-3.94q0-6.8,9.33-6.79a15.21,15.21,0,0,1,6.28,1.46c1,.46,1.51,1,1.51,1.72a5.12,5.12,0,0,1-1,2.54c-.63,1-1.28,1.5-1.93,1.5a5.74,5.74,0,0,1-1.92-.64,7.13,7.13,0,0,0-3-.65c-1.69,0-2.54.32-2.54,1,0,.86,1,1.42,2.93,1.67a16.2,16.2,0,0,1,5.5,1.64,4.92,4.92,0,0,1,2.09,2.08,7.47,7.47,0,0,1,.84,3.72,8,8,0,0,1-.84,3.81A5.37,5.37,0,0,1,79,32.79a15.74,15.74,0,0,1-6.9,1.34A14.78,14.78,0,0,1,64.1,31.72Z"/><path class="cls-4" d="M87.92,13.92a11.81,11.81,0,0,1,16.47,0,11.14,11.14,0,0,1,3.57,8.5,11.18,11.18,0,0,1-1.85,6.34,11.56,11.56,0,0,1-4.5,4.08,12.12,12.12,0,0,1-5.48,1.32,11.71,11.71,0,0,1-5.5-1.4,12.21,12.21,0,0,1-4.5-4.13,10.83,10.83,0,0,1-1.82-6.17A11.09,11.09,0,0,1,87.92,13.92ZM93.29,25.5a4.54,4.54,0,0,0,2.8,1.06,4.66,4.66,0,0,0,2.83-1.08,3.71,3.71,0,0,0,1.42-3.18A3.73,3.73,0,0,0,99,19.16a4.6,4.6,0,0,0-2.88-1,4.54,4.54,0,0,0-2.88,1.07,3.84,3.84,0,0,0-1.33,3.17A3.68,3.68,0,0,0,93.29,25.5Z"/><path class="cls-4" d="M126,1.64a1.8,1.8,0,0,1,1.14-.88,9.19,9.19,0,0,1,4.34,0,1.77,1.77,0,0,1,1.14.9A3.5,3.5,0,0,1,133,2.8,13.34,13.34,0,0,1,133,4.28V30a13.55,13.55,0,0,1-.06,1.49,3,3,0,0,1-.41,1.09q-.65,1.17-3.63,1.17c-2,0-3.11-.71-3.34-2.11a6.34,6.34,0,0,1-5,2.06,9.53,9.53,0,0,1-7-3.37,11.33,11.33,0,0,1,0-15.76,9.53,9.53,0,0,1,7-3.4,6.07,6.07,0,0,1,5,2.15v-9a13.34,13.34,0,0,1,.06-1.48A3.85,3.85,0,0,1,126,1.64ZM119,25a3.65,3.65,0,0,0,2.71,1.16A3.46,3.46,0,0,0,124.32,25a3.73,3.73,0,0,0,1.05-2.56,4,4,0,0,0-1-2.6,3.39,3.39,0,0,0-2.73-1.2,3.44,3.44,0,0,0-2.75,1.18,3.86,3.86,0,0,0-1,2.6A3.65,3.65,0,0,0,119,25Z"/><path class="cls-4" d="M158.31,19.7A5.23,5.23,0,0,1,157,23.61a4.1,4.1,0,0,1-2.91,1.27H143.9a2.37,2.37,0,0,0,1.42,2,5.6,5.6,0,0,0,2.84.82,11.63,11.63,0,0,0,3.91-.52l.48-.17a4.38,4.38,0,0,1,1.72-.47c.91,0,1.7.64,2.36,1.93a4.84,4.84,0,0,1,.56,2q0,3.83-9.16,3.83a13.79,13.79,0,0,1-5.65-1.1,9.57,9.57,0,0,1-3.85-2.9,12.34,12.34,0,0,1-2.71-7.78,11.27,11.27,0,0,1,3.5-8.67,12.42,12.42,0,0,1,8.75-3.25q6,0,8.78,4.22A8.78,8.78,0,0,1,158.31,19.7ZM149.23,21c1.09,0,1.64-.46,1.64-1.38a1.93,1.93,0,0,0-.75-1.59,3.4,3.4,0,0,0-2.15-.6,4.35,4.35,0,0,0-2.78,1.14A3.18,3.18,0,0,0,143.82,21Z"/><path class="cls-4" d="M191.59,4.76a9.3,9.3,0,0,1,3,6.77A5.67,5.67,0,0,1,191.29,17v.3a7.66,7.66,0,0,1,1.27.92,8.72,8.72,0,0,1,1.35,1.4,6.49,6.49,0,0,1,1.42,4.13,9.62,9.62,0,0,1-3.44,7.59,13.88,13.88,0,0,1-17.24,0,10.77,10.77,0,0,1-2.28-3.06,7.86,7.86,0,0,1-.48-1.11l-.08-.43a7.57,7.57,0,0,1-.47-2.33q0-2.49,4.21-2.49a4,4,0,0,1,2.28.43,4.62,4.62,0,0,1,1.29,2.24,3.41,3.41,0,0,0,2.36,2.06,6.09,6.09,0,0,0,1.81.26,5,5,0,0,0,3.35-.93,2.69,2.69,0,0,0,1.08-2.08,2.59,2.59,0,0,0-1.05-2,3.79,3.79,0,0,0-2.5-.89,14.32,14.32,0,0,1-2-.08,3.46,3.46,0,0,1-1.11-.43c-.78-.37-1.16-1.48-1.16-3.31q0-3,1.59-3.57a8.58,8.58,0,0,1,2.23-.22c2.18,0,3.27-.56,3.27-1.67a2.37,2.37,0,0,0-.86-1.72,3.3,3.3,0,0,0-2.39-.82,4.87,4.87,0,0,0-2.43.52,2.39,2.39,0,0,0-1.11,1l-.26.51a3.1,3.1,0,0,1-2.84,2.15,4.61,4.61,0,0,1-2.36-.77c-1.44-.83-2.15-1.79-2.15-2.88a10.24,10.24,0,0,1,1-2.93,8.79,8.79,0,0,1,.95-1.35,9.32,9.32,0,0,1,1.79-1.7,10.27,10.27,0,0,1,2.83-1.33,13,13,0,0,1,4.07-.6A11.36,11.36,0,0,1,191.59,4.76Z"/><path class="cls-4" d="M201.67,12a4.21,4.21,0,0,1,3.05.86,4.68,4.68,0,0,1,.84,3.23c0,.69-.06,1.2-.1,1.53a3.58,3.58,0,0,1-.46,1.18c-.43.83-1.51,1.24-3.24,1.24s-2.88-.27-3.44-.83-.84-1.64-.84-3.25.3-2.72.9-3.18A5.62,5.62,0,0,1,201.67,12Zm0,13.72a4.26,4.26,0,0,1,3.05.84c.56.56.84,1.64.84,3.25,0,.68-.06,1.19-.1,1.52a3.5,3.5,0,0,1-.46,1.18c-.43.84-1.51,1.25-3.24,1.25s-2.88-.28-3.44-.84-.84-1.64-.84-3.24.3-2.73.9-3.19A5.7,5.7,0,0,1,201.67,25.74Z"/><path class="cls-4" d="M239.83,3.38a2.27,2.27,0,0,1,1.25-.95,7,7,0,0,1,2-.25,7.36,7.36,0,0,1,2,.21,3.56,3.56,0,0,1,1.12.52,1.7,1.7,0,0,1,.56.9A7.31,7.31,0,0,1,247,6.05V19a16.63,16.63,0,0,1-3.52,10.32,12.8,12.8,0,0,1-4.43,3.55,13.29,13.29,0,0,1-6,1.35,12.93,12.93,0,0,1-6-1.37,12.49,12.49,0,0,1-4.36-3.61A16.57,16.57,0,0,1,219.24,19V6a13.93,13.93,0,0,1,.06-1.52,3.37,3.37,0,0,1,.41-1.14,1.94,1.94,0,0,1,1.16-.91,9.76,9.76,0,0,1,4.39,0,1.75,1.75,0,0,1,1.11.91,5.83,5.83,0,0,1,.52,2.71V19a10.22,10.22,0,0,0,1.29,5,4.77,4.77,0,0,0,1.94,1.94,6,6,0,0,0,3,.73,5.23,5.23,0,0,0,4.68-2.32,9.41,9.41,0,0,0,1.55-5.38V5.75A4.82,4.82,0,0,1,239.83,3.38Z"/><path class="cls-4" d="M263.05,11.08a9.06,9.06,0,0,1,7.16,3.29,11.77,11.77,0,0,1,2.86,8V30a13.55,13.55,0,0,1-.06,1.49,3.7,3.7,0,0,1-.37,1.09c-.4.78-1.52,1.17-3.35,1.17-2,0-3.21-.53-3.53-1.6a7,7,0,0,1-.26-2.19V22.34a3.45,3.45,0,0,0-3.72-3.74,3.79,3.79,0,0,0-2.75,1,3.65,3.65,0,0,0-1,2.71V30a11,11,0,0,1-.07,1.49,3.11,3.11,0,0,1-.4,1.09c-.38.78-1.48,1.17-3.32,1.17s-2.9-.39-3.31-1.17a3.83,3.83,0,0,1-.36-1.13,13,13,0,0,1-.07-1.49V14.69a12.41,12.41,0,0,1,.07-1.44,3,3,0,0,1,.41-1.1c.4-.71,1.5-1.07,3.31-1.07s2.82.33,3.22,1a3.35,3.35,0,0,1,.43,1.76,4.64,4.64,0,0,1,.78-.86,7.78,7.78,0,0,1,1.16-.9A5.61,5.61,0,0,1,263.05,11.08Z"/><path class="cls-4" d="M291.71,1.64a1.83,1.83,0,0,1,1.14-.88A7.51,7.51,0,0,1,295,.5a7.42,7.42,0,0,1,2.17.26,1.77,1.77,0,0,1,1.14.9,3.5,3.5,0,0,1,.39,1.14,12.82,12.82,0,0,1,.07,1.48V30a13,13,0,0,1-.07,1.49,3,3,0,0,1-.41,1.09q-.65,1.17-3.63,1.17c-2,0-3.1-.71-3.33-2.11a6.36,6.36,0,0,1-5,2.06,9.55,9.55,0,0,1-7.06-3.37,11.32,11.32,0,0,1,0-15.76,9.5,9.5,0,0,1,7-3.4,6,6,0,0,1,4.94,2.15v-9a10.87,10.87,0,0,1,.07-1.48A3.53,3.53,0,0,1,291.71,1.64Zm-7,23.37a3.65,3.65,0,0,0,2.71,1.16A3.44,3.44,0,0,0,290.08,25a3.73,3.73,0,0,0,1.05-2.56,4,4,0,0,0-1-2.6,3.37,3.37,0,0,0-2.73-1.2,3.46,3.46,0,0,0-2.75,1.18,3.85,3.85,0,0,0-1,2.6A3.64,3.64,0,0,0,284.72,25Z"/><path class="cls-4" d="M324.07,19.7a5.23,5.23,0,0,1-1.31,3.91,4.08,4.08,0,0,1-2.9,1.27h-10.2a2.37,2.37,0,0,0,1.42,2,5.63,5.63,0,0,0,2.84.82,11.63,11.63,0,0,0,3.91-.52l.48-.17a4.42,4.42,0,0,1,1.72-.47c.91,0,1.7.64,2.36,1.93a4.84,4.84,0,0,1,.56,2q0,3.83-9.16,3.83a13.82,13.82,0,0,1-5.65-1.1,9.64,9.64,0,0,1-3.85-2.9,12.34,12.34,0,0,1-2.71-7.78,11.27,11.27,0,0,1,3.5-8.67,12.43,12.43,0,0,1,8.76-3.25q6,0,8.77,4.22A8.78,8.78,0,0,1,324.07,19.7ZM315,21c1.09,0,1.63-.46,1.63-1.38a1.93,1.93,0,0,0-.75-1.59,3.38,3.38,0,0,0-2.15-.6A4.37,4.37,0,0,0,311,18.54,3.21,3.21,0,0,0,309.58,21Z"/><path class="cls-4" d="M342.26,11.34a2.87,2.87,0,0,1,1.35.88,3,3,0,0,1,.54,2,6.76,6.76,0,0,1-.82,3A2.55,2.55,0,0,1,341,18.86a3.38,3.38,0,0,1-1.49-.34,4.27,4.27,0,0,0-1.87-.35,3.44,3.44,0,0,0-2.17.82,2.46,2.46,0,0,0-1,2v9a13.34,13.34,0,0,1-.06,1.48,3.6,3.6,0,0,1-.41,1.14c-.43.75-1.55,1.12-3.36,1.12a4.71,4.71,0,0,1-3-.73,2.59,2.59,0,0,1-.78-1.85V14.82a12.82,12.82,0,0,1,.07-1.48,3.43,3.43,0,0,1,.36-1.1c.41-.78,1.52-1.16,3.36-1.16s2.79.33,3.22,1a2.45,2.45,0,0,1,.48,1.42,7.33,7.33,0,0,1,.62-.74,8.21,8.21,0,0,1,1.74-1.16,5.12,5.12,0,0,1,2.34-.73,11.42,11.42,0,0,1,1.7.11A9.42,9.42,0,0,1,342.26,11.34Z"/><path class="cls-4" d="M345.83,31.72a1.79,1.79,0,0,1-.82-1.64,7.05,7.05,0,0,1,1.63-3.39,1.69,1.69,0,0,1,1.53-.73A6.28,6.28,0,0,1,351,27a6.62,6.62,0,0,0,3.27,1c1.75,0,2.62-.34,2.62-1s-1-1-2.88-1.2a14,14,0,0,1-5.37-2,5.78,5.78,0,0,1-2.07-2.43,8.91,8.91,0,0,1-.82-3.94q0-6.8,9.34-6.79a15.21,15.21,0,0,1,6.27,1.46c1,.46,1.51,1,1.51,1.72a5.12,5.12,0,0,1-.95,2.54c-.63,1-1.27,1.5-1.93,1.5a5.74,5.74,0,0,1-1.92-.64,7.13,7.13,0,0,0-3-.65c-1.69,0-2.53.32-2.53,1,0,.86,1,1.42,2.92,1.67a16.13,16.13,0,0,1,5.5,1.64,4.92,4.92,0,0,1,2.09,2.08,7.47,7.47,0,0,1,.84,3.72,8,8,0,0,1-.84,3.81,5.4,5.4,0,0,1-2.34,2.34,15.82,15.82,0,0,1-6.91,1.34A14.8,14.8,0,0,1,345.83,31.72Z"/><path class="cls-4" d="M379.15,18.69l-2.79-.17v5.93a3,3,0,0,0,.36,1.68,1.6,1.6,0,0,0,1.38.51,14.56,14.56,0,0,1,1.55.07,3.1,3.1,0,0,1,1.14.41c.65.37,1,1.33,1,2.88,0,1.8-.4,2.91-1.2,3.31a3.88,3.88,0,0,1-1.14.36,10.5,10.5,0,0,1-1.44.07q-4.47,0-6.79-2t-2.32-6.84V18.52a12.26,12.26,0,0,1-1.77.13,2,2,0,0,1-1.57-.74,3.87,3.87,0,0,1-.62-2.49,11.12,11.12,0,0,1,.21-2.56,2.35,2.35,0,0,1,.61-1.14,2.63,2.63,0,0,1,1.72-.56l1.42.18V6.91a13,13,0,0,1,.06-1.47,2.73,2.73,0,0,1,.41-1c.37-.71,1.47-1.07,3.31-1.07s3.11.53,3.48,1.59a7.73,7.73,0,0,1,.22,2.19v4.22c1.26-.12,2.21-.18,2.86-.18a12.68,12.68,0,0,1,1.46.07,3.37,3.37,0,0,1,1.14.41c.74.37,1.12,1.47,1.12,3.31s-.39,2.91-1.17,3.31a3.92,3.92,0,0,1-1.13.36A11,11,0,0,1,379.15,18.69Z"/><path class="cls-4" d="M400,13.49c.17-1.61,1.3-2.41,3.39-2.41a8.66,8.66,0,0,1,2.5.26,1.82,1.82,0,0,1,1.14.9,3.71,3.71,0,0,1,.38,1.14,10.87,10.87,0,0,1,.07,1.48V29.91a11,11,0,0,1-.07,1.49,3.83,3.83,0,0,1-.36,1.13c-.4.75-1.38,1.12-2.95,1.12a5.78,5.78,0,0,1-3.14-.58,2.31,2.31,0,0,1-.92-1.7q-1.59,2.28-5.31,2.28a9.38,9.38,0,0,1-6.9-3.39,11.21,11.21,0,0,1-3.18-7.89,11,11,0,0,1,3.2-7.87,9.56,9.56,0,0,1,7-3.38,6.66,6.66,0,0,1,2.67.52,5.77,5.77,0,0,1,1.67,1A6.05,6.05,0,0,1,400,13.49Zm-7.83,8.94A3.55,3.55,0,0,0,393.3,25,3.65,3.65,0,0,0,396,26.13,3.42,3.42,0,0,0,398.65,25a3.76,3.76,0,0,0,1.06-2.56,3.94,3.94,0,0,0-1-2.6A3.32,3.32,0,0,0,396,18.6a3.48,3.48,0,0,0-2.76,1.21A3.89,3.89,0,0,0,392.18,22.43Z"/><path class="cls-4" d="M423.53,11.08a9.09,9.09,0,0,1,7.16,3.29,11.81,11.81,0,0,1,2.86,8V30a13,13,0,0,1-.07,1.49,3.38,3.38,0,0,1-.36,1.09c-.41.78-1.52,1.17-3.36,1.17-2,0-3.21-.53-3.52-1.6a6.69,6.69,0,0,1-.26-2.19V22.34a3.45,3.45,0,0,0-3.72-3.74,3.79,3.79,0,0,0-2.75,1,3.62,3.62,0,0,0-1.06,2.71V30a13.55,13.55,0,0,1-.06,1.49,3,3,0,0,1-.41,1.09c-.37.78-1.48,1.17-3.31,1.17s-2.91-.39-3.31-1.17A4.22,4.22,0,0,1,411,31.4a13.55,13.55,0,0,1-.06-1.49V14.69a12.89,12.89,0,0,1,.06-1.44,3.19,3.19,0,0,1,.41-1.1c.4-.71,1.51-1.07,3.31-1.07s2.83.33,3.23,1a3.45,3.45,0,0,1,.43,1.76,4.16,4.16,0,0,1,.77-.86,7.78,7.78,0,0,1,1.16-.9A5.65,5.65,0,0,1,423.53,11.08Z"/><path class="cls-4" d="M452.19,1.64a1.77,1.77,0,0,1,1.14-.88A7.42,7.42,0,0,1,455.5.5a7.51,7.51,0,0,1,2.17.26,1.82,1.82,0,0,1,1.14.9,4.05,4.05,0,0,1,.39,1.14,13.34,13.34,0,0,1,.06,1.48V30a13.55,13.55,0,0,1-.06,1.49,3.15,3.15,0,0,1-.41,1.09c-.43.78-1.64,1.17-3.64,1.17s-3.1-.71-3.33-2.11a6.34,6.34,0,0,1-5,2.06,9.53,9.53,0,0,1-7.05-3.37,11.33,11.33,0,0,1,0-15.76,9.53,9.53,0,0,1,7-3.4,6.07,6.07,0,0,1,4.95,2.15v-9a13.34,13.34,0,0,1,.06-1.48A3.34,3.34,0,0,1,452.19,1.64ZM445.2,25a3.63,3.63,0,0,0,2.71,1.16A3.42,3.42,0,0,0,450.55,25a3.74,3.74,0,0,0,1.06-2.56,4,4,0,0,0-1-2.6,3.4,3.4,0,0,0-2.73-1.2,3.48,3.48,0,0,0-2.76,1.18,3.9,3.9,0,0,0-1,2.6A3.61,3.61,0,0,0,445.2,25Z"/><path class="cls-4" d="M469.77,6.89a1.84,1.84,0,0,1-1.14.88,7.46,7.46,0,0,1-2.17.25,7.51,7.51,0,0,1-2.17-.25,1.87,1.87,0,0,1-1.14-.91,4.05,4.05,0,0,1-.39-1.14,13.22,13.22,0,0,1-.06-1.48,13.34,13.34,0,0,1,.06-1.48,3.75,3.75,0,0,1,.37-1.1c.4-.77,1.52-1.16,3.35-1.16s2.9.39,3.27,1.16a3.37,3.37,0,0,1,.41,1.14,12.82,12.82,0,0,1,.07,1.48,13,13,0,0,1-.07,1.49A3.34,3.34,0,0,1,469.77,6.89Zm-7.07,8a13.34,13.34,0,0,1,.06-1.48,4.27,4.27,0,0,1,.37-1.14c.4-.75,1.52-1.12,3.35-1.12a4.55,4.55,0,0,1,2.93.73,2.37,2.37,0,0,1,.77,1.85c0,.29.05.7.05,1.25V30a12.82,12.82,0,0,1-.07,1.48,3.37,3.37,0,0,1-.41,1.14c-.37.75-1.47,1.12-3.31,1.12s-2.91-.39-3.31-1.16a4.28,4.28,0,0,1-.37-1.12A13.47,13.47,0,0,1,462.7,30Z"/><path class="cls-4" d="M486.26,11.08a9.06,9.06,0,0,1,7.16,3.29,11.77,11.77,0,0,1,2.86,8V30a13.55,13.55,0,0,1-.06,1.49,3.7,3.7,0,0,1-.37,1.09c-.4.78-1.52,1.17-3.35,1.17-2,0-3.21-.53-3.53-1.6a7,7,0,0,1-.26-2.19V22.34A3.45,3.45,0,0,0,485,18.6a3.79,3.79,0,0,0-2.75,1,3.65,3.65,0,0,0-1.05,2.71V30a11,11,0,0,1-.07,1.49,2.92,2.92,0,0,1-.4,1.09c-.38.78-1.48,1.17-3.31,1.17s-2.91-.39-3.32-1.17a3.83,3.83,0,0,1-.36-1.13,13,13,0,0,1-.07-1.49V14.69a12.41,12.41,0,0,1,.07-1.44,3,3,0,0,1,.41-1.1c.4-.71,1.5-1.07,3.31-1.07s2.82.33,3.22,1a3.35,3.35,0,0,1,.43,1.76,4.64,4.64,0,0,1,.78-.86,7.78,7.78,0,0,1,1.16-.9A5.61,5.61,0,0,1,486.26,11.08Z"/><path class="cls-4" d="M514.08,30.9q-1.64,2.15-5.2,2.15a9.19,9.19,0,0,1-6.69-3.29,11,11,0,0,1,0-15.37,9.34,9.34,0,0,1,6.88-3.31,6.42,6.42,0,0,1,2.66.54,5.72,5.72,0,0,1,1.66,1,6,6,0,0,1,.71.84,2.58,2.58,0,0,1,.88-1.82,3.77,3.77,0,0,1,2.43-.63,8.48,8.48,0,0,1,2.45.26,1.81,1.81,0,0,1,1.09.88,3.33,3.33,0,0,1,.39,1.1,10.35,10.35,0,0,1,.07,1.46v17.8a10.13,10.13,0,0,1-3.44,8,11.43,11.43,0,0,1-7.74,3A13,13,0,0,1,504,41.91c-2-1.06-3-2-3-2.88a4.07,4.07,0,0,1,1.28-3,11.59,11.59,0,0,1,1.27-1.25,1.7,1.7,0,0,1,1.06-.34,2,2,0,0,1,1.24.52,7.2,7.2,0,0,0,4.48,1.59,3.25,3.25,0,0,0,2.66-1.29,4.81,4.81,0,0,0,1-3.1Zm-7.65-8.79a3.5,3.5,0,0,0,1.1,2.51,3.57,3.57,0,0,0,2.66,1.12,3.34,3.34,0,0,0,2.6-1.14,3.64,3.64,0,0,0,1-2.49,3.88,3.88,0,0,0-1-2.54,3.29,3.29,0,0,0-2.67-1.18,3.43,3.43,0,0,0-2.71,1.16A3.75,3.75,0,0,0,506.43,22.11Z"/><path class="cls-4" d="M525.05,31.72a1.79,1.79,0,0,1-.82-1.64,7.1,7.1,0,0,1,1.64-3.39,1.66,1.66,0,0,1,1.52-.73A6.28,6.28,0,0,1,530.25,27a6.68,6.68,0,0,0,3.27,1c1.75,0,2.62-.34,2.62-1s-1-1-2.88-1.2a14.07,14.07,0,0,1-5.37-2,5.85,5.85,0,0,1-2.07-2.43,8.91,8.91,0,0,1-.81-3.94q0-6.8,9.33-6.79a15.17,15.17,0,0,1,6.27,1.46c1,.46,1.51,1,1.51,1.72a5.12,5.12,0,0,1-1,2.54c-.63,1-1.27,1.5-1.93,1.5a5.88,5.88,0,0,1-1.92-.64,7.13,7.13,0,0,0-3-.65c-1.69,0-2.53.32-2.53,1,0,.86,1,1.42,2.92,1.67a16.13,16.13,0,0,1,5.5,1.64,4.86,4.86,0,0,1,2.09,2.08,7.47,7.47,0,0,1,.84,3.72,8,8,0,0,1-.84,3.81,5.4,5.4,0,0,1-2.34,2.34,15.8,15.8,0,0,1-6.9,1.34A14.81,14.81,0,0,1,525.05,31.72Z"/></g></g></g></svg>