<svg id="Layer_1" data-name="Layer 1" xmlns="http://www.w3.org/2000/svg" viewBox="0 0 2009 2009"><defs><style>.cls-1{fill:none;stroke:#fff;stroke-miterlimit:10;}</style></defs><title>Grid white square</title><rect class="cls-1" x="916.5" y="920.4" width="176" height="176"/><rect class="cls-1" x="902.5" y="906.23" width="204" height="204"/><rect class="cls-1" x="888" y="891.55" width="233" height="233"/><rect class="cls-1" x="874.5" y="877.87" width="260" height="260"/><rect class="cls-1" x="860.5" y="863.69" width="288" height="288"/><rect class="cls-1" x="844" y="847.02" width="321" height="321"/><rect class="cls-1" x="827.58" y="830.42" width="353.83" height="353.83"/><rect class="cls-1" x="809" y="811.66" width="391" height="391"/><rect class="cls-1" x="785.5" y="787.98" width="438" height="438"/><rect class="cls-1" x="761.5" y="763.81" width="486" height="486"/><rect class="cls-1" x="739.11" y="741.24" width="530.78" height="530.78"/><rect class="cls-1" x="712.93" y="714.88" width="583.14" height="583.14"/><rect class="cls-1" x="674.55" y="676.33" width="659.9" height="659.9"/><rect class="cls-1" x="635" y="636.6" width="739" height="739"/><rect class="cls-1" x="593.5" y="594.92" width="822" height="822"/><rect class="cls-1" x="542.5" y="543.74" width="924" height="924"/><rect class="cls-1" x="493.5" y="494.56" width="1022" height="1022"/><rect class="cls-1" x="443.25" y="444.14" width="1122.5" height="1122.5"/><rect class="cls-1" x="371" y="371.71" width="1267" height="1267"/><rect class="cls-1" x="307.5" y="308.03" width="1394" height="1394"/><rect class="cls-1" x="228.5" y="228.85" width="1552" height="1552"/><rect class="cls-1" x="141" y="141.18" width="1727" height="1727"/><rect class="cls-1" x="0.5" y="0.5" width="2008" height="2008"/><line class="cls-1" x1="1092.5" y1="920.4" x2="2008.5" y2="0.5"/><line class="cls-1" x1="916.5" y1="920.4" x2="0.5" y2="0.5"/><line class="cls-1" x1="916.5" y1="1096.4" x2="0.5" y2="2008.5"/><line class="cls-1" x1="1092.5" y1="1096.4" x2="2008.5" y2="2008.5"/><line class="cls-1" x1="1092.5" y1="940.59" x2="2008.5" y2="250.69"/><line class="cls-1" x1="1092.5" y1="963.37" x2="2008.5" y2="482.89"/><line class="cls-1" x1="1092.5" y1="985.1" x2="2008.5" y2="752.33"/><line class="cls-1" x1="1092.5" y1="1007.76" x2="2008.5" y2="1007.76"/><line class="cls-1" x1="1092.5" y1="1030.24" x2="2008.5" y2="1261.52"/><line class="cls-1" x1="1092.5" y1="1051.41" x2="2008.5" y2="1505.89"/><line class="cls-1" x1="1092.5" y1="1073.72" x2="2008.5" y2="1763.76"/><line class="cls-1" x1="1071.23" y1="1096.4" x2="1759.27" y2="2008.5"/><line class="cls-1" x1="1048.32" y1="1096.4" x2="1507.01" y2="2008.5"/><line class="cls-1" x1="1026.24" y1="1096.4" x2="1257.19" y2="2008.5"/><line class="cls-1" x1="1003.5" y1="1096.4" x2="1003.5" y2="2008.5"/><line class="cls-1" x1="981.6" y1="1095.76" x2="753.71" y2="2008.5"/><line class="cls-1" x1="959.83" y1="1096.4" x2="504.8" y2="2008.5"/><line class="cls-1" x1="937.46" y1="1096.4" x2="252.67" y2="2008.5"/><line class="cls-1" x1="916.5" y1="1072.83" x2="0.5" y2="1778.28"/><line class="cls-1" x1="916.5" y1="1051.09" x2="0.5" y2="1507.33"/><line class="cls-1" x1="916.5" y1="1029.41" x2="0.5" y2="1260"/><line class="cls-1" x1="916.5" y1="1007.76" x2="0.5" y2="1007.76"/><line class="cls-1" x1="916.5" y1="985.8" x2="0.5" y2="754.52"/><line class="cls-1" x1="916.5" y1="964.09" x2="0.5" y2="509.62"/><line class="cls-1" x1="916.5" y1="941.13" x2="0.5" y2="251.09"/><line class="cls-1" x1="938.6" y1="920.58" x2="244.54" y2="0.5"/><line class="cls-1" x1="959.73" y1="920.25" x2="497.19" y2="0.5"/><line class="cls-1" x1="981.67" y1="920.4" x2="748.74" y2="0.5"/><line class="cls-1" x1="1003.5" y1="920.4" x2="1003.5" y2="0.5"/><line class="cls-1" x1="1025.37" y1="920.4" x2="1255.04" y2="0.5"/><line class="cls-1" x1="1047.63" y1="920.4" x2="1506.56" y2="0.5"/><line class="cls-1" x1="1069.59" y1="920.4" x2="1760.24" y2="0.5"/></svg>