<?xml version="1.0" encoding="utf-8"?>
<!-- Generator: Adobe Illustrator 22.0.1, SVG Export Plug-In . SVG Version: 6.00 Build 0)  -->
<svg version="1.1" xmlns="http://www.w3.org/2000/svg" xmlns:xlink="http://www.w3.org/1999/xlink" x="0px" y="0px"
	 viewBox="0 0 1366 768" style="enable-background:new 0 0 1366 768;" xml:space="preserve">
<style type="text/css">
	.st0{display:none;}
	.st1{display:inline;}
	.st2{enable-background:new    ;}
	.st3{clip-path:url(#SVGID_2_);enable-background:new    ;}
	.st4{clip-path:url(#SVGID_4_);enable-background:new    ;}
	.st5{clip-path:url(#SVGID_6_);enable-background:new    ;}
	.st6{clip-path:url(#SVGID_8_);enable-background:new    ;}
	.st7{clip-path:url(#SVGID_10_);enable-background:new    ;}
	.st8{clip-path:url(#SVGID_12_);enable-background:new    ;}
	.st9{clip-path:url(#SVGID_14_);enable-background:new    ;}
	.st10{clip-path:url(#SVGID_16_);enable-background:new    ;}
	.st11{clip-path:url(#SVGID_18_);enable-background:new    ;}
	.st12{clip-path:url(#SVGID_20_);enable-background:new    ;}
	.st13{clip-path:url(#SVGID_22_);enable-background:new    ;}
	.st14{clip-path:url(#SVGID_24_);enable-background:new    ;}
	.st15{clip-path:url(#SVGID_26_);enable-background:new    ;}
	.st16{clip-path:url(#SVGID_28_);enable-background:new    ;}
	.st17{clip-path:url(#SVGID_30_);enable-background:new    ;}
	.st18{clip-path:url(#SVGID_32_);enable-background:new    ;}
	.st19{clip-path:url(#SVGID_34_);enable-background:new    ;}
	.st20{clip-path:url(#SVGID_36_);enable-background:new    ;}
	.st21{clip-path:url(#SVGID_38_);enable-background:new    ;}
	.st22{clip-path:url(#SVGID_40_);enable-background:new    ;}
	.st23{clip-path:url(#SVGID_42_);enable-background:new    ;}
	.st24{clip-path:url(#SVGID_44_);enable-background:new    ;}
	.st25{clip-path:url(#SVGID_46_);enable-background:new    ;}
	.st26{clip-path:url(#SVGID_48_);enable-background:new    ;}
	.st27{clip-path:url(#SVGID_50_);enable-background:new    ;}
	.st28{clip-path:url(#SVGID_52_);enable-background:new    ;}
	.st29{clip-path:url(#SVGID_54_);enable-background:new    ;}
	.st30{clip-path:url(#SVGID_56_);enable-background:new    ;}
	.st31{clip-path:url(#SVGID_58_);enable-background:new    ;}
	.st32{clip-path:url(#SVGID_60_);enable-background:new    ;}
	.st33{clip-path:url(#SVGID_62_);enable-background:new    ;}
	.st34{clip-path:url(#SVGID_64_);enable-background:new    ;}
	.st35{clip-path:url(#SVGID_66_);enable-background:new    ;}
	.st36{clip-path:url(#SVGID_68_);enable-background:new    ;}
	.st37{clip-path:url(#SVGID_70_);enable-background:new    ;}
	.st38{clip-path:url(#SVGID_72_);enable-background:new    ;}
	.st39{clip-path:url(#SVGID_74_);enable-background:new    ;}
	.st40{clip-path:url(#SVGID_76_);enable-background:new    ;}
	.st41{clip-path:url(#SVGID_78_);enable-background:new    ;}
	.st42{clip-path:url(#SVGID_80_);enable-background:new    ;}
	.st43{clip-path:url(#SVGID_82_);enable-background:new    ;}
	.st44{clip-path:url(#SVGID_84_);enable-background:new    ;}
	.st45{clip-path:url(#SVGID_86_);enable-background:new    ;}
	.st46{clip-path:url(#SVGID_88_);enable-background:new    ;}
	.st47{clip-path:url(#SVGID_90_);enable-background:new    ;}
	.st48{clip-path:url(#SVGID_92_);enable-background:new    ;}
	.st49{clip-path:url(#SVGID_94_);enable-background:new    ;}
	.st50{clip-path:url(#SVGID_96_);enable-background:new    ;}
	.st51{clip-path:url(#SVGID_98_);enable-background:new    ;}
	.st52{clip-path:url(#SVGID_100_);enable-background:new    ;}
	.st53{clip-path:url(#SVGID_102_);enable-background:new    ;}
	.st54{clip-path:url(#SVGID_104_);enable-background:new    ;}
	.st55{clip-path:url(#SVGID_106_);enable-background:new    ;}
	.st56{clip-path:url(#SVGID_108_);enable-background:new    ;}
	.st57{clip-path:url(#SVGID_110_);enable-background:new    ;}
	.st58{clip-path:url(#SVGID_112_);enable-background:new    ;}
	.st59{clip-path:url(#SVGID_114_);enable-background:new    ;}
	.st60{clip-path:url(#SVGID_116_);enable-background:new    ;}
	.st61{clip-path:url(#SVGID_118_);enable-background:new    ;}
	.st62{clip-path:url(#SVGID_120_);enable-background:new    ;}
	.st63{clip-path:url(#SVGID_122_);enable-background:new    ;}
	.st64{clip-path:url(#SVGID_124_);enable-background:new    ;}
	.st65{clip-path:url(#SVGID_126_);enable-background:new    ;}
	.st66{clip-path:url(#SVGID_128_);enable-background:new    ;}
	.st67{clip-path:url(#SVGID_130_);enable-background:new    ;}
	.st68{clip-path:url(#SVGID_132_);enable-background:new    ;}
	.st69{clip-path:url(#SVGID_134_);enable-background:new    ;}
	.st70{clip-path:url(#SVGID_136_);enable-background:new    ;}
	.st71{clip-path:url(#SVGID_138_);enable-background:new    ;}
	.st72{clip-path:url(#SVGID_140_);enable-background:new    ;}
	.st73{clip-path:url(#SVGID_142_);enable-background:new    ;}
	.st74{clip-path:url(#SVGID_144_);enable-background:new    ;}
	.st75{clip-path:url(#SVGID_146_);enable-background:new    ;}
	.st76{clip-path:url(#SVGID_148_);enable-background:new    ;}
	.st77{clip-path:url(#SVGID_150_);enable-background:new    ;}
	.st78{clip-path:url(#SVGID_152_);enable-background:new    ;}
	.st79{clip-path:url(#SVGID_154_);enable-background:new    ;}
	.st80{clip-path:url(#SVGID_156_);enable-background:new    ;}
	.st81{clip-path:url(#SVGID_158_);enable-background:new    ;}
	.st82{clip-path:url(#SVGID_160_);enable-background:new    ;}
	.st83{clip-path:url(#SVGID_162_);enable-background:new    ;}
	.st84{clip-path:url(#SVGID_164_);enable-background:new    ;}
	.st85{clip-path:url(#SVGID_166_);enable-background:new    ;}
	.st86{clip-path:url(#SVGID_168_);enable-background:new    ;}
	.st87{clip-path:url(#SVGID_170_);enable-background:new    ;}
	.st88{clip-path:url(#SVGID_172_);enable-background:new    ;}
	.st89{font-family:'FredokaOne-Regular';}
	.st90{font-size:72px;}
</style>
<g id="Layer_2" class="st0">
	<g class="st1">
		<g>
			<g class="st2">
				<g class="st2">
					<defs>
						<path id="SVGID_1_" class="st2" d="M495.1,298.1c0-2.6,0.5-4.3,1.6-5.3c1-1,2.8-1.5,5.5-1.5l0.4,0.4c-2.7,0-4.5,0.5-5.5,1.5
							c-1,1-1.5,2.7-1.6,5.3L495.1,298.1z"/>
					</defs>
					<clipPath id="SVGID_2_">
						<use xlink:href="#SVGID_1_"  style="overflow:visible;"/>
					</clipPath>
					<g class="st3">
						<path d="M495.1,298.1l0.4,0.4c0-0.4,0-0.8,0-1.2l-0.4-0.4C495.1,297.3,495.1,297.7,495.1,298.1"/>
						<path d="M495.2,296.9l0.4,0.4c0-0.6,0.1-1.1,0.2-1.6l-0.4-0.4C495.3,295.8,495.2,296.4,495.2,296.9"/>
						<path d="M495.4,295.3l0.4,0.4c0.1-0.3,0.2-0.7,0.3-1l-0.4-0.4C495.6,294.7,495.5,295,495.4,295.3"/>
						<path d="M495.7,294.4l0.4,0.4c0.1-0.2,0.2-0.5,0.3-0.7l-0.4-0.4C495.9,293.9,495.8,294.1,495.7,294.4"/>
						<path d="M496,293.7l0.4,0.4c0.1-0.2,0.2-0.4,0.4-0.6l-0.4-0.4C496.2,293.3,496.1,293.5,496,293.7"/>
						<path d="M496.4,293.1l0.4,0.4c0.1-0.1,0.2-0.2,0.3-0.3c1-1,2.8-1.5,5.5-1.5l-0.4-0.4c-2.7,0-4.5,0.5-5.5,1.5
							C496.6,292.9,496.5,293,496.4,293.1"/>
					</g>
				</g>
				<g class="st2">
					<defs>
						<path id="SVGID_3_" class="st2" d="M502.2,292.3l0.4,0.4c-2.4,0-4,0.4-4.8,1.2c-0.8,0.8-1.2,2.3-1.2,4.6l-0.4-0.4
							c0-2.3,0.4-3.8,1.2-4.6C498.2,292.7,499.8,292.3,502.2,292.3z"/>
					</defs>
					<clipPath id="SVGID_4_">
						<use xlink:href="#SVGID_3_"  style="overflow:visible;"/>
					</clipPath>
					<g class="st4">
						<path d="M502.2,292.3l0.4,0.4c-2.4,0-4,0.4-4.8,1.2c-0.1,0.1-0.1,0.1-0.2,0.2l-0.4-0.4c0.1-0.1,0.1-0.1,0.2-0.2
							C498.2,292.7,499.8,292.3,502.2,292.3"/>
						<path d="M497.2,293.7l0.4,0.4c-0.1,0.1-0.2,0.3-0.3,0.4l-0.4-0.4C497,294,497.1,293.9,497.2,293.7"/>
						<path d="M496.9,294.2l0.4,0.4c-0.1,0.2-0.2,0.4-0.3,0.6l-0.4-0.4C496.7,294.5,496.8,294.3,496.9,294.2"/>
						<path d="M496.6,294.7l0.4,0.4c-0.1,0.3-0.2,0.5-0.2,0.8l-0.4-0.4C496.4,295.3,496.5,295,496.6,294.7"/>
						<path d="M496.4,295.6l0.4,0.4c-0.1,0.4-0.2,0.9-0.2,1.5l-0.4-0.4C496.2,296.5,496.3,296,496.4,295.6"/>
						<path d="M496.2,297l0.4,0.4c0,0.4,0,0.7,0,1.1l-0.4-0.4C496.1,297.8,496.1,297.4,496.2,297"/>
					</g>
				</g>
				<g>
					<polygon points="508.8,305 509.2,305.5 509.1,311.7 508.7,311.3 					"/>
				</g>
				<g>
					<polygon points="507.7,312.3 507.8,304 508.2,304.5 508.1,312.7 					"/>
				</g>
				<g>
					<polygon points="502.2,291.3 530.5,291.3 530.9,291.8 502.6,291.8 					"/>
				</g>
				<g>
					<polygon points="530.4,292.3 530.9,292.8 502.6,292.8 502.2,292.3 					"/>
				</g>
				<g class="st2">
					<defs>
						<path id="SVGID_5_" class="st2" d="M535.1,293.4l0.4,0.4C535.3,293.7,535.2,293.6,535.1,293.4c-0.7-0.3-1.3-0.5-1.8-0.5
							c-0.5-0.1-1.3-0.1-2.4-0.1l-0.4-0.4c1.1,0,1.9,0,2.4,0.1c0.5,0.1,1.1,0.3,1.7,0.6C534.8,293.2,534.9,293.3,535.1,293.4z"/>
					</defs>
					<clipPath id="SVGID_6_">
						<use xlink:href="#SVGID_5_"  style="overflow:visible;"/>
					</clipPath>
					<g class="st5">
						<path d="M535.1,293.4l0.4,0.4C535.3,293.7,535.2,293.6,535.1,293.4c-0.7-0.3-1.3-0.5-1.8-0.5c-0.5-0.1-1.3-0.1-2.4-0.1
							l-0.4-0.4c1.1,0,1.9,0,2.4,0.1c0.5,0.1,1.1,0.3,1.7,0.6C534.8,293.2,534.9,293.3,535.1,293.4"/>
					</g>
				</g>
				<g class="st2">
					<defs>
						<path id="SVGID_7_" class="st2" d="M536.2,293.1c-0.2-0.2-0.5-0.4-0.7-0.5c-0.8-0.4-1.5-0.7-2.1-0.7c-0.6-0.1-1.4-0.1-2.5-0.1
							l-0.4-0.4c1.1,0,2,0,2.5,0.1c0.6,0.1,1.3,0.3,2.1,0.7c0.3,0.1,0.5,0.3,0.7,0.5C535.9,292.8,536.1,293,536.2,293.1z"/>
					</defs>
					<clipPath id="SVGID_8_">
						<use xlink:href="#SVGID_7_"  style="overflow:visible;"/>
					</clipPath>
					<g class="st6">
						<path d="M530.5,291.3l0.4,0.4c1.1,0,2,0,2.5,0.1c0.6,0.1,1.3,0.3,2.1,0.7c0.3,0.1,0.5,0.3,0.7,0.5l-0.4-0.4
							c-0.2-0.2-0.5-0.4-0.7-0.5c-0.8-0.4-1.5-0.7-2.1-0.7C532.4,291.4,531.6,291.3,530.5,291.3"/>
					</g>
				</g>
				<g>
					<polygon points="494.8,338 495.1,298.1 495.5,298.6 495.2,338.5 					"/>
				</g>
				<g>
					<polygon points="508.7,311.3 522.4,311.3 522.8,311.7 509.1,311.7 					"/>
				</g>
				<g>
					<polygon points="496.1,298.1 496.5,298.6 496.2,338.5 495.8,338 					"/>
				</g>
				<g>
					<polygon points="507.8,304 530.3,304 530.7,304.5 508.2,304.5 					"/>
				</g>
				<g>
					<polygon points="522.4,312.3 522.8,312.7 508.1,312.7 507.7,312.3 					"/>
				</g>
				<g>
					<polygon points="530.3,305 530.7,305.5 509.2,305.5 508.8,305 					"/>
				</g>
				<g class="st2">
					<defs>
						<path id="SVGID_9_" class="st2" d="M495.2,341.8c-0.3-0.8-0.4-2.1-0.4-3.8l0.4,0.4c0,1.7,0.1,3,0.4,3.8L495.2,341.8z"/>
					</defs>
					<clipPath id="SVGID_10_">
						<use xlink:href="#SVGID_9_"  style="overflow:visible;"/>
					</clipPath>
					<g class="st7">
						<path d="M495.2,341.8l0.4,0.4c-0.2-0.5-0.3-1.1-0.4-1.8l-0.4-0.4C494.9,340.8,495.1,341.4,495.2,341.8"/>
						<path d="M494.9,340l0.4,0.4c-0.1-0.6-0.1-1.2-0.1-2l-0.4-0.4C494.8,338.8,494.8,339.4,494.9,340"/>
					</g>
				</g>
				<g class="st2">
					<defs>
						<path id="SVGID_11_" class="st2" d="M530.3,304c1.6,0,2.8-0.1,3.6-0.4l0.4,0.4c-0.8,0.3-2,0.4-3.6,0.4L530.3,304z"/>
					</defs>
					<clipPath id="SVGID_12_">
						<use xlink:href="#SVGID_11_"  style="overflow:visible;"/>
					</clipPath>
					<g class="st8">
						<path d="M530.3,304l0.4,0.4c1.6,0,2.8-0.1,3.6-0.4l-0.4-0.4C533.1,303.9,531.9,304,530.3,304"/>
					</g>
				</g>
				<g class="st2">
					<defs>
						<path id="SVGID_13_" class="st2" d="M495.8,338l0.4,0.4c0,1.6,0.1,2.8,0.4,3.5l-0.4-0.4C495.9,340.8,495.8,339.6,495.8,338z"
							/>
					</defs>
					<clipPath id="SVGID_14_">
						<use xlink:href="#SVGID_13_"  style="overflow:visible;"/>
					</clipPath>
					<g class="st9">
						<path d="M495.8,338l0.4,0.4c0,0.7,0,1.3,0.1,1.9l-0.4-0.4C495.8,339.4,495.8,338.7,495.8,338"/>
						<path d="M495.9,339.9l0.4,0.4c0.1,0.7,0.2,1.2,0.3,1.6l-0.4-0.4C496,341.1,495.9,340.6,495.9,339.9"/>
					</g>
				</g>
				<g class="st2">
					<defs>
						<path id="SVGID_15_" class="st2" d="M535.5,293.9c0.8,0.8,1.2,2.4,1.2,4.8c0,3.1-0.8,4.9-2.4,5.4l-0.4-0.4
							c1.5-0.5,2.3-2.3,2.4-5.4c0-2.4-0.4-4-1.2-4.8C535.2,293.5,535.4,293.7,535.5,293.9z"/>
					</defs>
					<clipPath id="SVGID_16_">
						<use xlink:href="#SVGID_15_"  style="overflow:visible;"/>
					</clipPath>
					<g class="st10">
						<path d="M533.8,303.6l0.4,0.4c0.5-0.2,0.9-0.4,1.2-0.9l-0.4-0.4C534.7,303.2,534.3,303.5,533.8,303.6"/>
						<path d="M535.1,302.8l0.4,0.4c0.1-0.1,0.2-0.3,0.3-0.5l-0.4-0.4C535.3,302.5,535.2,302.6,535.1,302.8"/>
						<path d="M535.4,302.3l0.4,0.4c0.1-0.2,0.2-0.4,0.3-0.6l-0.4-0.4C535.6,301.9,535.5,302.1,535.4,302.3"/>
						<path d="M535.7,301.7l0.4,0.4c0.1-0.3,0.2-0.6,0.3-0.9l-0.4-0.4C535.9,301.1,535.8,301.4,535.7,301.7"/>
						<path d="M536,300.8l0.4,0.4c0.1-0.4,0.2-0.9,0.2-1.5l-0.4-0.4C536.1,299.9,536.1,300.3,536,300.8"/>
						<path d="M536.2,299.3l0.4,0.4c0-0.3,0-0.7,0-1.1c0-0.6,0-1.2-0.1-1.7l-0.4-0.4c0,0.5,0.1,1.1,0.1,1.7
							C536.2,298.6,536.2,299,536.2,299.3"/>
						<path d="M536.1,296.6l0.4,0.4c-0.1-0.8-0.2-1.5-0.4-2.1l-0.4-0.4C535.9,295,536.1,295.7,536.1,296.6"/>
						<path d="M535.7,294.5l0.4,0.4c-0.1-0.3-0.3-0.6-0.4-0.8l-0.4-0.4C535.5,293.9,535.6,294.2,535.7,294.5"/>
						<path d="M535.3,293.7l0.4,0.4c-0.1-0.1-0.1-0.2-0.2-0.3l-0.4-0.4C535.1,293.5,535.2,293.6,535.3,293.7"/>
					</g>
				</g>
				<g class="st2">
					<defs>
						<path id="SVGID_17_" class="st2" d="M534.2,304.6l0.4,0.4c-0.9,0.3-2.1,0.4-3.9,0.4l-0.4-0.4C532,305,533.3,304.9,534.2,304.6
							z"/>
					</defs>
					<clipPath id="SVGID_18_">
						<use xlink:href="#SVGID_17_"  style="overflow:visible;"/>
					</clipPath>
					<g class="st11">
						<path d="M534.2,304.6l0.4,0.4c-0.9,0.3-2.1,0.4-3.9,0.4l-0.4-0.4C532,305,533.3,304.9,534.2,304.6"/>
					</g>
				</g>
				<g class="st2">
					<defs>
						<path id="SVGID_19_" class="st2" d="M497.3,343l-0.4-0.4c-0.3-0.3-0.5-0.7-0.7-1.1l0.4,0.4C496.7,342.4,497,342.7,497.3,343z"
							/>
					</defs>
					<clipPath id="SVGID_20_">
						<use xlink:href="#SVGID_19_"  style="overflow:visible;"/>
					</clipPath>
					<g class="st12">
						<path d="M496.2,341.5l0.4,0.4c0,0.1,0,0.1,0.1,0.2l-0.4-0.4C496.2,341.6,496.2,341.6,496.2,341.5"/>
						<path d="M496.2,341.7l0.4,0.4c0.1,0.2,0.2,0.4,0.3,0.6l-0.4-0.4C496.4,342.1,496.3,341.9,496.2,341.7"/>
						<path d="M496.6,342.3l0.4,0.4c0.1,0.1,0.2,0.2,0.3,0.3l-0.4-0.4C496.7,342.5,496.7,342.4,496.6,342.3"/>
					</g>
				</g>
				<g class="st2">
					<defs>
						<path id="SVGID_21_" class="st2" d="M496.1,343.3c-0.4-0.4-0.7-0.9-0.9-1.5l0.4,0.4c0.2,0.6,0.5,1.1,0.9,1.5
							C496.4,343.6,496.2,343.4,496.1,343.3z"/>
					</defs>
					<clipPath id="SVGID_22_">
						<use xlink:href="#SVGID_21_"  style="overflow:visible;"/>
					</clipPath>
					<g class="st13">
						<path d="M496.1,343.3l0.4,0.4C496.4,343.6,496.3,343.5,496.1,343.3l-0.3-0.4C495.9,343.1,496,343.2,496.1,343.3"/>
						<path d="M495.8,342.9l0.4,0.4c-0.2-0.3-0.3-0.5-0.5-0.8l-0.4-0.4C495.4,342.4,495.6,342.7,495.8,342.9"/>
						<path d="M495.3,342.1l0.4,0.4c0-0.1-0.1-0.2-0.1-0.3l-0.4-0.4C495.3,341.9,495.3,342,495.3,342.1"/>
					</g>
				</g>
				<g>
					<polygon points="507.5,332.2 507.6,324 508,324.4 508,332.6 					"/>
				</g>
				<g>
					<polygon points="508.6,325 509,325.4 509,331.6 508.6,331.2 					"/>
				</g>
				<g class="st2">
					<defs>
						<path id="SVGID_23_" class="st2" d="M535.8,292.7l0.4,0.4c1,1,1.5,2.8,1.4,5.5c0,3.6-1,5.7-3,6.4l-0.4-0.4c2-0.6,3-2.8,3-6.4
							C537.2,295.5,536.8,293.7,535.8,292.7z"/>
					</defs>
					<clipPath id="SVGID_24_">
						<use xlink:href="#SVGID_23_"  style="overflow:visible;"/>
					</clipPath>
					<g class="st14">
						<path d="M535.8,292.7l0.4,0.4c0.1,0.1,0.2,0.2,0.3,0.4l-0.4-0.4C536,293,535.9,292.8,535.8,292.7"/>
						<path d="M536.1,293.1l0.4,0.4c0.2,0.3,0.4,0.6,0.5,1l-0.4-0.4C536.5,293.7,536.3,293.4,536.1,293.1"/>
						<path d="M536.6,294.1l0.4,0.4c0.2,0.6,0.4,1.4,0.5,2.4l-0.4-0.4C537.1,295.5,536.9,294.8,536.6,294.1"/>
						<path d="M537.1,296.5l0.4,0.4c0,0.5,0.1,1.1,0.1,1.7c0,0.4,0,0.8,0,1.1l-0.4-0.4c0-0.4,0-0.7,0-1.1
							C537.2,297.6,537.2,297,537.1,296.5"/>
						<path d="M537.2,299.4l0.4,0.4c0,0.6-0.1,1.1-0.2,1.6l-0.4-0.4C537,300.5,537.1,300,537.2,299.4"/>
						<path d="M536.9,301l0.4,0.4c-0.1,0.4-0.2,0.7-0.3,1l-0.4-0.4C536.7,301.7,536.8,301.4,536.9,301"/>
						<path d="M536.6,302l0.4,0.4c-0.1,0.3-0.2,0.5-0.3,0.7l-0.4-0.4C536.4,302.6,536.5,302.3,536.6,302"/>
						<path d="M536.3,302.8l0.4,0.4c-0.1,0.2-0.3,0.4-0.4,0.6l-0.4-0.4C536,303.2,536.1,303,536.3,302.8"/>
						<path d="M535.8,303.4l0.4,0.4c-0.4,0.6-1,0.9-1.7,1.2l-0.4-0.4C534.8,304.4,535.4,304,535.8,303.4"/>
					</g>
				</g>
				<g class="st2">
					<defs>
						<path id="SVGID_25_" class="st2" d="M527,313.4l0.4,0.4C527.3,313.6,527.1,313.5,527,313.4c-0.7-0.3-1.3-0.5-1.8-0.5
							c-0.5-0.1-1.3-0.1-2.4-0.1l-0.4-0.4c1.1,0,1.9,0,2.4,0.1c0.5,0.1,1.1,0.3,1.7,0.6C526.7,313.1,526.9,313.2,527,313.4z"/>
					</defs>
					<clipPath id="SVGID_26_">
						<use xlink:href="#SVGID_25_"  style="overflow:visible;"/>
					</clipPath>
					<g class="st15">
						<path d="M527,313.4l0.4,0.4C527.3,313.6,527.1,313.5,527,313.4c-0.7-0.3-1.3-0.5-1.8-0.5c-0.5-0.1-1.3-0.1-2.4-0.1l-0.4-0.4
							c1.1,0,1.9,0,2.4,0.1c0.5,0.1,1.1,0.3,1.7,0.6C526.7,313.1,526.9,313.2,527,313.4"/>
					</g>
				</g>
				<g class="st2">
					<defs>
						<path id="SVGID_27_" class="st2" d="M528.2,313.1c-0.2-0.2-0.5-0.4-0.7-0.5c-0.8-0.4-1.5-0.7-2.1-0.7
							c-0.6-0.1-1.4-0.1-2.5-0.1l-0.4-0.4c1.1,0,2,0,2.5,0.1c0.6,0.1,1.3,0.3,2.1,0.7c0.3,0.1,0.5,0.3,0.7,0.5
							C527.9,312.8,528,313,528.2,313.1z"/>
					</defs>
					<clipPath id="SVGID_28_">
						<use xlink:href="#SVGID_27_"  style="overflow:visible;"/>
					</clipPath>
					<g class="st16">
						<path d="M522.4,311.3l0.4,0.4c1.1,0,2,0,2.5,0.1c0.6,0.1,1.3,0.3,2.1,0.7c0.3,0.1,0.5,0.3,0.7,0.5l-0.4-0.4
							c-0.2-0.2-0.5-0.4-0.7-0.5c-0.8-0.4-1.5-0.7-2.1-0.7C524.4,311.3,523.5,311.3,522.4,311.3"/>
					</g>
				</g>
				<g class="st2">
					<defs>
						<path id="SVGID_29_" class="st2" d="M496.8,342.6c0.9,0.9,2.5,1.3,4.7,1.3l0.4,0.4c-2.3,0-3.9-0.4-4.7-1.3
							C497.1,342.9,497,342.7,496.8,342.6z"/>
					</defs>
					<clipPath id="SVGID_30_">
						<use xlink:href="#SVGID_29_"  style="overflow:visible;"/>
					</clipPath>
					<g class="st17">
						<path d="M496.8,342.6l0.4,0.4c0.9,0.9,2.5,1.3,4.7,1.3l-0.4-0.4C499.3,343.9,497.7,343.5,496.8,342.6"/>
					</g>
				</g>
				<g>
					<polygon points="507.6,324 522.2,324 522.6,324.4 508,324.4 					"/>
				</g>
				<g class="st2">
					<defs>
						<path id="SVGID_31_" class="st2" d="M496.6,343.8l-0.4-0.4c1.1,1.1,2.9,1.6,5.5,1.6l0.4,0.4
							C499.4,345.3,497.6,344.8,496.6,343.8z"/>
					</defs>
					<clipPath id="SVGID_32_">
						<use xlink:href="#SVGID_31_"  style="overflow:visible;"/>
					</clipPath>
					<g class="st18">
						<path d="M501.6,344.9l0.4,0.4c-2.6,0-4.4-0.5-5.5-1.6l-0.4-0.4C497.2,344.4,499,344.9,501.6,344.9"/>
					</g>
				</g>
				<g>
					<polygon points="522.2,325 522.6,325.4 509,325.4 508.6,325 					"/>
				</g>
				<g class="st2">
					<defs>
						<path id="SVGID_33_" class="st2" d="M522.2,324c1.6,0,2.8-0.1,3.6-0.4l0.4,0.4c-0.8,0.3-2,0.4-3.6,0.4L522.2,324z"/>
					</defs>
					<clipPath id="SVGID_34_">
						<use xlink:href="#SVGID_33_"  style="overflow:visible;"/>
					</clipPath>
					<g class="st19">
						<path d="M522.2,324l0.4,0.4c1.6,0,2.8-0.1,3.6-0.4l-0.4-0.4C525,323.8,523.8,324,522.2,324"/>
					</g>
				</g>
				<g class="st2">
					<defs>
						<path id="SVGID_35_" class="st2" d="M527.5,313.8c0.8,0.8,1.2,2.4,1.2,4.8c0,3.1-0.8,4.9-2.4,5.4l-0.4-0.4
							c1.6-0.5,2.4-2.3,2.4-5.4c0-2.4-0.4-4-1.2-4.8C527.1,313.5,527.3,313.7,527.5,313.8z"/>
					</defs>
					<clipPath id="SVGID_36_">
						<use xlink:href="#SVGID_35_"  style="overflow:visible;"/>
					</clipPath>
					<g class="st20">
						<path d="M525.7,323.6l0.4,0.4c0.5-0.2,0.9-0.5,1.3-0.9l-0.4-0.4C526.7,323.1,526.2,323.4,525.7,323.6"/>
						<path d="M527,322.7l0.4,0.4c0.1-0.2,0.2-0.3,0.3-0.5l-0.4-0.4C527.3,322.4,527.2,322.5,527,322.7"/>
						<path d="M527.4,322.2l0.4,0.4c0.1-0.2,0.2-0.4,0.3-0.6l-0.4-0.4C527.6,321.8,527.5,322,527.4,322.2"/>
						<path d="M527.7,321.6l0.4,0.4c0.1-0.3,0.2-0.6,0.3-0.9l-0.4-0.4C527.8,321,527.8,321.3,527.7,321.6"/>
						<path d="M527.9,320.7l0.4,0.4c0.1-0.4,0.2-0.9,0.2-1.5l-0.4-0.4C528.1,319.8,528,320.2,527.9,320.7"/>
						<path d="M528.1,319.2l0.4,0.4c0-0.3,0-0.7,0-1.1c0-0.6,0-1.2-0.1-1.7l-0.4-0.4c0,0.5,0.1,1.1,0.1,1.7
							C528.2,318.5,528.2,318.9,528.1,319.2"/>
						<path d="M528.1,316.5l0.4,0.4c-0.1-0.8-0.2-1.5-0.4-2.1l-0.4-0.4C527.9,315,528,315.7,528.1,316.5"/>
						<path d="M527.7,314.4l0.4,0.4c-0.1-0.3-0.3-0.6-0.4-0.8l-0.4-0.4C527.4,313.8,527.6,314.1,527.7,314.4"/>
						<path d="M527.2,313.6l0.4,0.4c-0.1-0.1-0.1-0.2-0.2-0.3l-0.4-0.4C527.1,313.4,527.2,313.5,527.2,313.6"/>
					</g>
				</g>
				<g class="st2">
					<defs>
						<path id="SVGID_37_" class="st2" d="M526,324.5l0.4,0.4c-0.9,0.3-2.1,0.4-3.9,0.4l-0.4-0.4C523.9,325,525.2,324.8,526,324.5z"
							/>
					</defs>
					<clipPath id="SVGID_38_">
						<use xlink:href="#SVGID_37_"  style="overflow:visible;"/>
					</clipPath>
					<g class="st21">
						<path d="M526,324.5l0.4,0.4c-0.9,0.3-2.1,0.4-3.9,0.4l-0.4-0.4C523.9,325,525.2,324.8,526,324.5"/>
					</g>
				</g>
				<g class="st2">
					<defs>
						<path id="SVGID_39_" class="st2" d="M527.7,312.7l0.4,0.4c1,1,1.5,2.8,1.4,5.5c0,3.6-1.1,5.7-3.1,6.4l-0.4-0.4
							c2-0.6,3.1-2.8,3.1-6.4C529.2,315.5,528.7,313.6,527.7,312.7z"/>
					</defs>
					<clipPath id="SVGID_40_">
						<use xlink:href="#SVGID_39_"  style="overflow:visible;"/>
					</clipPath>
					<g class="st22">
						<path d="M527.7,312.7l0.4,0.4c0.1,0.1,0.2,0.2,0.3,0.4l-0.4-0.4C528,312.9,527.8,312.8,527.7,312.7"/>
						<path d="M528.1,313l0.4,0.4c0.2,0.3,0.4,0.6,0.5,1l-0.4-0.4C528.4,313.7,528.3,313.3,528.1,313"/>
						<path d="M528.6,314l0.4,0.4c0.2,0.6,0.4,1.4,0.5,2.4l-0.4-0.4C529,315.5,528.8,314.7,528.6,314"/>
						<path d="M529.1,316.4l0.4,0.4c0,0.5,0.1,1.1,0.1,1.8c0,0.4,0,0.8,0,1.1l-0.4-0.4c0-0.4,0-0.7,0-1.1
							C529.2,317.5,529.1,316.9,529.1,316.4"/>
						<path d="M529.1,319.3l0.4,0.4c0,0.6-0.1,1.1-0.2,1.6l-0.4-0.4C529,320.4,529.1,319.9,529.1,319.3"/>
						<path d="M528.9,320.9l0.4,0.4c-0.1,0.4-0.2,0.7-0.3,1l-0.4-0.4C528.7,321.6,528.8,321.3,528.9,320.9"/>
						<path d="M528.6,321.9l0.4,0.4c-0.1,0.3-0.2,0.5-0.3,0.8l-0.4-0.4C528.4,322.4,528.5,322.2,528.6,321.9"/>
						<path d="M528.2,322.7l0.4,0.4c-0.1,0.2-0.3,0.4-0.4,0.6l-0.4-0.4C528,323.1,528.1,322.9,528.2,322.7"/>
						<path d="M527.8,323.3l0.4,0.4c-0.5,0.6-1.1,1-1.8,1.2l-0.4-0.4C526.7,324.3,527.3,323.9,527.8,323.3"/>
					</g>
				</g>
				<g>
					<polygon points="508.6,331.2 530.2,331.2 530.6,331.6 509,331.6 					"/>
				</g>
				<g>
					<polygon points="530.1,332.2 530.6,332.6 508,332.6 507.5,332.2 					"/>
				</g>
				<g class="st2">
					<defs>
						<path id="SVGID_41_" class="st2" d="M530.2,331.2c1.1,0,2,0,2.5,0.1c0.6,0.1,1.3,0.3,2.1,0.7l0.4,0.4
							c-0.8-0.4-1.5-0.7-2.1-0.7c-0.6-0.1-1.4-0.1-2.5-0.1L530.2,331.2z"/>
					</defs>
					<clipPath id="SVGID_42_">
						<use xlink:href="#SVGID_41_"  style="overflow:visible;"/>
					</clipPath>
					<g class="st23">
						<path d="M530.2,331.2l0.4,0.4c1.1,0,2,0,2.5,0.1c0.6,0.1,1.3,0.3,2.1,0.7l-0.4-0.4c-0.8-0.4-1.5-0.7-2.1-0.7
							C532.1,331.2,531.3,331.2,530.2,331.2"/>
					</g>
				</g>
				<g class="st2">
					<defs>
						<path id="SVGID_43_" class="st2" d="M534.8,333.3l0.4,0.4C535,333.6,534.9,333.5,534.8,333.3c-0.7-0.3-1.3-0.5-1.8-0.5
							c-0.5-0.1-1.3-0.1-2.4-0.1l-0.4-0.4c1.1,0,1.9,0,2.4,0.1c0.5,0.1,1.1,0.3,1.7,0.6C534.5,333,534.6,333.1,534.8,333.3z"/>
					</defs>
					<clipPath id="SVGID_44_">
						<use xlink:href="#SVGID_43_"  style="overflow:visible;"/>
					</clipPath>
					<g class="st24">
						<path d="M534.8,333.3l0.4,0.4C535,333.6,534.9,333.5,534.8,333.3c-0.7-0.3-1.3-0.5-1.8-0.5c-0.5-0.1-1.3-0.1-2.4-0.1l-0.4-0.4
							c1.1,0,1.9,0,2.4,0.1c0.5,0.1,1.1,0.3,1.7,0.6C534.5,333,534.6,333.1,534.8,333.3"/>
					</g>
				</g>
				<g class="st2">
					<defs>
						<path id="SVGID_45_" class="st2" d="M535.9,333c-0.2-0.2-0.5-0.4-0.7-0.5l-0.4-0.4c0.3,0.1,0.5,0.3,0.7,0.5
							C535.6,332.7,535.8,332.9,535.9,333z"/>
					</defs>
					<clipPath id="SVGID_46_">
						<use xlink:href="#SVGID_45_"  style="overflow:visible;"/>
					</clipPath>
					<g class="st25">
						<path d="M534.8,332.1l0.4,0.4c0.3,0.1,0.5,0.3,0.7,0.5l-0.4-0.4C535.3,332.4,535,332.2,534.8,332.1"/>
					</g>
				</g>
				<g>
					<polygon points="501.6,343.9 530,343.9 530.4,344.3 502,344.3 					"/>
				</g>
				<g>
					<polygon points="530,344.9 530.4,345.3 502,345.3 501.6,344.9 					"/>
				</g>
				<g class="st2">
					<defs>
						<path id="SVGID_47_" class="st2" d="M530,343.9c1.6,0,2.8-0.1,3.6-0.4l0.4,0.4c-0.8,0.3-2,0.4-3.6,0.4L530,343.9z"/>
					</defs>
					<clipPath id="SVGID_48_">
						<use xlink:href="#SVGID_47_"  style="overflow:visible;"/>
					</clipPath>
					<g class="st26">
						<path d="M530,343.9l0.4,0.4c1.6,0,2.8-0.1,3.6-0.4l-0.4-0.4C532.8,343.8,531.6,343.9,530,343.9"/>
					</g>
				</g>
				<g class="st2">
					<defs>
						<path id="SVGID_49_" class="st2" d="M535.2,333.7c0.8,0.8,1.2,2.4,1.2,4.8c0,3.1-0.8,4.9-2.4,5.4l-0.4-0.4
							c1.5-0.5,2.3-2.3,2.4-5.4c0-2.4-0.4-4-1.2-4.8C534.9,333.4,535.1,333.6,535.2,333.7z"/>
					</defs>
					<clipPath id="SVGID_50_">
						<use xlink:href="#SVGID_49_"  style="overflow:visible;"/>
					</clipPath>
					<g class="st27">
						<path d="M533.5,343.5l0.4,0.4c0.5-0.2,0.9-0.4,1.2-0.9l-0.4-0.4C534.4,343.1,534,343.4,533.5,343.5"/>
						<path d="M534.8,342.7l0.4,0.4c0.1-0.1,0.2-0.3,0.3-0.5l-0.4-0.4C535,342.3,534.9,342.5,534.8,342.7"/>
						<path d="M535.1,342.2l0.4,0.4c0.1-0.2,0.2-0.4,0.3-0.6l-0.4-0.4C535.3,341.8,535.2,342,535.1,342.2"/>
						<path d="M535.4,341.5l0.4,0.4c0.1-0.3,0.2-0.6,0.3-0.9l-0.4-0.4C535.6,341,535.5,341.3,535.4,341.5"/>
						<path d="M535.6,340.7l0.4,0.4c0.1-0.4,0.2-0.9,0.2-1.5l-0.4-0.4C535.8,339.7,535.8,340.2,535.6,340.7"/>
						<path d="M535.9,339.2l0.4,0.4c0-0.3,0-0.7,0-1.1c0-0.6,0-1.2-0.1-1.7l-0.4-0.4c0,0.5,0.1,1.1,0.1,1.7
							C535.9,338.5,535.9,338.8,535.9,339.2"/>
						<path d="M535.8,336.4l0.4,0.4c-0.1-0.8-0.2-1.5-0.4-2.1l-0.4-0.4C535.6,334.9,535.8,335.6,535.8,336.4"/>
						<path d="M535.4,334.4l0.4,0.4c-0.1-0.3-0.3-0.6-0.4-0.8l-0.4-0.4C535.1,333.8,535.3,334.1,535.4,334.4"/>
						<path d="M535,333.6l0.4,0.4c-0.1-0.1-0.1-0.2-0.2-0.3l-0.4-0.4C534.8,333.4,534.9,333.5,535,333.6"/>
					</g>
				</g>
				<g class="st2">
					<defs>
						<path id="SVGID_51_" class="st2" d="M533.9,344.5l0.4,0.4c-0.9,0.3-2.1,0.5-3.9,0.5l-0.4-0.4
							C531.7,344.9,533,344.8,533.9,344.5z"/>
					</defs>
					<clipPath id="SVGID_52_">
						<use xlink:href="#SVGID_51_"  style="overflow:visible;"/>
					</clipPath>
					<g class="st28">
						<path d="M533.9,344.5l0.4,0.4c-0.9,0.3-2.1,0.5-3.9,0.5l-0.4-0.4C531.7,344.9,533,344.8,533.9,344.5"/>
					</g>
				</g>
				<g class="st2">
					<defs>
						<path id="SVGID_53_" class="st2" d="M535.5,332.6l0.4,0.4c1,1,1.5,2.8,1.4,5.5c0,3.6-1,5.7-3,6.4l-0.4-0.4c2-0.6,3-2.8,3-6.4
							C536.9,335.4,536.5,333.6,535.5,332.6z"/>
					</defs>
					<clipPath id="SVGID_54_">
						<use xlink:href="#SVGID_53_"  style="overflow:visible;"/>
					</clipPath>
					<g class="st29">
						<path d="M535.5,332.6l0.4,0.4c0.1,0.1,0.2,0.2,0.3,0.4l-0.4-0.4C535.7,332.8,535.6,332.7,535.5,332.6"/>
						<path d="M535.8,333l0.4,0.4c0.2,0.3,0.4,0.6,0.5,1l-0.4-0.4C536.2,333.6,536,333.3,535.8,333"/>
						<path d="M536.3,334l0.4,0.4c0.2,0.6,0.4,1.4,0.5,2.4l-0.4-0.4C536.8,335.4,536.6,334.6,536.3,334"/>
						<path d="M536.8,336.3l0.4,0.4c0,0.5,0.1,1.1,0.1,1.7c0,0.4,0,0.8,0,1.1l-0.4-0.4c0-0.4,0-0.7,0-1.1
							C536.9,337.5,536.9,336.9,536.8,336.3"/>
						<path d="M536.9,339.2l0.4,0.4c0,0.6-0.1,1.1-0.2,1.6l-0.4-0.4C536.7,340.4,536.8,339.8,536.9,339.2"/>
						<path d="M536.6,340.9l0.4,0.4c-0.1,0.4-0.2,0.7-0.3,1l-0.4-0.4C536.4,341.6,536.5,341.3,536.6,340.9"/>
						<path d="M536.3,341.9l0.4,0.4c-0.1,0.3-0.2,0.5-0.3,0.7l-0.4-0.4C536.1,342.4,536.2,342.2,536.3,341.9"/>
						<path d="M536,342.7l0.4,0.4c-0.1,0.2-0.3,0.4-0.4,0.6l-0.4-0.4C535.7,343.1,535.8,342.9,536,342.7"/>
						<path d="M535.5,343.3l0.4,0.4c-0.4,0.6-1,0.9-1.7,1.2l-0.4-0.4C534.5,344.2,535.1,343.9,535.5,343.3"/>
					</g>
				</g>
			</g>
			<g class="st2">
				<g>
					<polygon points="580.1,294.1 581.8,295.1 582.3,295.5 580.5,294.5 					"/>
				</g>
				<g>
					<polygon points="581.3,295.9 581.7,296.3 580,295.4 579.6,294.9 					"/>
				</g>
				<g class="st2">
					<defs>
						<path id="SVGID_55_" class="st2" d="M581.8,295.1c0.9,0.5,1.5,1,2,1.3l0.4,0.4c-0.5-0.3-1.2-0.8-2-1.3L581.8,295.1z"/>
					</defs>
					<clipPath id="SVGID_56_">
						<use xlink:href="#SVGID_55_"  style="overflow:visible;"/>
					</clipPath>
					<g class="st30">
						<path d="M581.8,295.1l0.4,0.4c0.9,0.5,1.5,1,2,1.3l-0.4-0.4C583.4,296,582.7,295.6,581.8,295.1"/>
					</g>
				</g>
				<g class="st2">
					<defs>
						<path id="SVGID_57_" class="st2" d="M583.2,297.2l0.4,0.4c-0.5-0.3-1.1-0.7-1.9-1.3l-0.4-0.4
							C582.1,296.4,582.8,296.9,583.2,297.2z"/>
					</defs>
					<clipPath id="SVGID_58_">
						<use xlink:href="#SVGID_57_"  style="overflow:visible;"/>
					</clipPath>
					<g class="st31">
						<path d="M583.2,297.2l0.4,0.4c-0.5-0.3-1.1-0.7-1.9-1.3l-0.4-0.4C582.1,296.4,582.8,296.9,583.2,297.2"/>
					</g>
				</g>
				<g class="st2">
					<defs>
						<path id="SVGID_59_" class="st2" d="M584.9,297.3c-0.2-0.2-0.4-0.4-0.6-0.5l-0.4-0.4c0.2,0.2,0.4,0.3,0.6,0.5
							C584.6,297,584.7,297.2,584.9,297.3z"/>
					</defs>
					<clipPath id="SVGID_60_">
						<use xlink:href="#SVGID_59_"  style="overflow:visible;"/>
					</clipPath>
					<g class="st32">
						<path d="M583.8,296.4l0.4,0.4c0.2,0.2,0.4,0.3,0.6,0.5l-0.4-0.4C584.3,296.7,584.1,296.5,583.8,296.4"/>
					</g>
				</g>
				<g class="st2">
					<defs>
						<path id="SVGID_61_" class="st2" d="M583.7,297.6l0.4,0.4C584,297.9,583.9,297.8,583.7,297.6l-0.5-0.4
							C583.4,297.3,583.6,297.5,583.7,297.6z"/>
					</defs>
					<clipPath id="SVGID_62_">
						<use xlink:href="#SVGID_61_"  style="overflow:visible;"/>
					</clipPath>
					<g class="st33">
						<path d="M583.7,297.6l0.4,0.4C584,297.9,583.9,297.8,583.7,297.6l-0.5-0.4C583.4,297.3,583.6,297.5,583.7,297.6"/>
					</g>
				</g>
				<g class="st2">
					<defs>
						<path id="SVGID_63_" class="st2" d="M546.8,336.8c-0.1-0.1-0.3-0.3-0.4-0.4c-2-2.1-3.6-4.8-4.9-8c-1.3-3.2-1.9-6.8-1.9-10.6
							c0-3.8,0.7-7.3,2-10.3c1.3-3.1,2.9-5.7,4.9-7.7c2-2,4.3-3.7,6.8-5.1c4.8-2.6,9.6-3.9,14.4-3.9c2.3,0,4.6,0.4,7,1.1
							c2.3,0.7,4.1,1.4,5.4,2.2l0.4,0.4c-1.2-0.7-3-1.5-5.4-2.2c-2.4-0.7-4.7-1.1-7-1.1c-4.8,0-9.6,1.3-14.4,3.9
							c-2.5,1.4-4.8,3.1-6.8,5.1c-2,2-3.6,4.6-4.9,7.7c-1.3,3.1-2,6.6-2,10.3c0,3.8,0.6,7.3,1.9,10.6
							C543.2,332.1,544.8,334.8,546.8,336.8c0.2,0.2,0.3,0.3,0.4,0.4C547.1,337.1,546.9,337,546.8,336.8z"/>
					</defs>
					<clipPath id="SVGID_64_">
						<use xlink:href="#SVGID_63_"  style="overflow:visible;"/>
					</clipPath>
					<g class="st34">
						<path d="M546.8,336.8l0.4,0.4C547.1,337.1,547,337,546.8,336.8c-0.5-0.6-1.1-1.2-1.6-1.9l-0.4-0.4c0.5,0.7,1,1.3,1.6,1.9
							C546.5,336.5,546.7,336.7,546.8,336.8"/>
						<path d="M544.8,334.5l0.4,0.4c-1.3-1.7-2.4-3.8-3.3-6.1c0,0,0-0.1,0-0.1l-0.4-0.4c0,0,0,0.1,0,0.1
							C542.4,330.7,543.5,332.8,544.8,334.5"/>
						<path d="M541.5,328.3l0.4,0.4c-0.9-2.3-1.4-4.8-1.7-7.3l-0.4-0.4C540,323.6,540.6,326,541.5,328.3"/>
						<path d="M539.8,321l0.4,0.4c-0.1-1-0.1-2-0.1-3.1c0-0.8,0-1.5,0.1-2.2l-0.4-0.4c-0.1,0.7-0.1,1.5-0.1,2.2
							C539.6,318.9,539.7,320,539.8,321"/>
						<path d="M539.7,315.6l0.4,0.4c0.1-1.4,0.3-2.8,0.6-4.1l-0.4-0.4C540.1,312.9,539.9,314.2,539.7,315.6"/>
						<path d="M540.4,311.6l0.4,0.4c0.3-1.1,0.6-2.3,1-3.3l-0.4-0.4C540.9,309.3,540.6,310.4,540.4,311.6"/>
						<path d="M541.3,308.2l0.4,0.4c0.1-0.2,0.2-0.5,0.3-0.7c0.4-1,0.9-2,1.4-2.9l-0.4-0.4c-0.5,0.9-1,1.9-1.4,2.9
							C541.5,307.8,541.4,308,541.3,308.2"/>
						<path d="M543,304.6l0.4,0.4c0.7-1.2,1.4-2.3,2.3-3.4l-0.4-0.4C544.5,302.3,543.7,303.4,543,304.6"/>
						<path d="M545.3,301.2l0.4,0.4c0.4-0.5,0.8-1,1.2-1.4c2-2,4.3-3.7,6.8-5.1c4.8-2.6,9.6-3.9,14.4-3.9c2.3,0,4.6,0.4,7,1.1
							c2.3,0.7,4.1,1.4,5.4,2.2l-0.4-0.4c-1.2-0.7-3-1.5-5.4-2.2c-2.4-0.7-4.7-1.1-7-1.1c-4.8,0-9.6,1.3-14.4,3.9
							c-2.5,1.4-4.8,3.1-6.8,5.1C546.1,300.3,545.7,300.7,545.3,301.2"/>
					</g>
				</g>
				<g class="st2">
					<defs>
						<path id="SVGID_65_" class="st2" d="M548,336.6l-0.4-0.4c-0.2-0.2-0.3-0.3-0.4-0.5c-1.9-2-3.5-4.5-4.7-7.7
							c-1.2-3.1-1.8-6.5-1.8-10.2c0-3.6,0.7-7,1.9-10c1.2-3,2.8-5.4,4.7-7.4c1.9-1.9,4.1-3.6,6.6-4.9c4.6-2.5,9.3-3.8,13.9-3.8
							c2.2,0,4.4,0.3,6.7,1c2.3,0.7,4,1.4,5.1,2.1l0.4,0.4c-1.2-0.7-2.9-1.4-5.1-2.1c-2.3-0.7-4.5-1-6.7-1c-4.6,0-9.3,1.3-13.9,3.8
							c-2.4,1.3-4.6,2.9-6.6,4.9c-1.9,1.9-3.5,4.4-4.7,7.4c-1.2,3-1.9,6.3-1.9,10c0,3.6,0.6,7.1,1.8,10.2c1.2,3.1,2.8,5.7,4.7,7.7
							C547.7,336.3,547.8,336.4,548,336.6z"/>
					</defs>
					<clipPath id="SVGID_66_">
						<use xlink:href="#SVGID_65_"  style="overflow:visible;"/>
					</clipPath>
					<g class="st35">
						<path d="M579.6,294.9l0.4,0.4c-1.2-0.7-2.9-1.4-5.1-2.1c-2.3-0.7-4.5-1-6.7-1c-4.6,0-9.3,1.3-13.9,3.8
							c-2.4,1.3-4.6,2.9-6.6,4.9c-0.4,0.4-0.8,0.9-1.2,1.3l-0.4-0.4c0.4-0.5,0.8-0.9,1.2-1.3c1.9-1.9,4.1-3.6,6.6-4.9
							c4.6-2.5,9.3-3.8,13.9-3.8c2.2,0,4.4,0.3,6.7,1C576.7,293.5,578.4,294.2,579.6,294.9"/>
						<path d="M546.1,301.9l0.4,0.4c-0.8,1-1.5,2-2.2,3.2l-0.4-0.4C544.6,303.9,545.3,302.8,546.1,301.9"/>
						<path d="M543.9,305.1l0.4,0.4c-0.5,0.9-1,1.8-1.4,2.8c-0.1,0.2-0.2,0.4-0.3,0.7l-0.4-0.4c0.1-0.2,0.2-0.4,0.3-0.7
							C543,306.9,543.4,306,543.9,305.1"/>
						<path d="M542.3,308.6l0.4,0.4c-0.4,1-0.7,2.1-1,3.2l-0.4-0.4C541.6,310.7,541.9,309.6,542.3,308.6"/>
						<path d="M541.3,311.8l0.4,0.4c-0.3,1.3-0.5,2.6-0.6,3.9l-0.4-0.4C540.8,314.4,541,313,541.3,311.8"/>
						<path d="M540.7,315.7l0.4,0.4c-0.1,0.7-0.1,1.4-0.1,2.2c0,1,0,2,0.1,3l-0.4-0.4c-0.1-1-0.1-2-0.1-3
							C540.6,317.1,540.7,316.4,540.7,315.7"/>
						<path d="M540.8,320.9l0.4,0.4c0.2,2.5,0.8,4.8,1.6,7l-0.4-0.4C541.5,325.7,541,323.4,540.8,320.9"/>
						<path d="M542.4,327.9l0.4,0.4c0,0,0,0.1,0.1,0.1c0.9,2.2,1.9,4.2,3.2,5.9l-0.4-0.4c-1.2-1.7-2.3-3.6-3.2-5.9
							C542.4,328,542.4,328,542.4,327.9"/>
						<path d="M545.6,333.9l0.4,0.4c0.5,0.6,1,1.2,1.5,1.8c0.1,0.2,0.3,0.3,0.4,0.5l-0.4-0.4c-0.2-0.2-0.3-0.3-0.4-0.5
							C546.6,335.1,546.1,334.5,545.6,333.9"/>
					</g>
				</g>
				<g class="st2">
					<defs>
						<path id="SVGID_67_" class="st2" d="M557.4,328.2l-0.4-0.4c-0.9-0.9-1.7-2-2.3-3.3c-0.9-1.8-1.4-3.9-1.3-6.3
							c0-2.3,0.5-4.4,1.4-6.3c0.9-1.8,2.1-3.3,3.5-4.3c2.9-2.1,5.9-3.1,8.9-3.1c3.2,0,5.8,0.8,7.7,2.4l0.4,0.4
							c-1.9-1.6-4.5-2.4-7.7-2.4c-3,0-6,1.1-8.9,3.1c-1.4,1-2.5,2.4-3.5,4.3c-0.9,1.8-1.4,3.9-1.4,6.3c0,2.3,0.4,4.4,1.3,6.3
							C555.7,326.2,556.5,327.3,557.4,328.2z"/>
					</defs>
					<clipPath id="SVGID_68_">
						<use xlink:href="#SVGID_67_"  style="overflow:visible;"/>
					</clipPath>
					<g class="st36">
						<path d="M574.9,306.9l0.4,0.4c-1.9-1.6-4.5-2.4-7.7-2.4c-3,0-6,1.1-8.9,3.1c-0.7,0.5-1.3,1.1-1.9,1.8l-0.4-0.4
							c0.6-0.7,1.2-1.3,1.9-1.8c2.9-2.1,5.9-3.1,8.9-3.1C570.4,304.5,573,305.3,574.9,306.9"/>
						<path d="M556.3,309.5l0.4,0.4c-0.5,0.6-0.9,1.2-1.3,1.9l-0.4-0.4C555.5,310.7,555.9,310,556.3,309.5"/>
						<path d="M555.1,311.3l0.4,0.4c-0.1,0.2-0.2,0.4-0.3,0.6c-0.2,0.4-0.4,0.8-0.5,1.2l-0.4-0.4c0.2-0.4,0.3-0.8,0.5-1.2
							C554.9,311.7,555,311.5,555.1,311.3"/>
						<path d="M554.2,313.1l0.4,0.4c-0.2,0.6-0.4,1.2-0.5,1.8l-0.4-0.4C553.8,314.3,554,313.7,554.2,313.1"/>
						<path d="M553.7,314.9l0.4,0.4c-0.2,0.7-0.3,1.4-0.3,2.1l-0.4-0.4C553.4,316.3,553.5,315.6,553.7,314.9"/>
						<path d="M553.4,317l0.4,0.4c0,0.4,0,0.8,0,1.2c0,0.6,0,1.1,0.1,1.6l-0.4-0.4c0-0.5-0.1-1.1-0.1-1.6
							C553.3,317.8,553.4,317.4,553.4,317"/>
						<path d="M553.4,319.8l0.4,0.4c0.1,1.3,0.4,2.5,0.8,3.6l-0.4-0.4C553.8,322.3,553.5,321.1,553.4,319.8"/>
						<path d="M554.2,323.5l0.4,0.4c0.1,0.3,0.3,0.7,0.4,1c0.4,0.8,0.8,1.5,1.3,2.1l-0.4-0.4c-0.5-0.6-0.9-1.3-1.3-2.1
							C554.5,324.1,554.4,323.8,554.2,323.5"/>
						<path d="M555.9,326.6l0.4,0.4c0.3,0.4,0.7,0.9,1.1,1.2l-0.4-0.4C556.6,327.4,556.3,327,555.9,326.6"/>
					</g>
				</g>
				<g class="st2">
					<defs>
						<path id="SVGID_69_" class="st2" d="M556.3,328.5c-1-1-1.8-2.2-2.5-3.6c-1-2-1.5-4.2-1.4-6.7c0-2.5,0.5-4.7,1.5-6.7
							c1-2,2.3-3.5,3.8-4.6c3.1-2.2,6.3-3.3,9.5-3.3c3.5,0,6.3,0.9,8.3,2.6l0.4,0.4c-2.1-1.7-4.9-2.6-8.3-2.6
							c-3.2,0-6.4,1.1-9.5,3.3c-1.5,1.1-2.8,2.7-3.8,4.6c-1,2-1.5,4.2-1.5,6.7c0,2.5,0.5,4.7,1.4,6.7c0.7,1.4,1.5,2.6,2.5,3.6
							C556.6,328.8,556.5,328.7,556.3,328.5z"/>
					</defs>
					<clipPath id="SVGID_70_">
						<use xlink:href="#SVGID_69_"  style="overflow:visible;"/>
					</clipPath>
					<g class="st37">
						<path d="M556.3,328.5l0.4,0.4c-0.4-0.4-0.8-0.9-1.2-1.4l-0.4-0.4C555.5,327.7,555.9,328.1,556.3,328.5"/>
						<path d="M555.2,327.2l0.4,0.4c-0.5-0.7-1-1.4-1.4-2.3c-0.2-0.4-0.3-0.7-0.5-1.1l-0.4-0.4c0.1,0.4,0.3,0.7,0.5,1.1
							C554.2,325.7,554.6,326.5,555.2,327.2"/>
						<path d="M553.3,323.8l0.4,0.4c-0.5-1.2-0.8-2.5-0.9-3.9l-0.4-0.4C552.5,321.3,552.8,322.6,553.3,323.8"/>
						<path d="M552.4,319.9l0.4,0.4c-0.1-0.6-0.1-1.1-0.1-1.7c0-0.4,0-0.8,0.1-1.2l-0.4-0.4c0,0.4,0,0.8-0.1,1.2
							C552.3,318.8,552.4,319.4,552.4,319.9"/>
						<path d="M552.4,317l0.4,0.4c0.1-0.8,0.2-1.5,0.3-2.3l-0.4-0.4C552.6,315.4,552.5,316.2,552.4,317"/>
						<path d="M552.7,314.7l0.4,0.4c0.1-0.7,0.3-1.3,0.6-1.9l-0.4-0.4C553.1,313.4,552.9,314,552.7,314.7"/>
						<path d="M553.3,312.8l0.4,0.4c0.2-0.4,0.4-0.9,0.6-1.3c0.1-0.2,0.2-0.4,0.3-0.6l-0.4-0.4c-0.1,0.2-0.2,0.4-0.3,0.6
							C553.7,311.9,553.5,312.3,553.3,312.8"/>
						<path d="M554.2,310.9l0.4,0.4c0.4-0.7,0.9-1.4,1.4-2l-0.4-0.4C555.1,309.5,554.6,310.1,554.2,310.9"/>
						<path d="M555.6,308.8l0.4,0.4c0.6-0.8,1.3-1.4,2.1-2c3.1-2.2,6.3-3.3,9.5-3.3c3.5,0,6.3,0.9,8.3,2.6l-0.4-0.4
							c-2.1-1.7-4.9-2.6-8.3-2.6c-3.2,0-6.4,1.1-9.5,3.3C556.9,307.4,556.2,308.1,555.6,308.8"/>
					</g>
				</g>
				<g class="st2">
					<defs>
						<path id="SVGID_71_" class="st2" d="M584.2,298.1c0.8,0.8,1.2,1.6,1.2,2.6c0,1.2-0.5,2.4-1.4,3.7c-1.8,2.4-3.3,3.7-4.6,3.7
							c-0.5,0-1.5-0.3-3.3-1.5l-0.4-0.4c1.8,1.2,2.8,1.5,3.3,1.5c1.3,0,2.9-1.2,4.6-3.7c1-1.3,1.4-2.5,1.4-3.7
							c0-0.9-0.4-1.8-1.2-2.6C583.9,297.7,584,297.9,584.2,298.1z"/>
					</defs>
					<clipPath id="SVGID_72_">
						<use xlink:href="#SVGID_71_"  style="overflow:visible;"/>
					</clipPath>
					<g class="st38">
						<path d="M575.5,306.1l0.4,0.4c1.8,1.2,2.8,1.5,3.3,1.5c1.1,0,2.4-0.9,3.9-2.7l-0.4-0.4c-1.5,1.8-2.8,2.7-3.9,2.7
							C578.3,307.5,577.3,307.3,575.5,306.1"/>
						<path d="M582.7,304.8l0.4,0.4c0.2-0.3,0.5-0.6,0.7-0.9c0.3-0.3,0.5-0.7,0.7-1l-0.4-0.4c-0.2,0.3-0.4,0.7-0.7,1
							C583.2,304.2,583,304.5,582.7,304.8"/>
						<path d="M584.1,302.9l0.4,0.4c0.2-0.3,0.3-0.6,0.4-0.9l-0.4-0.4C584.4,302.2,584.3,302.5,584.1,302.9"/>
						<path d="M584.6,301.9l0.4,0.4c0.1-0.3,0.2-0.5,0.2-0.8l-0.4-0.4C584.7,301.4,584.6,301.7,584.6,301.9"/>
						<path d="M584.8,301.2l0.4,0.4c0.1-0.2,0.1-0.5,0.1-0.7l-0.4-0.4C584.9,300.7,584.8,300.9,584.8,301.2"/>
						<path d="M584.9,300.5l0.4,0.4c0-0.1,0-0.2,0-0.3c0-0.1,0-0.2,0-0.3l-0.4-0.4c0,0.1,0,0.2,0,0.3
							C584.9,300.3,584.9,300.4,584.9,300.5"/>
						<path d="M584.9,299.9l0.4,0.4c0-0.3-0.1-0.6-0.2-0.9l-0.4-0.4C584.8,299.3,584.9,299.6,584.9,299.9"/>
						<path d="M584.7,299l0.4,0.4c-0.1-0.3-0.3-0.6-0.5-0.9l-0.4-0.4C584.4,298.4,584.6,298.7,584.7,299"/>
						<path d="M584.2,298.1l0.4,0.4C584.5,298.4,584.4,298.2,584.2,298.1l-0.5-0.5C583.9,297.8,584.1,298,584.2,298.1"/>
					</g>
				</g>
				<g class="st2">
					<defs>
						<path id="SVGID_73_" class="st2" d="M584.4,296.9l0.4,0.4c1,1,1.5,2.1,1.5,3.3c0,1.4-0.6,2.8-1.6,4.3c-2,2.7-3.8,4.1-5.4,4.1
							c-1,0-2.3-0.5-3.9-1.7l-0.4-0.4c1.7,1.1,2.9,1.7,3.9,1.7c1.7,0,3.4-1.3,5.4-4.1c1.1-1.5,1.6-2.9,1.6-4.3
							C585.9,299,585.4,297.9,584.4,296.9z"/>
					</defs>
					<clipPath id="SVGID_74_">
						<use xlink:href="#SVGID_73_"  style="overflow:visible;"/>
					</clipPath>
					<g class="st39">
						<path d="M584.4,296.9l0.4,0.4c0.2,0.2,0.4,0.4,0.6,0.7l-0.4-0.4C584.8,297.3,584.6,297.1,584.4,296.9"/>
						<path d="M585,297.6l0.4,0.4c0.3,0.4,0.5,0.7,0.6,1.1l-0.4-0.4C585.5,298.3,585.3,297.9,585,297.6"/>
						<path d="M585.6,298.7l0.4,0.4c0.1,0.4,0.2,0.7,0.3,1.1l-0.4-0.4C585.8,299.4,585.8,299,585.6,298.7"/>
						<path d="M585.9,299.8l0.4,0.4c0,0.1,0,0.3,0,0.4c0,0.1,0,0.2,0,0.4l-0.4-0.4c0-0.1,0-0.2,0-0.4
							C585.9,300,585.9,299.9,585.9,299.8"/>
						<path d="M585.9,300.6l0.4,0.4c0,0.3-0.1,0.5-0.1,0.8l-0.4-0.4C585.8,301.1,585.9,300.8,585.9,300.6"/>
						<path d="M585.8,301.4l0.4,0.4c-0.1,0.3-0.2,0.6-0.3,0.9l-0.4-0.4C585.6,302,585.7,301.7,585.8,301.4"/>
						<path d="M585.5,302.3l0.4,0.4c-0.1,0.4-0.3,0.7-0.5,1.1l-0.4-0.4C585.2,303,585.3,302.6,585.5,302.3"/>
						<path d="M585,303.4l0.4,0.4c-0.2,0.4-0.4,0.7-0.7,1.1c-0.2,0.3-0.5,0.7-0.7,1l-0.4-0.4c0.2-0.3,0.5-0.6,0.7-1
							C584.5,304.1,584.8,303.7,585,303.4"/>
						<path d="M583.5,305.4l0.4,0.4c-1.7,2.1-3.3,3.1-4.7,3.1c-1,0-2.3-0.5-3.9-1.7l-0.4-0.4c1.7,1.1,2.9,1.7,3.9,1.7
							C580.3,308.5,581.8,307.5,583.5,305.4"/>
					</g>
				</g>
				<g class="st2">
					<defs>
						<path id="SVGID_75_" class="st2" d="M557,327.8c0.4,0.4,0.7,0.7,1.1,1c2.8,2,5.8,3.1,8.8,3.1c1.4,0,2.8-0.2,4.1-0.5
							c1.3-0.4,2.2-0.7,2.7-1.1l0.4,0.4c-0.5,0.3-1.4,0.7-2.7,1.1c-1.3,0.4-2.6,0.5-4.1,0.5c-3,0-6-1-8.8-3.1
							c-0.4-0.3-0.8-0.6-1.1-1C557.3,328.1,557.1,327.9,557,327.8z"/>
					</defs>
					<clipPath id="SVGID_76_">
						<use xlink:href="#SVGID_75_"  style="overflow:visible;"/>
					</clipPath>
					<g class="st40">
						<path d="M557,327.8l0.4,0.4c0.4,0.4,0.7,0.7,1.1,1c2.8,2,5.8,3.1,8.8,3.1c1.4,0,2.8-0.2,4.1-0.5c1.3-0.4,2.2-0.7,2.7-1.1
							l-0.4-0.4c-0.5,0.3-1.4,0.7-2.7,1.1c-1.3,0.4-2.6,0.5-4.1,0.5c-3,0-6-1-8.8-3.1C557.8,328.5,557.4,328.2,557,327.8"/>
					</g>
				</g>
				<g>
					<polygon points="573.7,330.2 575,329.3 575.4,329.7 574.1,330.7 					"/>
				</g>
				<g class="st2">
					<defs>
						<path id="SVGID_77_" class="st2" d="M556.8,329l-0.4-0.4c0.4,0.4,0.8,0.7,1.2,1.1c3,2.2,6.1,3.2,9.4,3.2c1.5,0,3-0.2,4.3-0.6
							c1.4-0.4,2.4-0.8,3-1.2l0.4,0.4c-0.6,0.4-1.6,0.8-3,1.2c-1.4,0.4-2.8,0.6-4.3,0.6c-3.2,0-6.4-1.1-9.4-3.2
							C557.6,329.7,557.1,329.4,556.8,329z"/>
					</defs>
					<clipPath id="SVGID_78_">
						<use xlink:href="#SVGID_77_"  style="overflow:visible;"/>
					</clipPath>
					<g class="st41">
						<path d="M574.2,331.1l0.4,0.4c-0.6,0.4-1.6,0.8-3,1.2c-1.4,0.4-2.8,0.6-4.3,0.6c-3.2,0-6.4-1.1-9.4-3.2
							c-0.4-0.3-0.8-0.7-1.2-1.1l-0.4-0.4c0.4,0.4,0.8,0.7,1.2,1.1c3,2.2,6.1,3.2,9.4,3.2c1.5,0,3-0.2,4.3-0.6
							C572.7,331.9,573.6,331.5,574.2,331.1"/>
					</g>
				</g>
				<g>
					<polygon points="575.5,330.1 576,330.6 574.7,331.5 574.2,331.1 					"/>
				</g>
				<g class="st2">
					<defs>
						<path id="SVGID_79_" class="st2" d="M575,329.3c1.8-1,3-1.5,3.8-1.5l0.4,0.4c-0.8,0-2,0.5-3.8,1.5L575,329.3z"/>
					</defs>
					<clipPath id="SVGID_80_">
						<use xlink:href="#SVGID_79_"  style="overflow:visible;"/>
					</clipPath>
					<g class="st42">
						<path d="M575,329.3l0.4,0.4c1.8-1,3-1.5,3.8-1.5l-0.4-0.4C578,327.8,576.8,328.3,575,329.3"/>
					</g>
				</g>
				<g class="st2">
					<defs>
						<path id="SVGID_81_" class="st2" d="M581.2,330.1l0.4,0.4c-0.9-0.9-1.7-1.3-2.4-1.3c-0.4,0-1.3,0.2-3.2,1.4l-0.4-0.4
							c1.9-1.1,2.8-1.4,3.2-1.4C579.5,328.8,580.3,329.2,581.2,330.1z"/>
					</defs>
					<clipPath id="SVGID_82_">
						<use xlink:href="#SVGID_81_"  style="overflow:visible;"/>
					</clipPath>
					<g class="st43">
						<path d="M581.2,330.1l0.4,0.4c-0.9-0.9-1.7-1.3-2.4-1.3c-0.4,0-1.3,0.2-3.2,1.4l-0.4-0.4c1.9-1.1,2.8-1.4,3.2-1.4
							C579.5,328.8,580.3,329.2,581.2,330.1"/>
					</g>
				</g>
				<g class="st2">
					<defs>
						<path id="SVGID_83_" class="st2" d="M582.3,329.8c-1.1-1.1-2.1-1.6-3.1-1.6l-0.4-0.4c1,0,2.1,0.5,3.1,1.6
							C582,329.5,582.2,329.7,582.3,329.8z"/>
					</defs>
					<clipPath id="SVGID_84_">
						<use xlink:href="#SVGID_83_"  style="overflow:visible;"/>
					</clipPath>
					<g class="st44">
						<path d="M578.7,327.8l0.4,0.4c1,0,2.1,0.5,3.1,1.6l-0.4-0.4C580.8,328.3,579.8,327.8,578.7,327.8"/>
					</g>
				</g>
				<g class="st2">
					<defs>
						<path id="SVGID_85_" class="st2" d="M581.6,330.5c0.6,0.6,1.2,1.4,1.9,2.5c1,1.6,1.5,2.8,1.5,3.7c0,0.9-0.3,1.6-0.9,2.2
							l-0.4-0.4c0.6-0.6,0.8-1.3,0.9-2.2c0-0.9-0.5-2.2-1.5-3.7c-0.7-1-1.3-1.9-1.9-2.5C581.3,330.2,581.5,330.4,581.6,330.5z"/>
					</defs>
					<clipPath id="SVGID_86_">
						<use xlink:href="#SVGID_85_"  style="overflow:visible;"/>
					</clipPath>
					<g class="st45">
						<path d="M583.7,338.5l0.4,0.4c0.1-0.1,0.1-0.1,0.2-0.2l-0.4-0.4C583.8,338.3,583.8,338.4,583.7,338.5"/>
						<path d="M583.9,338.2l0.4,0.4c0.1-0.1,0.2-0.3,0.3-0.4l-0.4-0.4C584.1,338,584,338.1,583.9,338.2"/>
						<path d="M584.2,337.8l0.4,0.4c0.1-0.1,0.1-0.2,0.2-0.4l-0.4-0.4C584.3,337.6,584.2,337.7,584.2,337.8"/>
						<path d="M584.3,337.5l0.4,0.4c0-0.1,0.1-0.3,0.1-0.4l-0.4-0.4C584.4,337.2,584.4,337.3,584.3,337.5"/>
						<path d="M584.5,337.1l0.4,0.4c0-0.2,0.1-0.3,0.1-0.5l-0.4-0.4C584.5,336.8,584.5,336.9,584.5,337.1"/>
						<path d="M584.5,336.6l0.4,0.4c0-0.1,0-0.2,0-0.3c0-0.1,0-0.2,0-0.3l-0.4-0.4c0,0.1,0,0.2,0,0.3
							C584.6,336.4,584.5,336.5,584.5,336.6"/>
						<path d="M584.5,336l0.4,0.4c0-0.4-0.1-0.8-0.3-1.3l-0.4-0.4C584.4,335.2,584.5,335.7,584.5,336"/>
						<path d="M584.2,334.7l0.4,0.4c-0.2-0.6-0.6-1.4-1.1-2.2c-0.3-0.4-0.6-0.8-0.8-1.2l-0.4-0.4c0.3,0.4,0.5,0.8,0.8,1.2
							C583.6,333.4,584,334.1,584.2,334.7"/>
						<path d="M582.3,331.4l0.4,0.4c-0.4-0.5-0.7-0.9-1.1-1.3l-0.4-0.4C581.5,330.4,581.9,330.9,582.3,331.4"/>
					</g>
				</g>
				<g class="st2">
					<defs>
						<path id="SVGID_87_" class="st2" d="M547.6,336.2c1.8,1.8,3.8,3.3,6,4.6c2.4,1.4,4.8,2.4,7,3c2.3,0.6,4.5,0.9,6.8,0.9
							c2.2,0,4.5-0.4,6.9-1.1c2.4-0.8,4-1.4,4.7-1.8c0.8-0.5,1.6-1,2.5-1.5c0.8-0.5,1.6-1.1,2.2-1.7l0.4,0.4
							c-0.6,0.6-1.3,1.2-2.2,1.7c-0.9,0.5-1.7,1-2.5,1.5c-0.8,0.5-2.4,1.1-4.7,1.8c-2.4,0.7-4.7,1.1-6.9,1.1c-2.2,0-4.5-0.3-6.8-0.9
							c-2.3-0.6-4.6-1.6-7-3c-2.2-1.3-4.2-2.8-6-4.6C547.9,336.5,547.7,336.3,547.6,336.2z"/>
					</defs>
					<clipPath id="SVGID_88_">
						<use xlink:href="#SVGID_87_"  style="overflow:visible;"/>
					</clipPath>
					<g class="st46">
						<path d="M547.6,336.2l0.4,0.4c1.8,1.8,3.8,3.3,6,4.6c2.4,1.4,4.8,2.4,7,3c2.3,0.6,4.5,0.9,6.8,0.9c2.2,0,4.5-0.4,6.9-1.1
							c2.4-0.8,4-1.4,4.7-1.8c0.8-0.5,1.6-1,2.5-1.5c0.8-0.5,1.6-1.1,2.2-1.7l-0.4-0.4c-0.6,0.6-1.3,1.2-2.2,1.7
							c-0.9,0.5-1.7,1-2.5,1.5c-0.8,0.5-2.4,1.1-4.7,1.8c-2.4,0.7-4.7,1.1-6.9,1.1c-2.2,0-4.5-0.3-6.8-0.9c-2.3-0.6-4.6-1.6-7-3
							C551.4,339.5,549.4,338,547.6,336.2"/>
					</g>
				</g>
				<g class="st2">
					<defs>
						<path id="SVGID_89_" class="st2" d="M581.9,329.4l0.4,0.4c0.7,0.7,1.3,1.5,2,2.6c1.1,1.8,1.6,3.2,1.6,4.3
							c0,1.1-0.4,2.1-1.1,2.9c-0.7,0.7-1.5,1.3-2.4,1.9c-0.9,0.5-1.7,1-2.5,1.5c-0.8,0.5-2.5,1.1-5,1.9c-2.5,0.8-4.9,1.2-7.2,1.2
							c-2.3,0-4.7-0.3-7-0.9c-2.4-0.6-4.8-1.6-7.3-3.1c-2.3-1.3-4.4-2.9-6.3-4.8l-0.4-0.4c1.9,1.9,4,3.5,6.3,4.8
							c2.5,1.4,4.9,2.5,7.3,3.1c2.3,0.6,4.7,0.9,7,0.9c2.3,0,4.7-0.4,7.2-1.2c2.5-0.8,4.1-1.4,5-1.9c0.8-0.5,1.6-1,2.5-1.5
							c0.9-0.5,1.7-1.2,2.4-1.9c0.7-0.8,1.1-1.7,1.1-2.9c0-1.1-0.5-2.5-1.6-4.3C583.2,330.9,582.5,330,581.9,329.4z"/>
					</defs>
					<clipPath id="SVGID_90_">
						<use xlink:href="#SVGID_89_"  style="overflow:visible;"/>
					</clipPath>
					<g class="st47">
						<path d="M581.9,329.4l0.4,0.4c0.4,0.4,0.8,0.9,1.2,1.4l-0.4-0.4C582.7,330.2,582.3,329.8,581.9,329.4"/>
						<path d="M583.1,330.8l0.4,0.4c0.3,0.4,0.6,0.8,0.9,1.2c0.5,0.9,0.9,1.7,1.2,2.4l-0.4-0.4c-0.3-0.7-0.7-1.5-1.2-2.4
							C583.6,331.6,583.3,331.1,583.1,330.8"/>
						<path d="M585.1,334.4l0.4,0.4c0.2,0.6,0.3,1.1,0.4,1.6l-0.4-0.4C585.5,335.5,585.4,334.9,585.1,334.4"/>
						<path d="M585.5,335.9l0.4,0.4c0,0.1,0,0.3,0,0.4c0,0.1,0,0.2,0,0.3l-0.4-0.4c0-0.1,0-0.2,0-0.3
							C585.5,336.2,585.5,336.1,585.5,335.9"/>
						<path d="M585.5,336.6l0.4,0.4c0,0.2,0,0.4-0.1,0.6l-0.4-0.4C585.5,337.1,585.5,336.9,585.5,336.6"/>
						<path d="M585.4,337.3l0.4,0.4c0,0.2-0.1,0.4-0.2,0.5l-0.4-0.4C585.3,337.6,585.4,337.5,585.4,337.3"/>
						<path d="M585.3,337.8l0.4,0.4c-0.1,0.2-0.1,0.3-0.2,0.5l-0.4-0.4C585.1,338.2,585.2,338,585.3,337.8"/>
						<path d="M585,338.3l0.4,0.4c-0.1,0.2-0.2,0.4-0.4,0.6l-0.4-0.4C584.8,338.7,584.9,338.5,585,338.3"/>
						<path d="M584.7,338.9l0.4,0.4c-0.1,0.1-0.2,0.2-0.2,0.3c-0.7,0.7-1.5,1.3-2.4,1.9c-0.9,0.5-1.7,1-2.5,1.5
							c-0.8,0.5-2.5,1.1-5,1.9c-2.5,0.8-4.9,1.2-7.2,1.2c-2.3,0-4.7-0.3-7-0.9c-2.4-0.6-4.8-1.6-7.3-3.1c-2.3-1.3-4.4-2.9-6.3-4.8
							l-0.4-0.4c1.9,1.9,4,3.5,6.3,4.8c2.5,1.4,4.9,2.5,7.3,3.1c2.3,0.6,4.7,0.9,7,0.9c2.3,0,4.7-0.4,7.2-1.2c2.5-0.8,4.1-1.4,5-1.9
							c0.8-0.5,1.6-1,2.5-1.5c0.9-0.5,1.7-1.2,2.4-1.9C584.5,339.1,584.6,339,584.7,338.9"/>
					</g>
				</g>
			</g>
			<g class="st2">
				<g class="st2">
					<defs>
						<path id="SVGID_91_" class="st2" d="M591.3,294l0.4,0.4c-0.4,0.7-0.6,1.2-0.6,1.7c-0.1,0.5-0.1,1.3-0.1,2.4l-0.4-0.4
							c0-1.1,0.1-1.9,0.1-2.4C590.8,295.2,591,294.7,591.3,294z"/>
					</defs>
					<clipPath id="SVGID_92_">
						<use xlink:href="#SVGID_91_"  style="overflow:visible;"/>
					</clipPath>
					<g class="st48">
						<path d="M591.3,294l0.4,0.4c-0.2,0.3-0.3,0.6-0.4,0.9l-0.4-0.4C591,294.6,591.2,294.3,591.3,294"/>
						<path d="M590.9,294.9l0.4,0.4c-0.1,0.2-0.1,0.4-0.2,0.6l-0.4-0.4C590.8,295.3,590.8,295.1,590.9,294.9"/>
						<path d="M590.7,295.5l0.4,0.4c0,0.1,0,0.2,0,0.3c0,0.2,0,0.4-0.1,0.6l-0.4-0.4c0-0.2,0-0.4,0.1-0.6
							C590.7,295.6,590.7,295.6,590.7,295.5"/>
						<path d="M590.6,296.3l0.4,0.4c0,0.5-0.1,1.1-0.1,1.8l-0.4-0.4C590.6,297.4,590.6,296.8,590.6,296.3"/>
					</g>
				</g>
				<g class="st2">
					<defs>
						<path id="SVGID_93_" class="st2" d="M602.5,293.4c-1.1-1.1-2.9-1.6-5.6-1.6c-3.3,0-5.3,0.7-6.1,2.2c-0.4,0.8-0.7,1.5-0.8,2.1
							c-0.1,0.6-0.1,1.4-0.1,2.5l-0.4-0.4c0-1.1,0.1-2,0.1-2.5c0.1-0.6,0.3-1.3,0.8-2.1c0.8-1.5,2.8-2.2,6.1-2.2
							c2.6,0,4.5,0.5,5.6,1.6C602.2,293.1,602.4,293.3,602.5,293.4z"/>
					</defs>
					<clipPath id="SVGID_94_">
						<use xlink:href="#SVGID_93_"  style="overflow:visible;"/>
					</clipPath>
					<g class="st49">
						<path d="M589.6,298.1l0.4,0.4c0-0.8,0-1.5,0.1-2l-0.4-0.4C589.6,296.7,589.6,297.3,589.6,298.1"/>
						<path d="M589.6,296.2l0.4,0.4c0-0.2,0-0.4,0.1-0.6c0-0.1,0-0.2,0.1-0.3l-0.4-0.4c0,0.1,0,0.2-0.1,0.3
							C589.7,295.8,589.7,296,589.6,296.2"/>
						<path d="M589.8,295.3l0.4,0.4c0.1-0.2,0.1-0.5,0.2-0.7l-0.4-0.4C589.9,294.8,589.8,295,589.8,295.3"/>
						<path d="M590,294.5l0.4,0.4c0.1-0.3,0.3-0.7,0.5-1c0,0,0,0,0-0.1l-0.4-0.4c0,0,0,0,0,0.1C590.3,293.9,590.1,294.2,590,294.5"
							/>
						<path d="M590.5,293.5l0.4,0.4c0.1-0.2,0.2-0.3,0.3-0.4l-0.4-0.4C590.7,293.2,590.6,293.3,590.5,293.5"/>
						<path d="M590.8,293l0.4,0.4c0.9-1.2,2.8-1.7,5.7-1.7c2.6,0,4.5,0.5,5.6,1.6l-0.4-0.4c-1.1-1.1-2.9-1.6-5.6-1.6
							C593.6,291.3,591.7,291.9,590.8,293"/>
					</g>
				</g>
				<g class="st2">
					<defs>
						<path id="SVGID_95_" class="st2" d="M601.4,293.7l0.4,0.4c-0.9-0.9-2.5-1.3-4.9-1.3c-2.8,0-4.6,0.6-5.2,1.7l-0.4-0.4
							c0.6-1.1,2.3-1.7,5.2-1.7C598.9,292.3,600.5,292.8,601.4,293.7z"/>
					</defs>
					<clipPath id="SVGID_96_">
						<use xlink:href="#SVGID_95_"  style="overflow:visible;"/>
					</clipPath>
					<g class="st50">
						<path d="M601.4,293.7l0.4,0.4c-0.9-0.9-2.5-1.3-4.9-1.3c-2.6,0-4.2,0.4-4.9,1.3l-0.4-0.4c0.7-0.9,2.4-1.3,4.9-1.3
							C598.9,292.3,600.5,292.8,601.4,293.7"/>
						<path d="M591.5,293.7l0.4,0.4c-0.1,0.1-0.1,0.2-0.2,0.3l-0.4-0.4C591.4,293.9,591.5,293.8,591.5,293.7"/>
						<path d="M591.4,294l0.4,0.4c0,0,0,0,0,0L591.4,294C591.3,294,591.4,294,591.4,294"/>
					</g>
				</g>
				<g class="st2">
					<defs>
						<path id="SVGID_97_" class="st2" d="M601.8,294.1c0.3,0.3,0.5,0.6,0.6,1l-0.4-0.4c-0.1-0.4-0.3-0.7-0.6-1
							C601.5,293.8,601.7,294,601.8,294.1z"/>
					</defs>
					<clipPath id="SVGID_98_">
						<use xlink:href="#SVGID_97_"  style="overflow:visible;"/>
					</clipPath>
					<g class="st51">
						<path d="M602,294.6l0.4,0.4c0,0,0-0.1,0-0.1l-0.4-0.4C601.9,294.6,601.9,294.6,602,294.6"/>
						<path d="M601.9,294.5l0.4,0.4c-0.1-0.2-0.2-0.4-0.3-0.6l-0.4-0.4C601.7,294.1,601.8,294.3,601.9,294.5"/>
						<path d="M601.6,294l0.4,0.4c-0.1-0.1-0.2-0.2-0.3-0.3l-0.4-0.4C601.4,293.8,601.5,293.9,601.6,294"/>
					</g>
				</g>
				<g class="st2">
					<defs>
						<path id="SVGID_99_" class="st2" d="M602.1,293l0.4,0.4c0.4,0.4,0.7,0.8,0.9,1.4l-0.4-0.4C602.7,293.8,602.4,293.3,602.1,293z
							"/>
					</defs>
					<clipPath id="SVGID_100_">
						<use xlink:href="#SVGID_99_"  style="overflow:visible;"/>
					</clipPath>
					<g class="st52">
						<path d="M602.1,293l0.4,0.4c0.1,0.1,0.2,0.3,0.4,0.4l-0.4-0.4C602.3,293.2,602.2,293.1,602.1,293"/>
						<path d="M602.4,293.4l0.4,0.4c0.2,0.2,0.3,0.5,0.4,0.8l-0.4-0.4C602.7,293.9,602.6,293.6,602.4,293.4"/>
						<path d="M602.9,294.2l0.4,0.4c0,0,0,0.1,0.1,0.1l-0.4-0.4C602.9,294.3,602.9,294.2,602.9,294.2"/>
					</g>
				</g>
				<g class="st2">
					<defs>
						<path id="SVGID_101_" class="st2" d="M602.3,298.2c0-1.6-0.1-2.8-0.3-3.6l0.4,0.4c0.2,0.8,0.3,2,0.3,3.6L602.3,298.2z"/>
					</defs>
					<clipPath id="SVGID_102_">
						<use xlink:href="#SVGID_101_"  style="overflow:visible;"/>
					</clipPath>
					<g class="st53">
						<path d="M602.3,298.2l0.4,0.4c0-0.8,0-1.6-0.1-2.2l-0.4-0.4C602.3,296.7,602.3,297.4,602.3,298.2"/>
						<path d="M602.2,296l0.4,0.4c-0.1-0.6-0.1-1-0.2-1.4l-0.4-0.4C602.1,295,602.1,295.5,602.2,296"/>
					</g>
				</g>
				<g class="st2">
					<defs>
						<path id="SVGID_103_" class="st2" d="M602.9,294.3l0.4,0.4c0.3,0.9,0.4,2.2,0.4,3.9l-0.4-0.4
							C603.3,296.5,603.2,295.2,602.9,294.3z"/>
					</defs>
					<clipPath id="SVGID_104_">
						<use xlink:href="#SVGID_103_"  style="overflow:visible;"/>
					</clipPath>
					<g class="st54">
						<path d="M602.9,294.3l0.4,0.4c0.1,0.4,0.2,1,0.3,1.6l-0.4-0.4C603.1,295.3,603,294.8,602.9,294.3"/>
						<path d="M603.2,295.9l0.4,0.4c0.1,0.6,0.1,1.4,0.1,2.3l-0.4-0.4C603.3,297.3,603.2,296.6,603.2,295.9"/>
					</g>
				</g>
				<g>
					<polygon points="602.2,313.3 602.3,298.2 602.7,298.7 602.6,313.8 					"/>
				</g>
				<g>
					<polygon points="603.3,298.2 603.7,298.7 603.6,312.8 603.2,312.3 					"/>
				</g>
				<g class="st2">
					<defs>
						<path id="SVGID_105_" class="st2" d="M623,294l0.4,0.4c-0.4,0.7-0.6,1.2-0.6,1.7l-0.4-0.4C622.5,295.2,622.7,294.7,623,294z"
							/>
					</defs>
					<clipPath id="SVGID_106_">
						<use xlink:href="#SVGID_105_"  style="overflow:visible;"/>
					</clipPath>
					<g class="st55">
						<path d="M623,294l0.4,0.4c-0.2,0.3-0.3,0.6-0.4,0.9l-0.4-0.4C622.7,294.6,622.9,294.3,623,294"/>
						<path d="M622.6,294.9l0.4,0.4c-0.1,0.2-0.1,0.4-0.2,0.6l-0.4-0.4C622.5,295.3,622.5,295.1,622.6,294.9"/>
						<path d="M622.4,295.5l0.4,0.4c0,0.1,0,0.2,0,0.2l-0.4-0.4C622.4,295.7,622.4,295.6,622.4,295.5"/>
					</g>
				</g>
				<g class="st2">
					<defs>
						<path id="SVGID_107_" class="st2" d="M622.4,295.7l0.4,0.4c-0.1,0.5-0.1,1.3-0.1,2.4l-0.4-0.4
							C622.3,297.1,622.3,296.3,622.4,295.7z"/>
					</defs>
					<clipPath id="SVGID_108_">
						<use xlink:href="#SVGID_107_"  style="overflow:visible;"/>
					</clipPath>
					<g class="st56">
						<path d="M622.4,295.7l0.4,0.4c0,0.1,0,0.3,0,0.5l-0.4-0.4C622.4,296,622.4,295.9,622.4,295.7"/>
						<path d="M622.3,296.2l0.4,0.4c0,0.5-0.1,1.1-0.1,1.9l-0.4-0.4C622.3,297.4,622.3,296.7,622.3,296.2"/>
					</g>
				</g>
				<g class="st2">
					<defs>
						<path id="SVGID_109_" class="st2" d="M634.2,293.3c-0.1-0.1-0.2-0.2-0.3-0.2c-0.5-0.4-1.1-0.7-2-0.9c-0.8-0.3-2-0.4-3.4-0.4
							c-1.4,0-2.6,0.2-3.6,0.5c-1,0.3-1.8,0.9-2.2,1.7c-0.4,0.8-0.7,1.5-0.8,2.1c-0.1,0.6-0.1,1.4-0.1,2.5l-0.4-0.4
							c0-1.1,0.1-2,0.1-2.5c0.1-0.6,0.3-1.3,0.8-2.1c0.5-0.8,1.2-1.4,2.2-1.7c1-0.3,2.2-0.5,3.6-0.5c1.4,0,2.6,0.1,3.4,0.4
							c0.9,0.3,1.5,0.6,2,0.9c0.1,0.1,0.2,0.2,0.3,0.2C633.9,293,634,293.2,634.2,293.3z"/>
					</defs>
					<clipPath id="SVGID_110_">
						<use xlink:href="#SVGID_109_"  style="overflow:visible;"/>
					</clipPath>
					<g class="st57">
						<path d="M621.3,298.1l0.4,0.4c0-0.8,0-1.5,0.1-2l-0.4-0.4C621.3,296.7,621.3,297.4,621.3,298.1"/>
						<path d="M621.3,296.2l0.4,0.4c0-0.2,0-0.4,0.1-0.6c0-0.1,0-0.2,0.1-0.3l-0.4-0.4c0,0.1,0,0.2-0.1,0.3
							C621.4,295.8,621.4,296,621.3,296.2"/>
						<path d="M621.5,295.3l0.4,0.4c0.1-0.2,0.1-0.5,0.2-0.7l-0.4-0.4C621.6,294.8,621.5,295,621.5,295.3"/>
						<path d="M621.7,294.5l0.4,0.4c0.1-0.3,0.3-0.7,0.5-1c0,0,0,0,0,0l-0.4-0.4c0,0,0,0,0,0C622,293.9,621.8,294.2,621.7,294.5"/>
						<path d="M622.2,293.5l0.4,0.4c0.1-0.2,0.2-0.3,0.3-0.5l-0.4-0.4C622.4,293.2,622.3,293.3,622.2,293.5"/>
						<path d="M622.5,293l0.4,0.4c0.5-0.6,1.1-1,1.9-1.2c1-0.3,2.2-0.5,3.6-0.5c1.4,0,2.6,0.1,3.4,0.4c0.9,0.3,1.5,0.6,2,0.9
							c0.1,0.1,0.2,0.2,0.3,0.2l-0.4-0.4c-0.1-0.1-0.2-0.2-0.3-0.2c-0.5-0.4-1.1-0.7-2-0.9c-0.8-0.3-2-0.4-3.4-0.4
							c-1.4,0-2.6,0.2-3.6,0.5C623.6,292,623,292.5,622.5,293"/>
					</g>
				</g>
				<g class="st2">
					<defs>
						<path id="SVGID_111_" class="st2" d="M633,293.6l0.4,0.4c-0.1-0.1-0.1-0.1-0.2-0.2c-0.4-0.3-0.9-0.6-1.7-0.8
							c-0.8-0.2-1.8-0.3-3.2-0.3c-1.3,0-2.4,0.1-3.3,0.4c-0.8,0.3-1.3,0.7-1.7,1.3L623,294c0.3-0.6,0.9-1,1.7-1.3
							c0.9-0.3,2-0.4,3.3-0.4c1.3,0,2.4,0.1,3.2,0.3c0.7,0.2,1.3,0.5,1.7,0.8C632.9,293.5,633,293.6,633,293.6z"/>
					</defs>
					<clipPath id="SVGID_112_">
						<use xlink:href="#SVGID_111_"  style="overflow:visible;"/>
					</clipPath>
					<g class="st58">
						<path d="M633,293.6l0.4,0.4c-0.1-0.1-0.1-0.1-0.2-0.2c-0.4-0.3-0.9-0.6-1.7-0.8c-0.8-0.2-1.8-0.3-3.2-0.3
							c-1.3,0-2.4,0.1-3.3,0.4c-0.6,0.2-1.1,0.5-1.4,0.9l-0.4-0.4c0.3-0.4,0.8-0.7,1.4-0.9c0.9-0.3,2-0.4,3.3-0.4
							c1.3,0,2.4,0.1,3.2,0.3c0.7,0.2,1.3,0.5,1.7,0.8C632.9,293.5,633,293.6,633,293.6"/>
						<path d="M623.3,293.6l0.4,0.4c-0.1,0.1-0.2,0.2-0.2,0.3l-0.4-0.4C623.1,293.8,623.2,293.7,623.3,293.6"/>
						<path d="M623.1,294l0.4,0.4c0,0,0,0,0,0L623.1,294C623,294,623.1,294,623.1,294"/>
					</g>
				</g>
				<g>
					<polygon points="589.3,338 589.6,298.1 590,298.6 589.7,338.4 					"/>
				</g>
				<g class="st2">
					<defs>
						<path id="SVGID_113_" class="st2" d="M633.5,294.1c0.3,0.3,0.5,0.6,0.6,1l-0.4-0.4c-0.1-0.4-0.4-0.7-0.6-1
							C633.2,293.8,633.3,293.9,633.5,294.1z"/>
					</defs>
					<clipPath id="SVGID_114_">
						<use xlink:href="#SVGID_113_"  style="overflow:visible;"/>
					</clipPath>
					<g class="st59">
						<path d="M633.7,294.6l0.4,0.4c0,0,0,0,0,0L633.7,294.6C633.6,294.6,633.7,294.6,633.7,294.6"/>
						<path d="M633.6,294.6l0.4,0.4c-0.1-0.3-0.2-0.5-0.4-0.7l-0.4-0.4C633.4,294.1,633.5,294.3,633.6,294.6"/>
						<path d="M633.3,293.9l0.4,0.4c-0.1-0.1-0.1-0.2-0.2-0.3l-0.4-0.4C633.1,293.7,633.2,293.8,633.3,293.9"/>
					</g>
				</g>
				<g>
					<polygon points="590.6,298.1 591,298.6 590.7,338.4 590.3,338 					"/>
				</g>
				<g class="st2">
					<defs>
						<path id="SVGID_115_" class="st2" d="M633.7,292.9l0.4,0.4c0.4,0.4,0.7,0.8,0.9,1.4l-0.4-0.4
							C634.4,293.7,634.1,293.3,633.7,292.9z"/>
					</defs>
					<clipPath id="SVGID_116_">
						<use xlink:href="#SVGID_115_"  style="overflow:visible;"/>
					</clipPath>
					<g class="st60">
						<path d="M633.7,292.9l0.4,0.4c0.1,0.1,0.2,0.2,0.3,0.4l-0.4-0.4C634,293.1,633.8,293,633.7,292.9"/>
						<path d="M634.1,293.3l0.4,0.4c0.2,0.3,0.4,0.6,0.5,1l-0.4-0.4C634.4,293.9,634.3,293.6,634.1,293.3"/>
						<path d="M634.6,294.3l0.4,0.4c0,0,0,0,0,0L634.6,294.3C634.6,294.3,634.6,294.3,634.6,294.3"/>
					</g>
				</g>
				<g class="st2">
					<defs>
						<path id="SVGID_117_" class="st2" d="M589.7,341.8c-0.3-0.9-0.4-2.1-0.4-3.9l0.4,0.4c0,1.7,0.1,3,0.4,3.9L589.7,341.8z"/>
					</defs>
					<clipPath id="SVGID_118_">
						<use xlink:href="#SVGID_117_"  style="overflow:visible;"/>
					</clipPath>
					<g class="st61">
						<path d="M589.7,341.8l0.4,0.4c-0.2-0.5-0.3-1.1-0.4-1.9l-0.4-0.4C589.4,340.7,589.5,341.4,589.7,341.8"/>
						<path d="M589.3,340l0.4,0.4c-0.1-0.6-0.1-1.3-0.1-2l-0.4-0.4C589.3,338.7,589.3,339.4,589.3,340"/>
					</g>
				</g>
				<g class="st2">
					<defs>
						<path id="SVGID_119_" class="st2" d="M634,298.2c0-1.6-0.1-2.8-0.3-3.6l0.4,0.4c0.2,0.8,0.3,2,0.3,3.6L634,298.2z"/>
					</defs>
					<clipPath id="SVGID_120_">
						<use xlink:href="#SVGID_119_"  style="overflow:visible;"/>
					</clipPath>
					<g class="st62">
						<path d="M634,298.2l0.4,0.4c0-0.8,0-1.6-0.1-2.2l-0.4-0.4C634,296.7,634,297.4,634,298.2"/>
						<path d="M633.9,296l0.4,0.4c-0.1-0.6-0.1-1-0.2-1.4l-0.4-0.4C633.8,295,633.8,295.5,633.9,296"/>
					</g>
				</g>
				<g class="st2">
					<defs>
						<path id="SVGID_121_" class="st2" d="M590.3,338l0.4,0.4c0,1.6,0.1,2.8,0.4,3.6l-0.4-0.4C590.4,340.8,590.3,339.6,590.3,338z"
							/>
					</defs>
					<clipPath id="SVGID_122_">
						<use xlink:href="#SVGID_121_"  style="overflow:visible;"/>
					</clipPath>
					<g class="st63">
						<path d="M590.3,338l0.4,0.4c0,0.7,0,1.4,0.1,1.9l-0.4-0.4C590.3,339.3,590.3,338.7,590.3,338"/>
						<path d="M590.3,339.9l0.4,0.4c0.1,0.7,0.2,1.2,0.3,1.6l-0.4-0.4C590.5,341.1,590.4,340.6,590.3,339.9"/>
					</g>
				</g>
				<g class="st2">
					<defs>
						<path id="SVGID_123_" class="st2" d="M634.6,294.3l0.4,0.4c0.3,0.9,0.4,2.2,0.4,3.9l-0.4-0.4
							C635,296.5,634.9,295.2,634.6,294.3z"/>
					</defs>
					<clipPath id="SVGID_124_">
						<use xlink:href="#SVGID_123_"  style="overflow:visible;"/>
					</clipPath>
					<g class="st64">
						<path d="M634.6,294.3l0.4,0.4c0.1,0.5,0.2,1,0.3,1.7l-0.4-0.4C634.8,295.3,634.7,294.8,634.6,294.3"/>
						<path d="M634.9,296l0.4,0.4c0.1,0.6,0.1,1.4,0.1,2.2l-0.4-0.4C635,297.4,635,296.6,634.9,296"/>
					</g>
				</g>
				<g>
					<polygon points="621.2,312.3 621.3,298.1 621.7,298.6 621.6,312.8 					"/>
				</g>
				<g>
					<polygon points="603.2,312.3 621.2,312.3 621.6,312.8 603.6,312.8 					"/>
				</g>
				<g class="st2">
					<defs>
						<path id="SVGID_125_" class="st2" d="M591.7,343l-0.4-0.4c-0.3-0.3-0.5-0.6-0.6-1l0.4,0.4C591.2,342.3,591.4,342.7,591.7,343z
							"/>
					</defs>
					<clipPath id="SVGID_126_">
						<use xlink:href="#SVGID_125_"  style="overflow:visible;"/>
					</clipPath>
					<g class="st65">
						<path d="M590.6,341.5l0.4,0.4c0,0.1,0,0.1,0.1,0.2l-0.4-0.4C590.7,341.6,590.7,341.6,590.6,341.5"/>
						<path d="M590.7,341.7l0.4,0.4c0.1,0.2,0.2,0.4,0.3,0.6l-0.4-0.4C590.9,342.1,590.8,341.9,590.7,341.7"/>
						<path d="M591,342.2l0.4,0.4c0.1,0.1,0.2,0.2,0.3,0.3l-0.4-0.4C591.2,342.4,591.1,342.3,591,342.2"/>
					</g>
				</g>
				<g class="st2">
					<defs>
						<path id="SVGID_127_" class="st2" d="M590.6,343.3c-0.4-0.4-0.7-0.9-0.9-1.4l0.4,0.4c0.2,0.5,0.5,1,0.9,1.4
							C590.9,343.6,590.7,343.4,590.6,343.3z"/>
					</defs>
					<clipPath id="SVGID_128_">
						<use xlink:href="#SVGID_127_"  style="overflow:visible;"/>
					</clipPath>
					<g class="st66">
						<path d="M590.6,343.3l0.4,0.4C590.9,343.6,590.8,343.4,590.6,343.3l-0.3-0.4C590.3,343,590.4,343.1,590.6,343.3"/>
						<path d="M590.2,342.9l0.4,0.4c-0.2-0.2-0.3-0.5-0.4-0.8l-0.4-0.4C589.9,342.3,590,342.6,590.2,342.9"/>
						<path d="M589.8,342.1l0.4,0.4c0-0.1-0.1-0.1-0.1-0.2l-0.4-0.4C589.7,341.9,589.8,342,589.8,342.1"/>
					</g>
				</g>
				<g>
					<polygon points="622.2,313.3 622.6,313.8 602.6,313.8 602.2,313.3 					"/>
				</g>
				<g>
					<polygon points="622.3,298.1 622.7,298.6 622.6,313.8 622.2,313.3 					"/>
				</g>
				<g>
					<polygon points="602,338 602.1,322.9 602.5,323.3 602.4,338.5 					"/>
				</g>
				<g>
					<polygon points="603.1,323.9 603.5,324.3 603.4,338.5 603,338 					"/>
				</g>
				<g class="st2">
					<defs>
						<path id="SVGID_129_" class="st2" d="M601.2,342.2c0.4-0.7,0.6-1.2,0.6-1.7c0.1-0.5,0.1-1.3,0.1-2.4l0.4,0.4
							c0,1.1-0.1,1.9-0.1,2.4c-0.1,0.5-0.3,1.1-0.6,1.7L601.2,342.2z"/>
					</defs>
					<clipPath id="SVGID_130_">
						<use xlink:href="#SVGID_129_"  style="overflow:visible;"/>
					</clipPath>
					<g class="st67">
						<path d="M601.2,342.2l0.4,0.4c0.2-0.3,0.3-0.6,0.4-0.9l-0.4-0.4C601.5,341.6,601.4,341.9,601.2,342.2"/>
						<path d="M601.6,341.3l0.4,0.4c0.1-0.2,0.1-0.4,0.2-0.6l-0.4-0.4C601.8,340.9,601.7,341.1,601.6,341.3"/>
						<path d="M601.8,340.7l0.4,0.4c0-0.1,0-0.2,0-0.3c0-0.2,0-0.4,0.1-0.6l-0.4-0.4c0,0.2,0,0.4-0.1,0.6
							C601.8,340.5,601.8,340.6,601.8,340.7"/>
						<path d="M601.9,339.9l0.4,0.4c0-0.5,0.1-1.1,0.1-1.8L602,338C602,338.8,601.9,339.4,601.9,339.9"/>
					</g>
				</g>
				<g class="st2">
					<defs>
						<path id="SVGID_131_" class="st2" d="M603,338l0.4,0.4c0,1.1-0.1,2-0.1,2.5l-0.4-0.4C602.9,340,603,339.2,603,338z"/>
					</defs>
					<clipPath id="SVGID_132_">
						<use xlink:href="#SVGID_131_"  style="overflow:visible;"/>
					</clipPath>
					<g class="st68">
						<path d="M603,338l0.4,0.4c0,0.8,0,1.4-0.1,1.9l-0.4-0.4C602.9,339.4,603,338.8,603,338"/>
						<path d="M602.9,339.9l0.4,0.4c0,0.2,0,0.5-0.1,0.7l-0.4-0.4C602.9,340.4,602.9,340.2,602.9,339.9"/>
					</g>
				</g>
				<g class="st2">
					<defs>
						<path id="SVGID_133_" class="st2" d="M591.3,342.5c0.9,0.9,2.5,1.3,4.8,1.3c2.9,0,4.6-0.6,5.2-1.7l0.4,0.4
							c-0.6,1.1-2.3,1.7-5.2,1.7c-2.3,0-3.9-0.4-4.8-1.3C591.6,342.8,591.4,342.7,591.3,342.5z"/>
					</defs>
					<clipPath id="SVGID_134_">
						<use xlink:href="#SVGID_133_"  style="overflow:visible;"/>
					</clipPath>
					<g class="st69">
						<path d="M591.3,342.5l0.4,0.4c0.9,0.9,2.5,1.3,4.8,1.3c2.6,0,4.2-0.4,5-1.3l-0.4-0.4c-0.7,0.9-2.4,1.3-5,1.3
							C593.7,343.8,592.1,343.4,591.3,342.5"/>
						<path d="M601,342.5l0.4,0.4c0.1-0.1,0.1-0.2,0.2-0.3l-0.4-0.4C601.1,342.3,601.1,342.4,601,342.5"/>
						<path d="M601.2,342.2l0.4,0.4c0,0,0,0,0,0L601.2,342.2C601.2,342.2,601.2,342.2,601.2,342.2"/>
					</g>
				</g>
				<g>
					<polygon points="621.1,323.9 621.5,324.3 603.5,324.3 603.1,323.9 					"/>
				</g>
				<g>
					<polygon points="602.1,322.9 622.1,322.9 622.5,323.3 602.5,323.3 					"/>
				</g>
				<g class="st2">
					<defs>
						<path id="SVGID_135_" class="st2" d="M591,343.7l-0.4-0.4c1,1.1,2.9,1.6,5.5,1.6c3.3,0,5.3-0.7,6.1-2.2
							c0.4-0.8,0.7-1.5,0.7-2.1l0.4,0.4c-0.1,0.6-0.3,1.3-0.7,2.1c-0.8,1.5-2.8,2.2-6.1,2.2C593.9,345.3,592,344.7,591,343.7z"/>
					</defs>
					<clipPath id="SVGID_136_">
						<use xlink:href="#SVGID_135_"  style="overflow:visible;"/>
					</clipPath>
					<g class="st70">
						<path d="M602.8,340.6l0.4,0.4c0,0.1,0,0.3-0.1,0.4l-0.4-0.4C602.8,340.8,602.8,340.7,602.8,340.6"/>
						<path d="M602.8,340.9l0.4,0.4c-0.1,0.2-0.1,0.5-0.2,0.7l-0.4-0.4C602.6,341.4,602.7,341.2,602.8,340.9"/>
						<path d="M602.5,341.6l0.4,0.4c-0.1,0.3-0.3,0.6-0.5,1c0,0,0,0,0,0.1l-0.4-0.4c0,0,0,0,0-0.1
							C602.3,342.3,602.4,342,602.5,341.6"/>
						<path d="M602.1,342.7l0.4,0.4c-0.1,0.2-0.2,0.3-0.3,0.4l-0.4-0.4C601.9,343,602,342.8,602.1,342.7"/>
						<path d="M601.8,343.1l0.4,0.4c-0.9,1.2-2.8,1.7-5.7,1.7c-2.6,0-4.4-0.5-5.5-1.6l-0.4-0.4c1,1.1,2.9,1.6,5.5,1.6
							C598.9,344.8,600.8,344.3,601.8,343.1"/>
					</g>
				</g>
				<g>
					<polygon points="621,338 621.1,323.9 621.5,324.3 621.4,338.4 					"/>
				</g>
				<g>
					<polygon points="622.1,322.9 622.5,323.3 622.4,338.4 622,338 					"/>
				</g>
				<g class="st2">
					<defs>
						<path id="SVGID_137_" class="st2" d="M621.4,341.8c-0.3-0.9-0.4-2.1-0.4-3.9l0.4,0.4c0,1.7,0.1,3,0.4,3.9L621.4,341.8z"/>
					</defs>
					<clipPath id="SVGID_138_">
						<use xlink:href="#SVGID_137_"  style="overflow:visible;"/>
					</clipPath>
					<g class="st71">
						<path d="M621.4,341.8l0.4,0.4c-0.2-0.5-0.3-1.1-0.4-1.9L621,340C621.1,340.7,621.2,341.4,621.4,341.8"/>
						<path d="M621,340l0.4,0.4c-0.1-0.6-0.1-1.3-0.1-2L621,338C621,338.7,621,339.4,621,340"/>
					</g>
				</g>
				<g class="st2">
					<defs>
						<path id="SVGID_139_" class="st2" d="M622,338l0.4,0.4c0,1.6,0.1,2.8,0.4,3.6l-0.4-0.4C622.1,340.8,622,339.6,622,338z"/>
					</defs>
					<clipPath id="SVGID_140_">
						<use xlink:href="#SVGID_139_"  style="overflow:visible;"/>
					</clipPath>
					<g class="st72">
						<path d="M622,338l0.4,0.4c0,0.7,0,1.4,0.1,1.9l-0.4-0.4C622,339.3,622,338.7,622,338"/>
						<path d="M622,339.9l0.4,0.4c0.1,0.7,0.2,1.2,0.3,1.6l-0.4-0.4C622.2,341.1,622.1,340.6,622,339.9"/>
					</g>
				</g>
				<g class="st2">
					<defs>
						<path id="SVGID_141_" class="st2" d="M623.4,343l-0.4-0.4c-0.3-0.3-0.5-0.6-0.6-1l0.4,0.4C622.9,342.3,623.1,342.7,623.4,343z
							"/>
					</defs>
					<clipPath id="SVGID_142_">
						<use xlink:href="#SVGID_141_"  style="overflow:visible;"/>
					</clipPath>
					<g class="st73">
						<path d="M622.3,341.5l0.4,0.4c0,0.1,0,0.1,0.1,0.2l-0.4-0.4C622.4,341.6,622.4,341.6,622.3,341.5"/>
						<path d="M622.4,341.7l0.4,0.4c0.1,0.2,0.2,0.4,0.3,0.6l-0.4-0.4C622.6,342.1,622.5,341.9,622.4,341.7"/>
						<path d="M622.7,342.2l0.4,0.4c0.1,0.1,0.2,0.2,0.3,0.3l-0.4-0.4C622.9,342.4,622.8,342.3,622.7,342.2"/>
					</g>
				</g>
				<g class="st2">
					<defs>
						<path id="SVGID_143_" class="st2" d="M622.3,343.3c-0.4-0.4-0.7-0.9-0.9-1.4l0.4,0.4c0.2,0.5,0.5,1,0.9,1.4
							C622.6,343.6,622.4,343.4,622.3,343.3z"/>
					</defs>
					<clipPath id="SVGID_144_">
						<use xlink:href="#SVGID_143_"  style="overflow:visible;"/>
					</clipPath>
					<g class="st74">
						<path d="M622.3,343.3l0.4,0.4C622.6,343.6,622.5,343.4,622.3,343.3l-0.3-0.4C622,343,622.1,343.1,622.3,343.3"/>
						<path d="M621.9,342.9l0.4,0.4c-0.2-0.2-0.3-0.5-0.4-0.8l-0.4-0.4C621.6,342.3,621.7,342.6,621.9,342.9"/>
						<path d="M621.5,342.1l0.4,0.4c0-0.1-0.1-0.1-0.1-0.2l-0.4-0.4C621.4,341.9,621.5,342,621.5,342.1"/>
					</g>
				</g>
				<g>
					<polygon points="633.7,338 634,298.2 634.4,298.7 634.1,338.5 					"/>
				</g>
				<g>
					<polygon points="635,298.2 635.4,298.7 635.1,338.5 634.7,338 					"/>
				</g>
				<g class="st2">
					<defs>
						<path id="SVGID_145_" class="st2" d="M632.9,342.2c0.4-0.7,0.6-1.2,0.6-1.7c0.1-0.5,0.1-1.3,0.1-2.4l0.4,0.4
							c0,1.1-0.1,1.9-0.1,2.4c-0.1,0.5-0.3,1.1-0.6,1.7L632.9,342.2z"/>
					</defs>
					<clipPath id="SVGID_146_">
						<use xlink:href="#SVGID_145_"  style="overflow:visible;"/>
					</clipPath>
					<g class="st75">
						<path d="M632.9,342.2l0.4,0.4c0.2-0.3,0.3-0.6,0.4-0.9l-0.4-0.4C633.2,341.6,633.1,341.9,632.9,342.2"/>
						<path d="M633.3,341.3l0.4,0.4c0.1-0.2,0.1-0.4,0.2-0.6l-0.4-0.4C633.5,340.9,633.4,341.1,633.3,341.3"/>
						<path d="M633.5,340.7l0.4,0.4c0-0.1,0-0.2,0-0.3c0-0.2,0-0.4,0.1-0.6l-0.4-0.4c0,0.2,0,0.4-0.1,0.6
							C633.5,340.5,633.5,340.6,633.5,340.7"/>
						<path d="M633.6,339.9l0.4,0.4c0-0.5,0.1-1.1,0.1-1.8l-0.4-0.4C633.7,338.8,633.6,339.4,633.6,339.9"/>
					</g>
				</g>
				<g class="st2">
					<defs>
						<path id="SVGID_147_" class="st2" d="M623,342.5c0.9,0.9,2.5,1.3,4.8,1.3c2.9,0,4.6-0.6,5.2-1.7l0.4,0.4
							c-0.6,1.1-2.3,1.7-5.2,1.7c-2.3,0-3.9-0.4-4.8-1.3C623.3,342.8,623.1,342.7,623,342.5z"/>
					</defs>
					<clipPath id="SVGID_148_">
						<use xlink:href="#SVGID_147_"  style="overflow:visible;"/>
					</clipPath>
					<g class="st76">
						<path d="M623,342.5l0.4,0.4c0.9,0.9,2.5,1.3,4.8,1.3c2.6,0,4.2-0.4,5-1.3l-0.4-0.4c-0.7,0.9-2.4,1.3-5,1.3
							C625.4,343.8,623.8,343.4,623,342.5"/>
						<path d="M632.7,342.5l0.4,0.4c0.1-0.1,0.1-0.2,0.2-0.3l-0.4-0.4C632.8,342.3,632.8,342.4,632.7,342.5"/>
						<path d="M632.9,342.2l0.4,0.4c0,0,0,0,0,0L632.9,342.2C632.9,342.2,632.9,342.2,632.9,342.2"/>
					</g>
				</g>
				<g class="st2">
					<defs>
						<path id="SVGID_149_" class="st2" d="M622.7,343.7l-0.4-0.4c1,1.1,2.9,1.6,5.5,1.6c3.3,0,5.3-0.7,6.1-2.2
							c0.4-0.8,0.7-1.5,0.8-2.1c0.1-0.6,0.1-1.4,0.1-2.5l0.4,0.4c0,1.1-0.1,2-0.1,2.5c-0.1,0.6-0.3,1.3-0.8,2.1
							c-0.8,1.5-2.8,2.2-6.1,2.2C625.6,345.3,623.7,344.7,622.7,343.7z"/>
					</defs>
					<clipPath id="SVGID_150_">
						<use xlink:href="#SVGID_149_"  style="overflow:visible;"/>
					</clipPath>
					<g class="st77">
						<path d="M634.7,338l0.4,0.4c0,0.8,0,1.5-0.1,2l-0.4-0.4C634.6,339.5,634.7,338.8,634.7,338"/>
						<path d="M634.6,340l0.4,0.4c0,0.2,0,0.4-0.1,0.6c0,0.1,0,0.2-0.1,0.3l-0.4-0.4c0-0.1,0-0.2,0.1-0.3
							C634.6,340.4,634.6,340.2,634.6,340"/>
						<path d="M634.5,340.9l0.4,0.4c-0.1,0.2-0.1,0.5-0.2,0.7l-0.4-0.4C634.3,341.4,634.4,341.1,634.5,340.9"/>
						<path d="M634.3,341.6l0.4,0.4c-0.1,0.3-0.3,0.7-0.5,1c0,0,0,0,0,0.1l-0.4-0.4c0,0,0,0,0-0.1
							C634,342.3,634.1,341.9,634.3,341.6"/>
						<path d="M633.8,342.7l0.4,0.4c-0.1,0.2-0.2,0.3-0.3,0.4l-0.4-0.4C633.6,343,633.7,342.8,633.8,342.7"/>
						<path d="M633.5,343.1l0.4,0.4c-0.9,1.2-2.8,1.7-5.7,1.7c-2.6,0-4.4-0.5-5.5-1.6l-0.4-0.4c1,1.1,2.9,1.6,5.5,1.6
							C630.6,344.8,632.5,344.3,633.5,343.1"/>
					</g>
				</g>
			</g>
			<g class="st2">
				<g class="st2">
					<defs>
						<path id="SVGID_151_" class="st2" d="M675.2,308.1c-0.1-0.1-0.1-0.1-0.2-0.2l-0.4-0.4c0.1,0.1,0.1,0.1,0.2,0.2
							C674.9,307.8,675.1,308,675.2,308.1z"/>
					</defs>
					<clipPath id="SVGID_152_">
						<use xlink:href="#SVGID_151_"  style="overflow:visible;"/>
					</clipPath>
					<g class="st78">
						<path d="M674.6,307.5l0.4,0.4c0.1,0.1,0.1,0.1,0.2,0.2l-0.4-0.4C674.7,307.6,674.7,307.5,674.6,307.5"/>
					</g>
				</g>
				<g class="st2">
					<defs>
						<path id="SVGID_153_" class="st2" d="M655.2,328.8c-2.7-2.7-4-6.3-4-10.5c0-4.4,1.5-8,4.3-10.7c2.8-2.7,6-4.1,9.6-4.1
							c3.5,0,6.7,1.4,9.5,4.1l0.4,0.4c-2.8-2.7-6-4.1-9.5-4.1c-3.5,0-6.7,1.4-9.6,4.1c-2.8,2.7-4.3,6.3-4.3,10.7
							c0,4.3,1.3,7.8,4,10.5C655.5,329.1,655.3,328.9,655.2,328.8z"/>
					</defs>
					<clipPath id="SVGID_154_">
						<use xlink:href="#SVGID_153_"  style="overflow:visible;"/>
					</clipPath>
					<g class="st79">
						<path d="M655.2,328.8l0.4,0.4c-0.5-0.5-0.9-1-1.3-1.5l-0.4-0.4C654.3,327.8,654.7,328.3,655.2,328.8"/>
						<path d="M653.9,327.3l0.4,0.4c-0.7-1-1.3-2-1.7-3.1l-0.4-0.4C652.6,325.3,653.2,326.3,653.9,327.3"/>
						<path d="M652.2,324.1l0.4,0.4c-0.5-1.3-0.8-2.6-0.9-4.1l-0.4-0.4C651.4,321.5,651.7,322.9,652.2,324.1"/>
						<path d="M651.3,320.1l0.4,0.4c-0.1-0.6-0.1-1.2-0.1-1.8c0-0.5,0-0.9,0.1-1.3l-0.4-0.4c0,0.4-0.1,0.9-0.1,1.3
							C651.2,318.9,651.2,319.5,651.3,320.1"/>
						<path d="M651.2,316.9l0.4,0.4c0.1-0.8,0.2-1.6,0.4-2.4l-0.4-0.4C651.4,315.3,651.3,316.1,651.2,316.9"/>
						<path d="M651.6,314.5l0.4,0.4c0.2-0.7,0.4-1.3,0.6-2l-0.4-0.4C651.9,313.2,651.7,313.8,651.6,314.5"/>
						<path d="M652.2,312.5l0.4,0.4c0.2-0.6,0.5-1.2,0.8-1.8l-0.4-0.4C652.7,311.3,652.4,311.9,652.2,312.5"/>
						<path d="M653,310.7l0.4,0.4c0.4-0.7,0.8-1.3,1.3-1.9l-0.4-0.4C653.9,309.4,653.4,310,653,310.7"/>
						<path d="M654.4,308.8l0.4,0.4c0.4-0.4,0.7-0.8,1.1-1.2c2.8-2.7,6-4.1,9.6-4.1c3.5,0,6.7,1.4,9.5,4.1l-0.4-0.4
							c-2.8-2.7-6-4.1-9.5-4.1c-3.5,0-6.7,1.4-9.6,4.1C655.1,307.9,654.7,308.3,654.4,308.8"/>
					</g>
				</g>
				<g class="st2">
					<defs>
						<path id="SVGID_155_" class="st2" d="M674.1,308.4l0.4,0.4c-0.1-0.1-0.1-0.1-0.2-0.2c-2.6-2.5-5.6-3.8-8.8-3.8
							c-3.2,0-6.2,1.3-8.9,3.8c-2.6,2.5-4,5.9-4,10c0,4,1.2,7.3,3.7,9.9l-0.4-0.4c-2.5-2.5-3.8-5.8-3.7-9.9c0-4.1,1.4-7.5,4-10
							c2.6-2.5,5.6-3.8,8.9-3.8c3.2,0,6.2,1.3,8.8,3.8C674,308.2,674,308.3,674.1,308.4z"/>
					</defs>
					<clipPath id="SVGID_156_">
						<use xlink:href="#SVGID_155_"  style="overflow:visible;"/>
					</clipPath>
					<g class="st80">
						<path d="M674.1,308.4l0.4,0.4c-0.1-0.1-0.1-0.1-0.2-0.2c-2.6-2.5-5.6-3.8-8.8-3.8c-3.2,0-6.2,1.3-8.9,3.8
							c-0.4,0.4-0.7,0.7-1.1,1.1l-0.4-0.4c0.3-0.4,0.7-0.8,1.1-1.1c2.6-2.5,5.6-3.8,8.9-3.8c3.2,0,6.2,1.3,8.8,3.8
							C674,308.2,674,308.3,674.1,308.4"/>
						<path d="M655.1,309.4l0.4,0.4c-0.5,0.6-0.9,1.2-1.2,1.8l-0.4-0.4C654.3,310.5,654.7,309.9,655.1,309.4"/>
						<path d="M653.9,311.2l0.4,0.4c-0.3,0.5-0.6,1.1-0.8,1.7l-0.4-0.4C653.3,312.3,653.6,311.7,653.9,311.2"/>
						<path d="M653.1,312.9l0.4,0.4c-0.2,0.6-0.4,1.2-0.6,1.8l-0.4-0.4C652.7,314.1,652.9,313.5,653.1,312.9"/>
						<path d="M652.6,314.7l0.4,0.4c-0.2,0.7-0.3,1.5-0.3,2.3l-0.4-0.4C652.3,316.2,652.4,315.4,652.6,314.7"/>
						<path d="M652.2,317l0.4,0.4c0,0.4,0,0.8-0.1,1.3c0,0.6,0,1.2,0.1,1.7l-0.4-0.4c-0.1-0.6-0.1-1.1-0.1-1.7
							C652.2,317.8,652.2,317.4,652.2,317"/>
						<path d="M652.2,320l0.4,0.4c0.1,1.4,0.4,2.6,0.9,3.8l-0.4-0.4C652.7,322.6,652.4,321.3,652.2,320"/>
						<path d="M653.1,323.8l0.4,0.4c0.4,1.1,0.9,2,1.6,2.9l-0.4-0.4C654.1,325.8,653.5,324.8,653.1,323.8"/>
						<path d="M654.7,326.7l0.4,0.4c0.4,0.5,0.8,1,1.2,1.4l-0.4-0.4C655.5,327.6,655.1,327.2,654.7,326.7"/>
					</g>
				</g>
				<g class="st2">
					<defs>
						<path id="SVGID_157_" class="st2" d="M646.5,338.1c-0.1-0.1-0.2-0.2-0.4-0.4c-5.1-5.3-7.7-11.8-7.6-19.1c0-4,0.8-7.8,2.3-11.3
							c1.5-3.5,3.5-6.5,5.9-8.9c2.4-2.4,5.3-4.3,8.4-5.6c3.2-1.4,6.5-2.1,9.8-2.1c7.2,0,13.5,2.6,18.7,7.8l0.4,0.4
							c-5.2-5.2-11.5-7.8-18.7-7.8c-3.3,0-6.7,0.7-9.8,2.1c-3.2,1.4-6,3.2-8.4,5.6c-2.4,2.4-4.4,5.4-5.9,8.9
							c-1.5,3.5-2.2,7.3-2.3,11.3C638.9,326.4,641.4,332.8,646.5,338.1c0.2,0.2,0.3,0.3,0.4,0.4
							C646.8,338.4,646.6,338.2,646.5,338.1z"/>
					</defs>
					<clipPath id="SVGID_158_">
						<use xlink:href="#SVGID_157_"  style="overflow:visible;"/>
					</clipPath>
					<g class="st81">
						<path d="M646.5,338.1l0.4,0.4C646.8,338.4,646.7,338.3,646.5,338.1c-0.8-0.9-1.6-1.8-2.4-2.8l-0.4-0.4c0.7,1,1.5,1.9,2.4,2.9
							C646.2,337.9,646.4,338,646.5,338.1"/>
						<path d="M643.7,334.9l0.4,0.4c-1.4-2-2.6-4-3.4-6.2l-0.4-0.4C641.1,330.8,642.2,332.9,643.7,334.9"/>
						<path d="M640.2,328.6l0.4,0.4c-0.9-2.2-1.4-4.6-1.6-7.1l-0.4-0.4C638.8,324,639.4,326.4,640.2,328.6"/>
						<path d="M638.6,321.5l0.4,0.4c-0.1-1-0.1-1.9-0.1-2.9c0-0.8,0-1.5,0.1-2.2l-0.4-0.4c-0.1,0.7-0.1,1.5-0.1,2.2
							C638.5,319.6,638.5,320.6,638.6,321.5"/>
						<path d="M638.6,316.4l0.4,0.4c0.1-1.5,0.3-2.9,0.7-4.3l-0.4-0.4C638.9,313.4,638.7,314.9,638.6,316.4"/>
						<path d="M639.2,312l0.4,0.4c0.3-1.3,0.7-2.6,1.2-3.8l-0.4-0.4C639.9,309.4,639.5,310.7,639.2,312"/>
						<path d="M640.4,308.2l0.4,0.4c0.1-0.3,0.2-0.6,0.4-0.9c0.4-1.1,0.9-2.1,1.5-3l-0.4-0.4c-0.5,1-1,2-1.5,3
							C640.6,307.6,640.5,307.9,640.4,308.2"/>
						<path d="M642.2,304.2l0.4,0.4c0.8-1.4,1.6-2.7,2.6-3.8l-0.4-0.4C643.9,301.6,643,302.8,642.2,304.2"/>
						<path d="M644.8,300.4l0.4,0.4c0.6-0.7,1.2-1.4,1.9-2c2.4-2.4,5.3-4.3,8.4-5.6c3.2-1.4,6.5-2.1,9.8-2.1
							c7.2,0,13.5,2.6,18.7,7.8l-0.4-0.4c-5.2-5.2-11.5-7.8-18.7-7.8c-3.3,0-6.7,0.7-9.8,2.1c-3.2,1.4-6,3.2-8.4,5.6
							C646,299,645.4,299.7,644.8,300.4"/>
					</g>
				</g>
				<g class="st2">
					<defs>
						<path id="SVGID_159_" class="st2" d="M683.1,299.4l0.4,0.4c-0.1-0.1-0.1-0.1-0.2-0.2c-5-5-11.1-7.5-18-7.5
							c-3.2,0-6.4,0.7-9.4,2c-3,1.3-5.8,3.1-8.1,5.4c-2.3,2.3-4.3,5.2-5.7,8.5c-1.4,3.4-2.2,7.1-2.2,11c-0.1,7.1,2.4,13.3,7.4,18.4
							c0.1,0.1,0.2,0.3,0.4,0.4l-0.4-0.4c-0.1-0.1-0.2-0.2-0.4-0.4c-4.9-5.1-7.4-11.3-7.4-18.4c0-3.9,0.8-7.6,2.2-11
							c1.4-3.4,3.3-6.3,5.7-8.5c2.4-2.3,5.1-4.1,8.1-5.4c3-1.3,6.2-2,9.4-2c6.9,0,13,2.5,18,7.5C683,299.3,683.1,299.3,683.1,299.4z
							"/>
					</defs>
					<clipPath id="SVGID_160_">
						<use xlink:href="#SVGID_159_"  style="overflow:visible;"/>
					</clipPath>
					<g class="st82">
						<path d="M683.1,299.4l0.4,0.4c-0.1-0.1-0.1-0.1-0.2-0.2c-5-5-11.1-7.5-18-7.5c-3.2,0-6.4,0.7-9.4,2c-3,1.3-5.8,3.1-8.1,5.4
							c-0.6,0.6-1.2,1.3-1.8,2l-0.4-0.4c0.6-0.7,1.2-1.4,1.8-2c2.4-2.3,5.1-4.1,8.1-5.4c3-1.3,6.2-2,9.4-2c6.9,0,13,2.5,18,7.5
							C683,299.3,683.1,299.3,683.1,299.4"/>
						<path d="M645.6,301l0.4,0.4c-0.9,1.1-1.7,2.3-2.5,3.6l-0.4-0.4C643.8,303.4,644.7,302.2,645.6,301"/>
						<path d="M643.1,304.7l0.4,0.4c-0.5,0.9-1,1.9-1.4,2.9c-0.1,0.3-0.3,0.6-0.4,0.9l-0.4-0.4c0.1-0.3,0.2-0.6,0.4-0.9
							C642.1,306.6,642.6,305.6,643.1,304.7"/>
						<path d="M641.3,308.5l0.4,0.4c-0.5,1.2-0.8,2.4-1.1,3.7l-0.4-0.4C640.5,311,640.9,309.7,641.3,308.5"/>
						<path d="M640.2,312.2l0.4,0.4c-0.3,1.4-0.5,2.8-0.6,4.2l-0.4-0.4C639.7,315,639.9,313.6,640.2,312.2"/>
						<path d="M639.6,316.4l0.4,0.4c-0.1,0.7-0.1,1.4-0.1,2.2c0,1,0,1.9,0.1,2.8l-0.4-0.4c-0.1-0.9-0.1-1.9-0.1-2.8
							C639.5,317.9,639.5,317.1,639.6,316.4"/>
						<path d="M639.6,321.4l0.4,0.4c0.2,2.4,0.7,4.7,1.6,6.8l-0.4-0.4C640.3,326.1,639.8,323.8,639.6,321.4"/>
						<path d="M641.2,328.3l0.4,0.4c0.8,2.1,1.9,4.1,3.3,6l-0.4-0.4C643.1,332.4,642,330.4,641.2,328.3"/>
						<path d="M644.5,334.3l0.4,0.4c0.7,1,1.5,1.9,2.3,2.8c0.1,0.1,0.2,0.3,0.4,0.4l-0.4-0.4c-0.1-0.1-0.2-0.2-0.4-0.4
							C646,336.1,645.2,335.2,644.5,334.3"/>
					</g>
				</g>
				<g class="st2">
					<defs>
						<path id="SVGID_161_" class="st2" d="M655.9,328.1c0,0,0.1,0.1,0.1,0.1c2.6,2.5,5.6,3.8,8.8,3.8c3.3,0,6.2-1.3,8.9-3.7
							l0.4,0.4c-2.6,2.5-5.6,3.7-8.9,3.7c-3.2,0-6.2-1.3-8.8-3.8c0,0-0.1-0.1-0.1-0.1C656.2,328.4,656.1,328.2,655.9,328.1z"/>
					</defs>
					<clipPath id="SVGID_162_">
						<use xlink:href="#SVGID_161_"  style="overflow:visible;"/>
					</clipPath>
					<g class="st83">
						<path d="M655.9,328.1l0.4,0.4c0,0,0.1,0.1,0.1,0.1c2.6,2.5,5.6,3.8,8.8,3.8c3.3,0,6.2-1.3,8.9-3.7l-0.4-0.4
							c-2.6,2.5-5.6,3.7-8.9,3.7c-3.2,0-6.2-1.3-8.8-3.8C656,328.2,656,328.1,655.9,328.1"/>
					</g>
				</g>
				<g class="st2">
					<defs>
						<path id="SVGID_163_" class="st2" d="M674.5,308.8c2.5,2.5,3.7,5.8,3.7,9.9c0,4.2-1.4,7.6-4,10l-0.4-0.4c2.6-2.5,4-5.9,4-10
							c0-4.1-1.2-7.4-3.7-9.9C674.2,308.5,674.4,308.7,674.5,308.8z"/>
					</defs>
					<clipPath id="SVGID_164_">
						<use xlink:href="#SVGID_163_"  style="overflow:visible;"/>
					</clipPath>
					<g class="st84">
						<path d="M673.8,328.3l0.4,0.4c0.4-0.4,0.8-0.8,1.1-1.2l-0.4-0.4C674.6,327.6,674.2,328,673.8,328.3"/>
						<path d="M674.9,327.1l0.4,0.4c0.4-0.5,0.8-1.1,1.2-1.7l-0.4-0.4C675.7,326,675.3,326.6,674.9,327.1"/>
						<path d="M676.1,325.4l0.4,0.4c0.3-0.5,0.6-1.1,0.8-1.7l-0.4-0.4C676.6,324.3,676.4,324.9,676.1,325.4"/>
						<path d="M676.8,323.8l0.4,0.4c0.2-0.6,0.4-1.2,0.6-1.8l-0.4-0.4C677.2,322.6,677.1,323.2,676.8,323.8"/>
						<path d="M677.4,321.9l0.4,0.4c0.2-0.7,0.3-1.5,0.3-2.3l-0.4-0.4C677.7,320.4,677.6,321.2,677.4,321.9"/>
						<path d="M677.7,319.6l0.4,0.4c0-0.4,0.1-0.9,0.1-1.3c0-0.6,0-1.2-0.1-1.8l-0.4-0.4c0.1,0.6,0.1,1.2,0.1,1.8
							C677.8,318.7,677.8,319.2,677.7,319.6"/>
						<path d="M677.7,316.5l0.4,0.4c-0.1-1.4-0.4-2.7-0.9-3.9l-0.4-0.4C677.3,313.8,677.6,315.1,677.7,316.5"/>
						<path d="M676.8,312.6l0.4,0.4c-0.4-1.1-0.9-2-1.6-2.9l-0.4-0.4C675.9,310.6,676.4,311.6,676.8,312.6"/>
						<path d="M675.2,309.7l0.4,0.4c-0.4-0.5-0.7-0.9-1.2-1.4l-0.4-0.4C674.5,308.8,674.9,309.2,675.2,309.7"/>
					</g>
				</g>
				<g class="st2">
					<defs>
						<path id="SVGID_165_" class="st2" d="M674.8,307.7l0.4,0.4c2.7,2.7,4,6.3,4,10.6c0,4.5-1.5,8.1-4.3,10.8c-2.8,2.7-6,4-9.6,4
							c-3.5,0-6.7-1.4-9.5-4.1c-0.1-0.1-0.1-0.1-0.2-0.2l-0.4-0.4c0.1,0.1,0.1,0.1,0.2,0.2c2.8,2.7,6,4.1,9.5,4.1
							c3.5,0,6.7-1.4,9.6-4c2.8-2.7,4.3-6.3,4.3-10.8C678.8,313.9,677.5,310.4,674.8,307.7z"/>
					</defs>
					<clipPath id="SVGID_166_">
						<use xlink:href="#SVGID_165_"  style="overflow:visible;"/>
					</clipPath>
					<g class="st85">
						<path d="M674.8,307.7l0.4,0.4c0.5,0.5,0.9,1,1.3,1.5l-0.4-0.4C675.7,308.6,675.2,308.1,674.8,307.7"/>
						<path d="M676.1,309.1l0.4,0.4c0.7,1,1.3,2,1.7,3.1l-0.4-0.4C677.3,311.1,676.8,310.1,676.1,309.1"/>
						<path d="M677.8,312.3l0.4,0.4c0.5,1.3,0.8,2.6,0.9,4.1l-0.4-0.4C678.6,314.9,678.3,313.5,677.8,312.3"/>
						<path d="M678.7,316.4l0.4,0.4c0.1,0.6,0.1,1.3,0.1,1.9c0,0.5,0,0.9-0.1,1.4l-0.4-0.4c0-0.5,0.1-0.9,0.1-1.4
							C678.8,317.6,678.8,317,678.7,316.4"/>
						<path d="M678.7,319.7l0.4,0.4c-0.1,0.9-0.2,1.7-0.4,2.5l-0.4-0.4C678.5,321.4,678.7,320.5,678.7,319.7"/>
						<path d="M678.4,322.1l0.4,0.4c-0.2,0.7-0.4,1.3-0.6,2l-0.4-0.4C678,323.5,678.2,322.8,678.4,322.1"/>
						<path d="M677.8,324.1l0.4,0.4c-0.2,0.6-0.5,1.2-0.8,1.8l-0.4-0.4C677.3,325.3,677.5,324.7,677.8,324.1"/>
						<path d="M676.9,325.9l0.4,0.4c-0.4,0.7-0.8,1.3-1.3,1.9l-0.4-0.4C676.2,327.2,676.6,326.6,676.9,325.9"/>
						<path d="M675.7,327.8l0.4,0.4c-0.4,0.5-0.8,0.9-1.2,1.3c-2.8,2.7-6,4-9.6,4c-3.5,0-6.7-1.4-9.5-4.1c-0.1-0.1-0.1-0.1-0.2-0.2
							l-0.4-0.4c0.1,0.1,0.1,0.1,0.2,0.2c2.8,2.7,6,4.1,9.5,4.1c3.5,0,6.7-1.4,9.6-4C674.9,328.6,675.3,328.2,675.7,327.8"/>
					</g>
				</g>
				<g class="st2">
					<defs>
						<path id="SVGID_167_" class="st2" d="M683.5,299.8c4.9,5,7.4,11.2,7.4,18.5c-0.1,7.4-2.6,13.8-7.5,19l-0.4-0.4
							c4.9-5.2,7.4-11.6,7.5-19c0.1-7.3-2.4-13.6-7.4-18.5C683.2,299.5,683.4,299.7,683.5,299.8z"/>
					</defs>
					<clipPath id="SVGID_168_">
						<use xlink:href="#SVGID_167_"  style="overflow:visible;"/>
					</clipPath>
					<g class="st86">
						<path d="M683,336.9l0.4,0.4c0.5-0.5,0.9-1,1.4-1.6l-0.4-0.4C684,335.9,683.5,336.4,683,336.9"/>
						<path d="M684.4,335.4l0.4,0.4c1-1.2,1.9-2.5,2.6-3.9l-0.4-0.4C686.3,332.8,685.4,334.1,684.4,335.4"/>
						<path d="M687,331.5l0.4,0.4c0.6-1.1,1.2-2.3,1.6-3.5l-0.4-0.4C688.2,329.2,687.7,330.3,687,331.5"/>
						<path d="M688.7,328l0.4,0.4c0.4-1.2,0.8-2.4,1.1-3.6l-0.4-0.4C689.5,325.6,689.1,326.8,688.7,328"/>
						<path d="M689.8,324.4l0.4,0.4c0.3-1.4,0.5-2.8,0.6-4.2l-0.4-0.4C690.3,321.6,690.1,323,689.8,324.4"/>
						<path d="M690.4,320.1l0.4,0.4c0.1-0.7,0.1-1.5,0.1-2.2c0-1,0-2-0.1-3l-0.4-0.4c0.1,1,0.1,2,0.1,3
							C690.5,318.7,690.5,319.4,690.4,320.1"/>
						<path d="M690.4,314.9l0.4,0.4c-0.2-2.4-0.8-4.8-1.6-6.9l-0.4-0.4C689.6,310.2,690.1,312.5,690.4,314.9"/>
						<path d="M688.8,308l0.4,0.4c-0.8-2-1.8-4-3.2-5.7l-0.4-0.4C686.9,304.1,688,306,688.8,308"/>
						<path d="M685.6,302.3l0.4,0.4c-0.7-1-1.6-2-2.5-2.9l-0.4-0.4C684,300.3,684.9,301.3,685.6,302.3"/>
					</g>
				</g>
				<g class="st2">
					<defs>
						<path id="SVGID_169_" class="st2" d="M647.2,337.4c4.9,4.9,10.8,7.4,17.8,7.4c7.1,0,13.2-2.6,18.1-7.8l0.4,0.4
							c-4.9,5.2-11,7.8-18.1,7.8c-6.9,0-12.9-2.5-17.8-7.4C647.5,337.7,647.3,337.5,647.2,337.4z"/>
					</defs>
					<clipPath id="SVGID_170_">
						<use xlink:href="#SVGID_169_"  style="overflow:visible;"/>
					</clipPath>
					<g class="st87">
						<path d="M647.2,337.4l0.4,0.4c4.9,4.9,10.8,7.4,17.8,7.4c7.1,0,13.2-2.6,18.1-7.8l-0.4-0.4c-4.9,5.2-11,7.8-18.1,7.8
							C658,344.8,652.1,342.3,647.2,337.4"/>
					</g>
				</g>
				<g class="st2">
					<defs>
						<path id="SVGID_171_" class="st2" d="M646.9,338.5l-0.4-0.4c5.1,5.1,11.3,7.7,18.5,7.7c7.4,0,13.7-2.8,18.8-8.2
							c5.1-5.4,7.7-12,7.7-19.7c0.1-7.7-2.6-14.2-7.8-19.4l0.4,0.4c5.3,5.2,7.9,11.7,7.8,19.4c-0.1,7.7-2.7,14.3-7.7,19.7
							c-5.1,5.4-11.4,8.2-18.8,8.2C658.2,346.2,652,343.6,646.9,338.5z"/>
					</defs>
					<clipPath id="SVGID_172_">
						<use xlink:href="#SVGID_171_"  style="overflow:visible;"/>
					</clipPath>
					<g class="st88">
						<path d="M683.7,298.5l0.4,0.4c1,1,1.9,2.1,2.8,3.2l-0.4-0.4C685.6,300.6,684.7,299.5,683.7,298.5"/>
						<path d="M686.4,301.7l0.4,0.4c1.4,1.9,2.5,3.8,3.3,6l-0.4-0.4C688.9,305.5,687.8,303.5,686.4,301.7"/>
						<path d="M689.7,307.6l0.4,0.4c0.9,2.2,1.4,4.6,1.7,7.2l-0.4-0.4C691.1,312.3,690.6,309.9,689.7,307.6"/>
						<path d="M691.4,314.8l0.4,0.4c0.1,1,0.1,2,0.1,3.1c0,0.8,0,1.6-0.1,2.3l-0.4-0.4c0.1-0.8,0.1-1.5,0.1-2.3
							C691.5,316.9,691.4,315.8,691.4,314.8"/>
						<path d="M691.4,320.2l0.4,0.4c-0.1,1.5-0.3,2.9-0.7,4.4l-0.4-0.4C691.1,323.2,691.3,321.7,691.4,320.2"/>
						<path d="M690.7,324.6l0.4,0.4c-0.3,1.3-0.7,2.5-1.1,3.7l-0.4-0.4C690.1,327.1,690.4,325.9,690.7,324.6"/>
						<path d="M689.6,328.3l0.4,0.4c-0.5,1.2-1,2.5-1.7,3.6l-0.4-0.4C688.6,330.8,689.1,329.6,689.6,328.3"/>
						<path d="M687.9,331.9l0.4,0.4c-0.8,1.4-1.7,2.8-2.7,4l-0.4-0.4C686.2,334.7,687.1,333.4,687.9,331.9"/>
						<path d="M685.2,336l0.4,0.4c-0.5,0.6-0.9,1.1-1.4,1.6c-5.1,5.4-11.4,8.2-18.8,8.2c-7.2,0-13.4-2.6-18.5-7.7l-0.4-0.4
							c5.1,5.1,11.3,7.7,18.5,7.7c7.4,0,13.7-2.8,18.8-8.2C684.2,337.1,684.7,336.5,685.2,336"/>
					</g>
				</g>
			</g>
		</g>
	</g>
</g>
<g id="Layer_1">
</g>
<g id="Layer_3">
	<text transform="matrix(1 0 0 1 503.4229 414.7266)" class="st89 st90">ECHO</text>
</g>
</svg>
