<svg width="893" height="752" viewBox="0 0 893 752" version="1.1" xmlns="http://www.w3.org/2000/svg" xmlns:xlink="http://www.w3.org/1999/xlink">
<title>Vector 6</title>
<desc>Created using Figma</desc>
<g id="Canvas" transform="translate(446 438)">
<g id="Vector 6">
<use xlink:href="#path0_stroke" transform="translate(-445 -437)"/>
</g>
</g>
<defs>
<path id="path0_stroke" d="M 448 346L 448.165 346.472L 448.009 345.5L 448 346ZM 16 338L 15.6299 337.664L 14.889 338.48L 15.9907 338.5L 16 338ZM 323 0L 323.11 -0.487689L 322.826 -0.551986L 322.63 -0.336173L 323 0ZM 867 123L 867.107 123.488L 867.11 122.512L 867 123ZM 620 177L 619.893 176.512L 619.212 176.66L 619.572 177.258L 620 177ZM 891 627L 891.125 627.484L 891.774 627.316L 891.428 626.742L 891 627ZM 416 750L 415.566 749.751L 414.974 750.782L 416.125 750.484L 416 750ZM 555 508L 555.434 508.249L 556.14 507.019L 554.819 507.534L 555 508ZM 21 716L 20.5024 716.049L 20.5671 716.705L 21.1815 716.466L 21 716ZM 0 503L -0.165363 502.528L -0.536135 502.658L -0.497588 503.049L 0 503ZM 448.009 345.5L 16.0093 337.5L 15.9907 338.5L 447.991 346.5L 448.009 345.5ZM 16.3701 338.336L 323.37 0.336173L 322.63 -0.336173L 15.6299 337.664L 16.3701 338.336ZM 322.89 0.487689L 866.89 123.488L 867.11 122.512L 323.11 -0.487689L 322.89 0.487689ZM 866.893 122.512L 619.893 176.512L 620.107 177.488L 867.107 123.488L 866.893 122.512ZM 619.572 177.258L 890.572 627.258L 891.428 626.742L 620.428 176.742L 619.572 177.258ZM 890.875 626.516L 415.875 749.516L 416.125 750.484L 891.125 627.484L 890.875 626.516ZM 416.434 750.249L 555.434 508.249L 554.566 507.751L 415.566 749.751L 416.434 750.249ZM 554.819 507.534L 20.8185 715.534L 21.1815 716.466L 555.181 508.466L 554.819 507.534ZM 21.4976 715.951L 0.497588 502.951L -0.497588 503.049L 20.5024 716.049L 21.4976 715.951ZM 0.165363 503.472L 448.165 346.472L 447.835 345.528L -0.165363 502.528L 0.165363 503.472Z"/>
</defs>
</svg>
