<svg width="136" height="188" viewBox="0 0 136 188" version="1.1" xmlns="http://www.w3.org/2000/svg" xmlns:xlink="http://www.w3.org/1999/xlink">
<title>Vector</title>
<desc>Created using Figma</desc>
<g id="Canvas" transform="translate(-147 209)">
<g id="Vector">
<use xlink:href="#path0_fill" transform="translate(147.757 -208)" fill="#F40C0C" fill-opacity="0.61"/>
<use xlink:href="#path1_stroke" transform="translate(147.757 -208)"/>
</g>
</g>
<defs>
<path id="path0_fill" d="M 9.24306 131C 9.24307 125.4 11.2431 96.3333 9.24306 73L 115.243 73L 115.243 0L 134.243 0L 134.243 186L 0.243056 168C 0.909723 159.667 1.84306 143 0.243056 143C -1.75694 143 9.24303 140 9.24306 131Z"/>
<path id="path1_stroke" d="M 9.24306 73L 9.24306 72.5L 8.69836 72.5L 8.74488 73.0427L 9.24306 73ZM 9.24306 131L 9.74306 131L 9.74306 131L 9.24306 131ZM 0.243056 168L -0.255352 167.96L -0.293139 168.432L 0.17649 168.496L 0.243056 168ZM 134.243 186L 134.176 186.496L 134.743 186.572L 134.743 186L 134.243 186ZM 134.243 0L 134.743 0L 134.743 -0.5L 134.243 -0.5L 134.243 0ZM 115.243 0L 115.243 -0.5L 114.743 -0.5L 114.743 0L 115.243 0ZM 115.243 73L 115.243 73.5L 115.743 73.5L 115.743 73L 115.243 73ZM 8.74488 73.0427C 10.7431 96.3375 8.74337 125.383 8.74306 131L 9.74306 131C 9.74278 125.417 11.743 96.3291 9.74123 72.9573L 8.74488 73.0427ZM 8.74306 131C 8.74304 135.27 6.13998 138.14 3.69305 139.975C 2.47147 140.893 1.31206 141.532 0.560421 141.955C 0.372167 142.061 0.20502 142.156 0.071884 142.236C -0.0650355 142.319 -0.198348 142.41 -0.281111 142.484C -0.320265 142.52 -0.41213 142.606 -0.463101 142.739C -0.492593 142.816 -0.516429 142.929 -0.485668 143.059C -0.456137 143.15 -0.364386 143.293 -0.30365 143.35C -0.179741 143.452 -0.0390531 143.477 0.0152351 143.485C 0.0771703 143.494 0.165869 143.5 0.243056 143.5L 0.243056 142.5C 0.195243 142.5 0.156835 142.494 0.170584 142.497C 0.171629 142.497 0.182433 142.5 0.1807 142.499C 0.177288 142.498 0.21482 142.509 0.208154 142.507C 0.228847 142.514 0.278488 142.534 0.33273 142.578C 0.392318 142.628 0.459457 142.71 0.487465 142.829C 0.514625 142.943 0.49262 143.04 0.470207 143.098C 0.448931 143.153 0.422313 143.188 0.411585 143.202C 0.417499 143.195 0.394229 143.222 0.392221 143.223C 0.381639 143.233 0.412567 143.206 0.448581 143.181C 0.487392 143.155 0.530853 143.127 0.590005 143.091C 0.710774 143.018 0.863939 142.931 1.05068 142.826C 1.79904 142.405 3.01462 141.732 4.29305 140.775C 6.84611 138.86 9.74304 135.73 9.74306 131L 8.74306 131ZM 0.243056 143.5C 0.0950903 143.5 0.0530116 143.398 0.0951757 143.462C 0.150386 143.542 0.191582 143.652 0.246768 143.862C 0.365822 144.303 0.450991 144.94 0.513209 145.772C 0.639292 147.447 0.651408 149.767 0.593181 152.364C 0.476855 157.562 0.0776802 163.797 -0.255352 167.96L 0.741464 168.04C 1.0751 163.869 1.47592 157.605 1.59293 152.386C 1.65137 149.775 1.63849 147.407 1.5104 145.697C 1.44554 144.836 1.34633 144.106 1.21278 143.603C 1.14167 143.34 1.0395 143.084 0.932928 142.916C 0.813309 142.733 0.591022 142.5 0.243056 142.5L 0.243056 143.5ZM 0.17649 168.496L 134.176 186.496L 134.31 185.504L 0.309622 167.504L 0.17649 168.496ZM 134.743 186L 134.743 0L 133.743 0L 133.743 186L 134.743 186ZM 134.243 -0.5L 115.243 -0.5L 115.243 0.5L 134.243 0.5L 134.243 -0.5ZM 114.743 0L 114.743 73L 115.743 73L 115.743 0L 114.743 0ZM 115.243 72.5L 9.24306 72.5L 9.24306 73.5L 115.243 73.5L 115.243 72.5Z"/>
</defs>
</svg>
