<svg width="234" height="361" viewBox="0 0 234 361" version="1.1" xmlns="http://www.w3.org/2000/svg" xmlns:xlink="http://www.w3.org/1999/xlink">
<title>Vector 2</title>
<desc>Created using Figma</desc>
<g id="Canvas" transform="translate(24 265)">
<g id="Vector 2">
<use xlink:href="#path0_fill" transform="translate(-22 -264)" fill="#44D1D7" fill-opacity="0.55"/>
<use xlink:href="#path1_stroke" transform="translate(-22 -264)" fill="#DE2EC7"/>
</g>
</g>
<defs>
<path id="path0_fill" d="M 38 61L 0 0L 230 0L 221 358L 139 336L 139 324L 131 266L 126 223L 116 213L 107 196L 79 126L 38 61Z"/>
<path id="path1_stroke" d="M 0 0L 0 -1L -1.80111 -1L -0.848779 0.528748L 0 0ZM 38 61L 37.1512 61.5288L 37.1542 61.5335L 38 61ZM 79 126L 79.9285 125.629L 79.8945 125.544L 79.8458 125.466L 79 126ZM 107 196L 106.072 196.371L 106.091 196.421L 106.116 196.468L 107 196ZM 116 213L 115.116 213.468L 115.187 213.601L 115.293 213.707L 116 213ZM 126 223L 126.993 222.884L 126.953 222.539L 126.707 222.293L 126 223ZM 131 266L 130.007 266.116L 130.008 266.126L 130.009 266.137L 131 266ZM 139 324L 140 324L 140 323.931L 139.991 323.863L 139 324ZM 139 336L 138 336L 138 336.767L 138.741 336.966L 139 336ZM 221 358L 220.741 358.966L 221.968 359.295L 222 358.025L 221 358ZM 230 0L 231 0.0251317L 231.025 -1L 230 -1L 230 0ZM -0.848779 0.528748L 37.1512 61.5287L 38.8488 60.4713L 0.848779 -0.528748L -0.848779 0.528748ZM 37.1542 61.5335L 78.1542 126.534L 79.8458 125.466L 38.8458 60.4665L 37.1542 61.5335ZM 78.0715 126.371L 106.072 196.371L 107.928 195.629L 79.9285 125.629L 78.0715 126.371ZM 106.116 196.468L 115.116 213.468L 116.884 212.532L 107.884 195.532L 106.116 196.468ZM 115.293 213.707L 125.293 223.707L 126.707 222.293L 116.707 212.293L 115.293 213.707ZM 125.007 223.116L 130.007 266.116L 131.993 265.884L 126.993 222.884L 125.007 223.116ZM 130.009 266.137L 138.009 324.137L 139.991 323.863L 131.991 265.863L 130.009 266.137ZM 138 324L 138 336L 140 336L 140 324L 138 324ZM 138.741 336.966L 220.741 358.966L 221.259 357.034L 139.259 335.034L 138.741 336.966ZM 222 358.025L 231 0.0251317L 229 -0.0251317L 220 357.975L 222 358.025ZM 230 -1L 0 -1L 0 1L 230 1L 230 -1Z"/>
</defs>
</svg>
