<svg width="783" height="681" viewBox="0 0 783 681" version="1.1" xmlns="http://www.w3.org/2000/svg" xmlns:xlink="http://www.w3.org/1999/xlink">
<title>Vector</title>
<desc>Created using Figma</desc>
<g id="Canvas" transform="translate(448 364)">
<g id="Vector">
<use xlink:href="#path0_stroke" transform="translate(-447 -363)"/>
</g>
</g>
<defs>
<path id="path0_stroke" d="M 432 0L 432.32 -0.384562L 432.003 -0.647876L 431.684 -0.387178L 432 0ZM 781 290L 781.442 290.234L 781.632 289.875L 781.32 289.615L 781 290ZM 575 679L 574.753 679.435L 575.201 679.689L 575.442 679.234L 575 679ZM 0 353L -0.316375 352.613L -0.881785 353.075L -0.246602 353.435L 0 353ZM 431.68 0.384562L 780.68 290.385L 781.32 289.615L 432.32 -0.384562L 431.68 0.384562ZM 780.558 289.766L 574.558 678.766L 575.442 679.234L 781.442 290.234L 780.558 289.766ZM 575.247 678.565L 0.246602 352.565L -0.246602 353.435L 574.753 679.435L 575.247 678.565ZM 0.316375 353.387L 432.316 0.387178L 431.684 -0.387178L -0.316375 352.613L 0.316375 353.387Z"/>
</defs>
</svg>
