<svg width="847" height="740" viewBox="0 0 847 740" version="1.1" xmlns="http://www.w3.org/2000/svg" xmlns:xlink="http://www.w3.org/1999/xlink">
<title>Vector 2</title>
<desc>Created using Figma</desc>
<g id="Canvas" transform="translate(406 396)">
<g id="Vector 2">
<use xlink:href="#path0_stroke" transform="translate(-404 -395)"/>
</g>
</g>
<defs>
<path id="path0_stroke" d="M 162 570L 162.343 570.364L 162.49 570.225L 162.499 570.025L 162 570ZM 190 0L 190.095 -0.490831L 189.529 -0.600821L 189.501 -0.0245318L 190 0ZM 844 127L 844.495 127.068L 844.56 126.599L 844.095 126.509L 844 127ZM 760 738L 759.99 738.5L 760.435 738.509L 760.495 738.068L 760 738ZM 0 723L -0.343312 722.636L -1.23197 723.476L -0.0098665 723.5L 0 723ZM 162.499 570.025L 190.499 0.0245318L 189.501 -0.0245318L 161.501 569.975L 162.499 570.025ZM 189.905 0.490831L 843.905 127.491L 844.095 126.509L 190.095 -0.490831L 189.905 0.490831ZM 843.505 126.932L 759.505 737.932L 760.495 738.068L 844.495 127.068L 843.505 126.932ZM 760.01 737.5L 0.0098665 722.5L -0.0098665 723.5L 759.99 738.5L 760.01 737.5ZM 0.343312 723.364L 162.343 570.364L 161.657 569.636L -0.343312 722.636L 0.343312 723.364Z"/>
</defs>
</svg>
