<svg width="821" height="780" viewBox="0 0 821 780" version="1.1" xmlns="http://www.w3.org/2000/svg" xmlns:xlink="http://www.w3.org/1999/xlink">
<title>Vector 3</title>
<desc>Created using Figma</desc>
<g id="Canvas" transform="translate(364 402)">
<g id="Vector 3">
<use xlink:href="#path0_stroke" transform="translate(-363 -401)"/>
</g>
</g>
<defs>
<path id="path0_stroke" d="M 0 222L -0.206691 221.545L -0.684808 221.762L -0.444625 222.229L 0 222ZM 489 0L 489.409 -0.287725L 489.171 -0.626531L 488.793 -0.455279L 489 0ZM 819 469L 819.251 469.433L 819.723 469.159L 819.409 468.712L 819 469ZM 286 778L 285.555 778.229L 285.796 778.696L 286.251 778.433L 286 778ZM 0.206691 222.455L 489.207 0.455279L 488.793 -0.455279L -0.206691 221.545L 0.206691 222.455ZM 488.591 0.287725L 818.591 469.288L 819.409 468.712L 489.409 -0.287725L 488.591 0.287725ZM 818.749 468.567L 285.749 777.567L 286.251 778.433L 819.251 469.433L 818.749 468.567ZM 286.445 777.771L 0.444625 221.771L -0.444625 222.229L 285.555 778.229L 286.445 777.771Z"/>
</defs>
</svg>
