<svg width="957" height="794" viewBox="0 0 957 794" version="1.1" xmlns="http://www.w3.org/2000/svg" xmlns:xlink="http://www.w3.org/1999/xlink">
<title>Vector 4</title>
<desc>Created using Figma</desc>
<g id="Canvas" transform="translate(477 412)">
<g id="Vector 4">
<use xlink:href="#path0_stroke" transform="translate(-475 -411)"/>
</g>
</g>
<defs>
<path id="path0_stroke" d="M 759 792L 758.693 792.395L 759.187 792.778L 759.453 792.212L 759 792ZM 0 203L -0.129188 202.517L -1.10253 202.777L -0.306538 203.395L 0 203ZM 759 0L 759.444 -0.230193L 759.259 -0.586821L 758.871 -0.483022L 759 0ZM 954 376L 954.453 376.212L 954.557 375.989L 954.444 375.77L 954 376ZM 759.307 791.605L 0.306538 202.605L -0.306538 203.395L 758.693 792.395L 759.307 791.605ZM 0.129188 203.483L 759.129 0.483022L 758.871 -0.483022L -0.129188 202.517L 0.129188 203.483ZM 758.556 0.230193L 953.556 376.23L 954.444 375.77L 759.444 -0.230193L 758.556 0.230193ZM 953.547 375.788L 758.547 791.788L 759.453 792.212L 954.453 376.212L 953.547 375.788Z"/>
</defs>
</svg>
