<svg width="900" height="718" viewBox="0 0 900 718" version="1.1" xmlns="http://www.w3.org/2000/svg" xmlns:xlink="http://www.w3.org/1999/xlink">
<title>Vector 5</title>
<desc>Created using Figma</desc>
<g id="Canvas" transform="translate(431 400)">
<g id="Vector 5">
<use xlink:href="#path0_stroke" transform="translate(-429.603 -399.127)"/>
</g>
</g>
<defs>
<path id="path0_stroke" d="M 511.603 716.127L 511.201 716.425L 511.39 716.68L 511.701 716.618L 511.603 716.127ZM 11.603 515.127L 11.1053 515.175L 11.1632 515.775L 11.7417 515.608L 11.603 515.127ZM 60.603 99.127L 60.4386 98.6547L 60.2936 98.7052L 60.2019 98.8284L 60.603 99.127ZM 803.603 23.127L 804.053 23.3447L 804.363 22.7038L 803.655 22.6297L 803.603 23.127ZM 896.603 262.127L 897.103 262.105L 897.089 261.798L 896.809 261.671L 896.603 262.127ZM 512.005 715.83C 442.788 622.411 387.366 551.936 314.372 514.923C 241.341 477.891 150.81 474.391 11.4642 514.647L 11.7417 515.608C 150.973 475.385 241.211 478.946 313.92 515.815C 386.667 552.702 441.956 622.967 511.201 716.425L 512.005 715.83ZM 12.1006 515.079C -10.3153 283.305 -3.41242 185.975 61.0041 99.4255L 60.2019 98.8284C -4.47212 185.724 -11.3075 283.435 11.1053 515.175L 12.1006 515.079ZM 60.7673 99.5992C 151.309 68.0754 189.383 33.6302 278.572 14.8143C 367.802 -4.02796 508.258 -7.29621 803.551 23.6243L 803.655 22.6297C 508.355 -8.29157 367.762 -5.04152 278.365 13.8358C 188.928 32.7394 150.799 67.2151 60.4386 98.6547L 60.7673 99.5992ZM 803.153 22.9092C 764.349 103.111 759.917 150.624 779.216 184.337C 788.847 201.146 804.391 214.515 824.374 226.749C 844.351 238.976 868.826 250.13 896.397 262.583L 896.809 261.671C 869.239 249.22 844.82 238.093 824.896 225.896C 804.98 213.707 789.618 200.509 780.084 183.84C 761.055 150.598 765.264 103.515 804.053 23.3447L 803.153 22.9092ZM 896.104 262.149C 903.361 425.861 877.833 525.052 815.275 590.396C 752.694 655.765 652.965 687.368 511.505 715.637L 511.701 716.618C 653.145 688.352 753.175 656.709 815.998 591.087C 878.844 525.441 904.364 425.899 897.103 262.105L 896.104 262.149Z"/>
</defs>
</svg>
